<?xml version="1.0" encoding="utf-8"?>
<!-- Generator: Adobe Illustrator 25.2.1, SVG Export Plug-In . SVG Version: 6.00 Build 0)  -->
<svg version="1.1" id="FR_OK" xmlns="http://www.w3.org/2000/svg" xmlns:xlink="http://www.w3.org/1999/xlink" x="0px" y="0px"
	 viewBox="0 0 5818.4 2275.9" style="enable-background:new 0 0 5818.4 2275.9;" xml:space="preserve">
<style type="text/css">
	.st0{fill:#FFFFFF;}
</style>
<g>
	<g>
		<path class="st0" d="M1121.4,1822.6c-106.3,0-152.5-59.5-152.5-124.1v-184.1l-35.6-31v-2.5h154.6v2.5l-41.2,31v180
			c0,46.8,25.9,84.9,92.5,84.9c54.9,0,86.4-40.2,86.4-84.9v-180l-40.7-31v-2.5h111.9v2.5l-35.6,31v182
			C1261.2,1746.8,1224.6,1822.6,1121.4,1822.6z"/>
		<path class="st0" d="M1465.8,1817.5h-154.6v-3.1l36.1-30.5v-269.5l-36.1-31v-2.5h143.9c66.6,0,114.9,21.9,114.9,72.7
			c0,32.5-31.5,61-59.5,70.2c51.4,8.1,90,38.1,90,86.9C1600.5,1775.3,1547.2,1817.5,1465.8,1817.5z M1424.1,1622.8h37.1
			c16.3,0,38.1-24.9,38.1-60c0-38.6-23.9-55.4-56.4-55.4h-18.8L1424.1,1622.8L1424.1,1622.8z M1424.1,1782.9
			c7.6,3.6,19.3,7.6,37.6,7.6c30.5,0,60-28,60-73.2c0-48.8-33.6-69.7-76.8-69.7h-20.8L1424.1,1782.9L1424.1,1782.9z"/>
		<path class="st0" d="M1606.1,1814.5l36.1-30.5v-269.5l-36.1-31v-2.5h239.5v75.2h-3.1l-41.7-46.3h-82.4v116.9h85.9l30-36.6h3.1
			v101.2h-3.1l-30-36.6h-85.9V1788h92l42.7-59h3.6v88.5H1606L1606.1,1814.5L1606.1,1814.5z"/>
	</g>
	<g>
		<g>
			<path class="st0" d="M591.1,1679.4v49.8H461.9v-1.5l17.2-14.6v-128.7l-17.2-14.8v-1.2h70.9v1.2l-17.2,14.8v130.7h45.7l28.2-35.7
				L591.1,1679.4L591.1,1679.4z"/>
			<path class="st0" d="M596.2,1624.7l-3.4-1c6.3-9.5,14.1-24.8,15.3-34.5h-1.5c-9.5,0.7-16.5-4.4-16.5-13.8
				c0-8.5,6.8-14.8,16.5-14.8c10.4,0,19.7,7,19.7,20.9C626.3,1600.9,612.7,1616.2,596.2,1624.7z"/>
		</g>
	</g>
	<g>
		<g>
			<path class="st0" d="M2390.1,1818l36.1-30.5V1518l-36.1-31v-2.5H2534c69.1,0,123,20.3,123,77.3c0,38.1-31,66.1-56.9,79.8
				l54.4,95.1c29.5,50.8,53.9,70.7,68.6,81.3v3.1c-6.1,1.5-21.4,3.6-39.1,3.6c-59.5,0-78.8-20.8-97.6-56.9l-56.9-107.8h-26.9v127.6
				l39.1,30.5l0.5,3.1h-152v-3.2H2390.1z M2502.5,1634h47.3c15.8,0,35.6-25.9,35.6-60c0-45.3-29.5-62-59-62h-23.9L2502.5,1634
				L2502.5,1634z"/>
			<path class="st0" d="M2839.8,1821.1h-104.2v-3.1l31-30.5l121-306.6h17.3l131.2,306.6l30.5,30.5v3.1h-146.9v-3.1l35.6-30.5
				l-31-72.7h-94.6l-26.9,70.2l37.1,33v3.1H2839.8z M2912.5,1686.8l-37.6-88.5l-34.1,88.5H2912.5z"/>
			<path class="st0" d="M3241.8,1826.2c-107.8,0-189.6-69.7-189.6-171.3c0-96.1,76.8-175.9,194.7-175.9c48.3,0,95.1,9.2,108.3,13.2
				v78.8h-3.6c-29-30-73.7-62-114.4-62c-49.3,0-101.2,49.3-101.2,136.3c0,92,56.9,151,114.9,151c19.8,0,36.6-5.6,44.7-11.2v-105.2
				l-40.7-30.5v-3h142.9v3l-28.5,30.5v121.5C3338.9,1807.8,3307.4,1826.2,3241.8,1826.2z"/>
			<path class="st0" d="M3781,1487l-36.1,32v302h-32.5l-229.3-252.7v218.1l49.8,31.5v3.1h-122.5v-3.1l36.6-31.5v-257.3
				c-16.3-17.3-39.7-39.7-40.7-42.2v-2.5h105.8l196.8,219.1v-184.6l-46.8-32v-2.5h119v2.6H3781z"/>
			<path class="st0" d="M3884.7,1821.1h-104.2v-3.1l31-30.5l121-306.6h17.3l131.2,306.6l30.5,30.5v3.1h-146.9v-3.1l35.6-30.5
				l-31-72.7h-94.6l-26.9,70.2l37.1,33v3.1H3884.7z M3957.4,1686.8l-37.6-88.5l-34.1,88.5H3957.4z"/>
			<path class="st0" d="M4131.9,1818l36.1-30.5V1518l-36.1-31v-2.5h143.9c69.1,0,123,20.3,123,77.3c0,38.1-31,66.1-56.9,79.8
				l54.4,95.1c29.5,50.8,53.9,70.7,68.6,81.3v3.1c-6.1,1.5-21.4,3.6-39.1,3.6c-59.5,0-78.8-20.8-97.6-56.9l-56.9-107.8h-26.9v127.6
				l39.2,30.5l0.5,3.1h-152v-3.2H4131.9z M4244.3,1634h47.3c15.8,0,35.6-25.9,35.6-60c0-45.3-29.5-62-59-62h-23.9V1634z"/>
			<path class="st0" d="M4630,1478.4c97.6,0,179,65.6,179,168.8c0,107.8-85.9,180-175.9,180c-95.1,0-180-65.1-180-169.8
				S4536.5,1478.4,4630,1478.4z M4632.1,1796.2c46.8,0,93.6-54.9,93.6-142.9c0-90-50.8-144.9-95.6-144.9c-46.3,0-93,56.4-93,144.9
				C4537,1741.2,4585.8,1796.2,4632.1,1796.2z M4544.6,1432.1c0-18.8,14.7-33,33.6-33c17.8,0,33,14.2,33,33s-15.3,32.5-33,32.5
				C4559.4,1464.7,4544.6,1450.9,4544.6,1432.1z M4684.4,1464.7c-18.3,0-33-13.7-33-32.5s14.7-33,33-33s33,14.2,33,33
				S4702.7,1464.7,4684.4,1464.7z"/>
		</g>
	</g>
	<g>
		<path class="st0" d="M690.9,1909.6H532.7v-4.6l47.1-46.3l183.7-465.4h26.2l199.1,465.4l46.3,46.3v4.6h-223v-4.6l54-46.3
			L819,1748.3H675.5l-40.9,106.5l56.3,50.2L690.9,1909.6L690.9,1909.6z M801.3,1705.9l-57.1-134.3l-51.7,134.3H801.3z"/>
	</g>
	<g>
		<path class="st0" d="M4806.6,1905l54.8-46.3v-409.1l-54.8-47.1v-3.9h226.2v3.9l-54.8,47.1v409.1l54.8,46.3v4.6h-226.2V1905z
			 M5103,1909.6v-4.6l54-46.3l-141.3-199.1h-26.2l181.4-209.9l-54-47.1v-3.9h186.8v3.9l-68.7,46.3l-129.7,143.6l184.5,266.3
			l52.5,46.3v4.6H5103V1909.6z"/>
	</g>
	<g>
		<path class="st0" d="M2128.3,1645.1c0,47.1-32.1,84.1-83.3,84.1h-85v-1.5l16.8-14.6v-128.5l-16.8-15.1v-1.2h77
			C2086,1568.4,2128.3,1594.8,2128.3,1645.1z M2013.6,1711.2c3.9,1.9,12.4,4.9,26,4.9c28.4,0,49.1-32.1,49.1-68.3
			c0-43.7-27.7-65.8-61.5-65.8h-13.6V1711.2z"/>
		<path class="st0" d="M2229.6,1731.6c-50.8,0-72.9-28.4-72.9-59.3v-87.9l-17-14.8v-1.2h73.8v1.2l-19.7,14.8v86
			c0,22.3,12.4,40.6,44.2,40.6c26.2,0,41.3-19.2,41.3-40.6v-86l-19.4-14.8v-1.2h53.4v1.2l-17,14.8v87
			C2296.4,1695.4,2278.9,1731.6,2229.6,1731.6z"/>
	</g>
</g>
<path class="st0" d="M3954.5,1165.6"/>
<g>
	<polygon class="st0" points="1739.9,904.4 1739.9,907.2 2436,907.2 2436,904.4 	"/>
	<polygon class="st0" points="4077.1,904.4 3381,904.4 3381,907.2 4077.1,907.2 	"/>
	<path class="st0" d="M3297.1,832.7c-4.2,0-7.3,2.9-7.3,7c0,3.9,3.1,6.8,7.3,6.8s7.3-3,7.3-6.8
		C3304.3,835.6,3301.3,832.7,3297.1,832.7z M3297.1,845.4c-3.5,0-6-2.4-6-5.8c0-3.4,2.5-5.7,6-5.7c3.4,0,5.9,2.3,5.9,5.7
		C3303,842.9,3300.4,845.4,3297.1,845.4z"/>
	<path class="st0" d="M3299.9,841.6l-1.4-1.6c1.2-0.9,1.4-1.6,1.4-2.4c0-1.9-2-2.1-3.4-2.1c-0.6,0-0.9,0-1.6,0c-0.2,0-0.9,0-1,0
		h-0.4c-0.3,0-0.4,0-0.4,0.2c0,0.1,0.2,0.2,0.2,0.2c0.6,0,0.9,0.1,0.9,0.5s0.1,0.9,0.1,2.2v1.7c0,1.3-0.1,1.8-0.1,2.2
		c-0.1,0.5-0.1,0.5-0.8,0.5c-0.2,0-0.4,0.1-0.4,0.2c0,0.1,0.2,0.1,0.4,0.1h0.3c0.2,0,1-0.1,1.2-0.1c0.4,0,1.1,0.1,1.3,0.1h0.3
		c0.2,0,0.4-0.1,0.4-0.3c0-0.1-0.1-0.1-0.3-0.1s-0.6-0.1-0.8-0.2c-0.1-0.1-0.2-0.2-0.2-1.7v-0.7h1.4l1.1,1.5
		c1.2,1.6,1.8,1.5,2.8,1.5c0.5,0,0.5-0.1,0.5-0.3c0-0.1-0.1-0.1-0.2-0.1C3301.3,842.9,3300.9,842.9,3299.9,841.6z M3297.8,839.4
		c-0.2,0.2-0.6,0.3-0.8,0.3c-0.5,0-1-0.1-1.2-0.3v-3.2c0.2-0.1,0.7-0.1,0.7-0.1c1.3,0,2,0.8,2,1.9
		C3298.5,838.8,3298.2,839.2,3297.8,839.4z"/>
	<path class="st0" d="M2647.4,943c-5,6.4-20.3,26-44.5,26c-29.3,0-51.4-28.3-51.4-65.9c0-35.3,20.7-61.9,48.1-61.9
		c22.5,0,39,17.1,45,24.4l0.6,0.8h4.4v-31.3l-0.1-1.7l-1.6-0.4c-7.7-1.9-25.8-6.3-45.1-6.3c-49,0-84.5,33.2-84.5,78.9
		s34.5,77.6,83.9,77.6c23.9,0,42.2-6.2,49.3-9.8l1.1-0.6v-30.7h-4.4L2647.4,943z"/>
	<path class="st0" d="M2800.6,942.4l-24.1-41.4c7.9-4.3,25.3-16.3,25.3-37.1c0-21.7-19.1-34.6-51.1-34.6h-60.9v4.4l15.2,12v118.8
		l-15.2,12v4.4h62.7v-4.5l-16.9-12v-55.9h12.3L2774,956c11.4,20,21.4,26.4,41,26.4c6,0,12.6-0.9,14.8-1.7l1.3-0.5v-3.9l-1-0.6
		C2819,968.7,2809.1,957.5,2800.6,942.4z M2772.2,869.4c0,13.6-8.7,26-18.2,26h-18.4v-52.7h10.2
		C2753.7,842.7,2772.2,845.3,2772.2,869.4z"/>
	<polygon class="st0" points="2943,966.8 2900.2,966.8 2900.2,907.8 2940.2,907.8 2951.7,923.2 2955.9,923.2 2955.9,878.3 
		2951.7,878.3 2940.1,893.9 2900.2,893.9 2900.2,843.2 2938.7,843.2 2955.2,862.8 2959.5,862.8 2959.5,829.2 2854.4,829.2 
		2854.4,833.6 2869.6,845.7 2869.6,964.5 2854.4,976.5 2854.4,980.9 2964.6,980.9 2964.6,942.2 2960.2,942.2 	"/>
	<polygon class="st0" points="3089.6,966.8 3046.9,966.8 3046.9,907.8 3086.8,907.8 3098.4,923.2 3102.6,923.2 3102.6,878.3 
		3098.4,878.3 3086.8,893.9 3046.9,893.9 3046.9,843.2 3085.3,843.2 3101.8,862.8 3106.2,862.8 3106.2,829.2 3001.1,829.2 
		3001.1,833.6 3016.2,845.7 3016.2,964.5 3001.1,976.5 3001.1,980.9 3111.3,980.9 3111.3,942.2 3106.8,942.2 	"/>
	<path class="st0" d="M3210,829.2h-66.9v4.4l15.2,12v118.8l-15.2,12v4.4h73.4c46.5,0,78.9-32.1,78.9-78.1
		C3295.4,852,3252.5,829.2,3210,829.2z M3188.8,843.1c6.3-0.2,12.5-0.2,16.4-0.2c34.2,0,57.2,24.6,57.2,61.2c0,36.5-20.5,63-48.7,63
		c-12.9,0-21.1-2.5-24.9-4V843.1z"/>
	<path class="st0" d="M3496.5,586.7c5.9-18.2,18.2-26.9,18.2-26.9l-5.6-7.4c0,0,0.6-12.8,1.4-13.4c-4.8,2.9-29,28-17,81.2
		C3491.4,611,3493,597.3,3496.5,586.7z"/>
	<path class="st0" d="M2436.5,666.4c-22.4-16.3-33.7-24.5-33.7-42.3c0-12.8,9.5-21.7,23.1-21.7c16.8,0,29.2,13.5,39.1,26.7l0.6,0.8
		h4.9v-38.7l-1.4-0.5c-4-1.3-18.8-5.4-39.9-5.4c-37,0-60.9,19.5-60.9,49.8c0,26.5,17.3,43.7,45.1,62.9
		c23.3,15.6,33.6,25.8,33.6,44.9c0,16.5-11.8,28.4-28.1,28.4c-27.3,0-40.1-26.2-49.9-50.8l-0.5-1.3h-5.7l-0.1,2
		c-0.9,17.5,0.8,44.3,2.4,55.2l0.2,1.1l0.9,0.5c8.4,4.4,26.5,11.7,52.8,11.7c38.3,0,65-23.6,65-57.4
		C2484,703.1,2464.3,686.5,2436.5,666.4z"/>
	<path class="st0" d="M2631.8,732.2c0-29.1-19.7-45.6-47.4-65.8c-22.4-16.3-33.7-24.5-33.7-42.3c0-12.8,9.5-21.7,23.1-21.7
		c16.8,0,29.2,13.5,39.1,26.7l0.6,0.8h4.9v-38.7l-1.4-0.5c-4-1.3-18.8-5.4-39.9-5.4c-37,0-60.9,19.5-60.9,49.8
		c0,26.5,17.3,43.7,45.1,62.9c23.3,15.6,33.6,25.8,33.6,44.9c0,16.5-11.8,28.4-28.1,28.4c-27.3,0-40.1-26.2-49.9-50.8l-0.5-1.3h-5.7
		l-0.1,2c-0.9,17.5,0.8,44.3,2.4,55.2l0.2,1.1l0.9,0.5c8.4,4.4,26.5,11.7,52.8,11.7C2605.1,789.6,2631.8,766,2631.8,732.2z"/>
	<path class="st0" d="M2925.6,666.4c-22.4-16.3-33.7-24.5-33.7-42.3c0-12.8,9.5-21.7,23.1-21.7c16.8,0,29.2,13.5,39.1,26.7l0.6,0.8
		h4.9v-38.7l-1.4-0.5c-4-1.3-18.8-5.4-39.9-5.4c-37,0-60.9,19.5-60.9,49.8c0,26.5,17.3,43.7,45.1,62.9
		c23.3,15.6,33.6,25.8,33.6,44.9c0,16.5-11.8,28.4-28.1,28.4c-27.3,0-40.1-26.2-49.9-50.8l-0.5-1.3h-5.7l-0.1,2
		c-0.9,17.5,0.8,44.3,2.4,55.2l0.2,1.1l0.9,0.5c8.4,4.4,26.5,11.7,52.8,11.7c38.3,0,65-23.6,65-57.4
		C2973,703.1,2953.4,686.5,2925.6,666.4z"/>
	<path class="st0" d="M3073.5,666.4c-22.4-16.3-33.7-24.5-33.7-42.3c0-12.8,9.5-21.7,23.1-21.7c16.8,0,29.2,13.5,39.1,26.7l0.6,0.8
		h4.9v-38.7l-1.4-0.5c-4-1.3-18.8-5.4-39.9-5.4c-37,0-60.9,19.5-60.9,49.8c0,26.5,17.3,43.7,45.1,62.9
		c23.3,15.6,33.6,25.8,33.6,44.9c0,16.5-11.8,28.4-28.1,28.4c-27.3,0-40.1-26.2-49.9-50.8l-0.5-1.3h-5.7l-0.1,2
		c-0.9,17.5,0.8,44.3,2.4,55.2l0.2,1.1l0.9,0.5c8.4,4.4,26.5,11.7,52.8,11.7c38.3,0,65-23.6,65-57.4
		C3120.9,703.1,3101.3,686.5,3073.5,666.4z"/>
	<polygon class="st0" points="3224.6,781.9 3204.7,766 3204.7,609.3 3224.6,593.5 3224.6,588.7 3145.8,588.7 3145.8,593.5 
		3165.7,609.3 3165.7,766 3145.8,781.9 3145.8,786.7 3224.6,786.7 	"/>
	<path class="st0" d="M3289.3,638.6l132.6,148.1h16.8V610.2l21.4-16.7v-4.8h-65.9v4.9l24.3,16.7v115.6l-120.9-136.5l-0.6-0.7h-51
		v4.8l0.8,0.6c2.6,2,13.5,12.6,22.1,22v149l-21.1,16.7v4.8h66.8v-4.9l-25.2-16.7V638.6H3289.3z"/>
	<path class="st0" d="M2172.8,775h110.8l21.3,50.9l9.6,21.3l2,3.7h70.4V845l-32.2-17.2l-116.5-277.6l-0.5-1.3h-7.6L2123,826.4
		l-37.3,18.4v6h59.3L2172.8,775z M2181,752.5l43.4-118.5l49.7,118.5H2181z"/>
	<path class="st0" d="M3581.2,711.3c37,24.4,54.6,41.5,54.6,73.2c0,28.4-21.2,49-50.4,49c-36.8,0-61.2-24.1-74.7-73.8l-0.4-1.5h-6.6
		l-0.1,1.9c-1.3,23.4,1.3,57.2,3.5,72.7l0.1,1l0.9,0.5c15,8.6,40.6,18.8,77.2,18.8c53.1,0,90.2-34,90.2-82.7
		c0-44-32.2-67.5-69.6-94.6l0,0c-33.4-23.3-55.5-38.7-55.5-69.7c0-23.5,17.4-39.4,43.3-39.4c29.8,0,45.7,19.8,55.1,34.7l0.6,1h5.4
		v-44.9l-1.4-0.5c-16.1-5.9-35.3-8.9-57.1-8.9c-51,0-84,27.8-84,70.8C3512.4,657.4,3536.6,681.1,3581.2,711.3z"/>
	<path class="st0" d="M2741.3,585.4h-8.9l-70.6,180.4l-17.3,16.1v4.7h58v-4.8l-20.4-16.1l19.7-51.1h53.7l21.7,51.8l-19.8,15.5v4.8
		h77.6V782l-17.3-16.1L2741.3,585.4z M2748.5,697.9h-40.4l19.3-49.8L2748.5,697.9z"/>
</g>
<g>
	<path class="st0" d="M2423.5,471.2h-20v-0.6l6-5.9l23.3-58.9h3.3l25.2,58.9l5.9,5.9v0.6h-28.3v-0.6l6.8-5.9l-6-14h-18.2l-5.2,13.5
		l7.1,6.4L2423.5,471.2L2423.5,471.2z M2437.4,445.4l-7.2-17l-6.5,17H2437.4z"/>
	<path class="st0" d="M2528.7,472.1c-20.4,0-29.3-11.4-29.3-23.9v-35.4l-6.8-6v-0.5h29.7v0.5l-7.9,6v34.6c0,9,5,16.3,17.8,16.3
		c10.6,0,16.6-7.7,16.6-16.3v-34.6l-7.8-6v-0.5h21.5v0.5l-6.8,6v35C2555.6,457.6,2548.6,472.1,2528.7,472.1z"/>
	<path class="st0" d="M2598.5,471.2h-29.7v-0.6l6.9-5.9v-51.8l-6.9-6v-0.5h27.7c12.8,0,22.1,4.2,22.1,14c0,6.3-6.1,11.7-11.4,13.5
		c9.9,1.6,17.3,7.3,17.3,16.7C2624.4,463,2614.2,471.2,2598.5,471.2z M2590.5,433.7h7.1c3.1,0,7.3-4.8,7.3-11.5
		c0-7.4-4.6-10.7-10.9-10.7h-3.6L2590.5,433.7L2590.5,433.7z M2590.5,464.5c1.5,0.7,3.7,1.5,7.2,1.5c5.9,0,11.5-5.4,11.5-14.1
		c0-9.4-6.5-13.4-14.8-13.4h-4v26H2590.5z"/>
	<path class="st0" d="M2630.9,470.6l6.9-5.9v-51.8l-6.9-5.9v-0.6h28.5v0.6l-6.8,5.9v51.8l6.8,5.9v0.6h-28.5V470.6z"/>
	<path class="st0" d="M2704.5,407v14.5h-0.7c-5.8-7-10.2-10.7-14.8-10.7c-3.2,0-6.5,2.4-6.5,6.5c0,5.5,3,7.8,10.5,13.4
		c9.9,7.5,15.8,12.7,15.8,22.4c0,10.8-8.9,19.1-22.7,19.1c-8.6,0-14.7-2.2-17.7-3.6c-0.5-3.2-1.1-13.9-0.8-20.7h0.9
		c4.4,10.2,10.1,18.3,17.5,18.3c4.7,0,8.5-3.6,8.5-9c0-5.9-3-8.7-10.7-14.3c-9.9-7.3-14.5-13-14.5-20.8c0-10.8,9.1-16.6,21.2-16.6
		C2697.7,405.4,2703,406.5,2704.5,407z"/>
	<path class="st0" d="M2752.4,405.3c18.8,0,34.4,12.6,34.4,32.5c0,20.7-16.5,34.6-33.8,34.6c-18.3,0-34.6-12.5-34.6-32.6
		C2718.4,419.5,2734.4,405.3,2752.4,405.3z M2752.8,466.4c9,0,18-10.6,18-27.5c0-17.3-9.8-27.9-18.4-27.9
		c-8.9,0-17.9,10.9-17.9,27.9C2734.5,455.8,2743.9,466.4,2752.8,466.4z"/>
	<path class="st0" d="M2838.7,427.5v19.8h-0.6l-5.8-7.1h-16.5v24.4l9.3,6v0.6h-30.9v-0.6l6.9-5.9v-51.8l-6.9-6v-0.5h46v14.9h-0.6
		l-8.2-9.3h-15.6v22.7h16.5l5.8-7.2H2838.7z"/>
	<path class="st0" d="M2909,422.5h-0.7l-9.5-10.5h-12.5v52.6l7.9,6v0.6h-30.9v-0.6l8-6V412h-12.6l-9.4,10.5h-0.6v-16h60.2v16H2909z"
		/>
	<path class="st0" d="M2972,405.3c18.8,0,34.4,12.6,34.4,32.5c0,20.7-16.5,34.6-33.8,34.6c-18.3,0-34.6-12.5-34.6-32.6
		C2938,419.5,2954,405.3,2972,405.3z M2972.4,466.4c9,0,18-10.6,18-27.5c0-17.3-9.8-27.9-18.4-27.9c-8.9,0-17.9,10.9-17.9,27.9
		C2954.1,455.8,2963.5,466.4,2972.4,466.4z"/>
	<path class="st0" d="M3013.9,470.6l6.9-5.9v-51.8l-6.9-6v-0.5h27.7c13.3,0,23.7,3.9,23.7,14.9c0,7.3-6,12.7-10.9,15.3l10.5,18.3
		c5.7,9.8,10.4,13.6,13.2,15.6v0.6c-1.2,0.3-4.1,0.7-7.5,0.7c-11.4,0-15.2-4-18.8-10.9l-10.9-20.7h-5.2v24.5l7.5,5.9l0.1,0.6h-29.2
		v-0.6H3013.9z M3035.5,435.2h9.1c3,0,6.8-5,6.8-11.5c0-8.7-5.7-11.9-11.3-11.9h-4.6V435.2z"/>
	<path class="st0" d="M3081,470.6l6.9-5.9v-51.8l-6.9-5.9v-0.6h28.5v0.6l-6.8,5.9v51.8l6.8,5.9v0.6H3081V470.6z"/>
	<path class="st0" d="M3153.1,472.1c-20.7,0-36.5-13.4-36.5-32.9c0-18.5,14.8-33.8,37.4-33.8c9.3,0,18.3,1.8,20.8,2.5v15.2h-0.7
		c-5.6-5.8-14.2-11.9-22-11.9c-9.5,0-19.5,9.5-19.5,26.2c0,17.7,10.9,29,22.1,29c3.8,0,7-1.1,8.6-2.2V444l-7.8-5.9v-0.6h27.5v0.6
		l-5.5,5.9v23.4C3171.7,468.6,3165.7,472.1,3153.1,472.1z"/>
	<path class="st0" d="M3188.8,470.6l6.9-5.9v-51.8l-6.9-5.9v-0.6h28.5v0.6l-6.8,5.9v51.8l6.8,5.9v0.6h-28.5V470.6z"/>
	<path class="st0" d="M3295.7,406.9l-6.9,6.2v58.1h-6.3l-44.1-48.6v41.9l9.6,6.1v0.6h-23.6v-0.6l7-6.1V415c-3.1-3.3-7.6-7.6-7.8-8.1
		v-0.5h20.3l37.8,42.1V413l-9-6.2v-0.5h22.9v0.6H3295.7z"/>
	<path class="st0" d="M3317.5,471.2h-20v-0.6l6-5.9l23.3-58.9h3.3l25.2,58.9l5.9,5.9v0.6h-28.3v-0.6l6.8-5.9l-6-14h-18.2l-5.2,13.5
		l7.1,6.4L3317.5,471.2L3317.5,471.2z M3331.5,445.4l-7.2-17l-6.6,17H3331.5z"/>
	<path class="st0" d="M3417.8,451.1v20h-52v-0.6l6.9-5.9v-51.8l-6.9-6v-0.5h28.5v0.5l-6.9,6v52.6h18.4l11.3-14.4L3417.8,451.1
		L3417.8,451.1z"/>
</g>
<g>
	<path class="st0" d="M3159.5,1257.1c0.9,1.4-0.3,2.2-0.9,3.2c-0.5,0.8,0.2,1.3,0.7,1.7c0.5,0.4,0.9,0.1,1-0.2
		c0.6-1.1,1.2-2.3,1.8-3.4l-0.9-2.2C3161.1,1256.8,3160.7,1257.3,3159.5,1257.1z"/>
	<path class="st0" d="M3164.8,1300c0-0.3-0.1-0.7-0.2-1c-0.4,0.3-0.3,0.7-0.3,1.2c0,0.4,0,0.9-0.1,1.2c-0.1,0.2-0.4,0.4-0.6,0.6
		c-0.1-0.2-0.3-0.4-0.4-0.7c-0.1-1.7,0-3.3-0.1-5c-0.3-0.2-0.5-0.4-0.6-0.7c-0.1-0.5,0.1-0.9,0.5-1.1c-0.1-0.7-0.1-1.4-0.2-2
		c-0.3-1.7,1.7-3,3.3-3.9c1-0.5,0.9-2.9-0.1-3.5c-0.7-0.5-0.7,0.3-0.8,0.5c-0.6,1.3-0.6,3-2.3,3.6c-0.4-1.5,0.9-2.6,0.7-4
		c-0.2-1.1,0.5-2.3-1-3.4c-1.2-0.8-0.9-1.2,1-2.6c0.2-0.2,0.5-0.3,0.6-0.6c0.7-1.6,0.9-3.4,0.5-5c-0.4-1.4,0.7-3.6-1.8-4.2
		c-0.5-0.1-0.8-1.1-1.3-1.6c-1-1-1.5-1.7,0.2-2.5c0.5-0.2,0.9-0.9,0.7-1.4c-0.4-0.8-0.9,0.1-1.4,0.1c-1.7-0.1-3-1.4-4.6-1.8
		c-0.1,0-0.3-0.1-0.3-0.2c-0.3-1.7,1.9-2.7,1.1-4.6c-0.2-0.5,1.2-0.7,2.1-0.6c0.4-1.4,0.5-2.7,0.4-4.1l-12-28.1l-3.9-12.1l-8-15.7
		l-34-79.5l-1.8-5.3l-1.5-2.5v-0.1c-0.2,0.5-0.6,1-1.4,0.9c-0.6-0.1-1.1-0.6-0.9-1.1c0.2-0.7,0.8-1.3,1.5-1.5l-10-23.4l-1.5-6.6
		l-7,1h-5.2l-1.4,3.6c0.1,0.3,0.1,0.6,0.1,0.9c0,0.1-0.3,0.2-0.5,0.3l-2.2,5.6c0.2-0.1,0.4-0.2,0.7-0.1c1,0.2,1.1-1.2,1.2-1.2
		c1.3,0.2,1,1.6,1.6,2.4c0.4,0.5,0.6,1.1,0.1,1.5c-0.1,0.1-0.8-0.2-1.2-0.3c-0.6,0-1.1,0.1-1.7,0c-0.6-0.1-1.2-0.4-1.4-1l-2.4,5
		l-2.6,7.9l-3.8,9.7c0.1,0,0.4,0.2,0.5,0.3c1.3,1.4,0.7,2.8,0.1,4.3c-0.5,1-0.8,2.1-1.1,3.2c-0.2,0.7,0.1,2-1.1,1.8
		c-0.8-0.1-0.6-1.1-0.7-1.8c0-0.5-0.1-1-0.1-1.4l-4.3,11c0.5,0.4,0.7,1,0.7,1.6c-0.2,0.6-0.4,1-0.9,0.6c-0.2-0.1-0.3-0.3-0.5-0.4
		l-7.2,18.3c0.1,0.1,0.2,0.3,0.2,0.6c0,0.7-0.4,1-0.9,1.2l-0.7,1.7l-16.8,42.4l-13.5,33.5l-1.4,4.4l-7.8,19.8l-5,9l-4.9,15.9
		l-0.5,1.4l-3.1,3l-7.3,6.8l-2.1,2.4l-7.9,7.8v2h0.3l-0.4,1.3l17.3-0.2l5.2-0.8l0,0c0.5-0.5,1.4-0.7,2.2-1c0.1,0,0.5,0.4,0.5,0.5
		s-0.1,0.2-0.1,0.3h36.5l2.1,0.2c-0.3-0.2-0.3-0.9-0.3-1.5s-0.6-1.5,0.4-1.7c0.6-0.1,1.1,0.8,1.1,1.5c0.7,0,1.4-0.1,2.1-0.1
		c1.1,0.1,1.2,0.5,0.6,1.5c-0.1,0.2-0.2,0.4-0.1,0.6l1.4,0.1l0.4-3l-6.2-4.7l-18.6-16.6l2.2-5.7l2.7-5.1c-0.6-0.4-1.1-0.8-1.7-1.2
		c1-0.4,1.9-0.9,2.9-1.1l1-1.9l4.5-10.6c-0.7,0.2-1.6,0.7-1.9-0.5c-0.3-1,0.9-1.3,1.5-1.8c0.5-0.4,1.1-0.6,1.6-0.7l0.7-1.7l0.5-2.7
		c-0.2,0.1-0.5,0.2-0.7,0.2c-1.1-0.4-1.4-1.2-1.2-2.3c0.1-0.4,0.1-1.4,0.9-0.7c0.4,0.4,1,0.5,1.5,0.8l1-5.3l2.3-6h25
		c-0.6-0.8,0.6-0.9,0.7-1.3c0.5-1.4,0.8-2.9,2.7-3.1c0.1,0,0.3-0.5,0.4-0.7c0.1-1.2-0.8-1.3-1.6-1.6c-0.6-0.2-1.9-0.4-1.3-1.1
		c1.6-2.2-0.5-2.7-1.3-3.8c-1.5-1.9,0.3-3.9-0.1-5.9c0-0.1,0.4-0.3,0.7-0.3c0.2,0,0.5,0.2,0.6,0.4c0.1,0.1,0.1,0.3,0.1,0.4
		c0.9,1.4,0,3.3,1.6,4.6c1.6,1.2,1.9,3.5,2.4,5.2s0.9,3.5,1.8,5.1c0.2,0.4,0.5,0.8,0,1.1c-0.7,0.5-0.9-0.2-1.2-0.6
		c-0.3-0.5-0.6-1-1-1.3c-1.1-0.7-2-0.6-2,0.9c0,0.7,0.4,1.4-0.2,1.9c-0.1,0.1-0.2,0.1-0.2,0.2h8.1c0.2-0.3,0.4-0.6,0.9-0.7
		s0.8,0.2,0.8,0.7v0.1l9.8,1.2l15.3-0.9l5.7,16.2l7.1,12.8l5.8,13.6l1.9,4.9l-1,1l-15.6,13.4l-7.8,4.6l1.1,2.4v0.7h21.7
		c0.2-0.1,0.4-0.1,0.5-0.2c0,0.1,0.1,0.2,0.1,0.2h11.3c0-0.4,0.1-0.8,0.1-1.1c0.1-0.9,1.1-0.9,1.6-0.8c0.9,0.2,0.2,0.7,0,1.1
		c-0.1,0.2-0.2,0.5-0.2,0.8h10.5c0-0.4,0-0.9-0.1-1.3c-0.3-1.3,0.6-2,1.5-2.6c0-0.1,0-0.1,0-0.2h0.1c-0.4-0.7,0.2-2-1.3-2.2
		c-0.6-0.1-1.5,1.7-1.6-0.1c-0.1-1.1,0.6-2.4,1.6-3.2c0.1-0.1,0.5,0.2,0.6,0.4c1,1.2,1.8,2.5,2.2,3.9c0.2,1-0.7,1.3-1.6,1.1v0.1
		c0,0-0.1,0-0.1,0.1c0.1,0.6,0.1,1.2,1,1.4c2.4,0.7,2.4,0.8,0.5,2.5l0,0h21.3C3164.9,1301.6,3164.8,1300.8,3164.8,1300z
		 M2995.5,1300.7c-0.4,1-1.2,1.7-2.3,1.4c-1.2-0.4-2.6-0.8-3-2.5c-0.1-0.6-0.9-1.2-0.2-1.8c0.8-0.6,1.3,0,1.7,0.6
		c0.7,1.1,2.1,0.4,3,1.1C2995.2,1299.7,2995.7,1300,2995.5,1300.7z M2998.8,1298.2c-0.2,0.6-0.7,0.8-1.3,0.7
		c-0.4-0.1-0.6-0.5-0.5-0.9c0.2-0.6,0.7-0.9,1.2-0.9C2998.8,1297,2999.1,1297.5,2998.8,1298.2z M3004.3,1258.5c0-0.7,0.3-1.3,1-1.6
		c0.6,0,0.5,0.4,0.6,0.8c0.1,0.8-0.3,1.4-1,1.5C3004.2,1259.4,3004.2,1258.9,3004.3,1258.5z M3004.3,1265.4c0.7-0.1,1,0.4,1,1
		c0,2.1-1.1-0.1-1.4,0.5c-0.7-0.3-1.8,0.9-1.9-0.1C3001.9,1265.6,3003.4,1265.6,3004.3,1265.4z M3006.4,1294.3
		c-0.4,0.7-0.8,1.5-1.2,2.2c-0.2,0.2-0.6,0.1-0.6-0.2c0-1.1-0.1-2.3,0.9-3.1c0.3-0.2,0.5-0.3,0.7,0c0.1,0.2,0.2,0.5,0.3,0.8
		C3006.4,1294,3006.5,1294.2,3006.4,1294.3z M3005.6,1275.4c-0.6,0-1.3-0.1-1.9-0.2v0.1l-0.1-0.1c0,0.5,0.8,1.4-0.5,1.5
		c-0.3,0-0.7-0.3-1.1-0.6c-0.6-0.5-1.6,0.1-2.1-0.7c1.1-0.3,1-1.8,1.7-2c1-0.3,1.1,1.1,1.7,1.6c0.1,0.1,0.1,0.1,0.2,0.2
		c0,0,0,0,0-0.1h0.1c0-0.6-0.1-1.3,0-1.9c0.2-1,1.1-1.5,2-1.9c0.4,1.1,0.9,2.1,1.1,3.2C3006.9,1275.1,3006.2,1275.4,3005.6,1275.4z
		 M3007.3,1278.4c-0.1-0.8,0.4-1.2,0.8-1.8c0.4-0.6-0.9-1.8,0.4-1.8c0.6,0,1.1,1.2,0.9,2.1c-0.2,1-0.8,1.7-1.8,2.1
		C3007.6,1278.7,3007.4,1278.6,3007.3,1278.4z M3009.5,1281.1c-0.3,0-0.7-0.7-0.7-0.9c0.2-0.8,0.7-1.6,1.6-1.7
		c0.5,0,0.5,0.5,0.4,0.9C3010.3,1279.9,3010.7,1281.2,3009.5,1281.1z M3026.8,1288.1c0.2-0.3,0.7-0.5,1-0.5c0.6,0.1,1,0.5,0.7,1.2
		c-0.4,0.1-0.5,1.2-1.1,0.6C3027.1,1289.1,3026.4,1288.7,3026.8,1288.1z M3020.8,1235c0.6,0.3,1.2,0.7,1.1,1.5
		c-0.2,0.4-0.4,0.8-0.9,0.6c-0.6-0.3-1.2-0.7-1.1-1.5C3020,1235.2,3020.4,1234.8,3020.8,1235z M3021,1262.5
		c-0.9-0.5-1.5-1.2-1.9-2.2c-0.2-0.5-0.5-1.2,0.1-1.5s1,0.3,1.1,0.9c0.2,1.1,2.3,0.6,2,2.1C3022,1262.4,3021.8,1262.9,3021,1262.5z
		 M3026.2,1246.2c-0.3,0.7,0.3,1.8-1.1,1.5c-0.9-0.2-0.8-1-0.7-1.7c1.4-0.7-0.4-3,1.2-3C3026.4,1243,3026.7,1244.8,3026.2,1246.2z
		 M3091.8,1200.8c-0.2,1.1-1,2-2.3,2c-1.4-0.3-2.2-1.2-2.1-2.3c0.1-1.2,1.3-1.3,2.4-1.2C3090.8,1199.3,3092,1199.4,3091.8,1200.8z
		 M3089.9,1198.1c-0.7-0.1-1-0.5-1.1-1.1c-0.2-1.2,0.4-2,1.4-2.3c0.7-0.2,1.5,0.5,1.5,1.2C3091.7,1197,3090.9,1197.7,3089.9,1198.1z
		 M3089.2,1153.7c0.5-0.7,1-1.3,1.8-1.5c0,0,0.1,0.5,0.2,0.7c-0.1,0.2-0.3,0.5-0.4,0.7c-0.4,0.5-0.5,1.4-1.5,0.9
		C3089.2,1154.4,3089.1,1153.9,3089.2,1153.7z M3088.2,1171.7c0.6-0.3,0.6,0.2,0.5,0.7c-0.3,0.5,0.1,1.5-0.9,1.5
		c-0.4,0-0.7-0.6-0.6-0.9C3087.4,1172.5,3087.8,1171.9,3088.2,1171.7z M3087.8,1176.5c0.8,0.2,1.5,0.6,1.7,1.4
		c-0.2,0.5-0.7,0.6-0.9,0.3c-0.5-0.5-1.8-0.2-1.5-1.4C3087.2,1176.6,3087.6,1176.5,3087.8,1176.5z M3084.6,1124.5
		c0.4,0.1,0.6,0.5,0.6,0.9c-0.1,0.4-0.3,0.8-0.8,0.7c-0.4-0.1-0.6-0.4-0.6-0.9S3084.1,1124.4,3084.6,1124.5z M3084.5,1162.1
		c-0.2,0.6-0.4,1.2-0.9,1.1c-1.6-0.4-0.9-2.1-1.7-3c-0.2-0.2,0-1,0.4-0.6C3083.2,1160.3,3084.4,1160.9,3084.5,1162.1z
		 M3083.1,1184.7c-0.2,1-1.3-0.4-1.6,0.4c-0.6,0.1-1.1,0-1.1-0.4c0.1-0.9,1-0.8,1.6-0.8C3082.5,1183.9,3083.2,1184,3083.1,1184.7z
		 M3080.8,1088.1c1.4,0.2,1.8,1.2,1.8,2.4c-0.2,0.9-0.7,1.4-1.5,1.2c-1.4-0.3-1.4-1.6-1.5-2.7
		C3079.6,1088.3,3080.2,1088,3080.8,1088.1z M3078.9,1130.5c0-0.7,0-1.5,0.8-1.6c1.2-0.2,0.4,1.1,0.8,1.3c0,0.9-0.1,1.7-0.9,1.8
		C3078.6,1132,3078.8,1131.1,3078.9,1130.5z M3075.3,1085.4c0.3-0.8,0.3-2,1.6-2.1c0.1,0,0.3,0.4,0.6,0.7c0,1.1-1,1.5-1.7,2
		C3075.1,1086.4,3075.3,1085.6,3075.3,1085.4z M3073.4,1124.7c0.9,2.4,3.1,2.1,4.5,3.2c0.1,0.1,0.2,0.6,0,0.8
		c-0.2,0.3-0.6,0.7-0.9,0.8c-0.8,0.1-4-2.3-4.1-3.1C3072.9,1126,3073.2,1125.6,3073.4,1124.7z M3072.2,1134.2
		c0.7,0.2,1.1,0.6,1.2,1.2c0.2,1-0.4,1.7-1.3,1.8c-0.7,0.1-1.6-0.6-1.5-1.2C3070.8,1135.3,3071.6,1134.7,3072.2,1134.2z
		 M3068.3,1137.5c0.4-0.2,0.9-0.1,1.1,0.3c1,2.3,3.2,3.4,5.1,4.8c1.3,1,2.3,1.9,3.9,0.6c0.4-0.4,1.1-0.1,1.6,0.3s0.9,0.8,0.7,1.4
		c-0.1,0.3-0.7,0.5-1,0.5c-0.8,0-1.7-0.2-2.4-0.3c-1.8,0.6-3.6,0.5-4.9-0.7c-1.7-1.7-3.5-3.3-4.4-5.7
		C3067.8,1138.2,3067.9,1137.8,3068.3,1137.5z M3073.6,1166.7c-0.2,0.6-0.7,1.2-1.5,1.1c-0.6-0.1-0.9-0.6-1-1.2
		c-0.2-1,0.5-1.1,1.2-1.1C3073.1,1165.6,3073.8,1165.7,3073.6,1166.7z M3057.7,1131.4c0.4-1.6,1.9-2.1,3.5-2.2
		c-0.2-1.4,0.3-2.5,1.5-3.1c0.8-0.4,1.2-1.9,2.4-1.1c1,0.6,0.2,1.5,0.2,2.3c0.1,3.1-0.4,5.5-4.2,6.3c-1.3,0.3-2.1,2.5-1.9,4.3
		c0,0.2-0.1,0.7-0.3,0.7c-0.4,0.1-0.7-0.2-1-0.5C3056,1135.9,3057.2,1133.6,3057.7,1131.4z M3052.6,1141.8c0.5-0.7,0.6-1.1,0.3-1.9
		c-0.9-2,1.6-2.3,1.7-4.1c0.5,0.6,0.9,0.9,1,1.3c0.2,1.9,0.4,3.9,0.5,5.8c0,0.5-0.4,1.4-0.1,1.6c2.7,2.2-0.6,3.6-0.7,5.5
		c0,1.6-2.7,0.4-2.7,2.4c0,0.2-0.5-0.4-0.5-0.7C3051.6,1148.3,3050.1,1144.9,3052.6,1141.8z M3054.6,1223.6
		c-0.6-0.5-0.8-1.3-0.1-1.8c1.1-0.9,2.4-0.6,3.5,0c0.2,0.1,0.2,0.5,0.2,0.7C3058,1223.2,3055.1,1224.1,3054.6,1223.6z M3069.2,1217
		c-0.4,0.7-0.7,1.8-1.8,2.4c-0.6,0.4-1.2,0.7-1.8,0c-0.7-1.1,0.5-0.9,0.9-1.2c0.6-0.6,1-1.3,1.5-1.9c0.3-0.4,0.7-0.4,1.1-0.1
		C3069.5,1216.2,3069.5,1216.4,3069.2,1217z M3083.2,1222.7c-0.4,0-0.6-0.5-0.5-0.9c0.2-0.7,0.3-1.4,1.1-1.6c0.1,0,0.3,0.6,0.4,0.8
		C3084.2,1221.9,3084.1,1222.7,3083.2,1222.7z M3088.2,1217.3c-0.7,0.1-0.9-0.5-1.1-1c-0.1-0.4,0-1,0.4-0.9c0.6,0.1,0.9,0.6,0.9,1.2
		C3088.4,1216.8,3088.3,1217.3,3088.2,1217.3z M3092.1,1210.9c-1.5,0.1-2.2-2.1-3.9-1.7l0.2,0.5l1.4,4.2h-15.2l-4,0.3h-20.1
		l-6.3-0.7l3.8-11.9l2.5-6.4l4.1-10l1-3.4l1.8-4.7c-0.7-2.7-0.6-5.5,0.1-8.3c0.7-3,0.1-6,1-8.9c0.2-0.8-0.3-1.6-1.3-1.8
		c-1.2-0.3-1.5-1.2-1.1-2.3c0.5-1.6,1.8-2.7,2.8-4c0.3-0.3,1,0.4,1.2,0.9c0.5,1,0.2,1.9-0.2,2.9c-0.2,0.4-1,1.2-0.2,1.4
		c2.9,0.7,1.2,2.7,1.2,4.1c0,3.2-0.1,6.5-1.5,9.5c-0.3,0.7-0.3,1.3-0.1,1.9l4.2-11l2.1-4.2l5.2,13.7l3.5,5.4l13.1,30.7
		c0.1-0.3,0.3-0.5,0.6-0.7c1.1-0.5,5.1,2.1,5.3,3.5C3093.3,1210.9,3092.7,1210.8,3092.1,1210.9z M3094.5,1138
		c-0.7-0.3-0.8-1.1-1-1.6s-0.1-1.1-0.1-1.6c0-0.2,0.2-0.6,0.4-0.6c0.5-0.1,0.7,0.2,0.8,0.7s0.1,1.1,0.2,1.8
		C3094.7,1137,3094.6,1137.5,3094.5,1138z M3096.4,1132.7c-0.6-0.2-1-0.5-0.8-1.2c0.1-0.4,0.6-0.7,0.9-0.5c0.3,0.2,0.4,0.7,0.5,1.1
		C3097.4,1132.8,3096.8,1132.7,3096.4,1132.7z M3100.6,1137.6c-0.2,0.1-0.5-0.2-0.7-0.3c-0.8-0.6-0.9-1.3-0.5-2.2
		c0.2-0.5,0.5-1.1,1.1-1c1,0.1,0.8,0.9,0.8,1.5C3101,1136.2,3101.7,1137.3,3100.6,1137.6z M3133.6,1289c-0.9-0.3-2-0.4-2-1.7
		c0-0.2,0.3-0.4,0.5-0.7c1.1,0.1,1.5,1,2,1.9C3134.1,1288.5,3133.7,1289,3133.6,1289z M3135.5,1299.3c-0.5,0.1-1-0.5-1-1.1
		c0-1.1,1-1.4,1.3-2c0.9,0.4,1.3,0.7,1.1,1.4C3136.8,1298.3,3136.4,1299.1,3135.5,1299.3z M3137.8,1284.6c-0.6,0-1.1-0.3-0.8-1
		c0.2-0.5,0.6-1,1.2-0.9c0.6,0.1,0.9,0.6,0.8,1.5C3138.9,1284.7,3138.3,1284.6,3137.8,1284.6z M3139.6,1279.4c-0.9,0.1-1-0.6-1-1.3
		c0-0.3,0.2-0.7,0.3-1.1c0.4,0.6,1.1,1,1,1.8C3140,1279,3139.8,1279.4,3139.6,1279.4z M3142.6,1276.3c0.6-0.1,0.6,0.4,0.8,0.8
		c-0.1,1-0.6,1.6-1.6,1.5c-0.4,0-0.8-0.4-0.6-0.9C3141.4,1277.1,3141.8,1276.5,3142.6,1276.3z M3143.2,1290.7
		c-0.9-0.3-1.9-0.5-2.1-1.7c0.4-0.1,0.8-0.2,1.2-0.1c0.8,0.1,1.8-0.1,1.8,1.2C3143.9,1290.5,3143.7,1290.9,3143.2,1290.7z
		 M3153.6,1277.5c-0.2-0.8,0.5-1,1-0.9c1.2,0.2,1,1.2,1.1,2c-0.2,0.4,0,1.3-0.9,1C3153.9,1279.2,3153.7,1278.3,3153.6,1277.5z
		 M3156.2,1294.3c-0.7-0.1-1.1-0.8-1.1-1.6c0-0.6,0.5-1,1.1-1c0.8,0,1.2,0.5,1.3,1.3C3157.4,1293.8,3156.9,1294.4,3156.2,1294.3z
		 M3162,1293.3c-0.1,0.4-0.7,0.5-1,0.3c-0.5-0.3-0.8-0.8-0.5-1.4c0.2-0.4,0.4-0.7,1-0.6C3162.2,1291.9,3162.2,1292.7,3162,1293.3z"
		/>
	<path class="st0" d="M3062.3,1131.6c0.9,0,1.6-0.8,1.4-1.7c-0.4-1.6-1.4-1.4-2.4-0.6C3061.1,1130.3,3060.5,1131.6,3062.3,1131.6z"
		/>
	<path class="st0" d="M3192,1303l0.7-3.5l-7.5-5.4l-12.5-12.5c0.5,1.8,0.4,3.8,0.6,5.7c0.1,1.1-1.3,5.4-1.9,6.3
		c-0.5,0.6-0.1,1,0.1,1.5c0.4,1.2,0.8,2.4-1.2,1.3c-0.6-0.3-0.7,0.3-0.7,0.7c0,0.6,0.2,1.1,0.3,1.6c0.3,1.2-0.1,2.7-0.8,3.8h10.9
		l11.1,1.5C3191.2,1303.5,3191.5,1303.2,3192,1303z M3179.1,1296.2c-0.6,0-2.3-2.8-2.1-3.7c0.2-1.2,1.3-1.2,2.2-1.4
		c1.5-0.1,2,0.9,2.2,2C3181.6,1294.1,3179.8,1296.2,3179.1,1296.2z M3185.5,1301c0,0.5-0.2,0.9-0.4,1.4c-0.3-0.3-0.6-0.5-0.8-0.9
		c-0.2-0.6,0.1-1,0.6-1.3C3185.6,1300.1,3185.5,1300.7,3185.5,1301z"/>
	<path class="st0" d="M3170,1276.7l-1.3-3c-0.1,0.5-0.2,0.9-0.2,1.3C3168.3,1275.9,3169.3,1276.2,3170,1276.7z"/>
	<path class="st0" d="M3170.6,1278.1l-0.1-0.3c0,0.1,0,0.1,0,0.1C3170.5,1278.1,3170.6,1278.1,3170.6,1278.1z"/>
	<path class="st0" d="M3037.7,1302.7l1.4,0.1c-0.2-0.3-0.3-0.5-0.5-0.8C3038.2,1302.4,3037.9,1302.6,3037.7,1302.7z"/>
	<path class="st0" d="M3756.4,1234h-2.3l-10.2,13l-10.1,10.9l-2.9,5c0.7,0.2,1.7,0.6,1.6,1.9c-0.1,1-0.8,1.5-1.8,1.3
		c-0.7-0.1-1-0.5-1.2-0.9l-14.2,17.9h-62.8V1249l0.2-1.9l-0.2-1.9v-87.6v-0.4l0.7-18l-0.7-6.4v-7c-0.1,0-0.2,0-0.2,0v0.1h-0.1
		c0,0.1,0,0.2,0,0.3c0.1,1.1-0.1,2.1-1.3,2.2c-0.5,0.1-1.2-0.2-1.2-0.9c0.1-1.4,1.2-1.3,2.2-1.5c0.1,0,0.2,0,0.3-0.1v-0.1h0.1
		c0.2-1.3,0.4-2.7-0.8-3.8c-1.1-1-0.3-2,0.5-2.3c0.2-0.1,0.4,0,0.6,0v-6.7l1.4-9.1l11.5-9.5l11.8-10.5l-0.9-3.4l-16.4-0.7l-6.5,1.4
		h-7.9c0.1,0.2,0.2,0.3,0.2,0.6c-0.2,0.3-0.5,1.2-1,1.3c-0.7,0.2-0.4-0.7-0.5-1.1c0-0.3,0-0.5,0-0.8h-8.9l-8-2.1l-15.4,1.8
		c-0.1,0-0.1,0.1-0.2,0.1c-0.1,0-0.1,0-0.1-0.1l-0.5,0.1l-2.6,0.2h-29.9v1.7l6.6,5.7l4.3,5.6l12.6,9.2l0.2,4.2v19.7v62.9v29.1
		l-1.5,7.9l1.5,8.9v26.1v0.5v0.4v7.6c2.8,4.1,5,7.9,5,7.9l-5.9,2.6l-9.1,7.7l-2,1.3l-11.7,10.2v1v1h23.5l7.7,0.2c0-0.2,0-0.4,0-0.6
		c0.1-0.5-0.2-1.3,0.6-1.6c0.1,0.5,0.2,1.1,0.3,1.5c-0.1,0.2-0.1,0.4-0.1,0.6l48.1,1.4c0-0.2,0.1-0.4,0.1-0.6
		c0.1-0.4,0.2-0.9,0.8-0.8c0.6,0.3,0.6,0.9,0.6,1.4l5.6,0.2c0.4-0.1,0.9-0.1,1.3,0h0.5l17.8-1.7l1.4-0.1h4.9l0,0
		c0-0.1,0.3-0.3,0.5-0.5c0.2,0.1,0.5,0.2,0.7,0.5v0.1h25l3.1,0.3l17.8,0.7l18.4-0.4l-0.6-13.4V1234H3756.4z M3651.1,1105.3
		c0.4,0,0.7,0.4,0.7,0.9c-0.1,0.8-0.2,1.7-1.4,1.6c-0.4,0-0.8-0.4-0.7-0.8C3650,1106.3,3650,1105.2,3651.1,1105.3z M3604.5,1168.1
		c0.1-0.5,0.2-1.2,0.7-1.2c0.7,0,1.1,0.7,1.1,1.4c-0.1,0.7-0.4,1.1-1,1.1C3604.4,1169.5,3604.4,1168.8,3604.5,1168.1z
		 M3606.3,1260.3c-0.2,0.1-0.6,0-0.7-0.1c-0.4-0.6-0.8-1.2-1-1.8c-0.1-0.3,0-0.9,0.2-1.1c0.6-0.5,1,0.1,1.2,0.5
		c0.4,0.6,0.9,1.1,0.8,1.9C3606.6,1259.9,3606.5,1260.2,3606.3,1260.3z M3600.3,1296.1c-0.7-0.7-2-0.9-2-2.2c0-0.3,0.5-0.7,0.8-0.8
		c1.7-0.3,1.5,1.2,1.8,2.1C3600.9,1295.7,3600.4,1296.3,3600.3,1296.1z M3603.2,1290.7c-1-0.1-0.6-0.9-0.6-1.5c0-0.3,0-0.9,0.7-0.6
		c0.6,0.2,0.6,0.8,0.6,1.3C3603.9,1290.3,3603.6,1290.8,3603.2,1290.7z M3605.4,1282.4c-0.8-0.1-1.3-0.6-1.1-1.4
		c0.1-0.8,0.8-1.1,1.5-1c0.8,0.1,1.2,0.6,1.1,1.5C3606.7,1282.1,3606.2,1282.5,3605.4,1282.4z M3647.9,1132.5c0.2,0,0.7,0.4,0.8,0.7
		c0.1,0.9-1.8,2.5-3,2.4c-0.5-0.1-0.7-0.6-0.5-0.9C3645.7,1133.4,3646.6,1132.7,3647.9,1132.5z M3645.2,1165.6
		c0.6-0.1,1,0.2,1.1,0.8c0,0.7-0.3,1-0.9,1c-0.6,0-1-0.4-0.9-1C3644.4,1165.9,3644.8,1165.7,3645.2,1165.6z M3645.3,1170
		c0.9,0,1.5-0.6,2.2-1.2c1.2-1,1.6-1.9,0.4-3.1c-0.4-0.4-1.1-0.7-1.2-1.2c-0.2-1.3-2.3-2.4-1.4-3.2c1.2-1,2.7,0.4,4,1.2
		c1.2,0.7,1.3,2.1,2.2,3.1c0.6,0.6,0.4,1.2-0.2,1.8c-1.3,1.2-2.6,2.5-4,3.8l0.1-0.1v0.1c0.4,0,0.9-0.2,1.1,0c1,0.7,3.1,0.8,2.7,2.1
		c-0.3,1.2-2-0.3-3.3,0s-0.7-1.2-0.6-2.1l0,0c-2.3,2.4-2.3,5-1.6,8.3c0.5,2.2,2.3,4.2,1.5,6.7c-0.1,0.4,0.8,1.2,0,1.4
		c-0.7,0.2-1.4-0.5-1.4-1.3c-0.4-3.6-1.7-7-3-10.3c-0.4-0.9-0.6-1.8,0.3-2.3C3644.5,1172.8,3642.5,1169.9,3645.3,1170z
		 M3651.8,1181.5c0.3,0.7-1,0.5-1.4,0.8c-0.9,0-1.8-0.1-1.5-1c0.3-1,0.6-2.5,1.8-2.4C3651.4,1178.8,3651.4,1180.5,3651.8,1181.5z
		 M3645.2,1209.8c-0.8,0.1-0.9-0.9-0.8-1.7c0.1-0.6-0.1-1.6,0.8-1.6c1.1,0,0.6,0.9,0.5,1.6
		C3645.6,1208.7,3646.2,1209.7,3645.2,1209.8z M3645.5,1215.5c0.5,0.2,1.1,0.5,1.1,1.1c0,0.9-0.5,1.2-1.3,1.2
		c-0.7,0-0.9-0.6-0.8-1.2C3644.4,1215.9,3644.9,1215.6,3645.5,1215.5z M3643.8,1194.9c-0.4,0.7-1.1,0.9-1.8,0.9
		c-0.1,0-0.3-0.5-0.2-0.7c0.1-0.8,0.7-1.2,1.5-1.1C3643.6,1194.2,3644,1194.4,3643.8,1194.9z M3642.4,1112.4c1,0.6,1.9,1.3,1.6,2.6
		c0,0.2-0.4,0.5-0.5,0.5c-0.9-0.7-1.7-1.5-1.7-2.7C3641.8,1112.7,3642.1,1112.5,3642.4,1112.4z M3639.4,1170.9
		c0.5-0.8,1.4-0.7,2.3-0.7c0.4,0,0.5,0.2,0.3,0.5c-0.5,0.7-1.2,1.2-2,1.1C3639.5,1171.8,3639.1,1171.3,3639.4,1170.9z M3642,1183
		c0.3-0.7,0.6,0.4,0.8,0.8c-0.1,1.1-0.4,2.1-1.7,1.8c-0.8-0.2-2.1-0.1-1.9-1.6C3639.5,1181.8,3641.3,1184.6,3642,1183z
		 M3621.1,1133.7c1-0.3,1.4,0.4,1.8,1.2c1.3,2.1,0.6,4.2,0.4,6.3c0,0,0,0.1,0.1,0.1l0,0c0.3-0.2,0.6-0.4,0.8-0.7
		c0.8-0.8,1.5-0.4,2.1,0.2c0.1,0.1,0.2,0.6,0,0.7c-0.5,0.6-1.2,0.6-1.9,0.3c-0.4-0.1-0.7-0.4-1-0.6l-0.1,0.1c0-0.1,0-0.2,0-0.2
		c-1-1.8-2-3.6-2.9-5.5C3620.1,1135,3620,1134,3621.1,1133.7z M3619.1,1188.8c0.7,0.6,1.5,1.2,1.4,2.3c-0.2,0.4-0.5,0.7-0.9,0.6
		c-1-0.3-1-1.3-1-2.1C3618.6,1189.3,3618.8,1188.6,3619.1,1188.8z M3618.5,1193.6c0.4,0,0.9,0,0.9,0.5c0,0.8-0.8,1-1.4,1.2
		c-0.2,0-0.7-0.5-0.7-0.8C3617.3,1193.7,3617.9,1193.6,3618.5,1193.6z M3616.9,1141c0.2,0.2,0.9,0.2,0.4,0.8c-1.1,1.2-3,0.7-3.9,1.9
		c-0.6-0.2-0.9-0.3-0.8-0.9C3612.8,1141.4,3615.7,1140.2,3616.9,1141z M3616.5,1178.7C3616.4,1178.8,3616.4,1178.8,3616.5,1178.7
		c-0.1,1.6,0,3,0.4,4.4c0.1,0.3-0.2,0.9-0.5,1c-0.5,0.2-0.6-0.4-0.7-0.7C3614.6,1181.7,3614.6,1180.1,3616.5,1178.7
		c-0.1,0-0.1,0-0.1-0.1c0,0,0-0.1,0.1-0.1c-0.1-0.6-0.1-1.3-0.4-1.8c-0.6-1.2-0.6-2.4-0.2-3.6l0.2-0.1c0.6,1.2,1.4,2.4,1.2,3.9
		C3617.2,1177.6,3617.1,1178.2,3616.5,1178.7C3616.4,1178.6,3616.4,1178.7,3616.5,1178.7z M3611.3,1114.3c1.3,0.1,1.2,1.3,1.9,1.9
		c-0.4,0.3-0.7,0.6-0.8,0.5c-0.7-0.8-1.3-1.8-2.4-2.2C3610.5,1114.5,3610.9,1114.3,3611.3,1114.3z M3609.2,1195
		c-0.4,0.1-0.8-0.2-0.9-0.7c-0.1-0.8,0.2-1.4,1-1.5c0.1,0,0.4,0.6,0.5,0.8C3609.8,1194.2,3609.9,1194.8,3609.2,1195z M3611.4,1130.2
		c-0.6-0.9-1.2-1.8-1.7-2.8c-0.2-0.3-0.1-0.6,0.2-0.7c0.1,0,0.3,0,0.3,0.1c0.5,1.1,2.1,1.5,2.2,2.8c-0.1,0.2-0.2,0.3-0.3,0.4
		C3611.9,1130.1,3611.5,1130.3,3611.4,1130.2z M3612.6,1163.3c0,0-0.3-0.2-0.3-0.3c-0.1-1.7,2.2-2.3,1.7-4.1c0.3,0,0.6-0.1,0.8,0
		c0.4,0.1,0.9,0.3,0.6,1.2C3614.1,1160.5,3614.1,1162.6,3612.6,1163.3z M3615,1191.2c-0.2,0-0.5-0.5-0.5-0.6
		c0.7-0.9,1.4-1.8,2.1-2.7c0.1,0.4,0.3,0.8,0.4,1C3616.8,1190.4,3616.5,1191.4,3615,1191.2z M3616.5,1244.2c0.1-0.4,0.6-0.6,1-0.5
		c0.7,0.3,1.6,0.5,1.9,1.3c-0.5,0.1-1.1,0.2-1.3,0.2C3617.1,1245.2,3616.4,1245.1,3616.5,1244.2z M3620.1,1296.5
		c-0.2,0.6-0.5,0.9-1.2,0.8c-0.6-0.3-0.8-1-0.6-1.7c0.2-0.5,0.6-1,1.2-0.8C3620.3,1295.1,3620.3,1295.8,3620.1,1296.5z
		 M3618.9,1256.1c-0.9-0.3-1.4-0.9-1.2-1.9c0.2-0.8,0.8-1.1,1.6-0.9c0.7,0.1,1.3,0.6,1.3,1.4
		C3620.5,1255.5,3619.8,1256,3618.9,1256.1z M3622.7,1286c-0.1,0-0.3-0.7-0.3-1.1c0-0.7,0.3-1.3,1-1.5c0.5,0.1,0.6,0.5,0.6,0.9
		C3624,1285.1,3623.7,1285.9,3622.7,1286z M3624.3,1277.2c-0.8,1.3-0.5,4.4-1.9,4c-2-0.5,0.4-2.9-0.5-4.6c-0.6-1,1.2-1.2,2-1.6
		c0.6,0.1,1.1,0.4,1,1C3624.7,1276.5,3624.5,1276.9,3624.3,1277.2z M3627.8,1270.7c0,0.8-0.5,0.6-1.1,0.2c-0.9-0.6-1.4-1.1-1.3-2.3
		c0.2-2.6,2.6-4.2,3-6.7c0-0.1,0.5-0.3,0.7-0.2c1,0.3,0.4,1.2,0.6,1.6C3629.5,1265.9,3627.9,1268.1,3627.8,1270.7z M3628.1,1149.8
		c0-0.5,0.4-0.7,0.8-0.7c0.4,0,0.7,0.3,0.8,0.7c-0.1,0.5-0.3,0.7-0.8,0.7C3628.5,1150.5,3628.1,1150.3,3628.1,1149.8z
		 M3628.4,1085.6c-0.4,0.2-0.9,0-0.9-0.5c0-0.6,0.3-1.2,0.9-1.2c0.5,0,1,0.3,1.8,0.6C3629.5,1084.9,3629,1085.3,3628.4,1085.6z
		 M3632.8,1093.7c0.9,0,1.1,0.7,1.1,1.3c0,0.2-0.2,0.6-0.3,0.7c-1,0.3-0.8-0.8-1.2-1.2C3632,1094.1,3632.4,1093.9,3632.8,1093.7z
		 M3632.9,1210.2c-0.2-0.6,0.1-1.1,0.8-1.1c0.3,0,0.9,0.2,1,0.5c0.2,0.6-0.2,1-0.8,1.1C3633.5,1210.7,3633,1210.6,3632.9,1210.2z
		 M3634.4,1254c-0.9,0.1-0.9-0.6-0.9-1.1c0-1.3,0.2-2.8,1.6-3.1c1.2-0.3,0.8,1.1,1,1.8C3636.3,1252.9,3635.9,1253.8,3634.4,1254z
		 M3637.1,1142.1c-0.6-0.3-1.4-0.5-1.5-1.3c0-0.1,0.3-0.3,0.5-0.5c0.5,0.5,1,1,1.5,1.4C3637.4,1141.8,3637.1,1142.1,3637.1,1142.1z
		 M3640.9,1247.8c-0.7,0.4-0.3,1.4-0.8,1.9c-0.7,0.7-0.1,1.9-1,2.4c-0.1-1-0.3-1.9-0.4-2.7c0.4-0.8,0.2-1.5,0.3-2.2
		c0.1-1.1,0.9-0.8,1.5-0.4C3640.7,1246.9,3642.5,1246.9,3640.9,1247.8z M3642.3,1237.1c0.5,0.9-0.1,1.6-0.6,2.3
		c-0.9,1.2-2,2.4-1.8,4.2c0,0.4-0.2,0.9-0.7,0.9c-0.7,0-0.9-0.6-1-1.2c-0.3-1.4,0.4-2.9,1.2-3.5c1.9-1.4,1.6-3.2,1.6-4.9
		c0-2.1,0.2-4.2,2-5.6c0-0.1,0-0.1,0-0.2c0,0,0,0,0.1-0.1c-1.1-2.1-1.3-4.2,0.1-6.2c0.2-0.3,0.6-0.6,1-0.4c0.2,0.1,0.5,0.5,0.5,0.6
		c-1.4,1.8,0.6,4.5-1.6,6c0,0,0,0.1,0.1,0.1l-0.1,0.1c0.2,1.2,0.6,2.4-0.2,3.5C3641.8,1234.1,3641.4,1235.5,3642.3,1237.1z
		 M3643.2,1266.3c-0.1-1.2,1.5-0.9,2.2-1.5c1.2-1.1,2.3,0.4,3.5,0.2c1-0.1,1.3,2,2.8,1.2c0.1-0.1,0.4,0.3,0.6,0.4
		c-0.2,0.2-0.4,0.5-0.6,0.6c-1.1,0.3-2.3,0.6-3.5,0.9c-1.1,0.1-1.9-0.7-2.8-1C3644.6,1266.9,3643.3,1267.1,3643.2,1266.3z
		 M3649.3,1295.3c-0.7,0.6-2,0.9-2.1,0.1c-0.3-1.7,0-3.5,0-5.2c0-0.1,0.5-0.3,0.7-0.2c1.3,0.3,2.4,1.8,2.3,3
		C3650.1,1293.8,3649.9,1294.7,3649.3,1295.3z M3651.6,1289c-0.5,0-0.8-0.4-0.8-0.8c0.1-0.8,0.8-0.6,1.3-0.7c0.6,0,1.1,0.1,1.2,0.9
		C3653,1289.2,3652.2,1289,3651.6,1289z M3654.8,1301.7c-0.7,0.1-1.4-0.1-1.6-0.9c-0.1-0.6,0.3-1,0.9-1.1c0.7-0.1,1.3,0.1,1.7,0.6
		C3655.7,1301.1,3655.3,1301.6,3654.8,1301.7z M3656.1,1293c-1.1-0.1-0.6-1-0.7-1.6c0.2-0.5,0-1.4,0.6-1.2c0.4,0.1,0.6,1.2,0.7,1.9
		C3656.7,1292.4,3656.2,1293.1,3656.1,1293z M3659.5,1297.2c-0.5-0.6-1.5-0.8-1.4-1.8c0.2-0.2,0.5-0.4,0.7-0.4c1,0.1,1.3,1,1.4,1.8
		C3660.2,1297,3660,1297.8,3659.5,1297.2z M3673.4,1291.5c-0.1,0.4-0.2,0.8-0.8,0.7c-0.7-0.2-1.3-0.5-1.4-1.2c0.2-0.8,0.7-1.1,1.3-1
		C3673.4,1290.1,3673.5,1290.8,3673.4,1291.5z M3677.6,1292.6c-0.2,0.7-0.7,1.2-1.4,1.2c-0.6-0.3-1-0.7-1-1.2c0-0.9,0.7-1,1.5-0.9
		C3677.2,1291.7,3677.7,1292,3677.6,1292.6z M3709.3,1299.9c-0.5-0.2-0.7-0.5-0.6-0.9c0-0.9,0.2-1.7,1.2-1.9
		c0.4-0.1,0.6,0.5,0.5,0.9C3710.2,1298.7,3710.3,1299.6,3709.3,1299.9z M3710.2,1296.7c-0.4-0.2-0.6-0.9-0.8-1.4
		c0-0.1,0.3-0.6,0.4-0.6c0.8,0.1,0.6,0.8,0.8,1.3C3710.4,1296.2,3710.8,1296.9,3710.2,1296.7z M3720.4,1278.6c0.4,0,0.7,0.4,0.7,0.9
		c0,0.6-0.2,1-0.8,1.2s-0.7-0.4-0.7-0.7C3719.6,1279.5,3719.3,1278.6,3720.4,1278.6z M3718.2,1301.2c-0.4-0.1-0.7-0.5-0.6-0.9
		c0.1-0.6,0.3-1.2,1-1.1c0.5,0,0.6,0.5,0.5,1C3719.1,1300.7,3719,1301.3,3718.2,1301.2z M3719.2,1298.7c-0.5-0.2-1.6,0-1.4-1
		c0.1-0.6,0.8-0.8,1.3-0.8s1.1,0,1.2,0.8C3720.1,1298.3,3719.9,1298.9,3719.2,1298.7z M3724.3,1291.7c-0.8,1.3-4.8,2-6.1,1.2
		c-0.6-0.4-0.6-1.1-0.2-1.3c1.6-0.7,3-2.4,5.1-1.7c0.7,0.2,1.3,0.5,1.3,1.4C3724.4,1291.5,3724.4,1291.6,3724.3,1291.7z
		 M3724.4,1280c-0.2-0.6,0-1.1,0.6-1.3c0.6-0.2,1.1,0,1.1,0.7c0,0.6-0.4,1.1-0.9,1.3C3724.8,1280.7,3724.6,1280.4,3724.4,1280z
		 M3726.3,1291.9c-0.6,0.5-0.7-0.2-0.7-0.5c0-1,0.6-1.4,1.5-1.5c0.5-0.1,0.7,0.3,0.9,0.7C3728.1,1291.8,3726.9,1291.5,3726.3,1291.9
		z M3737.7,1258.3c-0.2-0.2-0.6-0.3-0.8-0.6c-0.3-0.7,0.2-1,0.7-1.1c0.4-0.1,0.8,0.1,0.9,0.5
		C3738.6,1257.6,3738.3,1258,3737.7,1258.3z M3739,1286.5c-0.5-0.1-0.6-0.5-0.5-0.9c0.1-0.8,0.6-1.2,1.1-1.7
		c0.3-0.3,0.4-0.3,0.6,0.1C3740.5,1284.7,3739.7,1286.4,3739,1286.5z M3743.3,1281.7c-0.3,0.6-0.6,1.2-0.9,1.9
		c-0.3,0.7,0.3,2-0.9,1.9c-0.6,0-0.6-1.2-0.5-1.8c0.3-1.1,0.9-2.1,2-2.5C3743.3,1281,3743.5,1281.4,3743.3,1281.7z M3743.7,1272
		c-0.1,0.2-0.3,0.5-0.5,0.6c-0.5,0.2-0.8-0.1-0.9-0.5c-0.1-0.5,0.1-1.2-0.1-1.7c-0.6-2,0.2-3.8,0.7-5.7c0.5,1.7,1.3,3.4,0.5,5.3
		C3743.4,1270.6,3744.1,1271.2,3743.7,1272z M3745.9,1274c-0.5-0.1-0.7-0.4-0.7-0.8c-0.1-0.7,0.6-0.8,1-1s0.8-0.1,0.8,0.4
		C3747,1273.2,3746.7,1273.8,3745.9,1274z M3746.3,1259.2c-0.1,0-0.5-0.4-0.4-0.5c0.2-0.8,0.1-1.7,1.1-2.1c0.1,0,0.3,0.3,0.4,0.5
		C3747,1257.8,3747.2,1258.8,3746.3,1259.2z M3750.5,1248.5c-0.1,0.5-0.3,1.1-0.5,1.6c-0.2,0.4-0.4,1-0.6,1c-0.6,0-0.8-0.6-0.9-1.2
		c-0.1-0.6-0.2-1.1-0.3-1.5c0-1.1,0.3-2,1.3-1.9C3750.5,1246.7,3750.7,1247.6,3750.5,1248.5z M3753.4,1256c-0.5,0.1-0.7-0.4-0.7-0.8
		c0-0.7,0.2-1.4,1.1-1.6c0.5,0,0.6,0.4,0.6,0.8C3754.5,1255.2,3754.3,1255.9,3753.4,1256z"/>
	<path class="st0" d="M1918.2,1153.7l0.2-0.5C1918.3,1153.2,1918.2,1153.3,1918.2,1153.7z"/>
	<path class="st0" d="M1956.9,1081.2h-29c0,2.2,0.4,4.3,1.1,7.7c0.6,3,1.4,6.3-1.4,8.9c-0.4,0.4-0.9,1.1-0.3,1.5
		c0.5,0.3,0.8-0.5,1.2-0.8c0.5-0.4,0.8-1.4,1.6-1c0.9,0.5,0,1.2,0,1.8c0,1.1,0.1,2.3,0.2,3.4c0.1,0.9-0.8,1.1-1.4,1.6
		c-0.9,0.9-2.4,1.2-3,2.6c-0.2,0.5,0,0.8,0.6,0.8c3.3-0.3,1.2,2,1.4,3.1c0.1,0.7-0.6,0.7-1.1,0.1c-0.4-0.4-0.7-1-1.3-0.4
		c-0.5,0.4-0.6,0.9,0.1,1.3c0.5,0.3,0,1-0.2,0.9c-3.9-1-1.6,2-1.9,3.1c-0.2,0.6,0.4,1.7-0.3,1.9c-1,0.4-1.3-0.7-1.6-1.5
		c-0.5-0.9-1.1-1.6-1.6-2.5c-0.6-1-0.8-1.9-0.2-3.1c0.9-1.8,1.3-3.9,0.8-6l-0.1,0.1c0,0,0,0,0-0.1c-0.2,0.1-0.4,0.2-0.6,0.3
		c-0.9,0.4-0.8,2.6-2.2,1.7c-0.7-0.5-2.2-1.5-1.6-3c0.4-1,0.8-2.2,2.1-2.4c1.6-0.2,2.2,1,2.5,2.2c0.1,0.3-0.1,0.8-0.2,1.1l0,0
		c1.2-1.2,1.1-2.7,0.8-4.2c-0.2-1.1,0.5-1.4,1.2-1.8c0-0.6,0-1.1-0.1-1.7c-1.8-1.5-3.8-3-3-5.8c0.1-0.4,0.2-0.8,0.7-0.9
		s0.8,0.2,0.9,0.7c0.2,1.4,0.3,2,1.3,0.3c1.3-2.3,0.8-5.4,3.5-7c0.3-0.2,0.4-0.5,0.2-0.7c-0.8-0.9-1-1.7-0.8-2.4h-4.2
		c0.2,0.7,0.5,1.5-0.3,2c-0.9,0.5-0.9,2.2-2.1,1.8c-0.9-0.3-1-1.5-1.2-2.5c-0.1-0.4-0.2-0.8-0.2-1.2h-2.8c0,0.3,0,0.5,0,0.8
		c-0.1,0.8,0.5,1.7-0.2,2.4c-0.2,0.2-0.5,0.4-0.7,0.3c-0.4-0.1-0.8-0.2-0.7-0.8c0.2-0.8,1.3-1.2,1.1-2.2c0-0.2-0.1-0.4-0.1-0.6l0,0
		l-1.8-0.3c-0.2,0.2-0.4,0.3-0.8-0.1l-5.6-0.9l-17.1,1.3h-0.1l0,0l-0.2,1.8l4.8,4l6.6,5.9c0-0.7,0.2-1.3,1.1-1.3c0.6,0,1,0.5,1,1.1
		s-0.4,1-0.9,1.3l8.8,7.9l2.7,2.6l-0.6,1.5c0.4,0,0.8,0.1,1.1,0.1v-0.1h0.1c0-0.3,0-0.5-0.2-0.7c-1-1.7,0.5-2.7,1.2-4
		c0.1-0.2,0.6,0,0.6,0.3c-0.1,1.5,1.1,3.3-0.9,4.5c-0.2,0.1-0.5,0-0.7-0.1v0.1h-0.1c0.1,0.9,0.9,2.1-0.9,2.2c-0.3,0-0.8,0-1.1-0.1
		l-5.6,13.2l-5.7,17.5l-2.6,5.6c0.2,0.2,0.3,0.5,0.3,0.9c0,0.8-0.5,1.3-1.3,1.2l-4.2,8.9l-1.3,7.6l-21.9,57.7l-1.4,2.6l-6.4-16.5
		l-7.3-17.3l-1.9-3.4l-11.2-27.5l-1-3.7l-2.2-4.2l-19.3-47.6l4.4-3.7l9-5l4.9-6.8l5.8-4.9v-1.7h-0.9l1-0.8l-0.7,0.1l-0.1,0.1v-0.1
		l-9.8,0.7h-11.1l-12.1-1.2l-10.7,1.2h-27.7l-12.1-0.8l-6,0.8h-10.8v1.5l-0.8,0.8l10.8,9.6l8.3,9.6l2.9,3.8c0.6-0.1,0.7,0.4,0.8,0.8
		c0,0.1,0,0.1,0,0.2l12.4,16.3l-7-1.9l7.2,14.8l1.8,4.1l32.2,74.6l4.7,10.8l4.1,11.4l11.1,23.8l0.2,0.4c0.6-0.3,1.2-0.5,1.9-0.5
		c0.4,0,0.7,0.3,0.7,0.8c-0.1,0.6-0.9,1.2-1.8,1.6l6.6,15.2l1.7,9.6l6.7,10l2.5,5.9h11.4l1.5-3.8l6.1-12.6l5.5-17.2l6.8-16.7
		l7.1-16.5l1.3-6.3l9.3-24.1l1.9-3.4l1.3-4.9l8.3-21.5c-0.5-0.6-1-1.2-1.7-1.6l0,0c0,0-0.1,0-0.1,0.1c0,0.4,0.1,0.7,0,1.1
		c-0.1,0.6-0.2,1.2-0.9,1c-0.4-0.1-0.9-0.3-1-0.6c-0.3-0.7,0.4-0.8,0.9-1.1c0.3-0.1,0.7-0.3,1-0.4c0-0.1,0-0.1,0-0.2
		c0.1,0,0.1,0.1,0.1,0.1c1.1-1,1.8-0.6,2.3,0.1l6.2-16c-0.2-0.4-0.5-0.7-1.1-0.8c-0.3-0.1-0.2-1.4,0.9-1.8c1.2-0.4,1.1-1.9,0.8-2.5
		c-1.5-3-0.2-5.9-0.2-8.8c0-1.2-1.4-2.4-0.9-4c0.4-1.4,1.1-2.8-0.7-4.1c-0.7-0.5,0.7-1.4,0.6-2.2c-0.2-5.4,2.7-9.4,6.1-13.1
		c0.8-0.9,1.2-2.7,1.6-2.5c1.1,0.6,1.2,2.1,1.1,3.4c0,0.6,0.1,1.1,0.1,1.7c1.2,0.4,0.7,1.4,0.4,1.9c-0.5,0.8-1.3,0.7-2.1,0.3
		c-1.6,0.2-2.4,0.5-2.9,2.6c-1.1,4.5,0.4,9.3-1.6,13.7c-0.2,0.3,0.2,0.8,0.7,0.5c2-0.9,1.7,0.5,1.6,1.6c-0.1,0.7-0.6,1.3-0.6,2
		c0,0.5-0.8,1.1,0.2,1.5c0-1,0.5-1,0.9-0.8l3.2-9.8l9.4-24.3c-0.6,0-1.2-0.2-0.7-0.7c0.8-0.8-0.4-2.4,1.1-2.7c0.4-0.1,0.6,0,0.8,0.2
		l3.1-8.1l6.7-6.8c-0.4-0.2-0.4-0.8-0.4-1.2c0-0.7,0-1.4,0.9-1.6s0.7,0.6,0.9,1c0,0.1,0,0.3,0,0.5l1.6-1.6l0.4-0.3l0.5-0.6l9.5-9.7
		v-1.3H1956.9z M1830.7,1083.3c0.1-0.4,0.2-0.8,0.9-0.7c0.5,0.2,0.7,0.6,0.6,1.3c-0.1,0.5-0.4,0.8-0.9,0.7
		C1830.6,1084.4,1830.6,1083.8,1830.7,1083.3z M1796.1,1086.6c-0.3-0.5,0-1.2,0.4-1.5c1.3-0.8,2.8-1.4,4.4-1.4
		c0.6,0,1.2,0.1,1.4,0.6c0.2,0.6-0.3,1-0.8,1.2c-1.4,0.6-2.7,1.6-4.3,1.5C1796.8,1087.2,1796.2,1086.9,1796.1,1086.6z
		 M1801.6,1135.1c-1.1,0-0.7-0.9-0.6-1.5c0-0.3,0.1-0.9,0.7-0.6c0.6,0.2,0.7,0.7,0.7,1.3C1802.3,1134.7,1802,1135.1,1801.6,1135.1z
		 M1802.1,1126.5c-0.5,0-0.9-0.4-0.7-0.8c0.3-0.6,0.7-1.1,1.1-1.7c0.3,0.2,0.8,0.4,0.9,0.7
		C1803.4,1125.6,1802.9,1126.2,1802.1,1126.5z M1820.1,1130.9c-0.6,0-0.7-0.7-0.7-1.2s0.1-1.1,0.8-1.3c0.7,0.2,0.4,0.8,0.4,1.3
		C1820.6,1130.1,1820.8,1130.8,1820.1,1130.9z M1830.1,1143.8c-0.6-0.2-0.9-0.7-0.8-1.3c0.1-0.6,0.5-1,1.1-0.9
		c0.7,0.2,1.1,0.8,1,1.6C1831.1,1143.9,1830.6,1144,1830.1,1143.8z M1839.7,1172.6c-0.1,0.6-0.6,1.1-1.1,0.9
		c-0.7-0.3-0.6-1.1-0.5-1.8c0-0.4,0.2-0.8,0.6-0.7C1839.6,1171.3,1839.9,1171.9,1839.7,1172.6z M1852,1244.8
		c0.9-0.2,1.6,0.3,1.7,1.3c0,0.7-0.3,1.4-1.1,1.4c-0.9,0.1-1.5-0.5-1.7-1.4C1850.6,1245.3,1851.4,1245,1852,1244.8z M1843.1,1229.7
		c0-1.2,1-1.6,2-1.6c1-0.1,1.5,0.5,1.6,1.5c0,1.1-0.4,1.9-1.6,1.9C1843.9,1231.4,1843.1,1230.9,1843.1,1229.7z M1848.7,1291.9
		c-0.6,1.1-1.8,0.7-2.7,1c-0.9,0.2-1.3-0.9-1.7-1.6c-0.3-0.4,0-0.9,0.4-0.8c0.7,0.1,1.3,0.4,1.9,0.6c0.7-0.1,1.2-0.4,1.7-0.3
		C1848.7,1291,1848.9,1291.5,1848.7,1291.9z M1848.5,1274.3c0-0.7,0.5-0.9,1.1-1.1c0.8,0,1.4,0.3,1.4,1.1c0,0.6-0.2,1.2-0.8,1.3
		C1849.3,1275.8,1848.6,1275.3,1848.5,1274.3z M1852.8,1298.9c-0.9,0.4-2,0-2.8-0.4c-0.4-0.2-0.2-1,0.2-1.1c1.6-0.4,2.6-0.9,1.2-2.6
		c-0.1-0.1,0.1-0.5,0.1-0.7c0.2,0.1,0.5,0.1,0.6,0.2c1.2,0.6,2,1.4,2.1,2.9C1854.1,1297.9,1853.5,1298.6,1852.8,1298.9z
		 M1883.4,1220.2c-0.9-0.1-1.4-0.5-1.5-1.6c0-1,0.3-1.7,1.3-1.7s1.9,0.6,1.9,1.8C1885.2,1219.7,1884.2,1219.9,1883.4,1220.2z
		 M1906.7,1167.6c-0.4-0.1-0.7-0.5-0.5-1s0.5-1.1,1.2-0.8c0.4,0.2,0.7,0.5,0.5,1C1907.7,1167.4,1907.3,1167.8,1906.7,1167.6z
		 M1911.2,1159.3c-0.7,0.8-1.4,1.6-2.2,2.5c-0.2-0.2-0.4-0.3-0.5-0.5c-0.1-1.6,1.2-2.4,2.1-3.4c0.4-0.4,0.4,0.4,0.6,0.6
		C1911.3,1158.8,1911.4,1159.2,1911.2,1159.3z M1909.8,1081.7c0.5,0.5,1.6,0.9,0.8,1.9c-0.2,0.3-0.7,0.4-1,0.5
		c-0.2-0.7-0.5-1.3-0.6-2C1909,1081.7,1909.4,1081.6,1909.8,1081.7z M1902.2,1082.4c0-0.6,1.5-1.4,2.7-1.6c1.5,0.4,1,1.8,1.4,2.8
		c0.3,0.8-0.4,1-0.9,0.7C1904.4,1083.5,1902.2,1084.3,1902.2,1082.4z M1907.7,1094.6c-0.3,0-0.5-0.6-0.8-0.9
		c-0.2-0.2-0.3-0.3-0.5-0.5c0,0,0,0,0,0.1h-0.1c0,0.4,0.1,0.7,0.1,1.1c0.1,1.4-1.1,1.9-1.9,2.5c-0.5,0.4-0.5-0.4-0.4-0.6
		c0.6-1.1-0.4-3.4,2.2-3v-0.1l0.1,0.1c-0.1-0.5-0.2-1.1-0.4-1.6c-0.2-0.5-0.1-0.8,0.3-1c0.2-0.1,0.6,0.1,0.7,0.2
		c0.7,0.7,1.2,1.6,1,2.6C1908.1,1093.9,1908.9,1094.7,1907.7,1094.6z M1908.6,1087.2c0.2-0.4,0.5-0.6,1-0.5c0.6,0.9,2.9-0.3,2.3,1.9
		c-0.1,0.5-0.2,1.2-1,1.1C1910.2,1089.7,1908.3,1087.7,1908.6,1087.2z M1914.1,1097.1c-0.2,0.2-0.3,0.5-0.5,0.7
		c-0.8,0.8-0.2,2.7-2,2.8c-0.2,0-0.6-0.2-0.6-0.4c-0.1-1.7,0.5-3,2.1-3.7c0.2-0.1,0.5-0.2,0.8-0.1
		C1914.3,1096.5,1914.3,1096.8,1914.1,1097.1z M1913.4,1089.1c-0.2-1,0.6-1.9,1.3-1.8c1.4,0.1-0.2,1.8,0.9,2.3
		c0.2,0.7-0.2,1.2-0.7,1.2C1913.7,1090.8,1913.6,1089.8,1913.4,1089.1z M1914.3,1114.5c-0.3-0.9,0-1.6,0.9-1.9
		c0.6-0.2,0.7,0.2,0.8,0.6c0.2,0.9-0.4,1.8-1,2C1914.4,1115.4,1914.4,1114.8,1914.3,1114.5z M1916.3,1122.9c-1.1,0.1-0.5-1-0.7-1.5
		c-0.1-0.4-0.4-0.8-0.5-1.2c-0.1-1.2-0.8-3.2,0.4-3.3c1.8-0.1,0.9,1.9,0.9,3c0,0.1,0,0.3,0,0.4c0.1,0.3,0.1,0.5,0.2,0.8
		C1917,1121.9,1917.2,1122.8,1916.3,1122.9z M1928.2,1119.4c-0.8-0.1-0.7-0.7-0.6-1.3c0.1-0.6,0.2-1.2,0.3-1.8h-0.1l0,0l0,0l0,0l0,0
		l0.1-0.1c-0.3,0-0.5-0.1-0.8-0.1c-0.9-0.2-1.6-0.6-2-1.3c0.2-0.1,0.6-0.3,0.7-0.2c0.8,0.4,2.1-0.7,2.5,0.7c0.1,0.3-0.2,0.7-0.4,1
		h0.1c0,0.1,0,0.1,0,0.2c1,0.3,1.5,1,1.3,2.1C1929.1,1118.9,1928.8,1119.5,1928.2,1119.4z M1949.5,1085.1c-0.8-0.2-1.2-0.7-1.3-1.4
		c-0.1-0.5,0.4-0.8,0.8-0.6c0.6,0.3,1.1,0.9,1.1,1.7C1949.9,1084.9,1949.7,1085.2,1949.5,1085.1z M1953.2,1086.1
		c-0.6,0.1-1.1-0.2-1.2-0.9c-0.1-0.8,0.2-1.5,1.1-1.5c0.6,0,0.9,0.6,1.1,1.2C1954.1,1085.4,1954,1086,1953.2,1086.1z"/>
	<path class="st0" d="M1922.4,1108.6c0,0.4,0.7,0.7,0.9,0.3c0.6-0.7,1.6-1.3,0.8-2.5c-0.7-1-0.1-2.1-0.2-3.2c-0.4,0-1,0.1-1,0.2
		C1922.7,1105.2,1922.5,1106.9,1922.4,1108.6z"/>
	<path class="st0" d="M1923.7,1097.1c1-0.2,2.3,0.7,3-0.7c0.1-0.1-0.1-0.6-0.3-0.6c-1.2-0.4-2.5-0.6-3.4,0.7
		c-0.1,0.2-0.3,0.4-0.4,0.6C1922.9,1097.1,1923.3,1097.2,1923.7,1097.1z"/>
	<path class="st0" d="M1924.5,1101.3c-0.4,0.5-0.5,1.2-0.4,1.8c0.2,0,0.5,0,0.7,0c0.6-0.1,1.6,0.3,1.6-0.6
		S1926,1100.5,1924.5,1101.3c0.2-1.6-0.7-2.2-2-2.5C1922,1100.6,1922.8,1101.4,1924.5,1101.3z"/>
	<path class="st0" d="M2228.2,1289.7l-10.2-9.7l-3.6-6.8l-8.2-19.3l-2.5-7.4l-2.5-4.1l-16-37.4c-0.1,2.1,0,4.3-0.3,6.4
		c-0.3,2.3,1,5,1.1,7.7c0.1,2.8,1.8,5.4,1.5,8.3c-0.1,0.8,0.7,1.2,1,1.8c0.7,1.6,0.9,3.1-1.4,3.5c-0.8,0.2-1.5,0.5-1.4,1.3
		c0.1,2.1-1.3,3.3-2.6,4.5c-0.3,0.3-0.6,0.4-0.7,0.9c-0.7,3.9-1.5,3.3-3.7,6.3c-2.2,3.1-7.2,4.3-6.8,9.4c0.1,1.2-1.6,0.8-2.3,0.9
		c-0.9,0.1-0.8-0.9-0.5-1.6c0.6-1.3,1.1-2.6,0.7-4.1c0-0.2-0.3-0.8,0.4-0.6c0.1,0.1,0,0.6,0.2,0.8c0.9,0.8,1.2,0.1,1.3-0.6
		c0-0.5-0.2-1.1-0.5-1.6c-0.9-1.6-0.6-3.1,0.8-4.2c3.6-2.8,4.9-6.6,5.5-10.8c0-0.2,0.3-0.4,0.4-0.7c0,0,0,0-0.1,0c0-0.1,0-0.1,0-0.2
		c-0.9-0.9-0.7-2-0.6-3.1c0-0.4,0.3-0.9,0.8-0.6c0.4,0.2,0.6,0.6,0.5,1c-0.2,0.9-0.5,1.8-0.7,2.7c0,0,0,0.1,0.1,0.1l0,0l0,0l0,0l0,0
		l0,0c1.1-0.3,1.9-2.2,2.3-1.8c1,0.9,0,2-0.8,2.9c-1,1.1-0.1,1.9,0.7,2.4c1,0.6,1.4-0.3,1.9-1c1.7-2.7,1.6-5.9,2.1-8.9
		c0.1-0.6,0-1.4-0.7-1.8c-0.3-0.1-1-0.4-0.8-0.5c3.2-1.7,0.5-3.7,0.2-5.5c-0.8-3.9-0.3-7.9-0.3-11.8c0-1.5,0.5-2.9-0.6-4.4
		c-0.4-0.5,0.1-1.9,0.7-3.4l-2.4-5.6c-0.4,0.5-0.9,0.8-1.6,0.6c-0.8-0.2-0.9-1-0.7-1.7s0.6-1.2,1.4-1l-35.8-83.7l-3.9-12.3l-3.8-5.7
		l-4.5-10.6h-11.4l-23.4,59.3l-4.9,7.3l-4.9,17.5l-7.3,16.5l-6.6,16.8l-1.5,6l-7.3,18.5c0.2-0.1,0.4-0.1,0.6-0.1
		c0.7,0,0.9,0.6,0.8,1.1c0,0.2-0.7,0.3-0.9,0.4c-0.4-0.1-0.8-0.2-0.9-0.4l-13.1,33.2l-8.4,21.4l-1.7,4.2l-5.4,5.3l-5.3,4.2
		l-11.2,9.2l1.4,4.1l30.9-0.8h27.3l10.4,0.7l0.5-3.3l-3.6-2.2l-2.1-1.9l0,0l-19.2-17.1l1-2.6l6.9-12l3.9-16.1l0.1-0.4l5.7-14.9h8.3
		l5.3,0.4c0.5-0.3,0.9-0.5,1.3-0.5c0.3,0,0.7,0.3,1.1,0.6l6.4-0.6h27.1l8.1,1.1l-10.2-12l-4.5-7.6h-28.5l-5.4-1.3l1.9-8.3l4.9-12.8
		l3.2-6.4l6.8-14.1l3.7-14.4l4.7,14.4l6.4,11l10.6,25l1.1,3l0,0l1.3,3.6h-0.1l1.6,4.7l4.7,9.6l1.6,7.3l6.9,13.2l1.6,2.9l12.3,28.8
		l-3,2.6l-9.1,7l-11.7,10.1l0.3,3.1l5.6-0.8h29.5l3.6,0.4l3.3,0.1c1.2-1.7,0.7-3.7-0.1-5.4c-0.9-1.9-1.3-3.8-0.8-5.7
		c0.5-1.9-1.2-3.5-0.5-5.3c0.2-0.6-0.3-0.7-0.6-0.8c-2.5-0.3-2-2.4-2.3-3.9c-0.2-1.1,0.1-1.7,1.2-2.3c1.3-0.7,2.3-0.7,3.5,0
		c1.1,0.7,0.8,1.7,0.6,2.6c-0.7,2.6,0.6,5.2,0.1,7.8c0,0.2,0.2,0.6,0.4,0.7c3.1,0.6,1.6,2.9,1.9,4.6c0.4,0.1,1.1,0.1,1.1,0.3
		c0.4,2-0.1,4.1,1.3,5.9c0.2,0.3,0.4,1.1-0.1,1.7l10.4,0.2l9-0.8h10l0,0l0,0h19.6v-2l-6.6-6.6L2228.2,1289.7z M2175.6,1202.5
		c0.2-0.5,0.8-0.7,1.4-0.5c0.4,0.2,0.7,0.4,0.6,0.9c-0.2,0.5-0.7,0.8-1.3,0.7C2175.6,1203.5,2175.4,1203,2175.6,1202.5z
		 M2064.7,1238.2c-0.2,0-0.5-0.3-0.5-0.5c0-0.9,0.5-1.6,1.2-2.1c0.5-0.3,0.5,0.3,0.6,0.7C2065.9,1237.3,2065.7,1238.1,2064.7,1238.2
		z M2066.6,1229c-0.7,0.8-1.5,1.6-2.2,2.5c-0.3-0.4-0.4-0.5-0.5-0.6c-0.3-0.6,1.1-3.8,1.9-3.9c0.3,0,0.8,0.3,1,0.6
		C2067.3,1228.1,2067,1228.6,2066.6,1229z M2139.7,1150.9c-0.1,0.6-0.1,1.5-1.4,1.1c-1-0.2-2.3-0.6-2-2.3c0.1-0.8,0.7-1.6,1.7-1.5
		C2139.7,1148.4,2140,1149.5,2139.7,1150.9z M2144.4,1199.4c0.3-0.7,0.7-1.2,1.5-1.2c0.6,0,1.3,0,1.3,0.7c0.1,1-0.6,1.5-1.5,1.4
		C2145.2,1200.3,2144.6,1200,2144.4,1199.4z M2149.4,1231.5c-1-0.2-1.9-0.5-2.8-0.8c-0.4-0.1-0.8-0.3-0.5-0.8
		c0.1-0.2,0.5-0.3,0.7-0.2c0.2,0,0.5,0,0.6,0.1c1.3,0.1,1.8-0.4,2.3,0c0.3,0.3,0.5,0.7,0.6,1
		C2150.3,1231.1,2149.8,1231.6,2149.4,1231.5z M2172.5,1228.1c0.7,0.2,1.2,0.7,1.1,1.5c-0.1,0.9-0.5,1.6-1.6,1.7
		c-0.8,0-1.6-0.4-1.4-1.1C2170.9,1229.3,2171.2,1228.2,2172.5,1228.1z M2154.4,1149.7c0-0.4,0.1-0.8,0-1.2c0-0.5,0.1-0.9,0.6-0.6
		c0.3,0.1,0.7,0.5,0.8,0.9c0.1,0.3,0,0.8-0.2,1.2c-0.3,0.5-0.8,1.3-1,1.2C2153.9,1150.9,2154.3,1150.3,2154.4,1149.7z M2155,1195.6
		c-1.2-0.1-0.4-1-0.5-1.5c0.1-0.5,0.3-1,0.4-1.5c0.8,0.5,0.6,1.4,0.8,2.2C2155.7,1195,2155.2,1195.7,2155,1195.6z M2155.3,1182.3
		c-0.5-0.1-0.7-0.3-0.6-0.8c0.1-0.5,0.1-1.2,0.7-1.3c0.7-0.2,0.9,0.5,0.9,1C2156.4,1181.8,2156,1182.2,2155.3,1182.3z
		 M2156.4,1177.1c-0.8,0.1-1.4-0.2-1.5-1.1c-0.1-0.8,0.2-1.4,1.1-1.4c0.8,0,1.7-0.1,2.1,0.9C2158,1176.5,2157.3,1177,2156.4,1177.1z
		 M2162.2,1270.6c-0.8,0-1.4-0.3-1.5-1.1c0-0.6,0.6-0.9,1.2-1c0.8,0.1,1.3,0.5,1.2,1.4C2163,1270.3,2162.6,1270.6,2162.2,1270.6z
		 M2164.8,1208.1c-0.4,0.1-0.9,0-1-0.5s0.3-0.7,0.8-0.8c0.4-0.1,0.8,0.1,1,0.5C2165.6,1207.8,2165.3,1208,2164.8,1208.1z
		 M2169.8,1191.3c0.5-0.1,0.7,0.1,0.9,0.6c0.1,0.9-0.5,1.2-1.2,1.4c-0.2,0-0.6-0.2-0.7-0.4C2168.7,1192.1,2169,1191.6,2169.8,1191.3
		z M2179.3,1260.4c-3.2,5.1-2.7,10.3-0.6,15.6c0.2,0.5,0.2,1.1,0.2,1.6c0,0.2-0.3,0.5-0.5,0.6c-0.4,0.2-0.8,0.2-1.1-0.2
		c-0.1-0.1-0.2-0.2-0.3-0.3c-0.6-0.7-0.5-1.6-0.5-2.4c-0.1-1.1-1.6,0.9-1.5-0.8c0.3-4.5-0.4-9-0.6-13.5c0-1,0-2,0.1-3
		c0-0.4,0-0.9,0.5-0.9s0.4,0.6,0.5,1c0.5,1.2,0.7,3.1,2.7,1.4c0.3-0.2,0.7-0.6,1,0C2179.4,1259.8,2179.4,1260.2,2179.3,1260.4z
		 M2182.4,1272.5c0.1,0.5-0.1,0.5-0.4,0.2c-0.2-0.6-1-1-0.7-1.8c0.1-0.2,0.5-0.4,0.6-0.4C2183.1,1270.9,2182.2,1271.8,2182.4,1272.5
		z M2185.6,1259.6c-0.6,0.6-0.4,1.7-1.4,1.9c-0.1-0.4-0.3-0.8-0.3-1.1c0-0.8,0.5-1.3,1.2-1.4
		C2185.7,1258.8,2186,1259.2,2185.6,1259.6z M2189.2,1239.6c-0.1,0.2-0.4,0.5-0.6,0.5c-0.6,0-0.5-0.6-0.5-0.9c0-0.1-0.1-0.3,0-0.4
		c1.6-3.5,2.2-7.1,2.1-10.9c0-0.2,0.2-0.6,0.4-0.6c0.4-0.1,0.9,0.2,0.9,0.6c0.1,1.2,0.2,2.5,0.2,3.8
		C2192.2,1234.7,2190.6,1237.1,2189.2,1239.6z M2197.3,1267.6c-0.3,0.5,0.3,1.2-0.5,1.5c-0.3-0.9-0.6-1.8-0.9-2.8
		c0-0.1,0.4-0.5,0.6-0.4C2197.5,1266.1,2197.3,1266.9,2197.3,1267.6z M2204,1276.2c-0.9,0-0.9-0.7-0.9-1.4c0-0.7,0.3-1.3,1.2-1.2
		c0.7,0.1,0.8,0.6,0.8,1.1C2205,1275.4,2204.8,1276.2,2204,1276.2z M2205.2,1294.9c-0.5,0.4-0.9,0.1-0.7-0.4
		c0.4-0.8-0.6-1.9,0.6-2.6c0.6-0.1,0.7,0.4,0.7,0.8C2206,1293.5,2206,1294.3,2205.2,1294.9z M2207.3,1269.3
		c-0.1-0.5,0.5-0.5,0.8-0.5c0.7,0.1,1.3,0.4,1.3,1.2c0,0.5-0.4,0.8-0.8,0.6C2208.1,1270.4,2207.4,1270.1,2207.3,1269.3z
		 M2209.1,1278.1c-0.6-0.4-0.7-1.2-0.7-1.9c0-0.1,0.4-0.3,0.6-0.4c0.8,0.3,0.7,1.1,0.8,1.8
		C2209.9,1277.9,2209.6,1278.4,2209.1,1278.1z M2210.8,1298.4c-0.8-0.3-1-0.9-0.8-1.6c0.1-0.4,0.3-0.8,0.9-0.7c0.9,0.3,0.8,1.3,1,2
		C2211.9,1298.5,2211.2,1298.6,2210.8,1298.4z M2215.2,1300c-0.2,0-0.5-0.2-0.7-0.5c-0.3-0.6-0.7-1.2-0.9-1.9
		c-0.4-1.5-0.8-3-1.2-4.4c-0.1-0.4-0.2-0.8,0.2-1c0.1-0.1,0.5,0.2,0.6,0.4c0.8,1.4,2.6,2.5,1.7,4.5c-0.5,0.8,0.2,1.3,0.5,1.9
		C2215.6,1299.5,2215.7,1299.9,2215.2,1300z M2224.6,1291.1c-0.4,0.5-0.9,0.9-1.3,1.4c-0.3-0.5-0.8-0.8-0.8-1.1
		c-0.1-1.3,1-1.1,1.7-1.2C2224.5,1290.1,2224.9,1290.7,2224.6,1291.1z M2227.2,1295.5c-0.2,0-0.7-0.2-0.6-0.3
		c0.2-0.8,0.7-1.1,1.5-1.1c0.2,0.1,0.7,0.3,0.7,0.4C2228.6,1295.4,2227.8,1295.4,2227.2,1295.5z"/>
	<path class="st0" d="M2184.7,1292.9c-0.6,0.1-0.9,0.7-1,1.2c-0.2,0.9,0.1,1.8,0.8,2.3c1.4,1,1.6,0,1.6-1.1
		c-0.4-0.3-0.6-0.8-0.6-1.3C2185.5,1293.4,2185.6,1292.7,2184.7,1292.9z"/>
	<path class="st0" d="M2514.9,1290.4v-11.9l0.6-10.3l1.2-17.1l-0.5-17.3l-1.4,0.3v-0.1h-2.3l-24.6,31.1l-4.7,5.6l-1.3,1.8
		c0.2-0.1,0.4-0.3,0.7-0.5s0.7-0.6,1,0c0.1,0.2,0.1,0.6,0,0.8c-3.2,5.1-2.7,10.3-0.6,15.6c0.2,0.5,0.2,1.1,0.2,1.6
		c0,0.2-0.3,0.5-0.5,0.6c-0.4,0.2-0.8,0.2-1.1-0.2c-0.1-0.1-0.2-0.2-0.3-0.3c-0.6-0.7-0.5-1.6-0.5-2.4c-0.1-1.1-1.6,0.9-1.5-0.8
		c0.3-3.5-0.1-7-0.4-10.5l-5.3,6.7h-25.3l-6.2-0.8l-9.1,0.8h-21.1h-1.1l1.2-18l-1.3-13.9v-8.8l0.3-3.4c-0.2,0.1-0.5,0.2-0.7,0.2
		c-0.4,0.1-0.9,0-0.8-0.5c0.1-0.5,0.4-1.1,1-1.1c0.2,0,0.5,0.2,0.6,0.4l0.7-9l0.3-18v-0.6c-0.1,0.4-3.9,2.1-4.1,1.8
		c-0.2-0.2-0.3-0.5-0.3-0.7c0.2-1.3,2.8-2.5,3.9-1.8c0.2,0.1,0.3,0.4,0.5,0.6l-1.1-85.2c-0.1,0-0.4,0-0.5-0.1
		c-0.1,0-0.2-0.3-0.2-0.3c0.2-0.5,0.5-0.9,0.7-1.4l-0.3-20.2l3.9-3.3l9.2-5.4l12-10.2l-1.3-4.1h-16.4l-6.7,1.1h-4.5
		c0,0.2,0,0.3,0,0.5c0,0.3,0.1,1.3-0.8,1.9c-0.2,0.1-0.6,0.1-0.7-0.1c-0.9-0.8-0.4-1.6-0.1-2.4h-14l-5.7-0.8h-7.6
		c-0.1,0.4-0.3,0.7-0.8,0.8c-0.4,0.1-0.5-0.4-0.5-0.8h-7.4l-7.1,0.8H2342c0,0,0,0,0,0.1c-0.2,0.8-0.3,1.7-1.5,1.6
		c-1-0.1-2.1-0.1-2.1-1.3c0-0.1,0.1-0.2,0.1-0.3h-1.7v1.7l0.5,0.4h-0.3l-0.5-0.2l11,11.3l9.1,5.4l4,3.4v12c0.2,0.2,0.3,0.5,0.3,0.8
		c0.4,1.9,2.3,2.8,3.2,4.3c0.3,0.5,1.7,0.1,1.1,1.2c-0.3,0.5-0.9,0.6-1.5,0.5c-1.1-0.2-2.1-0.7-3.3-0.6l0.2,4.2v4.6
		c0.4,0.4,0.9,0.7,0.8,1.3c-0.1,0.3-0.4,0.3-0.8,0.2v12.3l-1.6,12.3l0.2,17.7l0.1,17.7l0.8,17.7l0.4,17.7l0.1,1.1v25.8l-1.3,8.6
		l-0.1,17.1l-3.6,4.8l-18.7,15.8v2h27.4l8.2,1.2l7.5-1.2h45.9c0.5-1.2,1.2-2.3,1.8-3.4c0.6-1,2.7-0.3,2.5-2.3c0-0.4,0.7-0.4,0.9,0
		c0.8,1.5,2,1.2,3.3,1c0.4-0.1,0.9,0.1,1,0.5s-0.1,0.9-0.3,1.1c-0.7,0.8-1.6,1.1-2.6,0.7c-1.5-0.6-2.6-0.1-3.6,1.4
		c-0.3,0.4-0.5,0.7-0.6,1h46l4.9,0.1l0.8-0.1h6.3c-0.3-1.2-0.9-2.4-0.5-3.6c0.2-0.6-0.3-0.7-0.6-0.8c-2.5-0.3-2-2.4-2.3-3.9
		c-0.2-1.1,0.1-1.7,1.2-2.3c1.3-0.7,2.3-0.7,3.5,0c1.1,0.7,0.8,1.7,0.6,2.6c-0.7,2.6,0.6,5.2,0.1,7.8c0,0,0,0.1,0.1,0.2h18.9
		l8.7,1.1L2514.9,1290.4z M2430.1,1084.3c0.9,0,1.8,0.2,1.6,1.4c-0.1,0.6-0.6,1.2-0.9,1.8c-0.6-0.8-1.6-1.2-1.8-2.2
		C2429.1,1084.6,2429.5,1084.2,2430.1,1084.3z M2412.6,1096.7c1,0.1,0.9,0.9,0.9,1.6c0,0.4-0.2,0.8-0.2,1.2
		c-0.4-0.7-0.9-1.4-1.3-2.1C2412.3,1097.1,2412.5,1096.7,2412.6,1096.7z M2409.7,1137.1c0.5,0.4,0.6,1,0.4,1.5
		c-0.1,0.4-0.5,0.9-0.9,0.5L2409.7,1137.1z M2410.7,1157.6c0.4,0.2,0.8,0.4,0.8,0.5l-2.9,0.8
		C2408.8,1157.3,2410.4,1158.5,2410.7,1157.6z M2363.5,1088.7c-0.1,0.4-0.3,0.9-0.8,0.6c-0.6-0.3-0.7-0.8-0.5-1.4
		c0.1-0.4,0.4-0.7,0.9-0.6C2363.7,1087.6,2363.7,1088.2,2363.5,1088.7z M2407.4,1095.3l-0.6-0.5
		C2407.1,1095,2407.5,1095.3,2407.4,1095.3z M2407.5,1214.3c1,0.3,0.9,1.3,1.3,1.9c-0.3,0.4-0.7,0.6-1.1,0.4c-0.6-0.3-1.1-0.8-1-1.6
		C2406.8,1214.6,2407,1214.2,2407.5,1214.3z M2404.4,1217.3c0.1-0.5,0.5-1.4,1-1c0.8,0.6,0.4,2.1,1.8,2.6c0.4,0.1-0.9-0.1-0.9,0.5
		C2404.9,1219.3,2404.1,1218.7,2404.4,1217.3z M2403.4,1233.9c0.7,0.1,1.1,0.5,0.6,1.1c-0.3,0.5-0.5,1.5-1.5,1
		c-0.5-0.3-0.9-0.6-0.8-1.4C2401.9,1233.7,2402.7,1233.8,2403.4,1233.9z M2401.9,1216.1c-0.5,0.6-1.2,1.1-1.4,1.9
		c-0.9-0.3-0.3-1.2-0.6-1.7c-0.1-0.8-0.2-1.5,1-1.2C2401.4,1215.3,2402.2,1215.8,2401.9,1216.1z M2391.9,1215.2
		c1.3,0.1,1.1,1.3,1.6,1.8c-0.1,0.7-0.4,1.2-0.8,1c-1-0.4-0.8-1.5-1.2-2.3C2391.4,1215.6,2391.8,1215.2,2391.9,1215.2z
		 M2391.1,1243.7c0.2-0.7,0.7-1,1.2-0.7c0.8,0.5-0.3,0.8-0.3,1.2c-0.5,0.8,1.5,1.6,0,2.4c-0.5,0.3-0.7-0.1-1-0.4
		C2390,1245.4,2390.8,1244.6,2391.1,1243.7z M2390.8,1259.1c1.1,0,1.7,0.9,2.5,1.5c-0.6,0.2-1.3,0.5-1.9,0.6
		c-0.9,0.1-1.6-0.3-1.5-1.4C2390,1259.2,2390.4,1259.1,2390.8,1259.1z M2382.6,1084.6c0.4,0,0.7,0.3,0.7,0.9c-0.4,0.9-1,1.5-2.1,1.5
		c-0.4,0-0.9-0.2-0.7-0.7C2380.8,1085.3,2381.6,1084.7,2382.6,1084.6z M2383.2,1089.9c-0.2,0.9-0.6,1.7-1.4,2.2
		c-0.6,0-0.9-0.4-0.9-0.8c-0.1-1.1,0.3-1.9,1.5-2.1C2382.8,1089.2,2383.2,1089.5,2383.2,1089.9z M2377.8,1083.3
		c0-0.2,0.6-0.6,0.9-0.6c1.1,0.1,0.8,0.8,0.5,1.5c-0.4,0.4,0.1,1.8-0.7,1.5C2377.6,1085.5,2377.8,1084.2,2377.8,1083.3z
		 M2379.9,1150.8c-0.2-0.2-0.5-0.3-0.5-0.6L2379.9,1150.8z M2379.3,1131.1l-1.6,1C2377.8,1131.2,2378.7,1131.4,2379.3,1131.1z
		 M2377.1,1138.9c0.5,0,0.7,0.3,0.9,0.7c-0.1,0.2-0.2,0.5-0.3,0.7c-0.8,0.5-3.5,0.2-0.8,2.2c0.9,0.6-0.3,1.1-0.8,1.3
		c-0.8,0.3-1.7,0.5-2.1-0.6C2373.5,1142,2375.8,1139,2377.1,1138.9z M2376.8,1161.6c-0.2,0.4-0.3,0.8-0.4,0.8c-1-0.3-1-1.4-1.8-1.9
		c-0.2-0.1,0-0.6,0.3-0.6C2376,1160,2376.6,1160.6,2376.8,1161.6z M2373.5,1116.6c0.2,0.8-0.5,0.8-0.9,1c-0.8-0.1-1.5-0.4-1.5-1.2
		c0-0.7,0.7-0.7,1.2-0.7C2373,1115.7,2373.4,1116,2373.5,1116.6z M2371.4,1093.3c0.4,0.3,0.9,0.6,0.9,0.8c-0.2,1-0.7,1.9-1.8,1.9
		c-0.6,0-1.2-0.5-1.1-1.1C2369.6,1094.1,2370.4,1093.5,2371.4,1093.3z M2368.9,1084.2c1-0.7,0.7,0.4,0.7,0.7c0,0.6,0.5,1.6-0.7,1.5
		c-0.5,0-1-0.5-1.4-0.8C2367.5,1084.5,2368.4,1084.5,2368.9,1084.2z M2368.2,1137.2c-0.7-0.9-2-0.9-2.7-1.7
		c-0.2-0.2-0.4-0.8-0.3-1.1c0.2-0.5,0.9-0.2,1,0.1c0.7,1,2.4,0.8,2.7,2.3C2368.7,1137,2368.8,1137.9,2368.2,1137.2z M2370.2,1127
		c-0.2,0.5-0.3,1.1-1.1,0.9c-0.4-0.1-0.7-0.5-0.6-0.9c0.1-0.6,0.5-1.1,1-1.1C2370.4,1125.8,2370.2,1126.5,2370.2,1127z
		 M2369.9,1102.7c-0.3-0.7-0.7,0.1-1-0.1c-0.6-0.2-1.3-0.6-1.1-1.4c0.2-0.5,0.8-0.7,1.3-0.5c0.8,0.2,1.7,0.1,2.2,0.5
		c0.9,0.7,0.4,1.5-0.2,2.1c-0.2,0.2-0.2,1-0.7,0.5C2370.1,1103.6,2370.1,1103.1,2369.9,1102.7z M2371.9,1150.8
		c-0.8,0.1-1.7-0.7-1.4-1.1c0.6-0.7,1.7-0.9,2.8-1.4c0.5,0,0.9,0.6,0.9,1C2374,1150.6,2372.9,1150.6,2371.9,1150.8z M2373.5,1153.3
		c0.1-0.7,0.1-1.3,0.8-1.4c0.3-0.1,0.6-0.1,0.8,0c0.7,0.4,0.2,0.9,0,1.4c-0.1,0.1-0.1,0.2-0.2,0.3c-0.6,0.6,0.8,2-0.4,2
		C2373.2,1155.6,2374,1153.9,2373.5,1153.3z M2375,1299c-0.4,0.3-0.9-0.4-1-1c-0.2-1.8,1.3-1.9,2.4-2.3c0.6-0.2,0.9,0.4,0.9,1
		C2377.4,1298.3,2375.9,1298.3,2375,1299z M2375.9,1258.3c0.5,0.2,1,0.4,1.2,1c0.1,0.6-0.1,1.2-0.6,1.4c-0.6,0.2-0.9-0.4-1-1
		C2375.4,1259.2,2375.4,1258.7,2375.9,1258.3z M2376.6,1227.8c-0.6-0.2-1.5,0.8-1.5-0.6c0-0.4,0.4-1.2,1.1-0.9c0.7,0.3,2-0.4,2,0.9
		C2378.2,1228.4,2377.1,1227.4,2376.6,1227.8z M2377.8,1136.4c-0.6,0-0.9-0.5-1-1c-0.1-0.4,0-0.8,0.5-0.8c0.5,0.3,1.4,0.2,1.3,1.2
		C2378.6,1136,2378.3,1136.4,2377.8,1136.4z M2379.2,1158.4l-0.6,0.4C2378.6,1158.8,2379,1158.6,2379.2,1158.4z M2379.8,1212.6
		c-0.4,0-1-0.3-1-0.4c0.1-1,0.8-1.3,1.7-1.3c0.4,0,0.7,0.2,0.8,0.7C2381.2,1212.5,2380.5,1212.6,2379.8,1212.6z M2380.9,1157.8
		c-0.7-0.2-1.3-0.7-0.8-1.5c0.4-0.7,1.2-0.6,1.8-0.3c0.5,0.2,1,0.5,0.8,1.2C2382.3,1158.1,2381.6,1158.1,2380.9,1157.8z
		 M2382.5,1218.6c0.2-1.1,1.1-1.7,2.2-1.4c0.7,0.2,1.7,0.3,1.7,1.5c-0.6,1-1.2,2-2.6,1.7C2382.9,1220.2,2382.3,1219.5,2382.5,1218.6
		z M2384.3,1210.3c0-0.5,0.3-0.8,0.8-0.8c0.6,0,1,0.5,1,1.1c0,0.5-0.3,0.8-1.1,0.7C2384.7,1211.3,2384.3,1211,2384.3,1210.3z
		 M2385.4,1253.6c-0.7,0-1.1-0.7-1.5-1.3c0.4-0.5,0.8-1.5,1.3-1.5c0.9-0.1,1.1,1,1.2,1.7C2386.6,1253.1,2386,1253.6,2385.4,1253.6z
		 M2386.3,1094c-0.4,0.3-0.9,0.5-1.3,0.7c-0.4,0.4-0.6,0.4-0.7,0c0-0.2,0.1-0.5,0.3-0.7c0.3-0.4,0.8-0.8,1.4-0.8
		c0.4,0,1.1-0.1,1.1,0.1C2387.5,1094.2,2386.6,1093.8,2386.3,1094z M2387.8,1282.7c-0.3-0.6,0.1-1.3,0.7-0.9c0.9,0.7,1.5-0.6,2.2,0
		c-0.3,0.9-1.4,0.9-2,1.5C2388.6,1283.4,2387.9,1283,2387.8,1282.7z M2388.7,1292.3c-0.3-0.7-0.1-1.3,0.3-1.9c0.8,0.2,0.8,1,1.1,1.6
		c0.2,0.6,0.2,1.1-0.6,1.1C2389,1293.1,2388.9,1292.7,2388.7,1292.3z M2391.3,1297c-0.6-0.2-1.5,0-1.6-0.9c-0.1-0.6,0.4-1,1-1.1
		c0.8,0,1.3,0.3,1.4,1.2C2392.1,1296.7,2392.2,1297.3,2391.3,1297z M2393.7,1295.8c-0.4-0.1-0.7-0.4-0.7-0.8c0-0.6,0.2-1.1,0.8-1.3
		c0.9-0.2,0.7,0.6,0.8,1.1C2394.5,1295.3,2394.5,1295.9,2393.7,1295.8z M2394.8,1288.1c-0.4-0.1-0.8-0.4-0.7-0.9
		c0.3-0.8,0.8-1.5,1.8-1.4c0.4,0,0.8,0.4,0.7,0.6C2396.4,1287.7,2395.9,1288.3,2394.8,1288.1z M2399.4,1088.5c0.7,0,1.3,0.2,1.4,1
		c-0.2,0.4-0.5,0.7-0.9,0.6c-0.7-0.3-1.5-0.5-1.6-1.4C2398.3,1088.6,2399,1088.5,2399.4,1088.5z M2399,1226.5
		c0.8,0.5,1.6,1.1,1.3,2.3c-0.1,0.4-0.3,0.7-0.5,1c-1-0.6-0.7-1.7-1.1-2.5C2398.5,1227,2398.4,1226.5,2399,1226.5z M2399,1280.8
		c0.1-0.7,1-0.9,1.6-1c0.7,0,1.3,0.2,1.3,0.8c0.1,1.1-0.9,0.9-1.5,0.9C2399.8,1281.7,2398.9,1281.9,2399,1280.8z M2402.5,1291.8
		c-0.5,0-0.7-0.3-0.7-0.7c0-0.8,0.7-1.1,1.4-1.2c0.4-0.1,0.7,0.2,0.7,0.8C2403.6,1291.2,2403.2,1291.7,2402.5,1291.8z M2404,1287.9
		c-0.4-0.2-0.6-0.7-0.3-1.1c0.6-0.7,1.3-0.2,1.9,0.1c0.3,0.1,1,0.1,0.5,0.8C2405.3,1287.9,2404.7,1288.4,2404,1287.9z
		 M2406.4,1296.3c-0.3-0.1-0.5-0.6-0.7-0.9c-0.2-0.6,0.2-0.8,0.6-0.7c0.7,0.1,1.4,0.3,2.3,0.5
		C2407.6,1295.4,2407.3,1296.5,2406.4,1296.3z M2409.1,1285.8c-0.7-0.4-2.2-0.1-2.1-1.2c0-0.4,0.7-2,1.9-1.8
		c1.1,0.2,0.3,1.4,0.7,2.1C2409.8,1285.5,2409.9,1286.2,2409.1,1285.8z M2413.1,1291.6c-1.2,0.1-0.7-1.2-1-1.8
		c-0.2-0.4,0.2-0.7,0.7-0.8c0.7,0,0.9,0.6,0.9,1.2C2413.7,1290.7,2413.6,1291.6,2413.1,1291.6z M2419.4,1290.7
		c-0.7,0.1-1.4,0-1.7-0.8c-0.3-0.9,0.4-0.8,0.9-0.9c0.7,0,1.4,0,1.6,0.9C2420.2,1290.5,2419.9,1290.6,2419.4,1290.7z M2486.9,1284.8
		c0.1,0.5-0.1,0.5-0.4,0.2c-0.2-0.6-1-1-0.7-1.8c0.1-0.2,0.5-0.4,0.6-0.4C2487.6,1283.2,2486.7,1284.1,2486.9,1284.8z M2490,1271.9
		c-0.6,0.6-0.4,1.7-1.4,1.9c-0.1-0.4-0.3-0.8-0.3-1.1c0-0.8,0.5-1.3,1.2-1.4C2490.1,1271.2,2490.4,1271.5,2490,1271.9z
		 M2501.7,1279.9c-0.3,0.5,0.3,1.2-0.5,1.5c-0.3-0.9-0.6-1.8-0.9-2.8c0-0.1,0.4-0.5,0.6-0.4
		C2501.9,1278.4,2501.7,1279.2,2501.7,1279.9z M2508.5,1288.5c-0.9,0-0.9-0.7-0.9-1.4c0-0.7,0.3-1.3,1.2-1.2
		c0.7,0.1,0.8,0.6,0.8,1.1C2509.5,1287.7,2509.2,1288.5,2508.5,1288.5z M2508,1252.6c-1.1,0.2-1.2-0.9-1.3-1.7
		c-0.1-0.6,0.2-1,0.7-1.3c0.6,1.1,2,0.4,2.7,1.4C2509.7,1251.9,2508.8,1252.4,2508,1252.6z M2510.6,1237.8c0.2-0.4,0.6-0.6,1-0.4
		c0.8,0.4,2.5-0.4,2.4,1.5c0,0.4-0.1,0.8-0.6,0.8C2512.3,1239.7,2510.3,1238.4,2510.6,1237.8z M2511.8,1281.7
		c-0.1-0.5,0.5-0.5,0.8-0.5c0.7,0.1,1.3,0.4,1.3,1.2c0,0.5-0.4,0.8-0.8,0.6C2512.6,1282.7,2511.9,1282.4,2511.8,1281.7z
		 M2513.6,1290.4c-0.6-0.4-0.7-1.2-0.6-1.9c0-0.1,0.4-0.3,0.6-0.4c0.8,0.3,0.7,1.1,0.8,1.8
		C2514.4,1290.3,2514.1,1290.7,2513.6,1290.4z"/>
	<path class="st0" d="M2360.7,1119.4l-0.1,1C2361.1,1120.2,2361.3,1120,2360.7,1119.4z"/>
	<path class="st0" d="M2838.7,1146.4c0.5-0.5,1.1-1.1,0.9-2c-0.1-0.4-0.1-0.9-0.6-0.8c-1,0.3-1,1.2-1,2
		C2837.9,1146,2837.9,1146.4,2838.7,1146.4z"/>
	<path class="st0" d="M2848.3,1268.6l2.4-0.4C2849.7,1267.4,2849,1267.9,2848.3,1268.6z"/>
	<path class="st0" d="M2874.2,1301.1v-0.7l-1.5-1.3c-0.4,0-0.8-0.1-0.7-0.5c0,0,0,0,0-0.1l-2.4-2.1c-0.5,0.1-0.9,0.1-1.2,0
		c-0.5-0.2-1.2-0.2-1.1-1c0-0.3,0.3-0.4,0.5-0.5l-13-11.1l-1.8-1.6l-2-2v-0.5c-0.7,0-1.3,0-2-0.2c-1.1-0.4-2.3,1-3.1,0.1
		c-0.9-1,0-2.1,0.3-3.2c0.1-0.4,0.1-0.9-0.1-1.2c-1-1.4-1-2.5-0.5-3.5l-1.8-2.4l2.7-0.5c-0.5-0.4-0.8-0.9-0.8-1.5
		c0.1-3.8-1.8-7.4-1.1-11.3c0.5-2.5,0.8-2.8,3.3-1.7c1.5,0.7,2.4-0.2,3.6-0.4c0.2,0,0.5,0,0.8,0c-0.1,0.2-0.2,0.5-0.3,0.6
		c-0.5,0.3-1,0.5-1.5,0.8c-1.2,0.8-3.2,0.9-2.9,3.1c0.4,2.7,0.5,5.4,2.9,7.3c0.5,0.4,1,0.5,1.6,0.3h0.1l0.3-3.4l0.9-17.7l-2.5-14.3
		v-40.4c-0.5-0.2-0.8-0.6-0.7-1.3c0-0.6,0.4-0.8,0.7-0.9v-10.3l0.3-3.7l-0.3-2.2v-44l0.7-7l0.1-3.9c-0.4-0.1-0.9-0.7-0.7-1.4
		c0.1-0.4,0.4-0.7,0.7-0.9l0.2-11.1l10.8-7.6c-0.1-0.1-0.2-0.3-0.2-0.5c0.1-1.2,0.9-2.2,2-2.3c0.6-0.1,0.5,0.5,0.5,1l10.6-9.8
		l-1.2-5.1l-8.3,1.8h-21.2h-0.4c0.2,0.6,0.5,1.2,1.1,1.9c0.6,0.6,0.3,1.8-0.4,2.4c-1.4,1.3-1.6,3.3-2.8,4.7c-0.9,1-1.4,2.4-1.3,4
		c0,2,1.1,2.4,2.8,1.9l-0.1-0.1l0.1,0.1l0,0c0.4,0.4,1,0.9,0.9,1.2c-0.6,2.6,0.6,4.5,1.7,6.6c0.6,1,0.1,1.8-1,2.3
		c-3.6,1.6-5.3,4.6-5.1,8.4c0.1,1.9-1.3,3.8-0.1,5.8c0.3,0.5-0.1,1.4-0.9,1.8c-2,1-2.5,2.5-1.4,4.5c0.3,0.6,0.2,1.4,0.2,2.1
		c0,1.1-0.6,2-1.6,2.2c-1.2,0.2-1.1-1.2-1.3-1.8c-1-3.2-2-6.7-0.3-9.8c1.9-3.4,2.3-7,2.3-10.7c0-2.7,0.6-5.1,1.8-7.3
		c0.9-1.7,1.4-3.5,0.7-5.3c-0.6-1.8-0.5-3.6-0.3-5.5c0.3-3.2,1.1-6.2,1.9-9.3h-37.5h-21.8h-5.2v2l12.5,10.7l9.1,10.1l1.8,9.3v67.2
		h-7.4h-8c0.6,0.4-0.1,1,0.1,1.5c-0.3,0.4,0.6,1.1-0.4,1.2c-0.2,0-0.6-0.6-0.6-0.9c0.1-0.6,0.4-1.2,0.6-1.8h-13.7h-8.4h-21h-18.9
		l-6.9-1.6l-16.3,1.1l-0.6-4.1v-72.6l11.9-10c-0.4-1.5-0.3-2.7,1.1-3.7c0.4-0.3,0.6-1,1.3-0.6s0.8,1.1,0.4,1.8
		c-0.1,0.1-0.2,0.2-0.2,0.3l1.1-1l9-5.9l-0.7-5.2l-16.1,2.3h-2.4l-14.5-0.6l-4.8,0.1v0.1c0.1,0.6-0.1,1.2-0.8,1.2
		c-0.4,0-1.1-0.2-1.1-0.3c0-0.4,0.1-0.7,0.4-1h-2.3c0,0.5-0.4,1.1-0.6,1.7c-0.2,0.6,0.9,1.6,0,1.7c-1.2,0.1-0.7-1.2-0.7-1.9
		c0-0.5,0-1,0-1.5l-6.5,0.1l-16.4-0.6l-5.9,1h-26.9v2l18.7,15.8l3.4,4.9l1.6,16.5v1.1l-0.8,6.5c0.1,0,0.3,0,0.4,0
		c0.8,0.2,2-0.5,2.5,0.6c0.1,0.7-0.3,1.1-0.6,1.1c-0.9,0.1-1.8-0.1-2.3-0.8l-1.2,9.9l0.4,17.7l1.7,14.9v41.5l-0.2,14.5l-1.4,17.7
		l1.7,11.3v12.6l-1.6,10.8l-3.6,5.1l-18.5,15.7v2h27.3c-0.1-0.1-0.1-0.1-0.2-0.3c-0.3-0.9-0.7-1.8-1-2.7c0.2-0.1,0.6-0.3,0.7-0.2
		c1,0.8,1.9,0,2.8-0.1c0.2,0,0.6,0.1,0.7,0.3c0.2,0.4-0.1,1-0.4,1c-1.6,0-1.7,0.9-1.4,2h0.6c0.1,0,0.2,0,0.3,0h26.8l9.2,1.9l16.4-1
		l1.7-0.2c0.1-1.1,1.4-1.1,2.1-1.5c0.5-0.3,1,0.2,1.1,0.9c0,0.1-0.1,0.2-0.1,0.3l3.2-0.4h8.2v-1.1l1-1.9l-6.5-3.6l-13.7-11.6
		l-3.6-4.3l0.9-15.7l-1.8-10.5v-10.8v-2.1c-0.1-0.3-0.2-0.6-0.2-0.9c0-0.1,0.1-0.3,0.2-0.4l0.1-23.6l-0.1-1.8v-14.2h6.7l10.2,1.3
		l16.9-0.8l10.5-0.5h11.2l12,0.8h16.9l5.2,0.1c-0.2-0.1-0.3-0.3-0.3-0.6c0.3-1,1.2-0.3,1.7-0.6c0.4,0.1,1.2-0.3,1,0.3
		c-0.1,0.5-0.5,0.8-1,1l9.2,0.2l1,5.1v49.5v17.8v7.1l-19.5,16.7c-0.2,0.3-0.4,0.5-0.7,0.6l-3.2,2.8v2h7.8h0.1c0-0.1,0-0.2-0.1-0.4
		c0.1-2.2,0.5-2.5,2.5-1.4c0.6,0.4,1.1,0.6,1.8,0.5s1,0.5,0.9,1.1v0.1h19.2l6.8,0.8l15.3-0.8h8.5l15.1,0.7h18.9c0-0.1,0-0.2-0.1-0.3
		C2873.1,1302.2,2873.5,1301.6,2874.2,1301.1z M2855.7,1097.1c0.6,0.1,0.8,0.6,0.9,1.2c-0.1,0.5-0.3,0.9-0.8,0.7
		c-0.5-0.2-1-0.6-0.9-1.2C2854.9,1097.3,2855.2,1097,2855.7,1097.1z M2716.3,1082.4c0.6,0.1,1.2,0.2,1.2,1s-0.4,1.4-1.2,1.3
		c-0.6-0.1-0.8-0.7-0.9-1.3C2715.2,1082.7,2715.7,1082.4,2716.3,1082.4z M2651.1,1276.3c-0.7,0.4-0.5-1.4-0.9-2.2
		c-0.4-0.9,0.4-1.5,1.3-1.6c0.5-0.1,1,0.3,0.9,0.6C2652.1,1274.3,2651.8,1275.9,2651.1,1276.3z M2653.4,1130.7
		c-1.6-0.3-0.5-1.9-1.3-2.6c0.1-0.2,0.2-0.6,0.4-0.6c0.5-0.2,1.9,1.6,1.7,2.3C2654.1,1130.1,2653.6,1130.7,2653.4,1130.7z
		 M2714.3,1298.2c0.9-0.2,0.4,0.7,0.6,1.1c-0.3,0.4,0.3,1.5-0.8,1.3c-0.5-0.1-0.9-0.7-0.8-1.3
		C2713.3,1298.6,2713.8,1298.2,2714.3,1298.2z M2695.9,1126.4c0.1,0.1,0.1,0.5,0.1,0.7c-1.2-0.1-1.5,1.6-2.6,1.6
		c-0.4,0-0.8-0.2-1-0.7c0.2-0.8,0.7-1.4,1.5-1.8C2694.6,1125.9,2695.3,1126,2695.9,1126.4z M2689.9,1184.8c0.6-0.6,0.1-2.3,1.8-1.7
		c0.8,0.3,1,0.9,0.9,1.7c-1.1,0-1.2,1.7-2.3,1.6C2689.3,1186.3,2689.4,1185.3,2689.9,1184.8z M2689.6,1237.2
		c-0.1,0.4-0.1,0.9-0.6,0.8c-0.6-0.2-0.8-0.7-0.8-1.3c0-0.5,0.4-0.8,0.8-0.7C2689.7,1236,2689.5,1236.7,2689.6,1237.2z
		 M2690.5,1172.7c0.3-0.9,1.3-1,2-1.3c0.6-0.2,0.7,0.2,0.8,0.7c-0.3,1-0.9,1.8-2.1,1.5C2690.7,1173.6,2690.4,1173.1,2690.5,1172.7z
		 M2692.6,1228.7c0-0.4,0.4-0.7,0.9-0.7c0.6,0.4,0.3,1,0.1,1.5s-0.3,1.1-0.9,1.3C2692.6,1230,2692.5,1229.3,2692.6,1228.7z
		 M2693.4,1097.2c-0.2,0.8-0.5,1.6-1.6,1.5c-0.7-0.1-0.8-0.6-0.6-1.2c0.1-0.8,0.3-1.7,1.4-1.5
		C2693.3,1096.1,2693.5,1096.6,2693.4,1097.2z M2690.6,1083.3c0.5,0,1.1,0.4,1,1c0,0.4-0.4,0.6-0.7,0.6c-0.7,0-1.3,0-1.4-0.7
		C2689.5,1083.6,2690.1,1083.3,2690.6,1083.3z M2689.5,1101.3c0.8,0,0.6,0.7,0.5,1.2c-0.1,0.7-0.2,1.4-1.1,1.5
		c-0.6-0.3-0.9-0.8-0.8-1.4C2688.3,1101.9,2688.7,1101.3,2689.5,1101.3z M2688.4,1173.7c0.4,0,0.7,0.3,0.5,0.8s-0.2,1.3-1.1,1.3
		c-0.1,0-0.3-0.7-0.3-1.1C2687.5,1174.2,2687.7,1173.7,2688.4,1173.7z M2688.3,1246c1.5-0.1,1.5,1.4,2.1,2.2
		c0.5,0.7-0.4,0.4-0.6,0.5c-1.2-0.4-2.5-0.5-2.5-2.2C2687.3,1246.4,2687.9,1246,2688.3,1246z M2687.1,1178.4
		c-0.6,1.8-2.8,1.1-3.8,2.5c-0.2,0.3-0.6-0.4-0.4-0.8c0.3-1,3.1-2.9,3.9-2.8C2687.2,1177.6,2687.3,1178,2687.1,1178.4z M2685,1100.7
		c0.1-0.6,0.2-1.2,1-0.9c0.4,0.1,0.7,0.5,0.5,1.1c-0.2,0.3-0.3,1.1-1.1,0.9C2684.8,1101.5,2684.9,1101.1,2685,1100.7z
		 M2682.4,1175.2c0.8-0.2,1.6-0.2,2.4-0.3c0.7-0.1,1.2,0.2,1.2,0.8c0.1,0.8-0.7,0.8-1.2,0.7c-0.8-0.1-1.5,0.8-2.3,0.2
		c-0.4,0-0.9,0.4-1.1-0.2C2681.4,1175.7,2681.9,1175.3,2682.4,1175.2z M2675.7,1214.2c0-1,0-2.3,1.2-2.3c0.7,0,0.3,1.4,0.6,2.1
		c0,0.7-0.2,1.5-1.1,1.4C2675.7,1215.5,2675.7,1214.7,2675.7,1214.2z M2672.8,1169.9c0.8-0.1,1.3,0.1,1.4,0.8
		c0.1,0.8-0.7,0.9-1.1,0.7c-0.5-0.1-1.6,0.4-1.4-0.8C2671.7,1170.1,2672.4,1169.9,2672.8,1169.9z M2663.8,1126.9
		c0.3-0.5,0.3-1.4,1.2-1.4c0.2,0.2,0.5,0.3,0.5,0.5c0.1,0.9-0.7,1-1.2,1.4C2664,1127.5,2663.4,1127.5,2663.8,1126.9z M2657.9,1204.7
		c0.6-0.2,0.9,0.4,0.9,0.9c0,0.3,0,0.9-0.6,0.6c-0.4-0.2-0.9-0.3-1.5-0.4C2657.2,1205.4,2657.5,1204.8,2657.9,1204.7z
		 M2656.7,1274.2c-1.1,0-1.6-0.7-1.6-1.6s-0.3-2.2,1.1-2.4c1.1-0.2,1.4,0.7,1.6,1.6C2658,1272.8,2657.9,1273.8,2656.7,1274.2z
		 M2658.1,1216.1c-0.1,0-0.2,0.1-0.2,0.1c0,0.1,0,0.1,0,0.2l-0.1-0.1c0,0,0.1,0,0.1-0.1c0-0.4,0.1-0.7,0.2-1
		c0.3-0.8-0.6-1.7,0.1-2.3c0.3-0.2,0.4,0.5,0.6,0.8C2659.4,1214.8,2659.6,1215.7,2658.1,1216.1z M2658.2,1099.9
		c-0.1,0.1-0.5-0.1-0.7-0.1c0.7-0.7,1.3-1.5,1.9-2.2c0.4,0.3,0.8,0.5,0.8,0.6C2660.1,1099.3,2658.8,1099.2,2658.2,1099.9z
		 M2660.9,1209c-0.2,0.1-0.9-0.4-0.9-0.7c-0.2-1.4,1.2,0,1.3-0.7c0.6-0.3,0.9-0.1,0.7,0.3C2661.8,1208.4,2661.4,1208.8,2660.9,1209z
		 M2664.2,1295.6c-0.2,0.2-2.4-2.6-2.4-2.8c0-1,0.8-1.2,1.1-1c0.9,0.6,2.6,0.5,2.4,2.2C2665.2,1294.5,2664.7,1295.1,2664.2,1295.6z
		 M2668.7,1177.5c-1.1,0.2-1,1.1-1.4,1.7c-0.5,0.7-1.4,1-2.2,0.6c-1.1-0.6,0-1.1,0-1.2c0.2-1,0.2-1.5-0.2-2c-1.2-1.4-0.2-2,0.9-2.4
		c1.4-0.5,2.8-0.7,3.5,1C2669.5,1176,2670.3,1177.2,2668.7,1177.5z M2667.9,1108.1c-0.5-0.1-1-0.2-1-0.6c0.2-1,1.1-1.6,2-1.9
		c0.5-0.2,0.8,0.3,0.8,0.7C2669.7,1107.5,2668.9,1108.1,2667.9,1108.1z M2670.2,1125.2c0.5-0.2,0.7,0.2,0.7,0.6c0,0.3,0,0.5,0,0.8
		h-0.1c0,0.4,0,0.8,0,1.2c0,0.3-0.1,0.7-0.1,0.7c-0.5,0-0.4-0.4-0.4-0.8c-0.1-0.7-0.3-1.3-0.4-2
		C2669.7,1125.6,2670,1125.3,2670.2,1125.2z M2670,1280.8c0.5-0.6,1-1.4,2-1.1c0.2,0.1,0.3,0.4,0.4,0.7c-0.5,0.6-1.1,1.2-2,1.1
		C2670.1,1281.5,2669.6,1281.3,2670,1280.8z M2672.2,1297.4c-0.1,0-0.3-0.2-0.3-0.3c0.4-1,0.8-2,1.3-2.9c0.3-0.6,0.9-0.5,1.5-0.3
		c0.4,0.1,0.8,0.4,0.8,0.8C2675.6,1295.4,2672.9,1297.6,2672.2,1297.4z M2675.7,1286.1c-0.5,0-0.7-0.4-0.7-0.8
		c0-0.7,0.5-0.9,1.1-0.9s0.7,0.3,0.7,0.8C2676.7,1285.8,2676.3,1286.1,2675.7,1286.1z M2676.5,1269.3c-0.6-0.6-1.4-1-0.8-2.1
		c0.3-0.5,1.1-0.7,0.8-1.3c-0.3-0.6-1-1.1,0.2-1.3c0.8-0.1,0.9,0.4,0.8,1c-0.1,0.6-0.1,1.1-0.1,1.3c0.1,0.5,0.1,0.6,0.1,0.7
		c-0.1,0.7-0.2,1.4-0.4,2C2676.9,1269.6,2676.7,1269.4,2676.5,1269.3z M2678.1,1276c-0.8-0.3-0.7-1-0.7-1.7s0.6-1,1.1-0.9
		c0.6,0.2,0.6,0.8,0.5,1.4C2678.9,1275.4,2678.8,1276,2678.1,1276z M2678.8,1183.2c0.1-0.2,0.5-0.2,0.7-0.3c0.8,0.3,1.4,0.9,1.4,1.8
		c0,0.2-0.3,0.5-0.5,0.5C2679.7,1185.2,2678.4,1183.6,2678.8,1183.2z M2682.2,1292.3c-0.6-0.1-1.2-0.4-1.6-0.8
		c-0.2-0.2,0.2-0.8,0.6-0.9c0.8-0.2,1.3,0,1.5,0.6C2682.6,1291.8,2682.6,1292.4,2682.2,1292.3z M2681.2,1226.4
		c0.1-0.8,1.1-1.6,2.1-1.6c1.1,0.1,2,0.9,1.7,1.9s-1.4,0.5-1.7,0.4C2682.3,1226.8,2681,1227.9,2681.2,1226.4z M2683.9,1251.6
		c-0.6-0.4-0.8-1.2-0.3-1.9c0.3-0.3,0.4-0.7,0.3-1.1c-0.3-2.1,0.8-1.6,1.9-0.9c0.5,0.3,0.8,0.7,1.3,1.1c0.8,0.6,0.6,1.2-0.1,1.6
		c-0.3,0.2-0.8,0.1-1.2,0.2C2685,1250.9,2685.1,1252.6,2683.9,1251.6z M2686.7,1268c0.2-0.2,0.5-0.2,0.8-0.3c0.3,1.2,0.7,2.3,1,3.4
		c-0.1,0.5-0.3,0.9-0.4,1.3c-0.1-0.3-0.3-0.7-0.4-1c0-0.1-0.1-0.3-0.1-0.4C2687.8,1269.8,2685.1,1269.5,2686.7,1268z M2690.3,1275.4
		c-0.4,0.8-0.2,2-1.2,2.4c-0.5-0.1-0.8-0.3-0.9-0.8c-0.1-0.6,0.9-1.1,0.3-1.4c-2.7-1.5-0.8-1.7,0.5-2.1c0.7-0.2,1.6-1.1,2.3-0.2
		C2692,1274.3,2690.7,1274.7,2690.3,1275.4z M2692.4,1257.7c-0.1,0.6-0.6,1.2-1.1,1.1c-1-0.3-0.2-1.1-0.2-1.7c0-0.5-0.3-1,0.4-1.1
		C2692.4,1256.3,2692.5,1257,2692.4,1257.7z M2693.2,1247.2c0,0.2-0.4,0.3-0.6,0.4c-0.4-0.2-0.4-0.7-0.3-1c0.1-0.4,0.4-0.8,0.8-0.4
		C2693.3,1246.3,2693.2,1246.9,2693.2,1247.2z M2693.8,1243.3c-0.4,0-0.8-0.5-0.6-0.8c0.4-0.6-0.4-1.9,1-1.8c0.4,0,0.5,0.6,0.5,1.1
		C2694.5,1242.3,2694.8,1243.2,2693.8,1243.3z M2696.4,1234.1c-0.8-0.2-1-0.9-1-1.6c0-0.4,0.5-0.5,0.9-0.5c0.8,0.1,1.2,0.5,1,1.3
		C2697.2,1233.8,2696.9,1234.2,2696.4,1234.1z M2704.4,1290.5c0.6-0.6,1.4-2.1,1.9-1.7c0.9,0.8-0.1,1.8-0.8,2.3
		c-0.9,0.6-0.3,2-1.3,2.4c-0.5,0-0.8-0.3-0.7-0.7C2703.7,1292,2703.9,1291.1,2704.4,1290.5z M2699.5,1299.7c0,0,0.3,0.3,0.7,0.6
		c-0.8,0.6-1.5,1.2-2.3,1.6c-0.1,0.1-0.5-0.2-0.7-0.3C2698,1301,2698.7,1300.4,2699.5,1299.7z M2700.9,1183.9
		c-0.4,0.2-0.9-0.3-0.8-0.7c0.1-0.5,0.4-1.1,0.8-1.4c0.8-0.5,0.3,0.4,0.5,0.6C2701.4,1183,2701.5,1183.7,2700.9,1183.9z
		 M2717.1,1187.1c-0.9-0.3-1.8-0.6-2.6-1.1c-0.1-0.1,0.8-0.6,1.3-0.8c0.6,0.4,1.9-0.1,1.8,1.2
		C2717.6,1186.7,2717.2,1187.1,2717.1,1187.1z M2780.3,1194.1c-0.9-0.1-1.3-0.6-1.3-1.4c0-0.3-0.1-0.9,0.4-0.7
		c0.6,0.3,1.1,0.9,1.7,1.4C2780.9,1193.6,2780.6,1193.9,2780.3,1194.1z M2781.8,1186.1c-0.5-0.1-0.7-0.4-0.6-0.8
		c0.1-0.7,0.2-1.4,1.1-1.4c0.1,0,0.3,0.7,0.3,1.1C2782.6,1185.5,2782.5,1186.1,2781.8,1186.1z M2847.6,1236.7c0-0.3,0.5-0.6,0.7-0.8
		c0.2,0.4,0.3,0.7,0.4,1.1c0.2,0.7,0.1,1.4,0.5,2c0.7,1.2,0.6,1.8-0.8,2.6c-1.5,0.8-1.4,2.1,0.4,2.6c1.8,0.5,1.7,1.1,0.3,1.9
		s-2.2,2.5-4.1,2.5c0,0.1,0,0.1,0.1,0.2l-0.2-0.2h0.1c-1.3-3-0.8-5.8,1-8.5C2846.7,1239,2847.7,1238.1,2847.6,1236.7z
		 M2844.9,1113.7c1-0.2,0.9,1.1,1.1,1.8c0.2,0.6-0.1,1-0.8,1.2c-0.5-0.1-1.1-0.3-1.2-0.9C2844,1114.9,2844.2,1113.8,2844.9,1113.7z
		 M2832.4,1151.7c1.2-3.3,3.4-6.4,2.3-10.3c1.7-0.2,2.3-1.7,1.7-2.6c-1.2-1.8,0.7-2.6,0.8-3.8c0.1-1,0.6-1.7,1.2-2.4
		c-0.5,0.2-1.1,0.1-1.5,0.4c-0.2-0.3-0.5-0.7-0.4-1c0.2-1.4,1.3-0.4,1.9-0.6c0.4-0.1,0.6,0.2,0.6,0.6c0.2-0.3,0.5-0.6,0.7-0.9
		c0.4-0.7,0.1-2.2,1-2c1,0.3,0.4,1.8,0.5,3.1c-0.1,0.6-0.4,1.6-0.4,2.6c0,1.6,0.2,3.2,2.6,2.3c0.2-0.1,0.6-0.2,0.6-0.1
		c0.8,1.2,1,2.7,0.9,4.1c0,1-1,1.3-1.9,1.3c-1,0-1.3,0.6-1.7,1.5c-1.3,2.9-2.1,5.7-1.5,8.9c0.5,3,0.3,3.2-2.7,3
		c-1.8-0.1-3.1,0.1-3.1,2.2c0,0.8-0.2,1.3-0.8,1.8c-4.1,3.5-3,7.8-2,12.1c0.3,1.3,1.5,2.7-0.9,3.3c-0.2,0-0.3,0.4-0.4,0.6
		c2.6,1.1-0.5,3.7,1.4,5.2c0.7,0.6,0.9,2,1.1,3.1c0.2,0.7-0.1,1.4-1,1.6c-0.8,0.2-1.3-0.2-1.5-1c-0.5-1.8-1-3.5-1.5-5.3
		c-0.3-1.1-0.2-2.3-1.1-3.1c-0.3-0.2-0.6-1-0.5-1.1c3.3-2.3,0.4-5.1,0.5-7.7c0.2-4.2,1-8.1,3.3-11.6
		C2831.4,1154.6,2831.9,1153.1,2832.4,1151.7z M2827.4,1146c0.4,0.1,0.5,0.6,0.4,1c-0.2,0.5-0.3,1-1.2,1c-0.2-0.2-0.7-0.6-0.6-0.8
		C2826.1,1146.4,2826.7,1145.9,2827.4,1146z M2824.7,1184.1c0.4,0.1,0.7,0.3,0.6,1c-0.2,0.5-0.5,1.2-1.3,1.1c-0.2,0-0.6-0.6-0.6-0.9
		C2823.4,1184.5,2823.8,1184,2824.7,1184.1z M2817.4,1193.7c-0.2,0.7,0.1,1.6-0.8,2c0,0.1,0,0.1,0,0.2c-0.1,0-0.1-0.1-0.1-0.1
		c-0.1,0.3-0.2,0.7-0.3,0.7c-2.5-0.3-3.8-2.1-3-4.2c0.2-0.4,0.3-0.8,0.8-0.8s0.7,0.4,0.8,0.8c0.3,1.3,0.1,2.8,1.6,3.4l0,0
		c0.1,0,0.1-0.1,0.1-0.1c0-0.6,0.1-1.2,0-1.9c0-0.6-1-1.1-0.1-1.8c0.1-0.1,0.3-0.1,0.4-0.1
		C2817.8,1192.3,2817.5,1193.1,2817.4,1193.7z M2817.4,1136c-0.2,0.7-0.7,0.8-1.5,0.6c-0.2-0.1-0.5-0.3-0.8-0.4
		c0.4-0.6,0.9-1.1,1.7-1C2817.2,1135.2,2817.5,1135.5,2817.4,1136z M2812.8,1113.5c0.8-0.3,1.6-0.4,2.4-0.5c0.6,0.2,1.3,0.2,1.2,1
		c-0.1,0.4-0.5,0.6-1,0.6c-0.7,0-1.4,0.1-2.1,0.1c-0.3,0-0.6,0.7-0.8,0C2812.3,1114.2,2812.4,1113.7,2812.8,1113.5z M2808.8,1104
		c0.6,0.1,1.7-0.2,1.6,0.7c-0.1,0.9-1.2,0.4-1.7,0.2c-1.4-0.4-3.1,2-4.3-0.4c-0.2-0.4-1.1-0.5-0.7-1.2c0.1-0.2,0.7-0.1,1.1,0
		c0.3,0,0.5,0.1,0.8,0.2C2806.8,1102.8,2807.7,1103.8,2808.8,1104z M2804,1152.9c0.6-0.7,1-1,1.6-0.7c0.5,0.2,1,0.7,0.7,1.3
		c-0.1,0.2-1-0.1-1.5-0.2C2804.5,1153.2,2804.3,1153,2804,1152.9z M2804.6,1256.8c-0.1,0.6-0.6,0.9-1.3,0.8
		c-0.5-0.1-0.8-0.3-0.7-0.8s0-1.2,0.9-1C2804,1256,2804.7,1256.1,2804.6,1256.8z M2806.2,1147.2c0.2-0.5,0.9-0.5,1.5-0.3
		c0.3,0.1,0.9,0.1,0.6,0.7c-0.2,0.6-0.7,0.8-1.3,0.7C2806.4,1148.2,2806,1147.7,2806.2,1147.2z M2808.1,1239.9
		c0.6-0.1,1,0.3,1.2,0.9c0.1,0.5-0.3,0.7-0.7,0.8c-0.6,0.1-1.3,0.1-1.4-0.5C2807,1240.5,2807.4,1240,2808.1,1239.9z M2803.3,1090.4
		c0.4-0.3,0.8-0.9,1.4-0.6c0.2,0.1,0.3,0.4,0.5,0.7c-0.9,0.6-1.3,1.7-1.9,2.5c-0.2-0.1-0.5-0.2-0.6-0.4
		C2802.4,1091.8,2802.4,1091,2803.3,1090.4z M2801.7,1133c0.5,0.4,0.9,0.9,1.4,1.5c-0.6,0.4-0.9,0.6-1.2,0.8
		c-0.3-0.6-0.7-1.2-0.9-1.8C2800.8,1133,2801.3,1132.7,2801.7,1133z M2799.6,1190.2c-0.9-0.1-1.5-0.5-1.9-1.3c0.5-0.1,1-0.3,1.2-0.3
		c1,0,1.7,0.1,1.6,1C2800.4,1189.9,2800.1,1190.2,2799.6,1190.2z M2800.6,1258.5c-0.5-0.4-0.1-0.6,0.3-0.7c0.2,0.1,0.5,0.2,0.7,0.4
		c1,0.7,2.6,0.2,3.1,1.6c0.1,0.1-0.2,0.6-0.4,0.6C2802.6,1260.9,2801.8,1259.3,2800.6,1258.5z M2808.6,1268.5
		c-1.2-1.3-2.3,0.8-3.4,0.2c-0.3-0.1-0.9-0.3-0.3-0.7c1.1-0.6,2.2-1.3,3.3-1.7c0.8-0.3,0.8,0.5,0.9,1.1
		C2809,1267.8,2808.8,1268.1,2808.6,1268.5z M2811,1291.3c0,0.4-0.1,0.9-0.2,1.3c-0.1,0.4-0.1,0.9-0.7,0.7c-0.4-0.1-0.8-0.4-0.8-0.8
		s-0.1-0.8,0-1.3c0.1-0.8,0.5-1.5,1.3-1.3C2811.1,1289.9,2811.1,1290.7,2811,1291.3z M2810.5,1159.2c-0.6-0.5-0.3-1.9-0.8-2.7
		c-0.4-0.6-1.1-0.8,0-1.4c0.8-0.4,1.3-0.5,1.5,0.5c0.5,2.1,1.1,1.6,1.9,0.2c0.2-0.4,0.8-0.9,1.3-0.2c0.3,0.3,0.3,0.8,0.5,1.2
		c-0.6,0.5-0.4,2-1.6,1.5C2811.8,1157.6,2811.5,1160,2810.5,1159.2z M2812.2,1221.5c0-0.6,0.2-1.1,0.9-1c0.4,0,0.7,0.3,0.7,0.7
		c-0.1,0.9-0.7,1.2-1.4,1.2C2812.1,1222.5,2812.2,1221.9,2812.2,1221.5z M2813.5,1292.2c-1.5,0-1-1.3-1.2-2.1
		c-0.2-0.9,0.1-1.3,1-1.3c1.8,0,0.1,1.6,0.9,2.1C2814.3,1291.6,2814.1,1292.2,2813.5,1292.2z M2814.6,1285.8c-0.5-0.2-1.3-0.3-1-0.9
		c0.3-0.5,1.1-0.7,1.7-0.8c0.8-0.1,0.7,0.6,0.8,1.1C2815.9,1286.2,2815.2,1286,2814.6,1285.8z M2815.9,1211c-0.9-0.3-1.3-1-1.4-1.9
		c0-0.4,0.4-0.7,0.9-0.5c0.9,0.2,1.5,0.7,1.4,1.7C2816.6,1210.7,2816.5,1211.2,2815.9,1211z M2817.1,1224c0.1-0.2,0.4-0.3,0.7-0.5
		c0.1,1.2,1.6,1.3,1.7,2.4c0,0.1-0.4,0.4-0.6,0.5c-0.6,0.2-1.1,0.1-1.5-0.4C2817,1225.3,2816.6,1224.7,2817.1,1224z M2818,1257
		c-0.8-0.3-0.4-1.2-0.5-1.8c0-0.2,0.5-0.5,0.8-0.7c0.8,0.5,0.5,1.2,0.5,1.9C2818.7,1256.8,2818.5,1257.2,2818,1257z M2819.9,1268.4
		c-0.5-0.1-1.5-0.1-1.3-0.7c0.4-0.8,1.3-1.6,2.2-1.9c0.6-0.2,1.2,0.6,1.2,1.4C2822,1268.9,2820.8,1268.4,2819.9,1268.4z
		 M2823.4,1216.6c-0.2,0.5-0.1,1.5-1,1.4c-0.2,0-0.6-0.7-0.5-1c0.1-0.7,0.6-1.3,1.3-1.5C2823.4,1215.5,2823.5,1216.1,2823.4,1216.6z
		 M2823.9,1202.8c-1,0-1.7-0.5-1.6-1.5c0-0.8,0.6-1.2,1.4-1.2c1,0,1.7,0.5,1.6,1.5C2825.3,1202.4,2824.7,1202.8,2823.9,1202.8z
		 M2828.7,1208.5c-0.7-0.4-1.6-0.7-1.9-1.6c0,0,0.4-0.2,0.6-0.3c0.5,0.7,1.9,0.5,1.9,1.8C2829.4,1208.7,2829.1,1208.7,2828.7,1208.5
		z M2831.8,1286.7c-0.6-0.1-1.5-0.2-1.7-0.9c-0.3-0.9,0.6-0.8,1-0.7c0.6,0.1,1.1,0.3,1.6,0.5
		C2832.5,1286.3,2832.3,1286.8,2831.8,1286.7z M2833.2,1226.6c-0.7-0.1-1.1-0.7-1-1.5c0.1-0.6,0.7-0.7,1.3-0.6s0.9,0.5,0.8,1.1
		C2834.2,1226.2,2833.8,1226.7,2833.2,1226.6z M2837.7,1196.6c0.2,1.4-2.6-0.4-2,1.7c0.3,0.9,1.3,3.2-1.1,0.8
		c-0.5-0.5-1.2-0.2-1.4,0.3c-0.7,2.1-3.1,3.4-2.5,6.1c0.1,0.6-0.2,1.4-0.3,2.1c-0.6-0.5-0.4-1.2-0.4-1.9c0-1.1-0.5-2-1.5-2.3
		c-1.6-0.4-2.2-1.6-3-2.8c-1.6-2.4-1.3-2.9,1.7-2.8c1.2,0,2-0.2,1.9-1.5c-0.1-1.9,2.2-1.7,2.6-3c0.2-0.5,0.4-1.1,0-1.6
		c-0.5-0.6-1-0.2-1.4,0.2c-0.7,0.7-1.4,1.4-2,2.2c-0.5,0.5-0.8,1.3-1.6,0.5c-0.5-0.6-0.6-1.3-0.2-2c0.7-1.2,1.8-1.8,3-2.1
		c3.6-0.9,6.3-2.7,7.4-6.5c0.1-0.2,0.4-0.4,0.6-0.6c0.3-0.2,0.7,0,0.6,0.3c-1.2,2.6,2,4.7,0.7,7
		C2839.3,1193,2837.3,1194.6,2837.7,1196.6z M2841.5,1239.1c-0.1,0.3-0.1,0.9-0.5,0.8c-0.8-0.3-1-0.8-0.9-1.4c0.1-0.7,0.7-1,1.2-0.8
		C2841.8,1237.8,2841.7,1238.6,2841.5,1239.1z M2841,1220.3c1.5-3.1-0.5-5.6-1.4-8.3c-0.5-1.4-0.2-2.5,0.6-3.5
		c0.5-0.7,1.2-0.6,1.9-0.5c0.6,0.1,1.1,0.4,1.1,1.1c-0.3,2.7,1,4.9,1.7,7.3c0.1,0.4,0.1,0.8,0.2,1.1c-0.1,1.5-1.9,3.4-3.3,3.5
		C2841.2,1221.1,2840.8,1220.7,2841,1220.3z M2849.8,1299.2c-0.7-0.7-1.8-1.2-1.7-2.5c0-0.1,0.5-0.2,0.7-0.3
		c1.1,0.5,1.9,1.2,1.6,2.5C2850.4,1299.3,2850,1299.5,2849.8,1299.2z M2855,1287.1c-0.3,0-0.8-0.5-0.8-0.7c0-0.6,0.6-0.8,1.1-1
		c0.5,0,0.8,0.3,0.8,0.8C2856.1,1286.8,2855.5,1287.1,2855,1287.1z"/>
	<path class="st0" d="M2849.1,1277.2c0.1,0,0.2,0,0.3,0l-1.3-1.8c-0.2,0.2-0.4,0.5-0.6,0.7
		C2847.7,1277.2,2848.5,1277.1,2849.1,1277.2z"/>
	<path class="st0" d="M3469,1247.9l0.8-14.1h-1.4c0,0.1,0,0.2,0,0.2c-0.1,0.2-0.4,0.5-0.6,0.5c-0.6,0-0.9-0.3-1.1-0.7h-0.3l-7.4,8.7
		c0.1,0.2,0.2,0.4,0.2,0.6c-0.2,0.2-0.3,0.4-0.5,0.5c-0.1,0-0.3-0.1-0.4-0.1l-2,2.3l-3.7,6l-10.6,13.5c0.1,0.3,0.2,0.6,0.3,0.9
		c0,0.8-0.6,0.8-1.2,0.8c-0.2,0-0.3,0-0.5,0l-2.9,3.7c0.5-0.2,1-0.3,1,0.1c0.3,2-0.2,3.8-0.5,5.6l0,0c0.2,0.3,0.6,0.8,0.6,0.9
		c-1.6,2.2-0.2,4.5-0.5,6.7c-0.4,2.4,1,4.7-0.1,7.1c-0.4,0.9,0.1,1.2,1.2,1.5c1.7,0.4,2.3,2.9,1.3,4.2c-0.7,0.9-2.5,1-3.2,0.1
		c-0.6-0.8-1.1-1.6-1.5-2.5c-0.2-0.6,0.1-1.9-0.2-2c-1-0.4-0.7,0.7-1,1.2c-0.2-0.8-0.7-1.8-0.4-2.4c2.2-4.2-0.2-8.2-0.6-12.2
		c-0.7-0.5-1-1.1-1.2-1.7l-4.8,6h-4.6c-0.5,1.1-2,1.4-2.4,2.6c-0.2,0.5-0.6,1.3-1.1,1c-0.9-0.5,0-1.1,0.1-1.7
		c0.1-0.7,0.3-1.3,0.6-1.9h-13.9l-10.2-1.6l-15.7,1.2l-5.1,0.4h-10.6v-36.8l0.1-53.1l0.4-36l1.2-18l0.1-18l-0.4-17.4l11.4-9.6
		l12.2-10l-1.4-2.9v-0.1h-1.2l-15.1-1l-16.3,0.4l-16.3-1l-32.5,0.1l-16.4,0.5l0.1,0.9v1.7l2.5,2.1c0.2-0.1,0.5-0.3,0.7-0.5
		c0.7-0.2,0.7,0.3,0.8,0.7c0.1,0.4,0.1,0.7,0.1,1.1l0.8,0.7c0.1-0.4,0.4-0.7,1-0.8c0.6,0,0.3,0.8,0.4,1.3c0,0.2,0,0.5,0,0.7l2.3,2
		l2.8,3.6l10.9,10.2l1.5,12.7v39.1v2l-1.2,16.5l-0.4,17.7l1.6,13.8v10.4l-0.8,11.2l-1.3,17.7l0.5,17.7l-0.3,21.5l-11.3,4.7
		l-9.3,10.5l-1.3,1.1v2v0.4l17.8,0.4l13.3-0.2c-0.2-0.3-0.5-0.6-0.8-1c0.2-0.7,1-0.3,1.5-0.6c0.5-0.3,0.9,0.1,0.8,0.4
		c-0.2,0.4-0.5,0.8-0.8,1.1l28.1-0.4l0,0c-0.2-0.7,0.3-1,0.8-1.3c0.7-0.4,0.2-1.8,1.4-1.5c0.6,0.1,0.7,0.8,0.5,1.4s-0.6,1-1,1.4
		l5-0.1h52l5.9,0.9l1.1,0.1c0.4-1.8,1.1-3.5,2.7-4.8c0.2-0.1,0.3-0.6,0.2-0.7c-2.8-2.1-0.1-3,0.9-4.3c0.4-0.6,0.9-1.3,0.6-1.9
		c-0.8-1.9,0.6-2.8,1.4-4.1c0.5-0.7,1-2.2,1.2-2c0.8,0.8,0.6,1.9,0.1,3c-0.9,2.2-1.3,4.2-0.7,6.8c0.5,2-0.3,4.5,0.1,6.9
		c0.1,0.8-0.8,1-1.5,1.1c-0.3,0.1-0.5,0.2-0.7,0.3l12.4,0.8l6.9-1.3c-0.1-1.1-0.2-2.3-0.2-3.4c0-0.4-0.1-1.3,0.7-1.1
		c0.3,0.1,0.8,0.6,0.8,0.9c0,1.2,0.2,2.3,0.6,3.2l1.5-0.3h25.2v-4l1.9-13.1l-1.9-11.6v-26.2H3469z M3301.9,1084.7
		c-0.4,0-1-0.2-1.1-0.4c-0.2-0.8,0.5-1.2,1.1-1.6c0.5,0,0.8,0.3,0.9,0.7C3302.8,1084.2,3302.5,1084.7,3301.9,1084.7z M3317.7,1298.8
		c-0.5-0.1-1.3,0.1-1.3-0.5c0-0.8,0.5-1.5,1.4-1.7c0.7,0.2,1.4,0.6,1.4,1.3C3319.2,1298.7,3318.5,1298.9,3317.7,1298.8z
		 M3319.4,1225.3c-0.6,0-1.2-0.5-1.1-1c0.1-1,1.1-0.3,1.7-0.6c0.3-0.2,0.8-0.3,0.7,0.2C3320.4,1224.5,3320.3,1225.4,3319.4,1225.3z
		 M3322.4,1286.9c-0.8,0-1.2-0.7-1.2-1.5c0-0.9,0.5-2.2,1.1-2c0.9,0.2,0.9,1.5,1.3,2.4C3323.4,1286.3,3323,1286.9,3322.4,1286.9z
		 M3326.3,1235.2c-0.7,0.1-1-0.4-0.8-1.3c0.2-0.4,0.5-1.6,0.8-1.6c0.8,0.1,0.8,1,0.9,1.7C3327.2,1234.6,3326.9,1235.2,3326.3,1235.2
		z M3326.3,1218.1c0,0,0.4-0.4,0.6-0.4c1.4,0.1,2.9,2.4,2.3,3.7c-0.2,0.3-0.6,0.6-0.9,0.8
		C3327.6,1220.9,3326.9,1219.5,3326.3,1218.1z M3328.9,1265.7c-0.4,0-0.8-0.5-0.6-0.9s0.6-0.9,1.1-1.1c0.4-0.2,0.7,0.1,0.6,0.6
		C3329.8,1264.9,3329.9,1265.8,3328.9,1265.7z M3334.6,1254c-0.4,0-0.9,0-0.8-0.6c0.1-0.7,0.4-1.3,1.2-1.4c0.5,0,0.7,0.3,0.7,0.7
		C3335.8,1253.5,3335.4,1254,3334.6,1254z M3337.6,1213.7c0.1,1.5-1.5,1.4-2.2,2.2c-0.4,0.5-0.9-0.2-1.2-0.7c-0.6-1.2,0.2-1.8,1-2.3
		c0.5-0.3,0.8-1.3,1.7-1c0.6,0.2,0.7,0.8,0.7,1.4C3337.6,1213.4,3337.6,1213.5,3337.6,1213.7z M3362.4,1196c0.6,0.3,0.6,0.9,0.7,1.4
		c0.2,0.4,0.1,0.9-0.4,1.1c-0.8,0.2-0.8-0.5-0.8-1C3362,1196.9,3361.9,1196.3,3362.4,1196z M3357.6,1189.8c0.8,0.1,1.2,0.7,1.1,1.4
		c-0.1,0.6-0.3,0.9-0.8,0.8c-0.6-0.2-0.8-0.7-0.8-1.3C3357,1190.2,3357.2,1189.7,3357.6,1189.8z M3356.5,1195.6
		c0.6-0.1,1,0.2,1.2,0.9c-0.1,1.1-0.8,1.4-1.7,1.3c-0.6,0-1.7,0.1-1.7-0.6C3354.4,1196.1,3355.6,1195.8,3356.5,1195.6z
		 M3354.1,1251.9c1.1,0,1.4,0.9,1.6,1.9c0,0.2-0.3,0.6-0.4,0.5c-1-0.2-1.7-0.8-2.1-1.7C3353,1252.3,3353.5,1252,3354.1,1251.9z
		 M3351.4,1160.8c0.7,0,1.4,0.1,1.3,1.1c-0.2,0.7-0.5,1.6-1.2,1.5c-0.4,0-0.9-1-1.1-1.6C3350.3,1161.3,3350.7,1160.8,3351.4,1160.8z
		 M3350.3,1169.9c0.4-0.5,1.1-0.8,1.7-1c0.4-0.1,0.7,0.4,0.8,0.8c-0.3,1-1.2,1-2,1C3350.4,1170.8,3350,1170.3,3350.3,1169.9z
		 M3348.8,1177.4c0,0.6-0.2,1.2-0.9,0.8c-0.6-0.4-1.8,0.5-1.9-0.6c-0.1-0.7,0.9-0.8,1.6-0.8
		C3348.1,1176.8,3348.7,1176.5,3348.8,1177.4z M3345.6,1173.7c0.1-0.7,0.5-1,1.1-0.6c0.6,0.3,1.2,0.7,1.2,1.5
		c-0.3,0.7-0.9,0.5-1.4,0.5C3345.5,1175.2,3345.5,1174.4,3345.6,1173.7z M3344,1208.4c-0.5,0-1-0.3-1-1c0.2-0.6,0.6-0.9,1.2-0.8
		c0.6,0.1,0.9,0.6,0.7,1.2C3344.8,1208.1,3344.3,1208.4,3344,1208.4z M3345,1192.8c-0.2-0.6,0-1.1,0.6-1.4c0.6,0,1,0.3,1,1
		c0,0.6,0,1.3-0.6,1.4C3345.5,1194,3345.2,1193.4,3345,1192.8z M3346.9,1272.6c-0.2,0.4-0.1,1.1-0.8,1.2c-0.4-0.7-0.3-1.3-0.1-2
		c0.1-0.4,0.3-0.9,0.8-0.8C3348,1271.4,3347.2,1272.1,3346.9,1272.6z M3350.1,1258.9c-0.7,0.1-1.3,0.5-1.9-0.1
		c-0.4-0.4-0.9-0.8-0.6-1.4c0.1-0.2,0.8-0.4,1.1-0.3c0.8,0.2,1.5,0.5,2.2,0.8C3350.8,1258.6,3350.5,1258.8,3350.1,1258.9z
		 M3349.7,1229.4c-0.4-0.1-0.7-0.4-0.7-1c0.2-0.8,0.9-1.2,1.7-1.4c0.5-0.1,0.7,0.5,0.5,0.8C3350.8,1228.4,3351,1229.6,3349.7,1229.4
		z M3352.6,1284.5c-1.1,0.1-1.3-0.8-1.4-1.6c-0.1-0.4,0.2-0.8,0.8-0.7c0.6,0.4,1.7,0.3,1.4,1.5
		C3353.3,1284.1,3352.9,1284.5,3352.6,1284.5z M3356.7,1297.3c-0.3,0-0.6-0.3-0.5-0.8c0.1-0.7,0.6-1.2,1.3-1.3
		c0.5-0.1,0.7,0.3,0.6,0.7C3358,1296.6,3357.7,1297.2,3356.7,1297.3z M3358,1264.9c-0.4,0.1-4.7-2.4-4.9-2.9c0-0.1,0-0.3,0-0.4
		c0.2-0.8,0.9-1,1.6-0.9c0.7,0.1,3.5,3,3.7,3.7C3358.5,1264.7,3358.4,1264.8,3358,1264.9z M3359.9,1276.8c-1.2-0.1-1.4-1.3-1.5-2.2
		c-0.1-1.1,1-0.6,1.5-0.6c0.9-0.1,1.6,0.5,1.5,1.4C3361.1,1276.2,3360.5,1276.8,3359.9,1276.8z M3362.6,1293.4
		c-0.3-0.2-0.8-0.4-0.9-0.7c-0.1-1,0.5-1.9,1.2-2.4c0.5-0.3,0.7,0.6,0.8,1.1C3364.1,1292.5,3363.8,1293.2,3362.6,1293.4z
		 M3374.5,1292.1c-0.3-0.2-1.3,0.3-1.2-0.5c0.2-1.1,1.1-1.6,2.2-1.4c0.6,0.1,1.2,0.5,1,1.1
		C3376.4,1292.3,3375.5,1292.4,3374.5,1292.1z M3384,1292.5c-0.8-0.2-0.9-0.9-0.8-1.6c0.2-0.9,0.8-1,1.6-0.9
		c0.9,0.1,1.1,0.7,0.9,1.5C3385.4,1292.2,3384.8,1292.5,3384,1292.5z M3406.4,1284.3c-0.4-0.1-0.8-0.5-0.4-0.8
		c0.6-0.5,1.3-0.2,2-0.1c0.4,0.1,0.5,0.3,0.3,0.7C3407.8,1284.6,3407.1,1284.4,3406.4,1284.3z M3410.9,1288.7
		c-0.8-0.9-2.6-0.7-2.7-2.3c0-0.3,0.5-0.7,0.9-0.8c1.8-0.3,2,1.1,2.3,2.2C3411.6,1288.5,3411.2,1288.9,3410.9,1288.7z M3414,1290.6
		c-0.7-0.1-1.1-0.5-1.1-1.1c0-0.8,0.5-0.8,1.1-0.6c0.6,0.2,1.6,0,1.6,0.8C3415.6,1290.4,3414.6,1290.4,3414,1290.6z M3426.1,1297.8
		c-0.6-0.3-1.2-0.7-1.8-1c0.4,0,0.8-0.1,1-0.1c0.7,0,1.4-0.2,1.5,0.5C3427,1297.6,3426.6,1298,3426.1,1297.8z M3426.7,1296.4
		c-0.9,0.1-1.2-0.5-1.2-1.3c0-0.3,0.4-0.9,0.6-0.9c0.9-0.1,0.9,0.8,1.2,1.2C3427.4,1296.1,3427.1,1296.4,3426.7,1296.4z
		 M3439.3,1302.4c-0.2,0.3-0.2,0.9-0.8,0.5s-1-1-1-1.7c0-0.5,0.3-0.9,0.7-0.7C3439,1300.8,3439.5,1301.4,3439.3,1302.4z
		 M3443,1288.7c-0.2,0.6,1,1.8-0.5,1.8c-0.6,0-0.2-1.2-0.3-1.9c0.1-0.6,0.1-1.4,0.5-1.9c0.2-0.3,1.1-0.3,1.5-0.2
		c0.4,0.2,0.2,0.7-0.2,0.9C3443.5,1287.7,3443.2,1288.1,3443,1288.7z M3446,1297.6c-1.3-0.2-1.9-1.1-2-2.3c0-0.4,0.4-0.7,1.1-0.4
		c0.7,0.4,2.1,0.5,1.8,2.1C3446.8,1297.4,3446.5,1297.7,3446,1297.6z M3451,1272.9c-0.9,0.8-2,1.4-3,2.1c-0.2-0.1-0.7-0.3-0.7-0.4
		c0.6-1.4,1.3-2.8,2-4.1c0-0.1,1.1,0.2,1.5,0.6C3451.3,1271.5,3451.6,1272.4,3451,1272.9z M3461.8,1240.7c0-0.4,0.1-0.8,0.6-0.8
		c0.7,0.1,0.7,0.7,0.7,1.2s-0.3,0.8-0.7,0.8C3461.7,1241.8,3461.8,1241.2,3461.8,1240.7z M3455.7,1253.5c-0.5,0-0.7-0.4-0.6-0.8
		c0.1-0.6,0.1-1.1,0.9-1.2c0.4,0.1,0.6,0.4,0.6,0.8C3456.5,1252.9,3456.4,1253.5,3455.7,1253.5z M3458.9,1272.2
		c0.9,0,0.9,1.1,1.5,1.3c2.5,0.7,1,4.1,3.3,4.9c-0.2,0.3-0.3,0.8-0.6,1c-0.5,0.3-1.1,0.5-1.5,0c-1.2-2-2.4-4-3.5-6.1
		C3457.8,1272.9,3458.3,1272.3,3458.9,1272.2z M3462.4,1295.5c-0.5,0.9-1,1.9-1.5,2.8l-0.6-0.3c0.4-1.1,0.9-2.2,1.4-3.3
		c0-0.1,0.4-0.1,0.6,0c0.1,0,0.1,0.2,0.2,0.4C3462.5,1295.2,3462.5,1295.4,3462.4,1295.5z M3463.7,1281.9c-0.4,2.7-0.8,5.4-1.3,8.1
		c-0.1,0.4,0.1,0.9-0.6,0.8c-0.1,0-0.3-0.2-0.2-0.3c0.6-2.9-1.3-6.1,0.9-8.9c0.2-0.2,0.4-0.3,0.6-0.5
		C3463.8,1281.1,3463.8,1281.6,3463.7,1281.9z M3463.8,1275.9c-0.1,0.4-0.6,0.6-0.9,0.2c-0.6-1-1.7-1.8-1.6-3.2
		c0-0.4,0.2-0.8,0.7-0.8C3462.7,1272.2,3464.1,1275,3463.8,1275.9z"/>
	<path class="st0" d="M3436.4,1278.1c0,0.2,0.3,0.5,0.5,0.5c0.8,0,1.2-0.6,1.4-1.3c0.1-0.3,0-0.7,0-1c-0.2,0.1-0.4,0.2-0.6,0.3
		C3436.8,1276.9,3436.4,1277.4,3436.4,1278.1z"/>
	<path class="st0" d="M3923.2,1217.7c0.2-0.8,0.6-2-0.2-2.2c-1.6-0.3-0.3,1.2-0.7,1.7c-0.3,0.5-0.4,1-0.6,1.7c0.1,0.4,0.2,1,0.3,1.5
		c0.6-0.2,0.4-0.8,0.6-1.2C3922.7,1218.7,3923,1218.2,3923.2,1217.7z"/>
	<path class="st0" d="M3923.1,1223.4c-0.7,0.3-1.3,2.5-0.7,3.1c0.4,0.4,0.7,0,0.9-0.3c0.2-0.7,0.4-1.3,0.6-2
		C3923.6,1223.8,3923.9,1223.1,3923.1,1223.4z"/>
	<path class="st0" d="M3938.8,1182.2c-1.9,1.1-1.1,3-1.6,4.4c-0.2,0.8-0.3,1.6-0.4,2.4l2-5.2
		C3938.7,1183.4,3938.8,1182.8,3938.8,1182.2z"/>
	<path class="st0" d="M4055.5,1280.4l-24.8-57.9c0-0.1,0-0.1-0.1-0.2l-15.4-36c-0.2,0.5-0.5,0.9-0.9,0.7c-0.7-0.2-1.4-1.1-1-2
		c0.2-0.5,0.6-1.1,0.9-1.6l-1.4-4.1l-6.4-13.6l-2.2-5.1l-5.5-15l-4-7.2l-6.2-14.5l-8.6-20.2c-0.3-0.1-0.5-0.3-0.3-0.7l0,0l-6.7-15.6
		l-3.7-8.6h-9.3l-2.6-0.5l-6.2,17.3l-6.7,16.8l-3,6.8c0,0,4.7,26.6,5.7,27.9c0.5,0.7,5.3,15.8,5.3,15.8l7.2,16.9l1.8,5.6l5.1,15
		l6.8,13.3l-14.8-0.5l-15.7,0.8h-15.2l3.3-8c-0.1,0.1-0.1,0.1-0.2,0.2c-1.4,1.1-2,2.6-2.4,4.3c-1.7,6-2.6,12.2-3.2,18.4
		c-0.1,1.5,1.4,3.2,1.7,3.1c1.9-0.3,1.8,0.6,1.9,1.7l6.6,0.2l40-1.1l5.7,1.2l1.7,3.8l0,0l5,11.3l6.2,16.2l6.1,9.8l2.3,5.4l-4.2,3.6
		l-13.2,11.3l-5.9,5.1v2h0.1l-0.2,0.2l1.4-0.2h30.9c0.6-2.2,1.7-4.3,2.6-6.4c0.6-1.3,0.9-2.1,0.3-3.4c-0.5-1.1-0.3-2.5,0-3.7
		c0.2-1,0.7-2,1.9-1.9s1.5,1,1.5,2.1c0,1-0.1,2-0.1,3.3c0.5,1.7-0.3,3.3-1.3,5c-0.9,1.6-1.9,3.2-2.7,5h62.2l1.4-3.2l-6-3.4
		L4055.5,1280.4z M3961.2,1118.4c-0.8-0.1-0.9-1-0.8-1.7c0.1-0.6,0.3-1.1,1-1.2c1,0,0.9,0.9,1.1,1.3
		C3962.3,1117.7,3962.1,1118.5,3961.2,1118.4z M3974.2,1201.8c0,0.8-0.3,1.5-1,1.8c-1.2,0.5-0.7-0.8-1.1-1.2
		c-0.2-0.2-0.4-0.4-0.6-0.6c-0.5-0.6-1.9-1.1-1.1-1.8c0.6-0.6,2-1,3.1-0.4C3974.6,1200,3974.2,1201,3974.2,1201.8z M3975.8,1120.9
		c-0.7,0.6-1.5,1.2-2.3,1.9c-0.2-0.5-0.4-0.9-0.4-1.2c0-1.2,0.9-1.6,1.9-1.8c0.4-0.1,0.8,0.1,1,0.5
		C3976,1120.4,3975.9,1120.8,3975.8,1120.9z M3976,1116.8c-0.2-0.3-0.3-0.9-0.1-1.2c0.7-1.1,1.7,0,2.6-0.3c0,0,0.2,0.4,0.3,0.6
		C3978.7,1116.5,3976.4,1117.2,3976,1116.8z M3978.7,1165.2c-0.8-0.1-1.2-0.7-1.2-1.4c0.1-1,0.9-1.3,1.7-1.3s1.2,0.5,1.1,1.5
		C3980.2,1164.8,3979.6,1165.3,3978.7,1165.2z M3983.9,1127.5c0.2-0.3,0.4-0.6,0.7-1c0.4,0.8,1.2,1.3,1.1,2.2
		c-0.1,0.5-0.5,0.5-0.9,0.3C3984,1128.7,3983.5,1128.3,3983.9,1127.5z M3987.3,1229.4c-1.1,1.6-2.9,1.4-4.5,1.7
		c-0.7,0.1-0.8-0.7-0.4-1.2c1.1-1.5,2.9-1.3,4.2-2.2c0.5,0.3,0.9,0.4,0.9,0.6C3987.5,1228.7,3987.5,1229.1,3987.3,1229.4z
		 M3989.7,1170.5c-0.1,0.3-0.2,1.2-0.7,0.5c-0.6-1-2.2-1.5-2-3.1c0.2-0.3,0.5-0.7,0.8-0.9c0.4-0.3,0.7,0,0.9,0.4
		C3989.1,1168.4,3990,1169.3,3989.7,1170.5z M3988.6,1163.9c-1.3,1-3.2,1.2-3.4,3.3c0,0.2-0.4,0.3-0.6,0.5c-0.4-0.2-0.8-0.3-1.1-0.6
		c-0.5-0.4-0.5-1.1-0.2-1.6c1.3-1.9,2.9-3.5,3.8-5.6c0.1-0.2,0.6-0.3,0.7-0.3c0.6,0.9,0.9,1.9,1.8,2.7
		C3990.2,1163.1,3989.1,1163.6,3988.6,1163.9z M3991.2,1245.2c-0.7,0-1.4-0.5-1.4-1.2s0.6-1.2,1.3-1.3c0.8,0.2,1.1,0.7,1.1,1.5
		C3992.2,1244.8,3991.8,1245.2,3991.2,1245.2z M3992.7,1218.1c-0.7,0.8,0.5,2.2-0.9,2.8c-0.1,0-0.3-0.1-0.3-0.2
		c-0.5-1.3,0.1-2.4,0.6-3.4c0.1-0.2,0.4-0.3,0.6-0.5c0.1,0.2,0.2,0.4,0.3,0.6C3992.9,1217.6,3992.8,1217.9,3992.7,1218.1z
		 M3997.4,1297.5c-0.8-0.1-1.3-0.5-1.4-1.2c-0.2-1.2,1.2-2.8,2.6-2.7c0.7,0,1.4,0.5,1.5,1.2
		C4000.2,1295.8,3998.6,1297.4,3997.4,1297.5z M4007.5,1202.3c0.8,0.3,0.9,0.9,0.9,1.6c-0.3,0.9-1,1-1.7,0.9c-0.8-0.2-1.1-0.7-1-1.5
		C4005.8,1202.1,4006.6,1202,4007.5,1202.3z M4003.2,1183.6c0.5,0.2,1,0.6,1,1.2c0.1,0.5-0.3,0.7-0.8,0.9c-0.8-0.1-1.2-0.7-1.1-1.4
		C4002.3,1183.8,4002.8,1183.4,4003.2,1183.6z M3997.6,1202.8c0.6,0.2,1,0.4,1.1,1.1c0.1,0.6,0,1.2-0.6,1.3c-0.7,0.2-1-0.3-1-0.9
		C3997.1,1203.6,3997,1203.1,3997.6,1202.8z M3996.6,1226.8c-0.7-0.2-1.9-0.4-1.6-1.5c0.2-1,0.3-2.7,1.5-2.5
		c1.3,0.2,0.5,1.9,0.8,2.9C3997.1,1226.2,3997.5,1227.1,3996.6,1226.8z M3995.4,1219.2c-0.5,0.2-0.9-0.3-0.7-0.6
		c1.2-1.4,0.3-2.8,0.1-4.3c0-0.4-0.2-1.8,1.2-1.7c0.6,0.1,0.6,1.6,1.4,0.8c0.5-0.5-0.3-1.2-0.5-1.9c-0.2-0.9,0.3-1.4,1.1-1.4
		s1.4,0.6,0.9,1.4c-0.8,1.4,0.6,2.4,0.3,3.6C3999.3,1216.6,3997.3,1218.6,3995.4,1219.2z M4000.4,1203.1c-0.2-0.3-0.5-0.8-0.4-1.1
		c0.5-1.6,1.1-3.2,1.6-4.8c0.4-1.4,1.5-2.8,0.4-4.4c-0.3-0.5,0-1.2,0.6-1.4c1.1-0.4,1,0.6,1.1,1.2c0.2,0.7,0.3,1.4-0.1,2.1
		c-0.4,0.8-0.3,1.6,0,2.5c1,2.7-1.5,4-2.5,5.9C4001,1203.1,4000.4,1203.2,4000.4,1203.1z M4003.8,1278.3c-0.2,0-0.5-0.2-0.6-0.4
		c-1.2-2.1-2.2-4.5-2-6.8c0.3-2.1-0.2-4.2-0.1-6.3c0.1-1.9,0.1-3.6,1.5-5.1c0.7-0.8,0.9-2,1.3-3.1l-0.1,0.1v-0.1
		c-0.4,0-0.7,0.1-1.1,0c-0.6,0-1.1-0.2-1-0.9c0-0.2,0.1-0.5,0.3-0.7c0.5-0.4,1-0.3,1.4,0.2c0.3,0.4,0.3,0.9,0.5,1.4h0.1
		c0.4-0.5,0.9-1,1.3-1.5c0.4-0.5,0.1-2,1.4-1.4c0.8,0.3,0.3,1.3-0.1,1.9c-1.1,1.6-0.9,3.8-2.4,5.3c-0.5,0.5-0.9,1.6-0.8,2.4
		c0.5,4.4-0.8,9,0.8,13.3c0.1,0.3,0.1,0.6,0.2,0.8C4004.5,1277.8,4004.3,1278.2,4003.8,1278.3z M4007.7,1279.9
		c-0.8-0.1-1.9,0.2-1.9-1c0-0.6,0.5-1.1,1.1-1.1c0.9-0.1,1.6,0.4,2,1.2C4008.8,1279.8,4008.2,1279.9,4007.7,1279.9z M4024.2,1239
		c-1.5,2-4,3.1-4.8,5.7c0,0.1-0.6,0.3-0.7,0.3c-0.2-0.3-0.6-0.8-0.5-1c0.3-0.9,0.7-1.8,1.2-2.7c1.1-1.8,3.4-2.3,4.5-4.1
		c0.2-0.3,0.7,0,1,0.5C4025.1,1238.2,4024.5,1238.6,4024.2,1239z M4027.2,1231.5c-0.3,1.1-1.5,2.2-1.9,1.9c-1-0.5,0-1.6,0.4-2.2
		c0.4-0.9,0.5-1.9,0.7-2.9c0.1-0.6,0.4-1.2,1-1.2c1.2,0,0.3,1,0.5,1.4C4028,1229.7,4027.5,1230.6,4027.2,1231.5z M4037.5,1276.9
		c-0.8,0-0.8-0.7-0.9-1.2c-0.1-0.6,0.1-1.1,0.6-1.4c0.8,0.3,0.8,1.1,0.9,1.8C4038.3,1276.4,4037.9,1276.9,4037.5,1276.9z
		 M4038.6,1262.9c-0.1,0.4-0.4,0.8-0.9,0.7c-0.9-0.2-0.7-1-0.8-1.7c-0.1-0.4,0.2-0.8,0.7-0.7
		C4038.2,1261.7,4038.8,1262.1,4038.6,1262.9z M4046.1,1272.6c-0.6-0.1-1-0.6-0.7-1.1c0.4-0.7,1.2-0.3,1.8-0.4
		c0.3,0,0.7,0.4,0.5,0.9C4047.4,1272.8,4046.8,1272.7,4046.1,1272.6z"/>
	<path class="st0" d="M3924.8,1298l-9.2-9.9l-8.2-4.6l-5.3-4.8l2.6-6.7l5.2-8l4.8-15.8l5.6-15.1h0.2c0-0.7,0-1.4,0-2.2
		c-0.1-1.6,0.2-3.1-0.8-4.5c-1.5-2.2-1.3-4.6-0.5-7c0.4-1.2,0.7-2.4,0.6-3.7c-0.1-0.9-0.1-1.8,0.8-2.2c1.3-0.6,1.3-1.8,1.4-2.9
		c0.2-1.6-0.5-3.6,2.2-3.8c0.1,0,0.4-0.5,0.3-0.7c-1.2-2.5,0.6-3.1,2.4-3.6c1-0.3,1.1-1.1,1.3-2c0.4-2.4,0.4-4.8-0.1-7.2
		c-0.5-2.6,0.2-5.1,0.1-7.6c0-0.4,0.2-0.8,0.5-1.2c0.3-0.6,0.8-0.8,1.4-0.2c0.3,0.3,1.4,0.4,0.6,1.1c-1.2,1-0.1,2.1-0.5,3.2
		c-0.3,0.8-0.9,2.2,0.3,2.7c1.4,0.6,1.8-1.1,2.3-2c0.7-1.4,1-3,0.8-4.5c-0.5-4.3,0.1-8.4,2.9-11.9c1.1-1.4,0.4-3.3,1.6-4.6
		c0.2-0.2-0.1-1.1-0.2-1.1c-4.1,0.2-1.1-2.3-1.3-3.5c0-0.5-0.1-1.3,0.6-1.2c0.4,0,0.7,0.8,1,1.2c0.1,0.2,0.1,0.5,0.1,0.8
		c0,0.4,0.1,0.8,0.5,1c0.1-0.3,0.2-0.5,0.2-0.8c0.5-4.7,1.8-9.4,1.4-14.2c0-0.3,0-0.6,0.1-0.9l-3.4-4.2l-4.2-1.5
		c-0.1,0.2-0.3,0.3-0.6,0.2c-0.4,0-0.6-0.3-0.7-0.6l-9.1,26.3l-5.5,14c0.1-0.1,0.1-0.1,0.2-0.2c0.7-0.2,0.8,0.2,0.9,0.6
		c0.1,0.6,0,1.1-0.6,1.3c-0.4,0.2-0.8,0.1-1-0.3c0-0.1,0-0.1,0-0.2l-10.5,26.6l-0.7,1.4l-7.5,16.4l-5.9,17.1l-6.8,16.7l-6.7,16.6
		l-2.3,3.2l-17.2,17l-0.3,0.2l-0.1,3.6h3.5c0.1-0.3,0.1-0.5,0.1-0.7c0-0.8,0-1.5,0.7-1.9c0.3-0.2,0.8-0.4,1.1-0.3
		c0.4,0.1,0.6,0.6,0.5,1c-0.1,0.5-0.3,1.1-0.6,1.6c0,0.1-0.1,0.2-0.2,0.3l46.3,0.1l15.2-0.5c0-1.1-0.2-2.2-0.4-3.3
		C3924,1299.5,3924.4,1298.8,3924.8,1298z M3908.8,1225.3c0.3,0.3,0.8,0.5,0.9,0.8c0.4,1.3,0.8,2.7,1.1,4c0.3,1.1,0,2.2-0.3,3.3
		c-1.1-0.6-0.3-1.9-0.9-2.7c-1-1.3-1.2-2.8-1.1-4.5C3908.5,1226,3908.6,1225.6,3908.8,1225.3z M3906.9,1234.7c0.1,0,0.2,0.4,0.4,0.7
		c-0.4,1-0.6,2.1-1.9,2.3c-0.2,0-0.7-0.7-0.6-0.9C3905.1,1235.8,3905.6,1234.8,3906.9,1234.7z M3866.3,1297.2
		c-0.2,0.7-0.7,0.8-1.3,0.6c-0.7-0.2-1.3-0.6-1.2-1.4c0.3-0.5,0.8-0.7,1.4-0.6C3865.9,1296,3866.5,1296.4,3866.3,1297.2z
		 M3881.8,1297c-0.6-0.3-0.9-0.8-0.6-1.3c0.2-0.3,0.6-0.7,0.9-0.7c0.7-0.1,0.9,0.5,0.8,1.1C3882.9,1296.7,3882.4,1297.1,3881.8,1297
		z M3892,1259.5c-0.7,0.4-0.7-0.2-0.7-0.5c0.1-1.2,0.9-2,1.8-2.6c0.7-0.4,0.4,0.4,0.6,0.5C3893.9,1258.4,3893,1259,3892,1259.5z
		 M3896.4,1259.6c-0.5-0.2-0.9-0.7-0.6-1.3c0.2-0.3,0.6-0.7,0.9-0.7c0.6,0,0.9,0.5,0.8,1.2
		C3897.3,1259.2,3897.1,1259.8,3896.4,1259.6z M3900.2,1237.4c-0.7,0.1-1.5-0.1-1.7-0.8c-0.2-0.6,0.1-1.1,0.7-1.3
		c0.9-0.2,1.7,0.1,2,1C3901.2,1237,3900.8,1237.4,3900.2,1237.4z M3911.6,1292.8c-0.7,0-1.4-0.3-1.5-1.1c0-0.2,0.5-0.7,0.9-0.8
		c0.8-0.3,1.4-0.1,1.7,0.8C3912.6,1292.3,3912.2,1292.7,3911.6,1292.8z"/>
	<path class="st0" d="M3941.3,1158.3c-0.3,1.8-0.3,3.6-0.5,5.3c0.4,0.5,0.2,1.5,0.3,2.2c-0.3,1.6-0.6,3.1-1,4.6
		c0,0.2-0.3,0.4-0.5,0.5c-0.1-0.3-0.2-0.5-0.2-0.8c0-0.4,0-0.9,0-1.3c-0.2,0.3-0.4,0.7-0.6,1c-0.9,1.4-0.9,3.5-1.2,5.3
		c-0.1,0.7,0.2,0.6,0.6,0.5c0-0.3,0-0.8,0-1.1c0.1-0.7,0.2-1.6,1-1.6c0.7,0,0.5,0.8,0.4,1.2c0,0.4,0,0.9-0.2,1.3
		c0.3,0.1,0.3,0.5,0,1c-0.1,0.2-0.4,0.4-0.6,0.6c-0.9,1.1,0.9,2.1,1.3,3.1l3.6-9.4l0.2-0.3l4.5-10.5c-1.4-2.5-4.6-5.7-4.6-5.7
		l-2.3-2.8C3941.4,1153.8,3941.7,1156.1,3941.3,1158.3z"/>
</g>
</svg>
