<?xml version="1.0" encoding="utf-8"?>
<!-- Generator: Adobe Illustrator 25.2.1, SVG Export Plug-In . SVG Version: 6.00 Build 0)  -->
<svg version="1.1" id="Calque_1" xmlns="http://www.w3.org/2000/svg" xmlns:xlink="http://www.w3.org/1999/xlink" x="0px" y="0px"
	 viewBox="0 0 1000 300" style="enable-background:new 0 0 1000 300;" xml:space="preserve">
<style type="text/css">
	.st0{fill:#FFFFFF;}
</style>
<g>
	<g>
		<g>
			<path class="st0" d="M148.5,207.2h-30.4l-9.3-22.4H58.1l-8.5,22.4H19.8L65.4,93.9h32.7L148.5,207.2z M82.2,121l-16.6,44h34.9
				L82.2,121z"/>
			<path class="st0" d="M258.9,93.9h24.6v113.3h-28.2v-70.7L224.7,172h-4.3l-30.5-35.5v70.7h-28.2V93.9h24.6l36.4,42L258.9,93.9z"/>
			<path class="st0" d="M355,93.9c41.4,0,62.6,25.8,62.6,56.8c0,32.6-20.6,56.5-65.8,56.5H305V93.9L355,93.9L355,93.9z M333.3,186.5
				h18.4c28.4,0,36.9-19.3,36.9-35.9c0-19.4-10.5-35.9-37.2-35.9h-18.1L333.3,186.5L333.3,186.5z"/>
		</g>
		<g>
			<polygon class="st0" points="532.2,120.8 473.8,120.8 438.2,85.2 567.8,85.2 567.8,214.8 532.2,179.2 			"/>
			<polygon class="st0" points="473.8,179.2 473.8,127.9 437.1,164.6 437.1,215.9 488.4,215.9 525.1,179.2 			"/>
		</g>
	</g>
	<g>
		<polygon class="st0" points="751.7,94.3 783.9,94.3 751.7,122.1 751.7,131.4 798.1,131.4 798.1,122.1 765.8,122.1 798.1,94.4 
			798.1,85 751.7,85 		"/>
		<polygon class="st0" points="717.6,103.4 704.3,85 692.8,85 712.9,112.8 712.9,131.4 722.1,131.4 722.1,112.8 742.3,85 730.8,85 
					"/>
		<g>
			<rect x="811" y="85" class="st0" width="46.4" height="9.3"/>
			<g>
				<polygon class="st0" points="811,103.6 811,131.4 857.4,131.4 857.4,122.1 820.3,122.1 820.3,112.8 857.4,112.8 857.4,103.6 
									"/>
			</g>
		</g>
		<g>
			<path class="st0" d="M647.8,112.8h17.1l10.7,18.6h10.7l-10.7-18.6l0,0c5.1,0,9.3-4.1,9.3-9.3v-9.3c0-5.1-4.1-9.3-9.3-9.3h-37.1
				v9.3h36.4c0.4,0,0.6,0.3,0.6,0.6v8c0,0.4-0.3,0.6-0.6,0.6h-36.4v9.3v18.6h9.3L647.8,112.8L647.8,112.8z"/>
		</g>
		<polygon class="st0" points="908.5,85 908.5,117.3 880.8,85 871.5,85 871.5,131.4 880.7,131.4 880.7,99.2 908.5,131.4 
			917.8,131.4 917.8,85 		"/>
	</g>
	<g>
		<rect x="638.5" y="149.5" class="st0" width="341.8" height="2"/>
	</g>
	<g>
		<polygon class="st0" points="971,169.6 971,201.8 943.2,169.6 933.8,169.6 933.8,216 943.1,216 943.1,183.7 970.9,216 980.2,216 
			980.2,169.6 		"/>
		<path class="st0" d="M791.2,169.6H754v9.3h36.5c0.4,0,0.6,0.3,0.6,0.6V206c0,0.4-0.3,0.6-0.6,0.6h-27.2v-18.6H754v27.8h37.1
			c5.1,0,9.3-4.1,9.3-9.3v-27.8C800.4,173.7,796.3,169.6,791.2,169.6z"/>
		<g>
			<path class="st0" d="M708.9,206.7h21.2l4,9.3h10.1l-20.1-46.4h-9.3l-20.1,46.4h10.1L708.9,206.7z M719.5,182.2l6.6,15.2h-13.2
				L719.5,182.2z"/>
		</g>
		<g>
			<path class="st0" d="M911,169.6h-27.9c-5.1,0-9.3,4.1-9.3,9.3v27.8c0,5.1,4.1,9.3,9.3,9.3H911c5.1,0,9.3-4.1,9.3-9.3v-27.8
				C920.3,173.7,916.1,169.6,911,169.6z M911,206c0,0.4-0.3,0.6-0.6,0.6h-26.5c-0.4,0-0.6-0.3-0.6-0.6v-26.5c0-0.4,0.3-0.6,0.6-0.6
				h26.5c0.4,0,0.6,0.3,0.6,0.6V206z"/>
		</g>
		<g>
			<rect x="814" y="169.6" class="st0" width="46.4" height="9.3"/>
			<g>
				<polygon class="st0" points="814,188.1 814,216 860.3,216 860.3,206.7 823.3,206.7 823.3,197.4 860.3,197.4 860.3,188.1 				"/>
			</g>
		</g>
		<g>
			<path class="st0" d="M647.8,197.4h17.1l10.7,18.6h10.7l-10.7-18.6l0,0c5.1,0,9.3-4.1,9.3-9.3v-9.3c0-5.1-4.1-9.3-9.3-9.3h-37.1
				v9.3h36.4c0.4,0,0.6,0.3,0.6,0.6v8c0,0.4-0.3,0.6-0.6,0.6h-36.4V216h9.3L647.8,197.4L647.8,197.4z"/>
		</g>
	</g>
</g>
</svg>
