<?xml version="1.0" encoding="utf-8"?>
<!-- Generator: Adobe Illustrator 25.2.1, SVG Export Plug-In . SVG Version: 6.00 Build 0)  -->
<svg version="1.1" id="Calque_1" xmlns="http://www.w3.org/2000/svg" xmlns:xlink="http://www.w3.org/1999/xlink" x="0px" y="0px"
	 viewBox="0 0 1000 300" style="enable-background:new 0 0 1000 300;" xml:space="preserve">
<style type="text/css">
	.st0{fill:#FFFFFF;}
</style>
<g>
	<path class="st0" d="M115.7,243.8H51c-10.8,0-18.6-5.5-23.5-16.5c-3.9-8.8-5.9-20.9-5.9-36.4c0-10.1,0.7-18.5,2.1-25.4
		c1.7-8.5,4.6-15,8.6-19.5c4.7-5.2,10.9-7.8,18.7-7.8h64.7v23.4H53.4c-2.8,0-4.8,2.5-6,7.6c-1.2,5.1-1.9,12.3-1.9,21.7
		c0,9.4,0.6,16.7,1.9,21.8c1.2,5.1,3.2,7.6,6,7.6h62.3V243.8z"/>
	<path class="st0" d="M231.2,173.3c0,10.7-5.5,18.5-16.5,23.4c-8.8,3.9-21,5.9-36.5,5.9c-16,0-28.1-1.7-36.3-5.2
		c-11.1-4.7-16.7-12.7-16.7-24v-35.1h23.5v32.8c0,2.8,2.6,4.7,7.7,5.9c5.2,1.2,12.4,1.8,21.8,1.8c9.7,0,17-0.6,22-1.7
		c5-1.1,7.5-3.1,7.5-6v-32.8h23.5V173.3z M190,243.8h-23.5v-29.3H190V243.8z"/>
	<path class="st0" d="M353.9,220.3c0,6.3-2.3,11.8-6.9,16.5c-4.6,4.6-10.1,7-16.6,7H248v-64.5h80c0.7,0,1.2-0.2,1.6-0.7
		c0.4-0.4,0.7-1,0.7-1.6V164c0-0.7-0.2-1.2-0.7-1.6c-0.4-0.4-1-0.7-1.6-0.7h-80v-23.4h82.4c6.5,0,12.1,2.3,16.6,6.8
		c4.6,4.6,6.9,10.1,6.9,16.6v17.6c0,2.4-0.3,4.7-1,6.8c-0.7,2.1-1.8,3.7-3.3,4.9c1.3,1.1,2.3,2.7,3.1,4.9c0.8,2.2,1.2,4.5,1.2,6.8
		V220.3z M330.4,217.9v-12.8c0-0.7-0.2-1.3-0.7-1.8c-0.4-0.4-1-0.7-1.6-0.7h-56.5v17.7H328C329.6,220.3,330.4,219.5,330.4,217.9"/>
	<path class="st0" d="M485.3,243.8h-82.4c-6.5,0-12.1-2.3-16.7-6.8c-4.6-4.6-6.9-10.1-6.9-16.6v-58.8c0-6.5,2.3-12,6.9-16.6
		c4.6-4.6,10.1-6.8,16.7-6.8h82.4v23.4h-80c-0.7,0-1.2,0.2-1.6,0.7c-0.4,0.4-0.7,1-0.7,1.6v15.3h82.4v23.4h-82.4v15.3
		c0,0.7,0.2,1.3,0.7,1.8c0.4,0.4,1,0.7,1.6,0.7h80V243.8z"/>
	<path class="st0" d="M612,243.8h-23.5l-5.9-38.7c-0.3-1.6-1.1-2.4-2.4-2.4H526v41.1h-23.5v-64.5h77.6c0.7,0,1.3-0.2,1.8-0.7
		c0.4-0.4,0.7-1,0.7-1.6V164c0-1.5-0.8-2.3-2.4-2.3h-77.6v-23.4h80c6.4,0,11.9,2.3,16.5,6.8c4.7,4.6,7,10.1,7,16.6v17.6
		c0,2.3-0.4,4.5-1.2,6.7c-0.8,2.2-1.9,3.9-3.3,5c1.3,1.1,2.3,2.8,3.1,5.1c0.5,1.5,0.9,3.7,1.3,6.6L612,243.8z"/>
	<path class="st0" d="M727.3,161.6H621.5v-23.4h105.9V161.6z M686.2,243.8h-23.5v-70.4h23.5V243.8z"/>
	<path class="st0" d="M847.9,243.8h-82.4c-6.5,0-12.1-2.3-16.7-6.8c-4.6-4.6-6.9-10.1-6.9-16.6v-58.8c0-6.5,2.3-12,6.9-16.6
		c4.6-4.6,10.1-6.8,16.7-6.8h82.4v23.4h-80c-0.7,0-1.2,0.2-1.6,0.7c-0.4,0.4-0.7,1-0.7,1.6v15.3h82.4v23.4h-82.4v15.3
		c0,0.7,0.2,1.3,0.7,1.8c0.4,0.4,1,0.7,1.6,0.7h80V243.8z"/>
	<path class="st0" d="M978.3,243.8h-27.5l-17.6-38.7c-0.3-0.6-0.6-1.1-0.9-1.6c-0.3-0.5-0.8-0.8-1.4-0.8h-40v41.1h-23.5V138.2h23.5
		v41h31.8c0.4,0,0.7-0.1,1-0.3c0.2-0.2,0.7-0.9,1.3-2l19.9-38.7h27.5l-21.7,41c-0.5,1-1,1.9-1.5,2.7c-0.5,0.9-1.1,1.6-2,2.1
		c2.5,1.9,4.9,4.5,7.1,7.8c2,3,3.9,6.6,5.8,10.7L978.3,243.8z"/>
	<polygon class="st0" points="574.1,115.2 560,115.2 560,85.6 546.2,115.2 530.6,115.2 516.7,85.6 516.7,115.2 502.8,115.2 
		502.8,57.3 518.3,57.3 538.4,99.8 558.5,57.3 574.1,57.3 	"/>
	<path class="st0" d="M642.9,86.3c0,16.5-13.4,29.9-29.9,29.9c-16.6,0-29.9-13.4-29.9-29.9c0-16.4,13.3-29.9,29.9-29.9
		C629.4,56.3,642.9,69.8,642.9,86.3 M595.9,86.3c0,9.4,7.6,17,17.1,17c9.3,0,16.9-7.6,16.9-17c0-9.4-7.6-16.9-16.9-16.9
		C603.6,69.3,595.9,76.9,595.9,86.3"/>
	<path class="st0" d="M708.2,86.2c0,16.8-12.5,29-30.5,29H652V57.4l25.6-0.1C696.7,57.3,708.2,69.5,708.2,86.2 M666,102.2h11.7
		c9.7,0,16.4-6.4,16.4-16.1c0-10.4-6.5-15.9-16.4-15.9H666V102.2L666,102.2z"/>
	<path class="st0" d="M774.1,86.2c0,16.8-12.5,29-30.5,29h-25.6V57.4l25.6-0.1C762.6,57.3,774.1,69.5,774.1,86.2 M731.9,102.2h11.7
		c9.7,0,16.4-6.4,16.4-16.1c0-10.4-6.5-15.9-16.4-15.9h-11.7V102.2z"/>
	<polygon class="st0" points="828.2,57.3 828.2,70.3 797.8,70.3 797.8,80.2 823.2,80.2 823.2,92.3 797.8,92.3 797.8,102.2 
		828.2,102.2 828.2,115.2 783.8,115.2 783.8,57.3 	"/>
	<path class="st0" d="M895.6,86.2c0,16.8-12.5,29-30.5,29h-25.6V57.4l25.6-0.1C884.1,57.3,895.6,69.5,895.6,86.2 M853.4,102.2h11.7
		c9.7,0,16.4-6.4,16.4-16.1c0-10.4-6.5-15.9-16.4-15.9h-11.7V102.2z"/>
	<path class="st0" d="M938.4,107.1c0,4.5-2.9,8.1-10.5,8.1h-13.7V87.5h12c8.1,0,10.6,3.2,10.6,7.6c0,2.8-2,4.9-2.6,5.3
		C936.9,101.7,938.4,104.1,938.4,107.1 M930.5,95.9c0-1.9-1.2-2.8-3.8-2.8h-5.8v5.8h5.8C929.6,98.9,930.5,98.1,930.5,95.9
		 M927.1,104h-6.2v5.4h6.2c2.7,0,4-0.9,4-2.7C931.2,104.7,929.8,104,927.1,104"/>
	<polygon class="st0" points="960.3,104.7 960.3,115.2 953.6,115.2 953.6,104.7 941.7,87.4 949.4,87.4 957,98.8 964.4,87.4 
		972.2,87.4 	"/>
	<rect x="21.7" y="84.5" class="st0" width="463.9" height="2.8"/>
</g>
</svg>
