<?xml version="1.0" encoding="utf-8"?>
<!-- Generator: Adobe Illustrator 25.2.1, SVG Export Plug-In . SVG Version: 6.00 Build 0)  -->
<svg version="1.1" id="Calque_1" xmlns="http://www.w3.org/2000/svg" xmlns:xlink="http://www.w3.org/1999/xlink" x="0px" y="0px"
	 viewBox="0 0 1000 300" style="enable-background:new 0 0 1000 300;" xml:space="preserve">
<style type="text/css">
	.st0{fill-rule:evenodd;clip-rule:evenodd;fill:#FFFFFF;}
	.st1{fill:#FFFFFF;}
</style>
<g>
	<g>
		<g id="XMLID_3_">
			<g id="XMLID_4_">
				<g id="XMLID_5_">
					<path id="XMLID_6_" class="st0" d="M945.3,71.7c-6.7,0-12.1,5.4-12.1,12.1S938.6,96,945.3,96s12.1-5.4,12.1-12.1
						C957.4,77.1,952,71.7,945.3,71.7z M945.3,94.2c-5.6,0-10.2-4.7-10.2-10.4s4.5-10.4,10.2-10.4s10.2,4.7,10.2,10.4
						C955.5,89.6,950.9,94.2,945.3,94.2z"/>
					<path id="XMLID_9_" class="st0" d="M947.2,84.8c1.6-0.5,2.8-1.7,2.8-3.7c0-2.3-1.9-4-4.2-4h-4.5v13.3h1.9v-5.4h2l3,5.4h2.2
						L947.2,84.8z M943.2,83.5v-4.7h2.5c1.5,0,2.5,1,2.5,2.3c0,1.3-1,2.3-2.5,2.3L943.2,83.5L943.2,83.5z"/>
				</g>
			</g>
		</g>
		<g>
			<path id="msi-corporate_x5F_identity-logo-black-cmyk_5_" class="st0" d="M860.5,222l41.1-113.5c0,0-30.8,0-61.5,6.2L801.2,222
				H860.5z M853.4,77.9l-7.9,21.8c31-6.2,61.5-6.2,61.5-6.2l7.9-21.8C914.9,71.7,884.2,71.7,853.4,77.9 M638.9,195.1
				c18.5,3.4,37.6,5.2,57.1,5.2l0,0c20,0,34.5-4.5,36.1-18c0.8-6.5-5.3-11.1-16.5-17.3c-12.8-7.1-23.6-10.6-34.7-18
				c-11.1-7.4-15.9-19.2-12.2-31.6c4.4-14.5,14.5-22.9,30.1-30.8c18.2-9.3,32.6-12.8,67.6-12.8c22.1,0,43.7,2.1,64.6,6.2l-7.5,20.7
				c-18.5-3.4-37.6-5.1-57.1-5.1c-20,0-34.5,4.5-36.1,18c-0.7,6.5,5.3,11.1,16.6,17.3c12.8,7,23.6,10.6,34.7,18
				c11.1,7.4,15.9,19.2,12.2,31.6c-4.4,14.5-14.6,22.9-30.1,30.8C745.4,218.5,731,222,696,222l0,0c-22.1,0-43.7-2.1-64.6-6.2
				L638.9,195.1z M549.6,222l34.3-94.7c11.5-31.6-30.6-20-39.9-12.8c-7.4,5.7-20.8,18.7-25.8,32.3L490.9,222l0,0h-59.3l34.3-94.7
				c11.4-31.6-30.6-20-39.9-12.8c-7.4,5.7-20.8,18.7-25.8,32.3L373,222h-59.3l54.5-150.3c18.9,0,29.1,4.3,37.7,12.8
				c3.1,3.1,5.1,7.1,6.2,11.3c11.1-6.7,21-11.8,27.6-14.3c12.3-4.8,27.6-9.8,46.5-9.8c18.9,0,29.1,4.3,37.7,12.8
				c3.1,3.1,5.1,7.1,6.2,11.3c11.1-6.7,21-11.8,27.6-14.3c12.3-4.8,27.6-9.8,46.5-9.8c18.9,0,29.1,4.3,37.7,12.8
				c8.6,8.4,8.4,23.8,5.3,32.3l-38.1,105.2L549.6,222L549.6,222z"/>
			<g id="XMLID_126_">
				<path id="XMLID_133_" class="st1" d="M276.1,56.5c-26.4-18.2-74.7-40.6-114.7-48c-1.1-0.2-1.6-0.2-2.6,0
					c-39.1,7.1-86.6,29.2-114.7,48c-0.8,0.5-1.5,1.8-1.5,2.8C42.4,117,52.8,162.5,67.1,196.5c9.2,21.9,24.2,47.1,43.9,64.9
					c14.6,13.4,29.4,22.4,47.8,30c0.7,0.3,1.9,0.3,2.6,0c19.5-7.7,35.6-18.4,47.8-30c19.9-17.7,34.9-44.1,43.9-64.9
					c16.1-39.2,24.7-85.1,24.5-137.2C277.7,58.2,277,57,276.1,56.5z M246.9,193.4c-6.6,15.2-20.9,43.5-42.2,62.5
					c-12.1,11.5-27.2,21.1-43.7,27.9c-0.3,0.1-0.5,0.2-0.9,0.2c-0.3,0-0.6-0.1-0.9-0.2c-16.5-6.8-31.6-16.4-43.7-27.9
					c-21.3-19-35.6-47.3-42.2-62.5c-15.8-38.4-23.8-81.9-24-131.1c0-0.8,0.4-1.5,1.1-2c17.1-11.5,40-22.8,64.1-32
					c16.7-6.3,31.2-10.6,45.1-13.3c0.2,0,0.3,0,0.5,0c0.2,0,0.3,0,0.5,0c14,2.6,28.5,6.9,45.1,13.3c24.1,9.1,46.9,20.5,64.1,32
					c0.7,0.5,1.1,1.2,1.1,2C270.7,111.5,262.7,155.1,246.9,193.4z"/>
				<g id="XMLID_127_">
					<path id="XMLID_130_" class="st1" d="M108.8,180.7c-4.2-6.3-19.2-27.6-6.5-58.4c18-43.9,66.8-32,71.3-30.2
						c0-4.1,2.6-7.4,6.9-8.3c1.4-0.3,2.5-0.3,3.7-0.2c0.4,0,0.5,0.2,0.2,0.3c-4.7,1.2-8.3,3.7-8.1,8.1c0.2,4.1,4.4,7.1,8,7.7l0,0
						c0,0,2.8,0.6,4.8-0.7c0,0,0.1,0,0.1-0.1c0.5-0.3,1-0.7,1.8-0.9c1.5-0.5,2.9-0.6,4.5-0.2c0.4,0.1,1.2,0.8,1.9,0.7
						c0.5,0,1.2-0.8,1.8-0.8c2.8-0.1,8.9,2.1,9.1,3.6c0.1,1-1.5,2.3-2.3,2.9c-1,0.7-1.9,1.3-3,1.7c-0.3,0.1-0.1,0.2,0,0.2
						c4.9-0.6,13.7-3.8,12.3,2.1c-0.1,0.6-0.3,1-0.4,1.4c0,0.1,0,0.2,0.1,0.1c4.8-1.6,6.3-5.9,5.6-11.5c0-0.1-0.1-0.1-0.2,0
						c-0.4,0.6-1.1,1.4-1.6,1.8c0,0,0,0,0-0.1c0-1.6,0.1-4-0.9-5.1c0,0-0.1,0-0.1,0.1c0.5,2.9-1.1,4.4-3.3,5.4
						c-1.7-3-3.7-5.8-5.8-8.2c-0.1-0.1-0.2,0-0.2,0.1c0,0.9,0,2-0.3,2.8c0,0.1-0.1,0.1-0.1,0c-0.6-1.6-2-2.6-3.7-2.8
						c-1.1-0.2-2.3,0.2-3.6,0c-1.7-0.3-3.7-1.5-3.8-2.8c-0.2-2.1,3.6-3.1,5.5-3.6c0.5,1,0.9,2.4,1.4,3.6c0.1,0.2,0.2,0.1,0.2,0.1
						c1.8-1.4,4.6-3.4,8.1-3.5c0.9,0,2.8,0.3,3.1,0.9c0.7,1.4-1,3.1-1.6,3.6c-1,1-0.5,0.9-0.5,0.9c3.2-0.9,4.7-3,7-4.6
						c1.2,1.5,1.6,4.7,1.5,7c0,0.1,0.1,0.2,0.2,0.1c2.4-2.6,2.4-6.6,2.2-11.1c2.5,0.8,4.2,2.3,5.8,4.1c0.2,0.2,0.3,0.2,0.2-0.1
						c-1.4-2.4-3.2-4.4-5.4-5.7c-0.8-0.5-1.9-0.8-2.5-1.4c-0.6-0.5-1.3-2.6-2-2.7c-1-0.2-2.2,0.9-3.4,1c-2,0.2-3.1-1.3-3.5-3.2
						c-4.9,1.4-6.8-1.6-8-5.3c-0.2-0.6-0.2-1.5-0.5-2.2c-0.4-0.9-2.3-1.8-3.3-2.2c-1.4-0.5-3.1-0.8-4.7-0.5c-1.4,0.2-2.5,0.9-4.2,1
						c-4,0.2-8.3-1.7-11.5-3.4c-13.4-6.6-22.7-18-24.9-20.6c-0.3-0.3-0.3-0.1-0.2,0.2c5.1,12.8,14.7,20.5,22.2,25.4
						c0,0-15.4-3.4-29.6-14.7c-0.2-0.2-0.4-0.2-0.1,0.2c1.5,2,6.5,8.2,13.7,13.6l0.2,0.1c-7.3,3-18.2,4.1-26.9,6.1
						c-0.4,0.1-0.5,0.2-0.2,0.2c4.8,0.1,11.3,1.4,15.2,2.1c0,0-0.1,0-0.1,0l0,0c-19.9,0.8-37.2,6.6-49.3,17.7
						c-0.2,0.2-0.1,0.3,0.2,0.2c2.9-1.1,5.6-2.4,8.8-3.2c-3,2.7-5.9,5.5-8.7,8.5l0,0c-4,4.4-5.7,4.1-7.6,1.1
						c-1.5-1.7-1.5-6.7,0.5-7.8c2.4,0.8,4.1-1.4,3.8-3.6c-0.4-3.2-4.1-5.5-6.3-7c-0.2-0.2-0.4-0.1-0.2,0c1.1,1.2,2.7,2.3,3.1,4.1
						c0.2,0.7,0.1,2.1-0.6,2.3c-1.1,0.3-1.8-0.9-2.9-0.8c-1,0.2-1.4,1.9-1.6,3c-0.2,1.2-0.3,3.1-0.2,4.5c0,0.7,0.3,1.9-0.2,2.4
						c-0.7-0.3-0.8-1.2-1.1-1.9c-1.1-2.3-2.9-5.5-2.1-8.6c0.5-0.2,1.4,0.1,1.7-0.2c0.2-2-1.2-3.7-2.5-5c-1.6-1.6-4.8-2.8-7.5-2
						c-0.1,0-0.2,0.2-0.1,0.2c1.9,0.3,5.5,0.7,5.5,2.6c0,0.7-0.9,1.8-1.1,2.3c-1.4,3.4,0.2,7.9,1.9,10.1c1,1.3,2.3,2.5,1.5,4.9
						c-1.1-0.1-2.1-0.8-3.1-1.3c-1.4-0.8-2.9-1.6-3.6-2.8c-0.7-1.3-0.8-2.7-1.7-3.8c-2.3-2.6-7.2-4.5-11-2.5c-0.1,0.1-0.1,0.2,0,0.2
						c3-0.1,5.8,0.2,7,2.2c0.5,0.9,0.9,2.5,1,3.9c0,0.5-0.1,1.3,0.2,1.8c0.5,0.8,2,0.7,2.9,1.2c1.2,0.7,1.9,2.6,3.2,3.7
						c0.3,0.3,0.7,0.6,1.1,0.8c2,1.2,6.3,2.1,8,3.8c2.5,2.5,1.2,6.7,0.3,9.5c-1.1,2.7-1.8,5.7-1.9,9.1c0,0.1,0.1,0.2,0.2,0.2
						c2.4-2.3,4.8-5.3,8.1-7c-2.8,5.7-5.2,12.3-7.2,19.2c-1.7,6-4.1,15.9-0.4,21.6c0.1,0.1,0.2,0.1,0.2,0c0.2-2,0.3-4.1,1.6-5
						c2.3,5.5,6.3,16.6,18.5,27.5C108.9,181.1,109,181,108.8,180.7z M199.1,70.8c1.2,0.3,2.5,0.2,3.1,0.6c1.2,0.7,1.2,2.3,1.9,3.7
						c-4.6,0.8-6.1-2.5-8.2-4.9C196.7,70.1,197.9,70.5,199.1,70.8z"/>
					<path id="XMLID_129_" class="st1" d="M135.1,129.6c28.6,8.4,53.3-9.2,58.5-15.7c0.8-1,0.5-1.3-0.2-0.6c-5,3.9-8.5,6-14,8.7
						c-20.9,10.2-42.8,4.8-43.5,3.5c-0.5-1,1.5-0.9,1.5-0.9c44.6-1.5,53.3-20.9,53.2-21.7c0-0.7-0.8,0.1-0.8,0.1
						c-11.7,15.1-41.8,16.7-41.8,16.7c-7.8,0.7-14.3-0.5-18.3-4.3c-0.9-0.9-1.9-2.3-2.3-3.5c0-0.1-0.1-0.1-0.2,0
						c-0.6,1.2-1.3,2.1-2.3,3.3c-1.1,1.3-2.6,1.9-3.6,1.2c-3.2-2.2,5.5-14.5,12.4-19.9c0.3-0.3,1.3-1.1,0.8-0.9
						c-21.7,9.5-28.3,26.7-30.7,35.3c-1.2,4.4-2,9.5-2,14.6c0,5.3,0.7,10.2,1.8,14.8c2.1,9,4.7,15.2,8.5,22.2
						c0.2,0.4,0.3,0.2,0.4,0.1c1.2-1.7,1.7-4,2.4-6.1c0.8-2.3,1.4-5.4,2.6-7.3c2.7-4.5,17.6-3.4,13.5-6.5c-1.2-0.9-2.3-2-3.3-3
						c-2-2.1-4-4.6-5.7-7.1c-3.3-4.7-6.2-10.4-6.6-17.7c0-0.3,0.2-0.3,0.3-0.1c4,9.8,9.6,16.3,18.9,20.8c2.9,1.4,10.4,3.7,15,4
						c0.5,0,0.4-0.1,0-0.2c-10.9-2.5-21.9-10-26.5-18.9c0,0-1.8-2.9-0.7-3.5c1.1-0.5,3.1,1.9,4.9,3.6c3.5,3.4,8.8,6.2,14,7.7
						c6.8,2.1,16.3,2.4,23.8,0.5c0.2-0.1,0.2-0.2,0-0.1c-7.3,0.5-15.2,0.1-20.5-2c-13.3-5.2-17.3-11.7-16.3-12.9
						c1.4-1.5,16.9,13.3,42.2,2.2c4.4-1.9,10.9-5.8,14.5-9.1c0.3-0.3,0.2-0.5,0-0.4c-8.6,4.6-16.7,9.2-29.2,9.9
						c-5.2,0.3-15.1-0.7-21.8-5.2c-1-0.7-1.5-1.1-1.1-1.6C133.7,128.9,135.1,129.6,135.1,129.6z"/>
					<path id="XMLID_128_" class="st1" d="M235.8,172.7c-1.1,0.9-2.7,1-4.4,1.1c-0.6,0-2.4-0.3-3.5,0c-0.2,0.1-0.5,0.2-0.6,0.3
						c0,0,0,0,0,0l0,0l0,0c-2,1.8-3.2,1.1-3-0.3c0.2-1.5,0.3-1.8,0.8-3c0.8-1.9,2-3.3,2.5-5.2c0.4-1.8-0.3-3.1-0.9-4.6
						c-0.3-0.8-1.4-3.5,2.2-3.4h0c0.4,0,0.8-0.2,1.2-0.4c2.4-1.6,3.5-4.5,3.7-7.9c0-0.2-0.1-0.3-0.2-0.1c-0.6,1.3-2,2.1-3.4,3
						c-0.5,0.3-2.3,0.9-3.2,1.6c-0.3,0.2-0.5,0.6-0.5,0.9c-1,2.5-2.2,1.4-2.4,1.1c-0.9-1.4-1.9-2.5-3.2-3.4c-3.3-2-8.4-3-13-2.7
						c-2.2,0.2-4.4,0.4-6.5,0.7c-1,0.1-2,0.2-3,0.3c-4.1,0.1-1.3-4.5,2.1-5.4c2.9-0.8,5.8,0.2,7.2,1.7c0.2,0.2,0.3,0.2,0.2,0
						c-1.3-3.2-6.9-14.7-26.5-13.1c-0.3,0-0.3,0.2-0.1,0.2c4.1,1,8.1,1.7,11.6,3.8c1.2,0.6,3.5,2.3,3,4.8c-0.4,1.8-3.5,5.2-4.9,5.9
						c-1.5,0.8-3.6,0.3-5.2-0.4c-3.6-2.1-6.1-5.3-6.7-10.2c0-0.1-0.1-0.3-0.2,0c-1.1,8.2,3.2,13.1,10,14.5c1.8,0.4,1.7,3.8,1.4,5.4
						c-0.5,1.9-3.3,2-5.5,1.7c-2.4-0.3-4.2-1.4-5.6-2.3c-2.8-2-4.8-4.8-6.6-7.4c-0.2-0.4-0.4-0.4-0.3,0c1.6,4.1,4.4,7.6,7.7,10
						c3.6,2.7,8.9,4.8,14.9,4.5c3.8-0.2,7.2-1,10.2-2.1c0.3-0.1,0.2-0.3,0-0.3c-4.6,0-10.2,0-11.5-3.1c-0.4-1.1-0.7-5.5,1.6-5.2
						c4,0.5,6.5-0.4,9.8-0.6c2.8-0.2,6.8,0.7,9.1,1.4c2.3,0.8,4.1,2.3,5.3,4c2.3,3.4,1.8,9.2,0.9,14.1c-0.8,4.4-2.4,8.3-3.8,12
						c-3.1,7.8-9.4,19.6-14.4,24c-6,5-13.4,8-22.1,10.2c-3.5,0.9-7.4,1.6-11.2,1.8c-8.9,0.4-16.1-0.9-20.8-5.1
						c-2.2-2-3.9-4.7-5.1-7.7c-1.4-7.3,2.6-9.3,12.2-6.3c3,0.9,5-1.8,7.3-1.9c1.2,0,2,0.8,3.1,0.5c0.7-0.2,1.3-1.5,2-2.3
						c0.6-0.9,1.4-1.7,2.2-2.2c2.8-1.6,5.7,0.3,7.7,1.5c0.2,0.1,0.3,0,0.2-0.2c-2.1-3-7.7-5.2-12-3.1c-0.9,0.5-1.7,1.6-2.8,2.3
						c-1.7,1-4.1,0.7-6.3,0.6c-0.8,0-1.6,0.2-2.2-0.3c0.6-2.9,3.4-3,5.4-4.2c2.9-1.8,5.8-4.5,6.1-8.7c0-0.5-0.2-1.4,0.2-1.9
						c0.4-0.5,1.5-0.6,2.5-0.5c1.5,0.2,2.9,1,4,1.3c0.3,0.1-0.4-0.6-0.7-0.9c-3.8-3.1-10.8-1.6-12.5,1.8c-0.3,0.5,1.3,0.6,1.5,1.3
						c0.2,0.8-1,1.9-1.6,2.5c-1.5,1.6-2.9,2.6-4.6,3.7c-0.9,0.5-1.6,1.5-2.6,1.4c0.5-2,1.6-2.8,2.5-4.5c0.6-1.2,2.1-4.2,1.3-5.5
						c-0.5-0.8-3-0.4-3.4-1.3c-0.3-0.7,0.3-1.7,0.7-2.1c1.1-1.2,3.2-1.9,5.2-2.3c0.2-0.1,0.1-0.1-0.2-0.1c-3.4,0.2-8.6,1.3-9.9,3.9
						c-0.9,1.8-0.1,4.5,2,4.7c0.8,2.6-0.7,7.3-4.1,7.7c-4.6,0.5-8-2.4-6.1-10.4c0-0.1,0-0.3-0.2-0.2c-0.2,0.1-0.4,0.3-0.5,0.4
						c-0.3,0.2-0.5,0.5-0.8,0.8c-3.1,2.8-9.8,7-15.6,4.3c-1.1-0.5-2.2-1.8-2.6-2.6c-2.7-5.9,3.5-10.2,8.3-9.4c2,0.4,3.9,1.8,3.4,3.9
						c-0.3,1.6-1.9,2.4-3.3,2.3c-0.7,0-2-0.3-2.7-1c-0.9-0.9-1.1-1.8-1.2-1.5c-1.6,7.1,8.1,6.5,11.6,3.2c3.2-3.1,4.5-8,1.8-11.9
						c-1.6-2.3-4.2-3.6-7.8-3.3c-3,0.2-7.1,1.2-8.9,2.6c-2.6,2-3.2,6.1-3.9,9.4c-1.4,6.2-3.8,8.3-4.3,9c-0.1,0.1,0,0.2,0.2,0.2
						c0.6-0.1,2.4-0.2,4.1,1.5c2.1,2.1-1.6,0.4-4.1,1.9l0,0c-0.1,0-0.1,0-0.2,0.1c-4.9,2.7-7.6,8.1-8.5,14.5
						c-0.1,0.4,0.1,0.5,0.2,0.3c1.3-2.4,4.1-3.8,7-5.2c1-0.5,4.5-1.2,6.4-2.6c0.7-0.5,1.1-1.3,1.3-2.1l0,0c0.5-1.9,2.3-2.1,2.3-0.4
						c-0.1,2.6-2,4.7-0.9,7.7c1.2,3.2,4.6,4.8,7.5,6.6c0.6,0.4,2.2,1.7-2.3,3.2c-0.1,0-0.1,0-0.2,0c-0.1,0-0.1,0-0.2,0.1
						c-0.1,0-0.2,0.1-0.3,0.2c-0.1,0-0.2,0.1-0.2,0.1c-4.1,2.3-6.4,6.8-7.2,12.3c0,0.3,0.1,0.5,0.2,0.2c1.1-2,3.5-3.2,6-4.3
						c0.9-0.4,3.8-1,5.4-2.2c0.5-0.4,0.9-0.9,1-1.6l0,0c1.3-3.7,2.4-2,2.7-0.9c0.2,1.2,0.5,2.3,1.1,3.3c1.5,2.3,5.1,2,8.4,2.6
						c1.2,0.2,2.5,1.2-0.2,2.6c0,0,0,0,0,0c-0.3,0.2-0.5,0.3-0.8,0.5c-3.4,3-4.6,7.8-4.1,13.2c0,0.3,0.2,0.4,0.2,0.2
						c0.6-2.2,2.6-3.8,4.7-5.4c0.7-0.5,3.4-1.8,4.6-3.2c0.5-0.5,0.6-1.2,0.6-1.9l0,0c-0.2-3.6,1.7-3,2.3-2c1,1.6,1.8,3.4,3.9,4.1
						c2,0.7,3.6-0.3,5.3-0.8c1.3-0.4,2.6-0.6,3.8-0.8c2.1-0.3,1.4,1.8,0.2,3.3c0,0.1-0.1,0.1-0.1,0.2c0,0,0,0.1-0.1,0.1
						c0,0,0,0,0,0.1c-0.1,0.1-0.2,0.2-0.2,0.4c-1.7,3.5-1.2,7.6,0.9,11.7c0.1,0.2,0.3,0.3,0.2,0.1c-0.2-1.9,0.9-3.8,2-5.7
						c0.4-0.7,2.1-2.5,2.6-4c0.2-0.4,0.2-0.8,0-1.3c0,0,0,0,0-0.1c0,0,0-0.1,0-0.1c0-0.1,0-0.1-0.1-0.2c-1.3-3.3,0.6-3.9,2.1-3.4
						c2.7,0.9,5.4,0.9,7.6,0c2.2-0.8,3.7-2.3,5.4-3.6c0.9-0.7,3.4-3.2,4.9-3.8c1.3-0.5,2.1,0.3,1.7,2.6v0c-0.1,0.5,0,1,0.2,1.5
						c1.3,3.2,4.5,5.4,8.4,6.4c0.2,0.1,0.3,0,0.2-0.2c-1.4-1-2.1-2.8-2.7-4.8c-0.2-0.7-0.4-2.9-1.1-4.2c-0.1-0.2-0.3-0.4-0.5-0.5
						c0-0.1-0.1-0.1-0.2-0.1l0,0l0,0l0,0c-0.2-0.1-0.3-0.2-0.5-0.2c-2.4-1.3-1.5-3.1,0.9-3.6c4.8-1.1,10.2-2.2,12.8-5.5
						c1.3-1.7,2-4.3,2.6-7.1c0.5-2.3,1.1-4.4,1.8-6.5c0.3-0.8,0.6-3.3,4.4-0.2l0,0c0.4,0.3,0.8,0.6,1.5,0.7c3.4,0.6,6.9-0.9,9.9-3.8
						c0.2-0.2,0.2-0.3,0-0.2c-1.6,0.7-3.5,0.2-5.5-0.2c-0.7-0.2-2.7-1.2-4.1-1.3c-0.2,0-0.4,0-0.5,0.1c0,0,0,0-0.1,0
						c-4.7,0.9-2.3-1.9-2-2.5c1.3-1.9,3.1-3.4,4.5-5.3c1.6-2.4,2.4-6,3-9.6c0.1-0.7,0.6-2.7,4.4-1.4c0.2,0.1,0.3,0.2,0.5,0.2
						c0,0,0.1,0,0.1,0l0,0c0.2,0,0.5,0.1,0.7,0c2.9-0.3,5.2-2.4,6.9-5.3C236,172.7,235.9,172.6,235.8,172.7z"/>
				</g>
			</g>
		</g>
	</g>
</g>
</svg>
