<svg width="36" height="40" viewBox="0 0 36 40" fill="none" xmlns="http://www.w3.org/2000/svg">
<path d="M0 17.1429V12.9932H26.3776L25.0318 17.1429H0ZM0 26.9388V22.7211H24.0897L22.7439 26.9388H0ZM22.3402 40C19.5813 40 17.0243 39.4558 14.8037 38.4354C12.5832 37.415 10.5645 35.9864 8.88224 34.1497C7.2 32.3129 5.9215 30.2041 5.04673 27.7551C4.17196 25.3061 3.70093 22.7211 3.70093 20C3.70093 17.2109 4.17196 14.5578 5.04673 12.1769C5.9215 9.72789 7.2 7.61905 8.81495 5.85034C10.4299 4.01361 12.4486 2.65306 14.7364 1.56463C17.0243 0.544218 19.5813 0 22.3402 0C25.2336 0 27.7234 0.544218 29.8766 1.56463C32.0299 2.58503 33.9813 4.01361 35.7308 5.85034L32.0972 9.52381C30.886 8.09524 29.4729 6.93878 27.8579 6.19048C26.243 5.37415 24.3589 5.03401 22.1383 5.03401C19.4467 5.03401 17.1589 5.64626 15.2075 6.93878C13.2561 8.23129 11.7084 10 10.6318 12.2449C9.55514 14.4898 9.01682 17.1429 9.01682 20.068C9.01682 22.9932 9.55514 25.5782 10.6318 27.8231C11.7084 30.068 13.2561 31.9048 15.2748 33.1973C17.2935 34.4898 19.6486 35.102 22.4075 35.102C24.5607 35.102 26.5121 34.6939 28.1271 33.8776C29.7421 33.0612 31.1551 31.9728 32.3664 30.4762L36 34.1497C34.2505 35.9864 32.2318 37.415 30.0112 38.4354C27.7907 39.4558 25.2336 40 22.3402 40Z" fill="black"/>
</svg>
