<svg id="Calque_1" data-name="Calque 1" xmlns="http://www.w3.org/2000/svg" viewBox="0 0 400 400"><defs><style>.cls-1{fill:red;}.cls-2{fill:#fff;}</style></defs><path class="cls-1" d="M.21,0H400V400H.21c0-.45,0-.9,0-1.35Q.25,200,.23,1.35C.23.9.22.45.21,0Zm201.2,294.54c15.41-.28,29.64-.5,43.86-.83,7.25-.17,14.5-.42,21.74-.86q13.49-.81,27-2.06a61.28,61.28,0,0,0,11.76-2c12.72-3.76,20.73-12.24,23.89-25.17a142,142,0,0,0,3.57-24.79c.68-10.73,1.35-21.48,1.6-32.23a398.81,398.81,0,0,0-2-50.43,125.68,125.68,0,0,0-3.38-20.4c-3.53-12.91-11.78-21.17-24.76-24.53-6.77-1.76-13.74-2.34-20.69-2.85-9.34-.7-18.69-1.32-28-1.65-14.12-.5-28.24-.93-42.36-1-16.89-.1-33.79.14-50.69.37-8.53.12-17.07.39-25.59.87-10.31.57-20.62,1.34-30.92,2.24a58,58,0,0,0-12,2c-12.76,3.94-20.79,12.6-24,25.56a133.69,133.69,0,0,0-3.37,24c-.68,11-1.38,22-1.6,33a388.31,388.31,0,0,0,2.68,56A91.6,91.6,0,0,0,71,265.17c4.34,14.17,14.2,22.38,28.78,24.57,7.91,1.19,15.9,1.95,23.89,2.48,10.66.71,21.34,1.18,32,1.47C171.3,294.11,187,294.28,201.41,294.54Z"/><path class="cls-2" d="M.21,0c0,.45,0,.9,0,1.35q0,198.65,0,397.3c0,.45,0,.9,0,1.35-.07,0-.2-.07-.2-.1,0-.28,0-.56,0-.84Q0,200,0,.94A4.38,4.38,0,0,1,.21,0Z"/><path class="cls-2" d="M201.41,294.54c-14.46-.26-30.11-.43-45.75-.85-10.68-.29-21.36-.76-32-1.47-8-.53-16-1.29-23.89-2.48-14.58-2.19-24.44-10.4-28.78-24.57a91.6,91.6,0,0,1-2.86-15.41,388.31,388.31,0,0,1-2.68-56c.22-11,.92-22,1.6-33a133.69,133.69,0,0,1,3.37-24c3.22-13,11.25-21.62,24-25.56a58,58,0,0,1,12-2c10.3-.9,20.61-1.67,30.92-2.24,8.52-.48,17.06-.75,25.59-.87,16.9-.23,33.8-.47,50.69-.37,14.12.08,28.24.51,42.36,1,9.35.33,18.7,1,28,1.65,6.95.51,13.92,1.09,20.69,2.85,13,3.36,21.23,11.62,24.76,24.53a125.68,125.68,0,0,1,3.38,20.4,398.81,398.81,0,0,1,2,50.43c-.25,10.75-.92,21.5-1.6,32.23a142,142,0,0,1-3.57,24.79c-3.16,12.93-11.17,21.41-23.89,25.17a61.28,61.28,0,0,1-11.76,2q-13.47,1.26-27,2.06c-7.24.44-14.49.69-21.74.86C231.05,294,216.82,294.26,201.41,294.54Zm41.85-94.46L173.32,159.7v80.6Z"/><path class="cls-1" d="M243.26,200.08,173.32,240.3V159.7Z"/></svg>