<svg xmlns="http://www.w3.org/2000/svg" xmlns:xlink="http://www.w3.org/1999/xlink" width="816" height="732" viewBox="0 0 816 732">
  <defs>
    <clipPath id="clip-hexa-rouge">
      <rect width="816" height="732"/>
    </clipPath>
  </defs>
  <g id="hexa-rouge" clip-path="url(#clip-hexa-rouge)">
    <g id="Groupe_1482" data-name="Groupe 1482" transform="translate(-15.611 -169.878)">
      <g id="Groupe_1481" data-name="Groupe 1481" transform="translate(50.578 119.879)">
        <g id="Polygone_1" data-name="Polygone 1" transform="translate(4.062 96.372)" fill="none" stroke-dasharray="14">
          <path d="M553.923,0,738.564,319.75,553.923,639.5H184.641L0,319.75,184.641,0Z" stroke="none"/>
          <path d="M 212.64111328125 -6.103515625e-05 L 226.6411437988281 -6.103515625e-05 L 226.6411437988281 1.99993896484375 L 212.64111328125 1.99993896484375 L 212.64111328125 -6.103515625e-05 Z M 240.6411437988281 -6.103515625e-05 L 254.6411437988281 -6.103515625e-05 L 254.6411437988281 1.99993896484375 L 240.6411437988281 1.99993896484375 L 240.6411437988281 -6.103515625e-05 Z M 268.6411437988281 -6.103515625e-05 L 282.6411437988281 -6.103515625e-05 L 282.6411437988281 1.99993896484375 L 268.6411437988281 1.99993896484375 L 268.6411437988281 -6.103515625e-05 Z M 296.6411437988281 -6.103515625e-05 L 310.6411437988281 -6.103515625e-05 L 310.6411437988281 1.99993896484375 L 296.6411437988281 1.99993896484375 L 296.6411437988281 -6.103515625e-05 Z M 324.6411437988281 -6.103515625e-05 L 338.6411437988281 -6.103515625e-05 L 338.6411437988281 1.99993896484375 L 324.6411437988281 1.99993896484375 L 324.6411437988281 -6.103515625e-05 Z M 352.6411437988281 -6.103515625e-05 L 366.6411437988281 -6.103515625e-05 L 366.6411437988281 1.99993896484375 L 352.6411437988281 1.99993896484375 L 352.6411437988281 -6.103515625e-05 Z M 380.6411437988281 -6.103515625e-05 L 394.6411437988281 -6.103515625e-05 L 394.6411437988281 1.99993896484375 L 380.6411437988281 1.99993896484375 L 380.6411437988281 -6.103515625e-05 Z M 408.6411437988281 -6.103515625e-05 L 422.6411437988281 -6.103515625e-05 L 422.6411437988281 1.99993896484375 L 408.6411437988281 1.99993896484375 L 408.6411437988281 -6.103515625e-05 Z M 436.6411437988281 -6.103515625e-05 L 450.6411437988281 -6.103515625e-05 L 450.6411437988281 1.99993896484375 L 436.6411437988281 1.99993896484375 L 436.6411437988281 -6.103515625e-05 Z M 464.6411437988281 -6.103515625e-05 L 478.6411437988281 -6.103515625e-05 L 478.6411437988281 1.99993896484375 L 464.6411437988281 1.99993896484375 L 464.6411437988281 -6.103515625e-05 Z M 492.64111328125 -6.103515625e-05 L 506.64111328125 -6.103515625e-05 L 506.64111328125 1.99993896484375 L 492.64111328125 1.99993896484375 L 492.64111328125 -6.103515625e-05 Z M 520.64111328125 -6.103515625e-05 L 534.64111328125 -6.103515625e-05 L 534.64111328125 1.99993896484375 L 520.64111328125 1.99993896484375 L 520.64111328125 -6.103515625e-05 Z M 548.64111328125 -6.103515625e-05 L 553.9231567382812 -6.103515625e-05 C 553.9231567382812 -6.103515625e-05 553.9398193359375 0.02880859375 553.9710083007812 0.08282470703125 L 553.9728393554688 0.0860595703125 C 553.9804077148438 0.09912109375 553.98876953125 0.1136474609375 553.9979858398438 0.12957763671875 L 553.9995727539062 0.13232421875 C 554.001708984375 0.13604736328125 554.00390625 0.13983154296875 554.0061645507812 0.14373779296875 L 554.0064697265625 0.14434814453125 C 554.0086669921875 0.1480712890625 554.0108642578125 0.15185546875 554.0130615234375 0.15576171875 L 554.01513671875 0.1593017578125 C 554.0172729492188 0.1629638671875 554.0194091796875 0.16668701171875 554.0216064453125 0.1705322265625 L 554.0234375 0.17364501953125 C 554.0242309570312 0.175048828125 554.025146484375 0.1766357421875 554.0260009765625 0.1781005859375 L 554.0274047851562 0.1805419921875 C 554.0279541015625 0.1815185546875 554.0285034179688 0.18243408203125 554.029052734375 0.183349609375 L 554.0414428710938 0.204833984375 C 554.0419311523438 0.20574951171875 554.0424194335938 0.20654296875 554.04296875 0.20745849609375 L 554.0453491210938 0.211669921875 C 554.0459594726562 0.212646484375 554.046630859375 0.2137451171875 554.0471801757812 0.21478271484375 L 558.28271484375 7.54962158203125 L 556.55078125 8.5498046875 L 552.7685546875 1.99993896484375 L 548.64111328125 1.99993896484375 L 548.64111328125 -6.103515625e-05 Z M 565.28369140625 19.67340087890625 L 566.4741821289062 21.735107421875 C 566.4824829101562 21.7493896484375 566.4910278320312 21.7642822265625 566.4993896484375 21.7786865234375 L 566.5079345703125 21.79351806640625 C 568.5150146484375 25.269287109375 572.2846069335938 31.7972412109375 572.2846069335938 31.7972412109375 L 570.5526733398438 32.79742431640625 L 563.5516967773438 20.673583984375 L 565.28369140625 19.67340087890625 Z M 579.2855834960938 43.92108154296875 C 579.2855834960938 43.92108154296875 586.2864990234375 56.04486083984375 586.2864990234375 56.04486083984375 L 584.5545654296875 57.04498291015625 L 577.5535888671875 44.921142578125 L 579.2855834960938 43.92108154296875 Z M 593.2874755859375 68.168701171875 C 593.2874755859375 68.168701171875 600.2883911132812 80.29254150390625 600.2883911132812 80.29254150390625 L 598.5565185546875 81.2926025390625 L 591.5554809570312 69.16876220703125 L 593.2874755859375 68.168701171875 Z M 607.2893676757812 92.416259765625 L 611.2296752929688 99.23980712890625 C 611.2296752929688 99.23980712890625 611.22998046875 99.24029541015625 611.22998046875 99.24029541015625 L 611.2466430664062 99.2691650390625 C 611.2509155273438 99.27655029296875 611.2545776367188 99.28289794921875 611.2587890625 99.290283203125 L 611.2610473632812 99.29412841796875 C 611.2655029296875 99.30181884765625 611.2698974609375 99.3094482421875 611.2743530273438 99.317138671875 L 611.2938232421875 99.35089111328125 C 612.86083984375 102.0645141601562 614.290283203125 104.5400390625 614.290283203125 104.5400390625 L 612.5584106445312 105.5402221679688 L 605.557373046875 93.41644287109375 L 607.2894287109375 92.416259765625 Z M 621.2913208007812 116.6638793945312 L 623.749267578125 120.92041015625 C 623.7527465820312 120.9264526367188 623.7557983398438 120.9317626953125 623.75927734375 120.9378051757812 L 623.7595825195312 120.9382934570312 C 623.7653198242188 120.9482421875 623.7713012695312 120.9586181640625 623.777099609375 120.9685668945312 L 623.7814331054688 120.9761352539062 C 623.7910766601562 120.9928588867188 623.8005981445312 121.00927734375 623.8102416992188 121.0260620117188 L 623.8241577148438 121.0501708984375 C 625.8284912109375 124.5211181640625 628.292236328125 128.7876892089844 628.292236328125 128.7876892089844 L 626.560302734375 129.7877807617188 L 619.559326171875 117.6640625 L 621.2913208007812 116.6638793945312 Z M 635.293212890625 140.9115295410156 L 636.3031005859375 142.6603698730469 C 636.3035888671875 142.6611633300781 636.3043212890625 142.6624450683594 636.3047485351562 142.6632690429688 L 636.4072265625 142.8406982421875 C 636.4091796875 142.8440551757812 636.4114379882812 142.8480224609375 636.4133911132812 142.8513793945312 L 636.4205932617188 142.8638000488281 C 638.4003295898438 146.292236328125 642.2941284179688 153.0353393554688 642.2941284179688 153.0353393554688 L 640.562255859375 154.0354309082031 L 633.5612182617188 141.9115905761719 L 635.293212890625 140.9114990234375 Z M 649.295166015625 165.1591491699219 C 649.295166015625 165.1591491699219 654.6551513671875 174.4412536621094 655.9951171875 176.7618103027344 L 655.9953002929688 176.7620849609375 C 656.1863403320312 177.0929260253906 656.2955932617188 177.2821350097656 656.2960205078125 177.2828674316406 L 656.2960205078125 177.2828674316406 L 654.5641479492188 178.2830505371094 L 647.5631103515625 166.1592407226562 L 649.295166015625 165.1591491699219 Z M 663.2969970703125 189.4067077636719 L 668.6455078125 198.6689453125 C 668.647216796875 198.6718139648438 668.6488647460938 198.6747131347656 668.6505126953125 198.6775817871094 L 668.695068359375 198.7547607421875 C 668.6985473632812 198.7607727050781 668.701904296875 198.7665405273438 668.7053833007812 198.7725524902344 L 668.7106323242188 198.7816772460938 C 669.6319580078125 200.3772277832031 670.2979736328125 201.530517578125 670.2979736328125 201.530517578125 L 668.5659790039062 202.5307006835938 L 661.5650634765625 190.4068908691406 L 663.2970581054688 189.4067077636719 Z M 677.2989501953125 213.6543579101562 L 681.1533813476562 220.3292541503906 C 681.1576538085938 220.3366088867188 681.161865234375 220.3439636230469 681.1661376953125 220.351318359375 L 681.1693725585938 220.3569030761719 C 681.1806030273438 220.3764343261719 681.1918334960938 220.3958740234375 681.203125 220.4153747558594 L 681.2133178710938 220.4330444335938 C 682.8152465820312 223.2072143554688 684.2998657226562 225.7781372070312 684.2998657226562 225.7781372070312 L 682.56787109375 226.7782287597656 L 675.5669555664062 214.6544189453125 L 677.2989501953125 213.6543273925781 Z M 691.3008422851562 237.9019775390625 L 693.638916015625 241.950927734375 C 693.6427612304688 241.9576110839844 693.646484375 241.9640197753906 693.6503295898438 241.970703125 L 693.6953125 242.0484924316406 C 693.69775390625 242.052734375 693.7002563476562 242.05712890625 693.7026977539062 242.0613708496094 L 693.7133178710938 242.0797729492188 C 695.7379760742188 245.5859375 698.3017578125 250.0257873535156 698.3017578125 250.0257873535156 L 696.5697631835938 251.02587890625 L 689.56884765625 238.9020690917969 L 691.3008422851562 237.9019775390625 Z M 705.302734375 262.1495361328125 L 712.3036499023438 274.2733459472656 L 710.5716552734375 275.2734985351562 L 703.57080078125 263.1496887207031 L 705.3027954101562 262.1495056152344 Z M 719.3046264648438 286.3971557617188 L 726.0173950195312 298.0219116210938 C 726.0179443359375 298.0228881835938 726.0184936523438 298.0238037109375 726.01904296875 298.0247802734375 L 726.0242309570312 298.03369140625 C 726.0263061523438 298.0373229980469 726.0283813476562 298.0408935546875 726.0304565429688 298.0444641113281 L 726.0320434570312 298.0472717285156 C 726.0340576171875 298.0506896972656 726.0359497070312 298.0540466308594 726.0379028320312 298.0574340820312 L 726.0411376953125 298.0629577636719 C 726.0516967773438 298.081298828125 726.0618896484375 298.0989990234375 726.0718994140625 298.1163024902344 L 726.0733032226562 298.1187438964844 C 726.2220458984375 298.3762817382812 726.3056030273438 298.5209655761719 726.3056030273438 298.5209655761719 L 724.5736083984375 299.5211486816406 L 717.5726928710938 287.3973388671875 L 719.3046875 286.3971557617188 Z M 733.3065185546875 310.644775390625 C 733.3065185546875 310.644775390625 738.564208984375 319.7496948242188 738.564208984375 319.7496948242188 L 738.564208984375 319.7496948242188 C 738.564208984375 319.7496948242188 738.564208984375 319.7496948242188 738.564208984375 319.7496948242188 C 738.564208984375 319.7496948242188 738.564208984375 319.7496948242188 738.564208984375 319.7496948242188 L 738.564208984375 319.7496948242188 C 738.564208984375 319.7496948242188 738.564208984375 319.7496948242188 738.564208984375 319.7496948242188 L 738.564208984375 319.7496948242188 C 738.564208984375 319.7496948242188 738.564208984375 319.7496948242188 738.564208984375 319.7496948242188 L 738.564208984375 319.7496948242188 C 738.564208984375 319.7496948242188 738.5574951171875 319.7613830566406 738.5447998046875 319.7833251953125 L 738.5444946289062 319.7838745117188 C 738.5320434570312 319.8054809570312 738.513916015625 319.8368530273438 738.4909057617188 319.8766479492188 L 738.488037109375 319.8816223144531 C 738.4826049804688 319.8910217285156 738.4769287109375 319.90087890625 738.470947265625 319.9111938476562 L 738.4700927734375 319.9126586914062 C 738.464111328125 319.923095703125 738.4578247070312 319.9339294433594 738.4512939453125 319.9452514648438 L 738.44873046875 319.9496765136719 C 738.4420776367188 319.9612426757812 738.4351196289062 319.9732360839844 738.427978515625 319.9856262207031 L 738.4262084960938 319.9887084960938 C 738.4228515625 319.9945678710938 738.4193115234375 320.0006103515625 738.4158325195312 320.0066223144531 L 738.415283203125 320.0075988769531 C 738.4135131835938 320.0107116699219 738.4117431640625 320.0137634277344 738.409912109375 320.0169067382812 L 738.38818359375 320.0545959472656 C 738.3873901367188 320.0559387207031 738.3866577148438 320.0571899414062 738.3858642578125 320.0585327148438 L 738.382568359375 320.0642700195312 C 738.3817749023438 320.065673828125 738.3809814453125 320.0669860839844 738.3801879882812 320.0684204101562 L 738.3756103515625 320.0763244628906 C 738.3726806640625 320.0814208984375 738.3696899414062 320.0865783691406 738.36669921875 320.0917663574219 L 738.361572265625 320.1006774902344 C 738.3610229492188 320.1015319824219 738.360595703125 320.1023559570312 738.3600463867188 320.1032409667969 L 738.3399047851562 320.1381530761719 C 738.3399047851562 320.1381530761719 738.3399047851562 320.13818359375 738.3399047851562 320.13818359375 L 736.8209228515625 322.7685852050781 L 735.0889282226562 321.7684326171875 L 736.2546997070312 319.7496643066406 L 731.5745849609375 311.6448669433594 L 733.3065185546875 310.644775390625 Z M 728.0880737304688 333.8922424316406 L 729.820068359375 334.8924255371094 L 725.25830078125 342.7920227050781 C 725.2572631835938 342.7937927246094 725.2564697265625 342.7952575683594 725.2554321289062 342.7970275878906 L 725.2439575195312 342.8168334960938 C 725.24072265625 342.822509765625 725.2369384765625 342.8290405273438 725.2337036132812 342.8346862792969 L 725.2211303710938 342.8564147949219 C 725.218505859375 342.8609924316406 725.2156982421875 342.8658447265625 725.2130737304688 342.8704223632812 L 725.2034301757812 342.8870544433594 C 725.201416015625 342.8905639648438 725.1994018554688 342.8940734863281 725.1973266601562 342.8976135253906 L 725.1854248046875 342.918212890625 C 723.8851318359375 345.1699523925781 722.8190307617188 347.0161437988281 722.8190307617188 347.0161437988281 L 721.0870361328125 346.0160522460938 L 728.0880737304688 333.8922424316406 Z M 714.0861206054688 358.1398620605469 L 715.818115234375 359.1399536132812 L 712.4116821289062 365.0389709472656 C 712.4110717773438 365.0400695800781 712.4103393554688 365.0413513183594 712.40966796875 365.04248046875 L 712.373291015625 365.1055297851562 C 712.3703002929688 365.1107177734375 712.3675537109375 365.1153869628906 712.3645629882812 365.1205749511719 L 712.35498046875 365.1372375488281 C 712.3453369140625 365.1538696289062 712.3353271484375 365.1712646484375 712.32568359375 365.1879272460938 L 712.3121337890625 365.2113647460938 C 710.5638427734375 368.2389831542969 708.817138671875 371.2637939453125 708.817138671875 371.2637939453125 L 707.0851440429688 370.2637023925781 L 714.0861206054688 358.1398620605469 Z M 700.084228515625 382.3875122070312 L 701.8162231445312 383.3876037597656 L 696.7046508789062 392.2394409179688 C 696.7019653320312 392.2440795898438 696.6990966796875 392.2490844726562 696.6964111328125 392.2537231445312 L 696.6868896484375 392.2702026367188 C 696.6786499023438 392.2844543457031 696.6701049804688 392.29931640625 696.661865234375 392.3135070800781 L 696.6504516601562 392.3333129882812 C 696.6397705078125 392.3517761230469 696.6295776367188 392.3694458007812 696.6189575195312 392.3878173828125 L 696.617431640625 392.3905029296875 C 696.6060180664062 392.4102172851562 696.5946044921875 392.4299926757812 696.5833129882812 392.4495849609375 L 696.5798950195312 392.4555053710938 C 695.56787109375 394.2080383300781 694.8152465820312 395.5114135742188 694.8152465820312 395.5114135742188 L 693.083251953125 394.51123046875 L 700.084228515625 382.3875122070312 Z M 686.0823364257812 406.6350708007812 L 687.8143310546875 407.63525390625 L 680.8678588867188 419.66455078125 C 680.8677368164062 419.664794921875 680.8676147460938 419.6650390625 680.8674926757812 419.6652221679688 L 680.8640747070312 419.671142578125 C 680.86376953125 419.6716918945312 680.8633422851562 419.6724243164062 680.863037109375 419.6729736328125 L 680.853271484375 419.6898803710938 C 680.8529663085938 419.6903686523438 680.8526611328125 419.6909790039062 680.8523559570312 419.6914672851562 L 680.8406372070312 419.7117309570312 C 680.84033203125 419.7122802734375 680.8399047851562 419.7129516601562 680.839599609375 419.7135314941406 L 680.827880859375 419.7338256835938 C 680.82763671875 419.7342529296875 680.827392578125 419.7347412109375 680.8271484375 419.7351379394531 L 680.8239135742188 419.7406616210938 C 680.8237915039062 419.7409057617188 680.8236694335938 419.7411499023438 680.823486328125 419.7414245605469 L 680.822021484375 419.7439270019531 C 680.822021484375 419.7439270019531 680.822021484375 419.7439880371094 680.822021484375 419.7439880371094 L 680.8132934570312 419.7590637207031 L 679.081298828125 418.7588806152344 L 686.0823364257812 406.6350708007812 Z M 672.0803833007812 430.8826904296875 L 673.8123779296875 431.8827819824219 L 673.8123779296875 431.8828125 C 673.8089599609375 431.8887329101562 666.8114013671875 444.006591796875 666.8114013671875 444.006591796875 L 665.0794677734375 443.0065307617188 L 672.0803833007812 430.8826904296875 Z M 658.0784912109375 455.1303100585938 L 659.8104858398438 456.1304321289062 L 658.2335205078125 458.8612670898438 C 658.2317504882812 458.8644104003906 658.2298583984375 458.8677062988281 658.22802734375 458.870849609375 L 658.16748046875 458.9757080078125 C 658.1506958007812 459.0047607421875 658.1339111328125 459.0337524414062 658.1170043945312 459.0630798339844 L 658.1149291992188 459.066650390625 C 656.04296875 462.65478515625 652.8095092773438 468.2542419433594 652.8095092773438 468.2542419433594 L 651.0775756835938 467.254150390625 L 658.0784912109375 455.1303100585938 Z M 644.0765991210938 479.3778686523438 L 645.80859375 480.3780517578125 L 642.2587890625 486.525390625 C 642.2568359375 486.5287170410156 642.2549438476562 486.531982421875 642.2530517578125 486.5353393554688 L 642.2393798828125 486.5589599609375 C 642.2376708984375 486.5619506835938 642.2362670898438 486.5643310546875 642.2345581054688 486.5673217773438 L 642.2149658203125 486.6011962890625 C 642.1932373046875 486.638916015625 642.1713256835938 486.6768493652344 642.1495361328125 486.7145385742188 L 642.14111328125 486.7291259765625 C 640.4483642578125 489.6605224609375 638.8076171875 492.5018920898438 638.8076171875 492.5018920898438 L 637.07568359375 491.501708984375 L 644.0765991210938 479.3778686523438 Z M 630.07470703125 503.6255187988281 L 631.8067016601562 504.6257019042969 L 626.54833984375 513.731689453125 C 626.5457153320312 513.7362670898438 626.5426025390625 513.7415771484375 626.5400390625 513.74609375 L 626.5333251953125 513.7576904296875 C 626.5235595703125 513.7745361328125 626.51416015625 513.7909545898438 626.5044555664062 513.8076782226562 L 626.49462890625 513.82470703125 C 626.4922485351562 513.828857421875 626.4898071289062 513.8331298828125 626.4873657226562 513.8372802734375 L 626.4766235351562 513.8558959960938 C 626.4751586914062 513.8584594726562 626.4736328125 513.8610229492188 626.47216796875 513.8635864257812 L 626.458740234375 513.8868408203125 C 626.45654296875 513.8906860351562 626.4544677734375 513.894287109375 626.4522705078125 513.8980712890625 L 626.4404907226562 513.91845703125 C 626.4393920898438 513.92041015625 626.4384155273438 513.9220581054688 626.4373168945312 513.9239501953125 L 626.4049072265625 513.9801025390625 C 626.4036254882812 513.9823608398438 626.40234375 513.9844970703125 626.401123046875 513.9866943359375 L 626.3920288085938 514.00244140625 C 626.38232421875 514.0191650390625 626.3729248046875 514.0354614257812 626.3633422851562 514.0521240234375 L 626.3574829101562 514.0621948242188 C 625.454833984375 515.6254272460938 624.8056640625 516.74951171875 624.8056640625 516.74951171875 L 623.0737915039062 515.7493286132812 L 630.07470703125 503.6255187988281 Z M 616.07275390625 527.8731689453125 L 617.8047485351562 528.8732299804688 C 617.8047485351562 528.8732299804688 610.8037719726562 540.9970703125 610.8037719726562 540.9970703125 L 609.0718994140625 539.9969482421875 L 616.07275390625 527.8731689453125 Z M 602.0708618164062 552.1207885742188 L 603.8028564453125 553.120849609375 L 603.8013305664062 553.12353515625 C 603.80126953125 553.1236572265625 603.8011474609375 553.1239013671875 603.801025390625 553.1240844726562 L 603.80078125 553.12451171875 C 603.8005981445312 553.1248168945312 603.8004150390625 553.1251831054688 603.8001708984375 553.12548828125 L 603.7998046875 553.1261596679688 C 603.79931640625 553.1270751953125 603.7987060546875 553.1280517578125 603.798095703125 553.129150390625 L 603.7974243164062 553.1303100585938 C 603.794189453125 553.1359252929688 603.7894897460938 553.1439819335938 603.783447265625 553.154541015625 L 603.7821044921875 553.1568603515625 C 603.775634765625 553.1680908203125 603.7677001953125 553.1817626953125 603.75830078125 553.1980590820312 L 603.758056640625 553.198486328125 C 603.7484741210938 553.215087890625 603.7374877929688 553.2340698242188 603.7250366210938 553.255615234375 L 603.7234497070312 553.2583618164062 C 602.9510498046875 554.595947265625 596.8018798828125 565.2446899414062 596.8018798828125 565.2446899414062 L 595.0699462890625 564.2445068359375 L 602.0708618164062 552.1207885742188 Z M 588.0689697265625 576.3683471679688 L 589.8009643554688 577.3685302734375 L 588.063720703125 580.3768920898438 C 588.0568237304688 580.388916015625 588.0499267578125 580.40087890625 588.0429077148438 580.4129028320312 L 588.0269165039062 580.440673828125 C 587.9814453125 580.5194091796875 587.935546875 580.598876953125 587.8890991210938 580.6793212890625 L 587.8868408203125 580.6831665039062 C 585.8140258789062 584.2727661132812 582.7999267578125 589.4923095703125 582.7999267578125 589.4923095703125 L 581.0680541992188 588.4921264648438 L 588.0689697265625 576.3683471679688 Z M 574.0670166015625 600.615966796875 L 575.799072265625 601.6161499023438 L 568.798095703125 613.7398681640625 L 567.066162109375 612.7398071289062 L 574.0670166015625 600.615966796875 Z M 560.0651245117188 624.8635864257812 L 561.797119140625 625.8637084960938 C 561.797119140625 625.8637084960938 560.466552734375 628.1679077148438 558.9656982421875 630.7669677734375 L 558.9263916015625 630.8350830078125 C 558.9228515625 630.84130859375 558.9190673828125 630.8477783203125 558.91552734375 630.8539428710938 L 558.900146484375 630.8805541992188 C 558.8991088867188 630.8823852539062 558.898193359375 630.8839721679688 558.8970947265625 630.8858032226562 L 558.8790283203125 630.9171142578125 C 558.8790283203125 630.9171142578125 558.8787231445312 630.9176635742188 558.8787231445312 630.9176635742188 L 558.858642578125 630.952392578125 C 558.8584594726562 630.9527587890625 558.8583984375 630.9528198242188 558.858154296875 630.9531860351562 L 554.7962036132812 637.9874877929688 L 553.064208984375 636.9874267578125 L 560.0651245117188 624.8635864257812 Z M 527.6690673828125 637.4994506835938 L 541.6690673828125 637.4994506835938 L 541.6690673828125 639.4994506835938 C 541.6690673828125 639.4994506835938 527.6690673828125 639.4994506835938 527.6690673828125 639.4994506835938 L 527.6690673828125 637.4994506835938 Z M 499.6690368652344 637.4994506835938 L 513.6690673828125 637.4994506835938 L 513.6690673828125 639.4994506835938 C 513.6690673828125 639.4994506835938 499.6690368652344 639.4994506835938 499.6690368652344 639.4994506835938 L 499.6690368652344 637.4994506835938 Z M 471.6690368652344 637.4994506835938 L 485.6690368652344 637.4994506835938 L 485.6690368652344 639.4994506835938 C 485.6690368652344 639.4994506835938 471.6690368652344 639.4994506835938 471.6690368652344 639.4994506835938 L 471.6690368652344 637.4994506835938 Z M 443.6690368652344 637.4994506835938 L 457.6690368652344 637.4994506835938 L 457.6690368652344 639.4994506835938 C 457.6690368652344 639.4994506835938 443.6690368652344 639.4994506835938 443.6690368652344 639.4994506835938 L 443.6690368652344 637.4994506835938 Z M 415.6690368652344 637.4994506835938 L 429.6690368652344 637.4994506835938 L 429.6690368652344 639.4994506835938 C 429.6690368652344 639.4994506835938 415.6690368652344 639.4994506835938 415.6690368652344 639.4994506835938 L 415.6690368652344 637.4994506835938 Z M 387.6690368652344 637.4994506835938 L 401.6690368652344 637.4994506835938 L 401.6690368652344 639.4994506835938 C 401.6690368652344 639.4994506835938 387.6690368652344 639.4994506835938 387.6690368652344 639.4994506835938 L 387.6690368652344 637.4994506835938 Z M 359.6690368652344 637.4994506835938 L 373.6690368652344 637.4994506835938 L 373.6690368652344 639.4994506835938 C 373.6690368652344 639.4994506835938 359.6690368652344 639.4994506835938 359.6690368652344 639.4994506835938 L 359.6690368652344 637.4994506835938 Z M 331.6690368652344 637.4994506835938 L 345.6690368652344 637.4994506835938 L 345.6690368652344 639.4994506835938 C 345.6690368652344 639.4994506835938 331.6690368652344 639.4994506835938 331.6690368652344 639.4994506835938 L 331.6690368652344 637.4994506835938 Z M 303.6690368652344 637.4994506835938 L 317.6690368652344 637.4994506835938 L 317.6690368652344 639.4994506835938 C 317.6690368652344 639.4994506835938 303.6690368652344 639.4994506835938 303.6690368652344 639.4994506835938 L 303.6690368652344 637.4994506835938 Z M 275.6690368652344 637.4994506835938 L 289.6690368652344 637.4994506835938 L 289.6690368652344 639.4994506835938 C 289.6690368652344 639.4994506835938 275.6690368652344 639.4994506835938 275.6690368652344 639.4994506835938 L 275.6690368652344 637.4994506835938 Z M 247.6690368652344 637.4994506835938 L 261.6690368652344 637.4994506835938 L 261.6690368652344 639.4994506835938 C 261.6690368652344 639.4994506835938 247.6690368652344 639.4994506835938 247.6690368652344 639.4994506835938 L 247.6690368652344 637.4994506835938 Z M 219.6690673828125 637.4994506835938 L 233.6690368652344 637.4994506835938 L 233.6690368652344 639.4994506835938 C 233.6690368652344 639.4994506835938 219.6690673828125 639.4994506835938 219.6690673828125 639.4994506835938 L 219.6690673828125 637.4994506835938 Z M 191.6690673828125 637.4994506835938 L 205.6690673828125 637.4994506835938 L 205.6690673828125 639.4994506835938 C 205.6690673828125 639.4994506835938 191.6690673828125 639.4994506835938 191.6690673828125 639.4994506835938 L 191.6690673828125 637.4994506835938 Z M 175.8855590820312 620.3377685546875 L 182.886474609375 632.4616088867188 L 181.1546020507812 633.461669921875 C 181.1546020507812 633.461669921875 178.4880981445312 628.8441162109375 176.4464111328125 625.3084716796875 L 176.4452514648438 625.3065185546875 C 176.4349975585938 625.2886962890625 176.4246215820312 625.2706909179688 176.414306640625 625.2529296875 L 176.3992919921875 625.226806640625 C 176.3980712890625 625.2247314453125 176.3973388671875 625.2234497070312 176.3961181640625 625.2213745117188 L 174.1536254882812 621.3379516601562 L 175.8855590820312 620.3377685546875 Z M 161.8836669921875 596.0901489257812 L 168.8845825195312 608.2139892578125 L 167.1527099609375 609.2141723632812 C 167.1527099609375 609.2141723632812 165.4053344726562 606.188232421875 163.6566162109375 603.159912109375 L 163.6456909179688 603.1409912109375 C 163.635009765625 603.1224975585938 163.6243286132812 603.10400390625 163.6136474609375 603.0855102539062 L 163.6071166992188 603.07421875 C 163.6028442382812 603.0668334960938 163.598876953125 603.0599975585938 163.5946044921875 603.0525512695312 L 163.5613403320312 602.9949340820312 C 163.5551147460938 602.9841918945312 163.5488891601562 602.973388671875 163.542724609375 602.962646484375 L 160.1516723632812 597.09033203125 L 161.8836669921875 596.0901489257812 Z M 147.8817749023438 571.8425903320312 L 154.8826904296875 583.96630859375 L 153.1507568359375 584.9664916992188 C 153.1507568359375 584.9664916992188 149.7664184570312 579.1057739257812 147.703857421875 575.533935546875 L 147.7033081054688 575.532958984375 C 147.6819458007812 575.4959716796875 147.6610107421875 575.4597778320312 147.6399536132812 575.4232788085938 L 147.6272583007812 575.4013061523438 C 147.6190795898438 575.3870849609375 147.6104736328125 575.3721923828125 147.602294921875 575.3580932617188 L 147.5985107421875 575.3514404296875 C 147.5896606445312 575.3361206054688 147.5804443359375 575.3201904296875 147.5716552734375 575.3049926757812 L 147.5474853515625 575.26318359375 C 147.5436401367188 575.2565307617188 147.5399169921875 575.2500610351562 147.5360717773438 575.243408203125 L 147.5292358398438 575.2315063476562 C 147.5264282226562 575.2266845703125 147.5235595703125 575.2216796875 147.520751953125 575.2168579101562 L 146.1497802734375 572.8427124023438 L 147.8817749023438 571.8425903320312 Z M 133.8798828125 547.594970703125 L 140.8807983398438 559.7188110351562 L 139.1488647460938 560.7188720703125 C 139.1488647460938 560.7188720703125 132.1478881835938 548.5950927734375 132.1478881835938 548.5950927734375 L 133.8798828125 547.594970703125 Z M 119.8779296875 523.3473510742188 L 126.8788452148438 535.4711303710938 L 125.14697265625 536.4712524414062 C 125.14697265625 536.4712524414062 123.054931640625 532.848388671875 121.1580810546875 529.5635986328125 L 121.1505737304688 529.5506591796875 C 121.1397705078125 529.5319213867188 121.1292114257812 529.513671875 121.118408203125 529.4949951171875 L 121.1087646484375 529.4782104492188 C 121.1068115234375 529.4749145507812 121.1049194335938 529.4716186523438 121.10302734375 529.4683227539062 L 121.0855102539062 529.4379272460938 C 121.0852661132812 529.4375610351562 121.0845947265625 529.4364013671875 121.0843505859375 529.43603515625 L 118.14599609375 524.3474731445312 L 119.8779296875 523.3473510742188 Z M 105.8760375976562 499.0997009277344 L 112.876953125 511.2235107421875 L 111.14501953125 512.2236938476562 C 111.14501953125 512.2236938476562 110.3196411132812 510.7943115234375 109.2355346679688 508.9169616699219 L 109.2278442382812 508.9036254882812 C 109.2068481445312 508.8672485351562 109.1857299804688 508.8307495117188 109.16455078125 508.7940063476562 L 109.1329956054688 508.7394409179688 C 109.1310424804688 508.7360229492188 109.1293334960938 508.7330017089844 109.1273803710938 508.7296142578125 L 104.14404296875 500.099853515625 L 105.8760375976562 499.0997009277344 Z M 91.8741455078125 474.8521423339844 L 98.87506103515625 486.9759521484375 L 97.14312744140625 487.97607421875 C 97.14312744140625 487.97607421875 95.282470703125 484.7538757324219 93.47967529296875 481.6319580078125 L 93.4765625 481.6265869140625 C 93.45074462890625 481.5818481445312 93.4249267578125 481.5371704101562 93.399169921875 481.4924926757812 L 93.39447021484375 481.484375 C 93.38250732421875 481.4636840820312 93.37103271484375 481.44384765625 93.359130859375 481.4231872558594 L 93.353271484375 481.4130249023438 C 93.348388671875 481.404541015625 93.34326171875 481.3956909179688 93.33831787109375 481.38720703125 L 93.28448486328125 481.2939453125 C 93.28448486328125 481.2939453125 93.28399658203125 481.2931518554688 93.28399658203125 481.2931518554688 L 93.26666259765625 481.2630310058594 C 93.26470947265625 481.2597045898438 93.26251220703125 481.2558898925781 93.2606201171875 481.2525634765625 L 90.14215087890625 475.8522338867188 L 91.8741455078125 474.8521423339844 Z M 77.87225341796875 450.6044921875 L 84.87322998046875 462.7283325195312 L 83.1412353515625 463.7284240722656 C 83.1412353515625 463.7284240722656 79.528564453125 457.4722290039062 77.49346923828125 453.9480590820312 L 77.48431396484375 453.9322509765625 C 77.46966552734375 453.9068603515625 77.45526123046875 453.8818359375 77.44073486328125 453.8567504882812 L 77.43304443359375 453.8434143066406 C 77.432861328125 453.8431396484375 77.4326171875 453.8427124023438 77.4324951171875 453.8424072265625 L 77.41961669921875 453.8201904296875 C 77.411865234375 453.8067016601562 77.4044189453125 453.7937927246094 77.39666748046875 453.7803955078125 L 76.1402587890625 451.6046142578125 L 77.87225341796875 450.6044921875 Z M 63.87030029296875 426.3568725585938 L 70.871337890625 438.480712890625 L 69.13934326171875 439.4808959960938 L 62.13836669921875 427.3570556640625 L 63.87030029296875 426.3568725585938 Z M 49.868408203125 402.1093139648438 L 56.869384765625 414.2330627441406 L 55.13739013671875 415.2332458496094 C 55.13739013671875 415.2332458496094 55.07659912109375 415.1279602050781 54.9661865234375 414.9367370605469 L 54.96319580078125 414.9315795898438 C 54.94549560546875 414.9009399414062 54.926513671875 414.8680419921875 54.9063720703125 414.8331604003906 L 54.9027099609375 414.8267517089844 C 54.8934326171875 414.8106994628906 54.884033203125 414.7944946289062 54.874267578125 414.777587890625 L 54.78546142578125 414.6237487792969 C 54.78546142578125 414.6237487792969 54.785400390625 414.6237182617188 54.785400390625 414.6237182617188 L 48.13641357421875 403.1094055175781 L 49.868408203125 402.1093139648438 Z M 35.86651611328125 377.8616943359375 L 42.86749267578125 389.9855346679688 L 41.135498046875 390.985595703125 C 41.135498046875 390.985595703125 40.232421875 389.4217529296875 39.0748291015625 387.4170532226562 L 39.0706787109375 387.4098510742188 C 39.04803466796875 387.3706665039062 39.02532958984375 387.3313598632812 39.00250244140625 387.2918395996094 L 34.134521484375 378.8617858886719 L 35.86651611328125 377.8616943359375 Z M 21.86456298828125 353.6140441894531 L 28.8656005859375 365.7378845214844 L 27.13360595703125 366.7379760742188 C 27.13360595703125 366.7379760742188 20.1326904296875 354.6142272949219 20.1326904296875 354.6142272949219 L 21.86456298828125 353.6140441894531 Z M 7.8626708984375 329.3664245605469 L 14.86370849609375 341.490234375 L 13.13165283203125 342.4904174804688 L 10.65362548828125 338.1990051269531 C 10.65362548828125 338.1990051269531 10.653564453125 338.1989135742188 10.653564453125 338.1989135742188 L 10.63421630859375 338.1654052734375 C 10.6337890625 338.1646728515625 10.6337890625 338.1646728515625 10.63336181640625 338.1639404296875 L 10.5948486328125 338.0972900390625 C 10.59320068359375 338.0944213867188 10.59161376953125 338.0916748046875 10.5899658203125 338.0888061523438 L 10.58160400390625 338.0742797851562 C 10.57684326171875 338.0660705566406 10.5718994140625 338.0574951171875 10.567138671875 338.0492553710938 L 10.56207275390625 338.0404663085938 C 10.550048828125 338.0197143554688 10.53802490234375 337.9989013671875 10.5260009765625 337.9780883789062 L 10.522705078125 337.9722900390625 C 8.5325927734375 334.5259399414062 6.13079833984375 330.3666076660156 6.13079833984375 330.3666076660156 L 7.8626708984375 329.3664245605469 Z M 7.87103271484375 306.1189575195312 L 9.60302734375 307.119140625 L 2.60211181640625 319.2428894042969 L 0.8701171875 318.2427978515625 C 0.8701171875 318.2427978515625 1.4083251953125 317.310791015625 2.18634033203125 315.9634399414062 L 2.188232421875 315.9601745605469 C 2.1925048828125 315.9527587890625 2.19647216796875 315.9458923339844 2.20074462890625 315.9384765625 L 2.226806640625 315.8934020996094 C 2.2288818359375 315.8898010253906 2.230712890625 315.8865966796875 2.2327880859375 315.8829956054688 L 2.2393798828125 315.8716125488281 C 2.24249267578125 315.8661804199219 2.24542236328125 315.8611450195312 2.24853515625 315.855712890625 L 2.26068115234375 315.8347473144531 C 2.2613525390625 315.8335266113281 2.2620849609375 315.8322143554688 2.2628173828125 315.8310241699219 L 7.87109375 306.1189880371094 Z M 21.8729248046875 281.871337890625 L 23.60498046875 282.8715209960938 L 16.60406494140625 294.9953308105469 L 14.8720703125 293.9951477050781 L 21.87298583984375 281.8713684082031 Z M 35.8748779296875 257.623779296875 L 37.60687255859375 258.6238708496094 L 30.60595703125 270.7476806640625 L 28.87396240234375 269.7475891113281 C 28.87396240234375 269.7475891113281 30.59637451171875 266.7647705078125 32.3323974609375 263.7584228515625 L 32.3353271484375 263.7533264160156 C 32.34429931640625 263.73779296875 32.35296630859375 263.7228698730469 32.3619384765625 263.7073364257812 L 32.42340087890625 263.6008605957031 C 32.42572021484375 263.5968017578125 32.427734375 263.5933837890625 32.4300537109375 263.5893249511719 L 35.8748779296875 257.6238098144531 Z M 49.87677001953125 233.3761596679688 L 51.6087646484375 234.3763427734375 L 44.60784912109375 246.5000610351562 L 42.8758544921875 245.4999694824219 C 42.8758544921875 245.4999694824219 43.369384765625 244.645263671875 44.09466552734375 243.3893432617188 L 44.0958251953125 243.3873291015625 C 44.11663818359375 243.3512268066406 44.13775634765625 243.314697265625 44.15899658203125 243.2779541015625 L 44.16162109375 243.2733154296875 C 44.171142578125 243.2568359375 44.18035888671875 243.2409057617188 44.18994140625 243.2243041992188 L 44.198486328125 243.20947265625 C 44.2000732421875 243.2068176269531 44.2012939453125 243.2046508789062 44.20281982421875 243.2019653320312 L 44.24908447265625 243.1218566894531 C 44.25 243.120361328125 44.25079345703125 243.118896484375 44.25164794921875 243.1174011230469 L 49.8768310546875 233.3761596679688 Z M 63.878662109375 209.1285095214844 L 65.61065673828125 210.1286926269531 L 58.6097412109375 222.2525024414062 L 56.87774658203125 221.2523193359375 L 63.87872314453125 209.1285400390625 Z M 77.880615234375 184.8809814453125 L 79.61260986328125 185.8810729980469 L 72.6116943359375 198.0048828125 L 70.87969970703125 197.0047912597656 C 70.87969970703125 197.0047912597656 72.57525634765625 194.0685119628906 74.2974853515625 191.0860290527344 L 74.2991943359375 191.0830383300781 C 74.3111572265625 191.0623168945312 74.32318115234375 191.0414733886719 74.33514404296875 191.020751953125 L 74.3470458984375 191.0002136230469 C 74.349609375 190.9957580566406 74.3519287109375 190.9916687011719 74.3544921875 190.9872436523438 L 77.880615234375 184.8809814453125 Z M 91.882568359375 160.6333312988281 L 93.614501953125 161.6334228515625 L 86.61358642578125 173.7572326660156 L 84.881591796875 172.7571411132812 C 84.881591796875 172.7571411132812 91.882568359375 160.6333312988281 91.882568359375 160.6333312988281 Z M 105.884521484375 136.3856811523438 L 107.6163940429688 137.3858642578125 L 100.615478515625 149.5097045898438 L 98.88348388671875 148.509521484375 L 100.2521362304688 146.1394348144531 C 100.2566528320312 146.1316223144531 100.2611083984375 146.1238403320312 100.265625 146.1159973144531 L 100.2675170898438 146.1127319335938 C 100.2757568359375 146.0985412597656 100.283935546875 146.0843811035156 100.2921752929688 146.0701293945312 L 100.3041381835938 146.0493774414062 C 100.3141479492188 146.0320434570312 100.3237915039062 146.0152893066406 100.3339233398438 145.997802734375 L 100.3343505859375 145.9971008300781 C 100.3438720703125 145.9805297851562 100.3530883789062 145.964599609375 100.3627319335938 145.9479370117188 L 100.3724365234375 145.9310302734375 C 102.4280395507812 142.3713073730469 105.884521484375 136.3856811523438 105.884521484375 136.3856811523438 Z M 119.8864135742188 112.1381225585938 L 121.6183471679688 113.1382446289062 L 114.617431640625 125.2620849609375 L 112.8854370117188 124.2619018554688 L 114.8236694335938 120.9053955078125 C 114.8258056640625 120.9017333984375 114.8274536132812 120.8988647460938 114.82958984375 120.8951416015625 L 114.8396606445312 120.877685546875 C 116.9110107421875 117.2906494140625 119.8864135742188 112.1381225585938 119.8864135742188 112.1381225585938 Z M 133.8883056640625 87.8905029296875 L 135.6202392578125 88.890625 L 128.6193237304688 101.014404296875 L 126.8873291015625 100.0143432617188 C 126.8873291015625 100.0143432617188 133.8883056640625 87.8905029296875 133.8883056640625 87.8905029296875 Z M 147.8901977539062 63.64288330078125 L 149.6221313476562 64.64306640625 L 142.6212158203125 76.76690673828125 L 140.8892211914062 75.7667236328125 L 142.2618408203125 73.38970947265625 C 142.263427734375 73.386962890625 142.2650756835938 73.38409423828125 142.2666625976562 73.38140869140625 L 142.27734375 73.3629150390625 C 142.2799682617188 73.35833740234375 142.2821655273438 73.35455322265625 142.2847900390625 73.3499755859375 L 142.3123779296875 73.3021240234375 C 142.3201293945312 73.28875732421875 142.3279418945312 73.2752685546875 142.335693359375 73.26177978515625 L 142.3440551757812 73.247314453125 C 142.3477783203125 73.2408447265625 142.3516845703125 73.234130859375 142.3554077148438 73.2276611328125 L 142.3817138671875 73.18212890625 C 142.4013671875 73.1480712890625 142.421142578125 73.11383056640625 142.4410400390625 73.079345703125 L 142.445556640625 73.07159423828125 C 142.4671020507812 73.03424072265625 142.4887084960938 72.996826171875 142.5105590820312 72.958984375 L 142.516845703125 72.94818115234375 C 144.5852661132812 69.3662109375 147.8901977539062 63.64288330078125 147.8901977539062 63.64288330078125 Z M 161.8921508789062 39.39532470703125 L 163.6240234375 40.39544677734375 L 156.6231079101562 52.51922607421875 L 154.89111328125 51.51904296875 L 156.848876953125 48.1287841796875 C 156.8521728515625 48.12310791015625 156.8555297851562 48.1173095703125 156.8588256835938 48.111572265625 L 156.8602905273438 48.1090087890625 C 156.8653564453125 48.1002197265625 156.8707885742188 48.09088134765625 156.8758544921875 48.08209228515625 L 156.880615234375 48.07391357421875 C 158.9503173828125 44.48974609375 161.8921508789062 39.39532470703125 161.8921508789062 39.39532470703125 Z M 175.89404296875 15.147705078125 L 177.6259765625 16.14776611328125 L 170.6250610351562 28.2716064453125 L 168.89306640625 27.271484375 C 168.89306640625 27.271484375 175.89404296875 15.147705078125 175.89404296875 15.147705078125 Z M 184.64111328125 -6.103515625e-05 L 198.64111328125 -6.103515625e-05 L 198.64111328125 1.99993896484375 L 185.7957763671875 1.99993896484375 L 184.626953125 4.0240478515625 L 182.8949584960938 3.02386474609375 L 184.3936157226562 0.4285888671875 C 184.3941040039062 0.42779541015625 184.3945922851562 0.42694091796875 184.39501953125 0.4261474609375 L 184.4153442382812 0.3909912109375 C 184.4181518554688 0.3861083984375 184.4208374023438 0.38140869140625 184.423583984375 0.37664794921875 L 184.4302368164062 0.36517333984375 C 184.4334106445312 0.35968017578125 184.4364624023438 0.3543701171875 184.4395751953125 0.34893798828125 L 184.4417114257812 0.34527587890625 C 184.4451904296875 0.33929443359375 184.4486083984375 0.3333740234375 184.4520263671875 0.3275146484375 L 184.4561767578125 0.32025146484375 C 184.4635620117188 0.3074951171875 184.470703125 0.295166015625 184.4777221679688 0.28302001953125 L 184.4822387695312 0.275146484375 C 184.497802734375 0.24822998046875 184.512451171875 0.22283935546875 184.5260009765625 0.1993408203125 L 184.5270385742188 0.1976318359375 C 184.5408325195312 0.17364501953125 184.5535888671875 0.151611328125 184.5651245117188 0.131591796875 L 184.5679321289062 0.126708984375 C 184.6145629882812 0.04595947265625 184.64111328125 -6.103515625e-05 184.64111328125 -6.103515625e-05 L 184.64111328125 -6.103515625e-05 Z" stroke="none" fill="#e3242a"/>
        </g>
        <g id="Polygone_2" data-name="Polygone 2" transform="translate(-18.967 76)" fill="none">
          <path d="M588.467,0,784.622,340.122,588.467,680.243H196.156L0,340.122,196.156,0Z" stroke="none"/>
          <path d="M 198.4662475585938 3.99993896484375 L 4.61749267578125 340.1215515136719 L 198.4662475585938 676.2430419921875 L 586.1560668945312 676.2430419921875 L 780.0048828125 340.1215515136719 L 586.1560668945312 3.99993896484375 L 198.4662475585938 3.99993896484375 M 196.1555786132812 -6.103515625e-05 L 588.4666748046875 -6.103515625e-05 L 784.6223754882812 340.1215515136719 L 588.4666748046875 680.2430419921875 L 196.1555786132812 680.2430419921875 L 0 340.1215515136719 L 196.1555786132812 -6.103515625e-05 Z" stroke="none" fill="#e3242a"/>
        </g>
      </g>
    </g>
  </g>
</svg>
