<svg xmlns="http://www.w3.org/2000/svg" xmlns:xlink="http://www.w3.org/1999/xlink" width="369" height="360" viewBox="0 0 369 360">
  <defs>
    <radialGradient id="radial-gradient" cx="0.5" cy="0.5" r="0.5" gradientTransform="translate(0 -0.163) scale(1 1.325)" gradientUnits="objectBoundingBox">
      <stop offset="0" stop-color="#a0cbb6" stop-opacity="0"/>
      <stop offset="0.615" stop-opacity="0.067"/>
      <stop offset="1" stop-color="#83b099"/>
    </radialGradient>
    <filter id="Soustraction_1" x="14.632" y="28" width="340.433" height="298.068" filterUnits="userSpaceOnUse">
      <feOffset dy="6" input="SourceAlpha"/>
      <feGaussianBlur stdDeviation="5.5" result="blur"/>
      <feFlood flood-opacity="0.8"/>
      <feComposite operator="in" in2="blur"/>
      <feComposite in="SourceGraphic"/>
    </filter>
    <clipPath id="clip-path">
      <rect id="Rectangle_293" data-name="Rectangle 293" width="307.578" height="281.493" fill="none"/>
    </clipPath>
    <clipPath id="clip-path-2">
      <path id="Tracé_3161" data-name="Tracé 3161" d="M67.663,0,5.2,107.612,67.663,215.222H192.6l62.468-107.609L192.6,0Z" transform="translate(-5.195 -0.003)" fill="url(#radial-gradient)"/>
    </clipPath>
    <clipPath id="clip-hexa-produit-transparent">
      <rect width="369" height="360"/>
    </clipPath>
  </defs>
  <g id="hexa-produit-transparent" clip-path="url(#clip-hexa-produit-transparent)">
    <g id="Groupe_1489" data-name="Groupe 1489" transform="translate(-119.746 -124.314)">
      <g id="Groupe_466" data-name="Groupe 466" transform="translate(150.746 163.314)">
        <g transform="matrix(1, 0, 0, 1, -31, -39)" filter="url(#Soustraction_1)">
          <path id="Soustraction_1-2" data-name="Soustraction 1" d="M-11897.039-946.246h-153.139l-76.569-132.035,76.569-132.032h153.139l76.568,132.032-76.568,132.035Zm-139.035-239.645-62.47,107.609,62.47,107.609h124.935l62.469-107.609-62.469-107.609h-124.935Z" transform="translate(12158.46 1249.31)" fill="#1d1f1e" stroke="rgba(0,0,0,0)" stroke-miterlimit="10" stroke-width="1"/>
        </g>
        <g id="Groupe_463" data-name="Groupe 463" transform="translate(0 0)">
          <g id="Groupe_462" data-name="Groupe 462" clip-path="url(#clip-path)">
            <path id="Tracé_3156" data-name="Tracé 3156" d="M1922.267,1083.833q-38.254,61.765-72.639,125.815,6.367-10.286,12.629-20.636h4.172l50.026-86.648v-7.773q2.92-5.372,5.812-10.758" transform="translate(-1614.689 -946.166)" fill="#83b099"/>
            <path id="Tracé_3157" data-name="Tracé 3157" d="M.893,139.537Q39.147,77.772,73.532,13.722,67.165,24.008,60.9,34.358H56.732L6.706,121.006v7.773q-2.92,5.372-5.813,10.758" transform="translate(-0.78 -11.979)" fill="#83b099"/>
            <path id="Tracé_3158" data-name="Tracé 3158" d="M1915.266,132.009a.762.762,0,0,1-.661-.381l-2.286-3.96a.762.762,0,1,1,1.32-.762l2.286,3.96a.762.762,0,0,1-.659,1.143m-4.573-7.92a.762.762,0,0,1-.661-.381l-2.286-3.96a.762.762,0,0,1,1.32-.762l2.286,3.96a.763.763,0,0,1-.659,1.143m-4.573-7.92a.762.762,0,0,1-.661-.381l-2.286-3.96a.762.762,0,1,1,1.32-.762l2.286,3.96a.762.762,0,0,1-.659,1.143m-4.573-7.92a.762.762,0,0,1-.661-.381l-2.286-3.96a.762.762,0,1,1,1.32-.762l2.286,3.96a.762.762,0,0,1-.659,1.143m-4.573-7.92a.762.762,0,0,1-.661-.381l-2.286-3.96a.762.762,0,1,1,1.32-.762l2.286,3.96a.762.762,0,0,1-.659,1.143m-4.573-7.92a.762.762,0,0,1-.661-.381l-2.286-3.96a.762.762,0,0,1,1.32-.762l2.286,3.96a.762.762,0,0,1-.659,1.143m-4.573-7.92a.762.762,0,0,1-.661-.381l-2.286-3.96a.762.762,0,1,1,1.32-.762l2.286,3.96a.762.762,0,0,1-.659,1.143m-4.573-7.92a.762.762,0,0,1-.661-.381l-2.286-3.96a.762.762,0,1,1,1.32-.762l2.286,3.96a.762.762,0,0,1-.659,1.143m-4.573-7.92a.762.762,0,0,1-.661-.381l-2.286-3.96a.762.762,0,0,1,1.32-.762l2.286,3.96a.762.762,0,0,1-.659,1.143m-4.573-7.92a.762.762,0,0,1-.661-.381l-2.286-3.96a.762.762,0,0,1,1.32-.762l2.286,3.96a.762.762,0,0,1-.659,1.143m-4.573-7.92a.762.762,0,0,1-.661-.381l-2.287-3.96a.762.762,0,0,1,1.32-.762l2.286,3.96a.762.762,0,0,1-.659,1.143m-4.573-7.92a.761.761,0,0,1-.661-.381l-2.286-3.96a.762.762,0,0,1,1.32-.762l2.286,3.96a.762.762,0,0,1-.659,1.143m-4.573-7.92a.762.762,0,0,1-.661-.381l-2.286-3.96a.762.762,0,1,1,1.32-.762l2.286,3.96a.762.762,0,0,1-.659,1.143m-4.573-7.92a.762.762,0,0,1-.661-.381l-2.286-3.96a.762.762,0,1,1,1.32-.762l2.286,3.96a.762.762,0,0,1-.659,1.143m-4.573-7.92a.762.762,0,0,1-.661-.381l-2.286-3.96a.762.762,0,1,1,1.32-.762l2.286,3.96a.762.762,0,0,1-.659,1.143m-4.573-7.92a.762.762,0,0,1-.661-.381l-2.286-3.96a.762.762,0,1,1,1.32-.762l2.287,3.96a.762.762,0,0,1-.659,1.143" transform="translate(-1609.45 -6.742)" fill="#83b099"/>
            <rect id="Rectangle_291" data-name="Rectangle 291" width="1.524" height="153.186" transform="matrix(0.866, -0.5, 0.5, 0.866, 0, 133.044)" fill="#83b099"/>
            <rect id="Rectangle_292" data-name="Rectangle 292" width="16.597" height="0.635" transform="translate(52.453 0.554)" fill="#83b099"/>
            <path id="Tracé_3159" data-name="Tracé 3159" d="M1785.312,2123.906a6.711,6.711,0,1,1,6.711-6.711,6.718,6.718,0,0,1-6.711,6.711m0-12.771a6.06,6.06,0,1,0,6.06,6.061,6.067,6.067,0,0,0-6.06-6.061" transform="translate(-1552.684 -1842.412)" fill="#83b099"/>
          </g>
        </g>
      </g>
      <g id="Groupe_462-2" data-name="Groupe 462" transform="translate(150.746 163.314)" clip-path="url(#clip-path)">
        <path id="Tracé_3156-2" data-name="Tracé 3156" d="M1922.267,1083.833q-38.254,61.765-72.639,125.815,6.367-10.286,12.629-20.636h4.172l50.026-86.648v-7.773q2.92-5.372,5.812-10.758" transform="translate(-1614.689 -946.166)" fill="#83b099"/>
        <path id="Tracé_3157-2" data-name="Tracé 3157" d="M.893,139.537Q39.147,77.772,73.532,13.722,67.165,24.008,60.9,34.358H56.732L6.706,121.006v7.773q-2.92,5.372-5.813,10.758" transform="translate(-0.78 -11.979)" fill="#83b099"/>
        <path id="Tracé_3158-2" data-name="Tracé 3158" d="M1915.266,132.009a.762.762,0,0,1-.661-.381l-2.286-3.96a.762.762,0,1,1,1.32-.762l2.286,3.96a.762.762,0,0,1-.659,1.143m-4.573-7.92a.762.762,0,0,1-.661-.381l-2.286-3.96a.762.762,0,0,1,1.32-.762l2.286,3.96a.763.763,0,0,1-.659,1.143m-4.573-7.92a.762.762,0,0,1-.661-.381l-2.286-3.96a.762.762,0,1,1,1.32-.762l2.286,3.96a.762.762,0,0,1-.659,1.143m-4.573-7.92a.762.762,0,0,1-.661-.381l-2.286-3.96a.762.762,0,1,1,1.32-.762l2.286,3.96a.762.762,0,0,1-.659,1.143m-4.573-7.92a.762.762,0,0,1-.661-.381l-2.286-3.96a.762.762,0,1,1,1.32-.762l2.286,3.96a.762.762,0,0,1-.659,1.143m-4.573-7.92a.762.762,0,0,1-.661-.381l-2.286-3.96a.762.762,0,0,1,1.32-.762l2.286,3.96a.762.762,0,0,1-.659,1.143m-4.573-7.92a.762.762,0,0,1-.661-.381l-2.286-3.96a.762.762,0,1,1,1.32-.762l2.286,3.96a.762.762,0,0,1-.659,1.143m-4.573-7.92a.762.762,0,0,1-.661-.381l-2.286-3.96a.762.762,0,1,1,1.32-.762l2.286,3.96a.762.762,0,0,1-.659,1.143m-4.573-7.92a.762.762,0,0,1-.661-.381l-2.286-3.96a.762.762,0,0,1,1.32-.762l2.286,3.96a.762.762,0,0,1-.659,1.143m-4.573-7.92a.762.762,0,0,1-.661-.381l-2.286-3.96a.762.762,0,0,1,1.32-.762l2.286,3.96a.762.762,0,0,1-.659,1.143m-4.573-7.92a.762.762,0,0,1-.661-.381l-2.287-3.96a.762.762,0,0,1,1.32-.762l2.286,3.96a.762.762,0,0,1-.659,1.143m-4.573-7.92a.761.761,0,0,1-.661-.381l-2.286-3.96a.762.762,0,0,1,1.32-.762l2.286,3.96a.762.762,0,0,1-.659,1.143m-4.573-7.92a.762.762,0,0,1-.661-.381l-2.286-3.96a.762.762,0,1,1,1.32-.762l2.286,3.96a.762.762,0,0,1-.659,1.143m-4.573-7.92a.762.762,0,0,1-.661-.381l-2.286-3.96a.762.762,0,1,1,1.32-.762l2.286,3.96a.762.762,0,0,1-.659,1.143m-4.573-7.92a.762.762,0,0,1-.661-.381l-2.286-3.96a.762.762,0,1,1,1.32-.762l2.286,3.96a.762.762,0,0,1-.659,1.143m-4.573-7.92a.762.762,0,0,1-.661-.381l-2.286-3.96a.762.762,0,1,1,1.32-.762l2.287,3.96a.762.762,0,0,1-.659,1.143" transform="translate(-1609.45 -6.742)" fill="#83b099"/>
        <rect id="Rectangle_291-2" data-name="Rectangle 291" width="1.524" height="153.186" transform="matrix(0.866, -0.5, 0.5, 0.866, 0, 133.044)" fill="#83b099"/>
        <rect id="Rectangle_292-2" data-name="Rectangle 292" width="16.597" height="0.635" transform="translate(52.453 0.554)" fill="#83b099"/>
        <path id="Tracé_3159-2" data-name="Tracé 3159" d="M1785.312,2123.906a6.711,6.711,0,1,1,6.711-6.711,6.718,6.718,0,0,1-6.711,6.711m0-12.771a6.06,6.06,0,1,0,6.06,6.061,6.067,6.067,0,0,0-6.06-6.061" transform="translate(-1552.684 -1842.412)" fill="#83b099"/>
      </g>
      <path id="Tracé_3161-2" data-name="Tracé 3161" d="M67.663,0,5.2,107.612,67.663,215.222H192.6l62.468-107.609L192.6,0Z" transform="translate(174.465 187.735)" fill="url(#radial-gradient)"/>
    </g>
  </g>
</svg>
