<?xml version="1.0" encoding="utf-8"?>
<!-- Generator: Adobe Illustrator 25.2.1, SVG Export Plug-In . SVG Version: 6.00 Build 0)  -->
<svg version="1.1" id="Loupe" xmlns="http://www.w3.org/2000/svg" xmlns:xlink="http://www.w3.org/1999/xlink" x="0px" y="0px"
	 viewBox="0 0 32 32" style="enable-background:new 0 0 32 32;" xml:space="preserve">
<path d="M29.6,27.7l-4.5-4.5c1.8-2.2,2.9-5.1,2.9-8.2c0-7.2-5.8-13-13-13S2,7.8,2,15c0,7.2,5.8,13,13,13c3.1,0,5.9-1.1,8.2-2.9
	l4.5,4.5c0.3,0.3,0.6,0.4,1,0.4c0.4,0,0.7-0.1,1-0.4C30.1,29.1,30.1,28.2,29.6,27.7z M15,25.2C9.3,25.2,4.7,20.6,4.7,15
	C4.7,9.3,9.3,4.7,15,4.7c5.6,0,10.2,4.6,10.2,10.2C25.2,20.6,20.6,25.2,15,25.2z"/>
</svg>
