<?xml version="1.0" encoding="utf-8"?>
<!-- Generator: Adobe Illustrator 25.2.1, SVG Export Plug-In . SVG Version: 6.00 Build 0)  -->
<svg version="1.1" id="Panier" xmlns="http://www.w3.org/2000/svg" xmlns:xlink="http://www.w3.org/1999/xlink" x="0px" y="0px"
	 viewBox="0 0 32 32" style="enable-background:new 0 0 32 32;" xml:space="preserve">
<g>
	<g>
		<path d="M6.9,8.8L6.6,6.7l0-0.2L6.4,5.8L6.1,3.6h-3C2.5,3.6,2,4.1,2,4.7c0,0.6,0.5,1.1,1.1,1.1h1.1l0.2,1.3l0,0l0.3,1.7L5,11
			l1.3,8.1l0.4,2.2l0.2,1.6l0.4,2.2h20.2l0.4-2.2H9.1l-0.2-1.6H28l0.4-2.2l1.3-8.1L30,8.8H6.9z M26.1,19.1H8.5L7.3,11h20.1
			L26.1,19.1z"/>
	</g>
	<circle cx="25.1" cy="27.3" r="1.7"/>
	<circle cx="9.4" cy="27.3" r="1.7"/>
</g>
</svg>
