<svg width="26" height="28" viewBox="0 0 26 28" fill="none" xmlns="http://www.w3.org/2000/svg">
<path d="M18.493 8.27417C20.0243 9.80544 20.6918 11.9257 20.4562 13.9281L17.6292 14.1244C17.9826 12.7502 17.59 11.2582 16.5298 10.1981C15.4697 9.13796 13.9777 8.78459 12.6035 9.0987L12.7998 6.27174C14.8415 6.07543 16.9617 6.74291 18.493 8.27417Z" fill="black"/>
<path d="M22.3796 4.38721C24.8924 6.90006 26.1096 10.2374 25.9918 13.5356L23.2434 13.7319C23.4004 11.062 22.4581 8.3528 20.4557 6.35038C18.414 4.30869 15.7049 3.40563 13.0742 3.56269L13.2705 0.814258C16.5294 0.657205 19.8667 1.87436 22.3796 4.38721Z" fill="black"/>
<path d="M9.69803 8.50973L5.02572 3.8374L0.235594 8.66679L0 13.8495L13.3103 27.199L18.5323 26.9242L23.3224 22.1341L17.9041 16.7158L14.2918 20.328L6.08581 12.122L9.69803 8.50973Z" fill="black"/>
</svg>
