<svg id="Calque_1" data-name="Calque 1" xmlns="http://www.w3.org/2000/svg" viewBox="0 0 54 54"><polygon points="9.648 38.278 18.905 46.046 13.039 50.03 6.416 44.473 9.648 38.278"/><polygon points="6.457 24.488 8.556 36.389 1.501 35.669 0 27.155 6.457 24.488"/><polygon points="12.879 11.87 6.837 22.336 1.895 17.25 6.218 9.763 12.879 11.87"/><polygon points="25.908 6.333 14.552 10.466 14.036 3.394 22.16 0.437 25.908 6.333"/><polygon points="39.448 10.467 28.092 6.333 32.242 0.583 40.367 3.541 39.448 10.467"/><polygon points="47.163 22.336 41.121 11.87 47.996 10.133 52.319 17.621 47.163 22.336"/><polygon points="45.444 36.388 47.542 24.486 53.926 27.575 52.424 36.09 45.444 36.388"/><polygon points="35.095 46.047 44.353 38.279 47.257 44.748 40.634 50.306 35.095 46.047"/><polygon points="20.957 46.793 33.041 46.793 31.108 53.616 22.462 53.616 20.957 46.793"/><path d="M26.931,49.9545A23.02383,23.02383,0,1,1,49.95479,26.93067,23.04956,23.04956,0,0,1,26.931,49.9545Zm0-39.77317A16.74934,16.74934,0,1,0,43.6803,26.93067,16.76836,16.76836,0,0,0,26.931,10.18133Z"/><polygon points="19.331 25.154 15.833 28.653 22.108 34.928 26.12 35.494 35.382 26.232 34.815 22.214 28.543 15.942 25.045 19.441 29.802 24.198 24.088 29.912 19.331 25.154"/><rect x="31.57461" y="27.6836" width="5.59003" height="13.59067" transform="translate(-14.31366 34.40245) rotate(-45.00096)"/></svg>