<?xml version="1.0" encoding="utf-8"?>
<!-- Generator: Adobe Illustrator 27.8.1, SVG Export Plug-In . SVG Version: 6.00 Build 0)  -->
<svg version="1.1" id="Calque_1" xmlns="http://www.w3.org/2000/svg" xmlns:xlink="http://www.w3.org/1999/xlink" x="0px" y="0px"
	 viewBox="0 0 65.3 89.3" style="enable-background:new 0 0 65.3 89.3;" xml:space="preserve">
<style type="text/css">
	.st0{fill:#FFFFFF;}
</style>
<g>
	<polygon points="-207.6,0 -280.6,0 -280.6,5.2 -212.1,5.2 -212.1,46.5 -257.7,46.5 -257.7,55.9 -207.6,55.9 	"/>
	<polygon points="-235.4,65.2 -235.4,59.8 -250.9,59.8 -250.9,65.2 -256.7,70.2 -230,70.2 	"/>
	<path d="M-287.2,10.7v65.6h25.5V10.7H-287.2z M-277.1,64.2h-5.7v-5.7h5.7V64.2z M-266,29.7h-16.8v-5.3h16.8V29.7z M-266,22.7h-16.8
		v-5.3h16.8V22.7z"/>
</g>
<g>
	<rect x="-178.3" y="18.7" transform="matrix(0.7071 -0.7071 0.7071 0.7071 -74.8404 -109.993)" width="16.2" height="33.2"/>
	<rect x="-178.4" y="18.3" transform="matrix(0.7071 -0.7071 0.7071 0.7071 -62.3387 -97.7643)" width="58.4" height="16.2"/>
</g>
<g>
	<rect x="-75.6" y="18.4" transform="matrix(0.7071 -0.7071 0.7071 0.7071 -32.331 -25.0476)" width="58.4" height="16.2"/>
	<rect x="-84.4" y="-2.8" transform="matrix(0.7071 -0.7071 0.7071 0.7071 -40.9917 -46.2285)" width="16.2" height="58.4"/>
</g>
<g>
	<rect y="18" width="65.3" height="71.3"/>
	<rect x="14.6" width="36" height="36"/>
	<rect x="11.1" y="37.1" class="st0" width="43" height="6.9"/>
	<rect x="11.1" y="48.6" class="st0" width="43" height="6.9"/>
	<rect x="11.1" y="60.2" class="st0" width="43" height="6.9"/>
	<rect x="11.1" y="71.7" class="st0" width="43" height="6.9"/>
	<g>
		<path class="st0" d="M23.7,16.5v-2h13l-0.7,2H23.7z M23.7,21.3v-2.1h11.9L35,21.3H23.7z M34.8,27.7c-1.4,0-2.6-0.3-3.7-0.8
			c-1.1-0.5-2.1-1.2-2.9-2.1c-0.8-0.9-1.5-1.9-1.9-3.1s-0.7-2.5-0.7-3.8c0-1.4,0.2-2.6,0.7-3.8c0.4-1.2,1.1-2.2,1.9-3.1
			s1.8-1.6,2.9-2.1c1.1-0.5,2.4-0.8,3.8-0.8c1.4,0,2.7,0.3,3.7,0.8c1.1,0.5,2,1.2,2.9,2.1l-1.8,1.8c-0.6-0.7-1.3-1.3-2.1-1.6
			c-0.8-0.4-1.7-0.6-2.8-0.6c-1.3,0-2.5,0.3-3.4,0.9c-1,0.6-1.7,1.5-2.3,2.6c-0.5,1.1-0.8,2.4-0.8,3.8c0,1.4,0.3,2.7,0.8,3.8
			c0.5,1.1,1.3,2,2.3,2.6c1,0.6,2.2,0.9,3.5,0.9c1.1,0,2-0.2,2.8-0.6c0.8-0.4,1.5-0.9,2.1-1.7l1.8,1.8c-0.9,0.9-1.9,1.6-3,2.1
			C37.5,27.4,36.2,27.7,34.8,27.7z"/>
	</g>
</g>
</svg>
