<?xml version="1.0" encoding="utf-8"?>
<!-- Generator: Adobe Illustrator 27.8.1, SVG Export Plug-In . SVG Version: 6.00 Build 0)  -->
<svg version="1.1" id="Calque_1" xmlns="http://www.w3.org/2000/svg" xmlns:xlink="http://www.w3.org/1999/xlink" x="0px" y="0px"
	 viewBox="0 0 80 71.5" style="enable-background:new 0 0 80 71.5;" xml:space="preserve">
<rect x="4.8" y="21.5" width="20.5" height="3.3"/>
<rect x="2.4" y="28.2" width="20.5" height="3.3"/>
<rect x="0.2" y="34.9" width="20.5" height="3.3"/>
<path d="M30.5,62.8c-4.2,0-7.5-3.4-7.5-7.5s3.4-7.5,7.5-7.5c4.2,0,7.5,3.4,7.5,7.5C38.1,59.4,34.7,62.8,30.5,62.8z M30.5,51
	c-2.3,0-4.2,1.9-4.2,4.2s1.9,4.2,4.2,4.2s4.2-1.9,4.2-4.2l0,0C34.8,52.9,32.9,51,30.5,51z"/>
<path d="M65.5,62.8c-4.2,0-7.5-3.4-7.5-7.5c0-4.2,3.4-7.5,7.5-7.5c4.2,0,7.5,3.4,7.5,7.5S69.6,62.8,65.5,62.8z M65.5,51
	c-2.3,0-4.2,1.9-4.2,4.2s1.9,4.2,4.2,4.2c2.3,0,4.2-1.9,4.2-4.2S67.8,51,65.5,51z"/>
<path d="M68.4,15.7h-13v-7H15v10.5h12.6v21.3H15V51h64.8V25.9L68.4,15.7z M72.1,39H58.8V22.5h8.1l5.3,4.7L72.1,39z"/>
</svg>
