<?xml version="1.0" encoding="utf-8"?>
<!-- Generator: Adobe Illustrator 25.2.0, SVG Export Plug-In . SVG Version: 6.00 Build 0)  -->
<svg version="1.1" id="Calque_1" xmlns="http://www.w3.org/2000/svg" xmlns:xlink="http://www.w3.org/1999/xlink" x="0px" y="0px"
	 viewBox="0 0 80 71.5" style="enable-background:new 0 0 80 71.5;" xml:space="preserve">
<path d="M11.4,31.3v-6.5h41.9l-2.1,6.5L11.4,31.3z M11.4,46.7v-6.6h38.3l-2.1,6.6H11.4z M46.9,67.2c-4.1,0.1-8.2-0.8-12-2.4
	c-3.6-1.6-6.7-3.9-9.4-6.7c-2.7-2.9-4.7-6.3-6.1-10c-1.4-3.9-2.1-8.1-2.1-12.2c0-4.2,0.7-8.4,2.1-12.3c1.3-3.7,3.4-7.1,6-10
	c2.6-2.9,5.8-5.1,9.4-6.7c3.8-1.6,7.9-2.5,12.1-2.4c4.1-0.1,8.2,0.7,11.9,2.5c3.4,1.7,6.6,4,9.3,6.7l-5.7,5.7
	c-1.9-2.2-4.2-4-6.8-5.3c-2.8-1.3-5.9-1.9-9.1-1.8c-7.8-0.2-15.1,4.3-18.3,11.4c-1.8,3.8-2.6,8-2.6,12.3c-0.1,4.2,0.8,8.4,2.6,12.2
	c1.6,3.4,4.2,6.4,7.4,8.4c3.4,2.1,7.3,3.1,11.3,3c3.1,0.1,6.2-0.6,9.1-1.9c2.6-1.3,4.9-3.1,6.8-5.3l5.7,5.7c-2.7,2.8-6,5.1-9.5,6.8
	C55.2,66.4,51.1,67.2,46.9,67.2z"/>
</svg>
