<?xml version="1.0" encoding="utf-8"?>
<!-- Generator: Adobe Illustrator 25.2.0, SVG Export Plug-In . SVG Version: 6.00 Build 0)  -->
<svg version="1.1" xmlns="http://www.w3.org/2000/svg" xmlns:xlink="http://www.w3.org/1999/xlink" x="0px" y="0px"
	 viewBox="0 0 412.5 63.1" style="enable-background:new 0 0 412.5 63.1;" xml:space="preserve">
<style type="text/css">
	.st0{fill:#FFFFFF;}
</style>
<g id="Calque_2">
</g>
<g id="Calque_1">
	<g>
		<g>
			<g>
				<path class="st0" d="M0,62.1V48.7h1.8v13.4H0z M1.2,62.1v-1.7h7.2v1.7H1.2z"/>
				<path class="st0" d="M8.5,52.9l1.2-2.3l0.6-0.2c-0.1,0.1-0.1,0.3-0.2,0.3C10,50.9,9.8,51,9.7,51c-0.3,0-0.5-0.1-0.7-0.3
					c-0.2-0.2-0.3-0.5-0.3-0.8c0-0.4,0.1-0.7,0.4-0.9c0.3-0.3,0.6-0.4,0.9-0.4c0.3,0,0.6,0.1,0.9,0.4c0.3,0.3,0.4,0.6,0.4,0.9
					c0,0.1,0,0.3-0.1,0.5s-0.2,0.5-0.3,0.8l-1.3,2.4L8.5,52.9z"/>
				<path class="st0" d="M13.8,62.1V48.7h1.8v13.4H13.8z"/>
				<path class="st0" d="M18.8,62.1V48.7H20l0.5,2.1v11.3H18.8z M28.1,62.1l-8.3-11l0.2-2.4l8.3,11L28.1,62.1z M28.1,62.1l-0.5-2
					V48.7h1.8v13.4H28.1z"/>
				<path class="st0" d="M32.5,62.1V48.7h1.8v13.4H32.5z M33.8,50.3v-1.7h7.3v1.7H33.8z M33.8,56.2v-1.7h7v1.7H33.8z"/>
				<path class="st0" d="M49.4,62.3c-1,0-1.8-0.2-2.7-0.5c-0.8-0.4-1.5-0.9-2.2-1.5c-0.6-0.6-1.1-1.4-1.4-2.2
					c-0.3-0.8-0.5-1.7-0.5-2.7c0-1,0.2-1.9,0.5-2.7c0.3-0.8,0.8-1.6,1.4-2.2c0.6-0.6,1.3-1.1,2.1-1.5c0.8-0.3,1.7-0.5,2.7-0.5
					c1,0,1.8,0.2,2.7,0.5c0.8,0.3,1.5,0.8,2.2,1.5c0.6,0.6,1.1,1.4,1.5,2.2c0.3,0.8,0.5,1.7,0.5,2.7c0,1-0.2,1.9-0.5,2.7
					c-0.3,0.8-0.8,1.6-1.4,2.2c-0.6,0.6-1.3,1.1-2.1,1.5C51.2,62.1,50.3,62.3,49.4,62.3z M49.3,60.6c1,0,1.8-0.2,2.5-0.7
					c0.7-0.4,1.3-1.1,1.7-1.8c0.4-0.8,0.6-1.7,0.6-2.7c0-0.7-0.1-1.4-0.4-2.1c-0.2-0.6-0.6-1.2-1-1.6c-0.4-0.5-1-0.8-1.5-1.1
					c-0.6-0.3-1.3-0.4-2-0.4c-1,0-1.8,0.2-2.5,0.7c-0.7,0.4-1.3,1-1.7,1.8c-0.4,0.8-0.6,1.7-0.6,2.7c0,0.7,0.1,1.4,0.4,2.1
					c0.2,0.6,0.6,1.2,1,1.6c0.4,0.5,0.9,0.8,1.5,1.1C48,60.4,48.6,60.6,49.3,60.6z"/>
				<path class="st0" d="M58.6,62.1V48.7h1.8v13.4H58.6z M59.8,56.3v-1.5h3.6c0.8,0,1.4-0.2,1.8-0.6c0.4-0.4,0.6-0.9,0.6-1.6
					c0-0.6-0.2-1.2-0.6-1.6c-0.4-0.4-1-0.6-1.8-0.6h-3.7v-1.6h3.7c0.9,0,1.6,0.2,2.2,0.5c0.6,0.3,1.1,0.8,1.5,1.3
					c0.3,0.6,0.5,1.2,0.5,2c0,0.8-0.2,1.4-0.5,2c-0.3,0.6-0.8,1-1.5,1.3c-0.6,0.3-1.4,0.5-2.2,0.5H59.8z M66.4,62.1l-4.9-6l1.7-0.6
					l5.5,6.6H66.4z"/>
				<path class="st0" d="M70.5,62.1V48.7h1.3l5.7,9.4h-0.9l5.7-9.4h1.3v13.4h-1.8V51.9l0.4,0.1l-4.5,7.4h-1.3L72,52l0.4-0.1v10.2
					H70.5z"/>
				<path class="st0" d="M85.8,62.1l5.5-13.4h1.3l5.5,13.4h-2l-4.5-11.4h0.7l-4.6,11.4H85.8z M88.4,59.1v-1.6h7.1v1.6H88.4z"/>
				<path class="st0" d="M97.3,50.3v-1.7h10.9v1.7H97.3z M101.9,62.1V49.1h1.8v13.1H101.9z"/>
				<path class="st0" d="M110.4,62.1V48.7h1.8v13.4H110.4z"/>
				<path class="st0" d="M121.6,62.3c-1,0-1.8-0.2-2.7-0.5c-0.8-0.4-1.5-0.9-2.2-1.5c-0.6-0.6-1.1-1.4-1.5-2.2
					c-0.3-0.8-0.5-1.7-0.5-2.7c0-1,0.2-1.9,0.5-2.7c0.3-0.8,0.8-1.6,1.4-2.2c0.6-0.6,1.3-1.1,2.1-1.5c0.8-0.3,1.7-0.5,2.7-0.5
					c1,0,1.8,0.2,2.7,0.5s1.5,0.8,2.2,1.5c0.6,0.6,1.1,1.4,1.4,2.2c0.3,0.8,0.5,1.7,0.5,2.7c0,1-0.2,1.9-0.5,2.7
					c-0.3,0.8-0.8,1.6-1.4,2.2c-0.6,0.6-1.3,1.1-2.1,1.5C123.4,62.1,122.5,62.3,121.6,62.3z M121.5,60.6c1,0,1.8-0.2,2.5-0.7
					c0.7-0.4,1.3-1.1,1.7-1.8c0.4-0.8,0.6-1.7,0.6-2.7c0-0.7-0.1-1.4-0.4-2.1c-0.2-0.6-0.6-1.2-1-1.6c-0.4-0.5-1-0.8-1.5-1.1
					c-0.6-0.3-1.3-0.4-2-0.4c-1,0-1.8,0.2-2.5,0.7c-0.7,0.4-1.3,1-1.7,1.8c-0.4,0.8-0.6,1.7-0.6,2.7c0,0.7,0.1,1.4,0.4,2.1
					c0.2,0.6,0.6,1.2,1,1.6c0.4,0.5,0.9,0.8,1.5,1.1C120.1,60.4,120.8,60.6,121.5,60.6z M128,63.1l-6.3-6.3l1.2-1.2l6.3,6.3
					L128,63.1z"/>
				<path class="st0" d="M136.3,62.3c-1,0-1.9-0.2-2.7-0.7c-0.8-0.4-1.4-1.1-1.8-1.8c-0.5-0.8-0.7-1.7-0.7-2.7v-8.5h1.8v8.4
					c0,0.7,0.1,1.3,0.4,1.8c0.3,0.5,0.7,0.9,1.2,1.2c0.5,0.3,1.1,0.4,1.7,0.4c0.7,0,1.2-0.1,1.7-0.4c0.5-0.3,0.9-0.7,1.2-1.2
					c0.3-0.5,0.4-1.1,0.4-1.8v-8.4h1.8v8.5c0,1-0.2,1.9-0.7,2.7c-0.5,0.8-1.1,1.4-1.8,1.8C138.2,62.1,137.3,62.3,136.3,62.3z"/>
				<path class="st0" d="M144.5,62.1V48.7h1.8v13.4H144.5z M145.7,50.3v-1.7h7.6v1.7H145.7z M145.7,56v-1.6h7.1V56H145.7z
					 M145.7,62.1v-1.7h7.7v1.7H145.7z"/>
				<path class="st0" d="M159.9,62.1V48.7h1.8v13.4H159.9z M161.1,56.9v-1.6h3.7c0.5,0,1-0.1,1.3-0.3c0.4-0.2,0.7-0.5,0.9-0.9
					c0.2-0.4,0.3-0.8,0.3-1.3s-0.1-1-0.3-1.3c-0.2-0.4-0.5-0.7-0.9-0.9c-0.4-0.2-0.8-0.3-1.3-0.3h-3.7v-1.6h3.8
					c0.8,0,1.6,0.2,2.2,0.5c0.7,0.3,1.2,0.8,1.5,1.4c0.4,0.6,0.6,1.3,0.6,2.2c0,0.8-0.2,1.5-0.6,2.2c-0.4,0.6-0.9,1.1-1.5,1.4
					c-0.7,0.3-1.4,0.5-2.2,0.5H161.1z"/>
				<path class="st0" d="M177.8,62.3c-1,0-1.8-0.2-2.7-0.5c-0.8-0.4-1.5-0.9-2.2-1.5c-0.6-0.6-1.1-1.4-1.4-2.2
					c-0.3-0.8-0.5-1.7-0.5-2.7c0-1,0.2-1.9,0.5-2.7c0.3-0.8,0.8-1.6,1.4-2.2c0.6-0.6,1.3-1.1,2.1-1.5c0.8-0.3,1.7-0.5,2.7-0.5
					c1,0,1.8,0.2,2.7,0.5c0.8,0.3,1.5,0.8,2.2,1.5c0.6,0.6,1.1,1.4,1.5,2.2c0.3,0.8,0.5,1.7,0.5,2.7c0,1-0.2,1.9-0.5,2.7
					c-0.3,0.8-0.8,1.6-1.4,2.2c-0.6,0.6-1.3,1.1-2.1,1.5C179.6,62.1,178.7,62.3,177.8,62.3z M177.7,60.6c1,0,1.8-0.2,2.5-0.7
					c0.7-0.4,1.3-1.1,1.7-1.8c0.4-0.8,0.6-1.7,0.6-2.7c0-0.7-0.1-1.4-0.4-2.1c-0.2-0.6-0.6-1.2-1-1.6c-0.4-0.5-1-0.8-1.5-1.1
					c-0.6-0.3-1.3-0.4-2-0.4c-1,0-1.8,0.2-2.5,0.7c-0.7,0.4-1.3,1-1.7,1.8c-0.4,0.8-0.6,1.7-0.6,2.7c0,0.7,0.1,1.4,0.4,2.1
					c0.2,0.6,0.6,1.2,1,1.6c0.4,0.5,0.9,0.8,1.5,1.1C176.4,60.4,177,60.6,177.7,60.6z"/>
				<path class="st0" d="M192.1,62.3c-1,0-1.9-0.2-2.7-0.7c-0.8-0.4-1.4-1.1-1.8-1.8c-0.5-0.8-0.7-1.7-0.7-2.7v-8.5h1.8v8.4
					c0,0.7,0.1,1.3,0.4,1.8c0.3,0.5,0.7,0.9,1.2,1.2c0.5,0.3,1.1,0.4,1.7,0.4c0.7,0,1.2-0.1,1.7-0.4s0.9-0.7,1.2-1.2
					c0.3-0.5,0.4-1.1,0.4-1.8v-8.4h1.8v8.5c0,1-0.2,1.9-0.7,2.7c-0.5,0.8-1.1,1.4-1.8,1.8C194,62.1,193.1,62.3,192.1,62.3z"/>
				<path class="st0" d="M200.2,62.1V48.7h1.8v13.4H200.2z M201.5,56.3v-1.5h3.6c0.8,0,1.4-0.2,1.8-0.6c0.4-0.4,0.6-0.9,0.6-1.6
					c0-0.6-0.2-1.2-0.6-1.6c-0.4-0.4-1-0.6-1.8-0.6h-3.7v-1.6h3.7c0.9,0,1.6,0.2,2.2,0.5s1.1,0.8,1.5,1.3c0.3,0.6,0.5,1.2,0.5,2
					c0,0.8-0.2,1.4-0.5,2c-0.3,0.6-0.8,1-1.5,1.3c-0.6,0.3-1.4,0.5-2.2,0.5H201.5z M208,62.1l-4.9-6l1.7-0.6l5.5,6.6H208z"/>
				<path class="st0" d="M216.5,62.1V48.7h1.8v13.4H216.5z M217.7,62.1v-1.7h7.2v1.7H217.7z"/>
				<path class="st0" d="M227.2,62.1V48.7h1.8v13.4H227.2z M228.4,50.3v-1.7h7.6v1.7H228.4z M228.4,56v-1.6h7.1V56H228.4z
					 M228.4,62.1v-1.7h7.7v1.7H228.4z"/>
				<path class="st0" d="M242,62.3c-1.1,0-2-0.2-2.7-0.6c-0.7-0.4-1.4-0.9-2-1.7l1.2-1.2c0.4,0.6,0.9,1,1.5,1.3
					c0.6,0.3,1.2,0.5,2.1,0.5c0.8,0,1.4-0.2,1.9-0.5s0.7-0.8,0.7-1.4c0-0.5-0.1-0.9-0.3-1.2c-0.2-0.3-0.5-0.6-0.9-0.8
					c-0.4-0.2-0.8-0.4-1.3-0.5c-0.5-0.2-0.9-0.3-1.4-0.5c-0.5-0.2-0.9-0.4-1.3-0.7c-0.4-0.3-0.7-0.6-0.9-1.1c-0.2-0.5-0.4-1-0.4-1.7
					c0-0.8,0.2-1.4,0.6-1.9c0.4-0.5,0.9-0.9,1.5-1.2c0.6-0.3,1.4-0.4,2.2-0.4c0.9,0,1.7,0.2,2.4,0.5c0.7,0.3,1.3,0.8,1.7,1.3
					l-1.2,1.2c-0.4-0.5-0.8-0.8-1.3-1c-0.5-0.2-1-0.3-1.6-0.3c-0.7,0-1.3,0.2-1.7,0.5c-0.4,0.3-0.6,0.8-0.6,1.3
					c0,0.5,0.1,0.8,0.4,1.1c0.2,0.3,0.6,0.5,0.9,0.7c0.4,0.2,0.8,0.4,1.3,0.5c0.5,0.2,0.9,0.3,1.4,0.5c0.5,0.2,0.9,0.4,1.3,0.7
					c0.4,0.3,0.7,0.7,0.9,1.2s0.4,1.1,0.4,1.8c0,1.2-0.4,2.1-1.2,2.8C244.5,62,243.4,62.3,242,62.3z"/>
				<path class="st0" d="M253,62.1V48.7h1.8v13.4H253z M254.2,56.9v-1.6h3.7c0.5,0,1-0.1,1.3-0.3c0.4-0.2,0.7-0.5,0.9-0.9
					c0.2-0.4,0.3-0.8,0.3-1.3s-0.1-1-0.3-1.3c-0.2-0.4-0.5-0.7-0.9-0.9c-0.4-0.2-0.8-0.3-1.3-0.3h-3.7v-1.6h3.8
					c0.8,0,1.6,0.2,2.2,0.5c0.7,0.3,1.2,0.8,1.5,1.4c0.4,0.6,0.6,1.3,0.6,2.2c0,0.8-0.2,1.5-0.6,2.2c-0.4,0.6-0.9,1.1-1.5,1.4
					c-0.7,0.3-1.4,0.5-2.2,0.5H254.2z"/>
				<path class="st0" d="M264.6,62.1V48.7h1.8v13.4H264.6z M265.8,56.3v-1.5h3.6c0.8,0,1.4-0.2,1.8-0.6c0.4-0.4,0.6-0.9,0.6-1.6
					c0-0.6-0.2-1.2-0.6-1.6c-0.4-0.4-1-0.6-1.8-0.6h-3.7v-1.6h3.7c0.9,0,1.6,0.2,2.2,0.5s1.1,0.8,1.5,1.3c0.3,0.6,0.5,1.2,0.5,2
					c0,0.8-0.2,1.4-0.5,2c-0.3,0.6-0.8,1-1.5,1.3c-0.6,0.3-1.4,0.5-2.2,0.5H265.8z M272.3,62.1l-4.9-6l1.7-0.6l5.5,6.6H272.3z"/>
				<path class="st0" d="M282.5,62.3c-1,0-1.8-0.2-2.7-0.5c-0.8-0.4-1.5-0.9-2.2-1.5c-0.6-0.6-1.1-1.4-1.4-2.2
					c-0.3-0.8-0.5-1.7-0.5-2.7c0-1,0.2-1.9,0.5-2.7c0.3-0.8,0.8-1.6,1.4-2.2c0.6-0.6,1.3-1.1,2.1-1.5c0.8-0.3,1.7-0.5,2.7-0.5
					c1,0,1.8,0.2,2.7,0.5c0.8,0.3,1.5,0.8,2.2,1.5c0.6,0.6,1.1,1.4,1.5,2.2c0.3,0.8,0.5,1.7,0.5,2.7c0,1-0.2,1.9-0.5,2.7
					c-0.3,0.8-0.8,1.6-1.4,2.2c-0.6,0.6-1.3,1.1-2.1,1.5C284.3,62.1,283.4,62.3,282.5,62.3z M282.4,60.6c1,0,1.8-0.2,2.5-0.7
					c0.7-0.4,1.3-1.1,1.7-1.8c0.4-0.8,0.6-1.7,0.6-2.7c0-0.7-0.1-1.4-0.4-2.1c-0.2-0.6-0.6-1.2-1-1.6c-0.4-0.5-1-0.8-1.5-1.1
					c-0.6-0.3-1.3-0.4-2-0.4c-1,0-1.8,0.2-2.5,0.7s-1.3,1-1.7,1.8c-0.4,0.8-0.6,1.7-0.6,2.7c0,0.7,0.1,1.4,0.4,2.1
					c0.2,0.6,0.6,1.2,1,1.6c0.4,0.5,0.9,0.8,1.5,1.1C281,60.4,281.7,60.6,282.4,60.6z"/>
				<path class="st0" d="M291.7,62.1V48.7h1.8v13.4H291.7z M292.9,50.3v-1.7h7.3v1.7H292.9z M292.9,56.2v-1.7h7v1.7H292.9z"/>
				<path class="st0" d="M302.7,62.1V48.7h1.8v13.4H302.7z M303.9,50.3v-1.7h7.6v1.7H303.9z M303.9,56v-1.6h7.1V56H303.9z
					 M303.9,62.1v-1.7h7.7v1.7H303.9z"/>
				<path class="st0" d="M317.5,62.3c-1.1,0-2-0.2-2.7-0.6c-0.7-0.4-1.4-0.9-2-1.7l1.2-1.2c0.4,0.6,0.9,1,1.5,1.3
					c0.6,0.3,1.2,0.5,2.1,0.5c0.8,0,1.4-0.2,1.9-0.5s0.7-0.8,0.7-1.4c0-0.5-0.1-0.9-0.3-1.2c-0.2-0.3-0.5-0.6-0.9-0.8
					c-0.4-0.2-0.8-0.4-1.3-0.5c-0.5-0.2-0.9-0.3-1.4-0.5c-0.5-0.2-0.9-0.4-1.3-0.7c-0.4-0.3-0.7-0.6-0.9-1.1c-0.2-0.5-0.4-1-0.4-1.7
					c0-0.8,0.2-1.4,0.6-1.9c0.4-0.5,0.9-0.9,1.5-1.2c0.6-0.3,1.4-0.4,2.2-0.4c0.9,0,1.7,0.2,2.4,0.5c0.7,0.3,1.3,0.8,1.7,1.3
					l-1.2,1.2c-0.4-0.5-0.8-0.8-1.3-1c-0.5-0.2-1-0.3-1.6-0.3c-0.7,0-1.3,0.2-1.7,0.5c-0.4,0.3-0.6,0.8-0.6,1.3
					c0,0.5,0.1,0.8,0.4,1.1c0.2,0.3,0.6,0.5,0.9,0.7c0.4,0.2,0.8,0.4,1.3,0.5c0.5,0.2,0.9,0.3,1.4,0.5c0.5,0.2,0.9,0.4,1.3,0.7
					c0.4,0.3,0.7,0.7,0.9,1.2c0.2,0.5,0.4,1.1,0.4,1.8c0,1.2-0.4,2.1-1.2,2.8C320,62,318.9,62.3,317.5,62.3z"/>
				<path class="st0" d="M327.9,62.3c-1.1,0-2-0.2-2.7-0.6c-0.7-0.4-1.4-0.9-2-1.7l1.2-1.2c0.4,0.6,0.9,1,1.5,1.3
					c0.6,0.3,1.2,0.5,2.1,0.5c0.8,0,1.4-0.2,1.9-0.5s0.7-0.8,0.7-1.4c0-0.5-0.1-0.9-0.3-1.2c-0.2-0.3-0.5-0.6-0.9-0.8
					c-0.4-0.2-0.8-0.4-1.3-0.5c-0.5-0.2-0.9-0.3-1.4-0.5c-0.5-0.2-0.9-0.4-1.3-0.7c-0.4-0.3-0.7-0.6-0.9-1.1c-0.2-0.5-0.4-1-0.4-1.7
					c0-0.8,0.2-1.4,0.6-1.9c0.4-0.5,0.9-0.9,1.5-1.2c0.6-0.3,1.4-0.4,2.2-0.4c0.9,0,1.7,0.2,2.4,0.5c0.7,0.3,1.3,0.8,1.7,1.3
					l-1.2,1.2c-0.4-0.5-0.8-0.8-1.3-1c-0.5-0.2-1-0.3-1.6-0.3c-0.7,0-1.3,0.2-1.7,0.5c-0.4,0.3-0.6,0.8-0.6,1.3
					c0,0.5,0.1,0.8,0.4,1.1c0.2,0.3,0.6,0.5,0.9,0.7c0.4,0.2,0.8,0.4,1.3,0.5c0.5,0.2,0.9,0.3,1.4,0.5c0.5,0.2,0.9,0.4,1.3,0.7
					c0.4,0.3,0.7,0.7,0.9,1.2c0.2,0.5,0.4,1.1,0.4,1.8c0,1.2-0.4,2.1-1.2,2.8C330.4,62,329.3,62.3,327.9,62.3z"/>
				<path class="st0" d="M334.9,62.1V48.7h1.8v13.4H334.9z"/>
				<path class="st0" d="M346,62.3c-1,0-1.8-0.2-2.7-0.5c-0.8-0.4-1.5-0.9-2.2-1.5c-0.6-0.6-1.1-1.4-1.4-2.2
					c-0.3-0.8-0.5-1.7-0.5-2.7c0-1,0.2-1.9,0.5-2.7c0.3-0.8,0.8-1.6,1.4-2.2c0.6-0.6,1.3-1.1,2.1-1.5c0.8-0.3,1.7-0.5,2.7-0.5
					c1,0,1.8,0.2,2.7,0.5c0.8,0.3,1.5,0.8,2.2,1.5c0.6,0.6,1.1,1.4,1.5,2.2c0.3,0.8,0.5,1.7,0.5,2.7c0,1-0.2,1.9-0.5,2.7
					c-0.3,0.8-0.8,1.6-1.4,2.2c-0.6,0.6-1.3,1.1-2.1,1.5C347.8,62.1,346.9,62.3,346,62.3z M346,60.6c1,0,1.8-0.2,2.5-0.7
					c0.7-0.4,1.3-1.1,1.7-1.8c0.4-0.8,0.6-1.7,0.6-2.7c0-0.7-0.1-1.4-0.4-2.1c-0.2-0.6-0.6-1.2-1-1.6c-0.4-0.5-1-0.8-1.5-1.1
					c-0.6-0.3-1.3-0.4-2-0.4c-1,0-1.8,0.2-2.5,0.7s-1.3,1-1.7,1.8c-0.4,0.8-0.6,1.7-0.6,2.7c0,0.7,0.1,1.4,0.4,2.1
					c0.2,0.6,0.6,1.2,1,1.6c0.4,0.5,0.9,0.8,1.5,1.1C344.6,60.4,345.3,60.6,346,60.6z"/>
				<path class="st0" d="M355.3,62.1V48.7h1.3l0.5,2.1v11.3H355.3z M364.6,62.1l-8.3-11l0.2-2.4l8.3,11L364.6,62.1z M364.6,62.1
					l-0.5-2V48.7h1.8v13.4H364.6z"/>
				<path class="st0" d="M369,62.1V48.7h1.3l0.5,2.1v11.3H369z M378.3,62.1l-8.3-11l0.2-2.4l8.3,11L378.3,62.1z M378.3,62.1l-0.5-2
					V48.7h1.8v13.4H378.3z"/>
				<path class="st0" d="M382.8,62.1V48.7h1.8v13.4H382.8z M384,50.3v-1.7h7.6v1.7H384z M384,56v-1.6h7.1V56H384z M384,62.1v-1.7
					h7.7v1.7H384z"/>
				<path class="st0" d="M394.2,62.1V48.7h1.8v13.4H394.2z M395.4,62.1v-1.7h7.2v1.7H395.4z"/>
				<path class="st0" d="M408,62.3c-1.1,0-2-0.2-2.7-0.6c-0.7-0.4-1.4-0.9-2-1.7l1.2-1.2c0.4,0.6,0.9,1,1.5,1.3
					c0.6,0.3,1.2,0.5,2.1,0.5c0.8,0,1.4-0.2,1.9-0.5s0.7-0.8,0.7-1.4c0-0.5-0.1-0.9-0.3-1.2c-0.2-0.3-0.5-0.6-0.9-0.8
					c-0.4-0.2-0.8-0.4-1.3-0.5c-0.5-0.2-0.9-0.3-1.4-0.5c-0.5-0.2-0.9-0.4-1.3-0.7c-0.4-0.3-0.7-0.6-0.9-1.1c-0.2-0.5-0.4-1-0.4-1.7
					c0-0.8,0.2-1.4,0.6-1.9c0.4-0.5,0.9-0.9,1.5-1.2c0.6-0.3,1.4-0.4,2.2-0.4c0.9,0,1.7,0.2,2.4,0.5c0.7,0.3,1.3,0.8,1.7,1.3
					l-1.2,1.2c-0.4-0.5-0.8-0.8-1.3-1c-0.5-0.2-1-0.3-1.6-0.3c-0.7,0-1.3,0.2-1.7,0.5c-0.4,0.3-0.6,0.8-0.6,1.3
					c0,0.5,0.1,0.8,0.4,1.1c0.2,0.3,0.6,0.5,0.9,0.7c0.4,0.2,0.8,0.4,1.3,0.5c0.5,0.2,0.9,0.3,1.4,0.5c0.5,0.2,0.9,0.4,1.3,0.7
					c0.4,0.3,0.7,0.7,0.9,1.2c0.2,0.5,0.4,1.1,0.4,1.8c0,1.2-0.4,2.1-1.2,2.8C410.5,62,409.4,62.3,408,62.3z"/>
			</g>
		</g>
		<g>
			<g>
				<g>
					<g>
						<g>
							<path class="st0" d="M66.1,12.5c0,3.5-1.8,6-5.3,7.6c-2.8,1.3-6.8,1.9-11.8,1.9c-5.2,0-9.1-0.6-11.7-1.7
								c-3.6-1.5-5.4-4.1-5.4-7.7V1.1h7.6v10.6c0,0.9,0.8,1.5,2.5,1.9c1.7,0.4,4,0.6,7,0.6c3.1,0,5.5-0.2,7.1-0.6
								c1.6-0.4,2.4-1,2.4-1.9V1.1h7.6V12.5z M52.8,35.2h-7.6v-9.4h7.6V35.2z"/>
							<path class="st0" d="M101.9,27.6c0,2-0.7,3.8-2.2,5.3c-1.5,1.5-3.3,2.2-5.4,2.2H67.8V14.4h25.8c0.2,0,0.4-0.1,0.5-0.2
								c0.1-0.1,0.2-0.3,0.2-0.5V9.4c0-0.2-0.1-0.4-0.2-0.5c-0.1-0.1-0.3-0.2-0.5-0.2H67.8V1.1h26.6c2.1,0,3.9,0.7,5.4,2.2
								c1.5,1.5,2.2,3.3,2.2,5.3v5.7c0,0.8-0.1,1.5-0.3,2.2c-0.2,0.7-0.6,1.2-1,1.6c0.4,0.3,0.8,0.9,1,1.6c0.2,0.7,0.4,1.4,0.4,2.2
								V27.6z M94.4,26.8v-4.1c0-0.2-0.1-0.4-0.2-0.6c-0.1-0.1-0.3-0.2-0.5-0.2H75.4v5.7h18.2C94.1,27.6,94.4,27.3,94.4,26.8z"/>
							<path class="st0" d="M137.8,35.2h-26.6c-2.1,0-3.9-0.7-5.4-2.2c-1.5-1.5-2.2-3.2-2.2-5.3V8.7c0-2.1,0.7-3.9,2.2-5.3
								c1.5-1.5,3.3-2.2,5.4-2.2h26.6v7.6h-25.8c-0.2,0-0.4,0.1-0.5,0.2c-0.1,0.1-0.2,0.3-0.2,0.5v4.9h26.6v7.6h-26.6v4.9
								c0,0.2,0.1,0.4,0.2,0.6c0.1,0.1,0.3,0.2,0.5,0.2h25.8V35.2z"/>
							<path class="st0" d="M174.8,35.2h-7.6l-1.9-12.5c-0.1-0.5-0.4-0.8-0.8-0.8H147v13.3h-7.6V14.4h25c0.2,0,0.4-0.1,0.6-0.2
								c0.1-0.1,0.2-0.3,0.2-0.5V9.4c0-0.5-0.3-0.7-0.8-0.7h-25V1.1h25.8c2.1,0,3.8,0.7,5.3,2.2c1.5,1.5,2.3,3.3,2.3,5.3v5.7
								c0,0.7-0.1,1.5-0.4,2.2c-0.3,0.7-0.6,1.2-1,1.6c0.4,0.3,0.8,0.9,1,1.7c0.2,0.5,0.3,1.2,0.4,2.1L174.8,35.2z"/>
							<path class="st0" d="M210.6,8.7h-34.2V1.1h34.2V8.7z M197.3,35.2h-7.6V12.5h7.6V35.2z"/>
							<path class="st0" d="M246.4,35.2h-26.6c-2.1,0-3.9-0.7-5.4-2.2c-1.5-1.5-2.2-3.2-2.2-5.3V8.7c0-2.1,0.7-3.9,2.2-5.3
								c1.5-1.5,3.3-2.2,5.4-2.2h26.6v7.6h-25.8c-0.2,0-0.4,0.1-0.5,0.2c-0.1,0.1-0.2,0.3-0.2,0.5v4.9h26.6v7.6h-26.6v4.9
								c0,0.2,0.1,0.4,0.2,0.6c0.1,0.1,0.3,0.2,0.5,0.2h25.8V35.2z"/>
							<path class="st0" d="M283.9,35.2H275l-5.7-12.5c-0.1-0.2-0.2-0.4-0.3-0.5c-0.1-0.2-0.2-0.3-0.5-0.3h-12.9v13.3h-7.6v-34h7.6
								v13.2h10.3c0.1,0,0.2,0,0.3-0.1c0.1-0.1,0.2-0.3,0.4-0.6l6.4-12.5h8.9l-7,13.2c-0.2,0.3-0.3,0.6-0.5,0.9
								c-0.2,0.3-0.4,0.5-0.6,0.7c0.8,0.6,1.6,1.4,2.3,2.5c0.6,1,1.3,2.1,1.9,3.5L283.9,35.2z"/>
							<path class="st0" d="M30.2,35.2H9.4c-3.5,0-6-1.8-7.6-5.3C0.6,27,0,23.1,0,18.1c0-3.3,0.2-6,0.7-8.2c0.6-2.8,1.5-4.8,2.8-6.3
								c1.5-1.7,3.5-2.5,6-2.5h20.8v7.6h-20c-0.9,0-1.5,0.8-1.9,2.5c-0.4,1.6-0.6,4-0.6,7c0,3,0.2,5.4,0.6,7c0.4,1.6,1,2.5,1.9,2.5
								h20V35.2z"/>
						</g>
					</g>
				</g>
			</g>
			<g>
				<g>
					<path class="st0" d="M331.3,3c1.5,0,2.8,0.5,3.9,1.6c1.1,1.1,1.6,2.4,1.6,3.9v5.7c0,1.6-0.5,2.9-1.6,3.9
						c-1.1,1.1-2.4,1.6-3.9,1.6h-18.2h-2v2v11.3h-3.6V16.2h23c0.8,0,1.5-0.3,2-0.8c0.5-0.5,0.8-1.2,0.8-1.9V9.3
						c0-1.6-1.2-2.7-2.8-2.7h-23V3H331.3 M331.3,1h-25.8v7.6h25c0.5,0,0.8,0.2,0.8,0.7v4.2c0,0.2-0.1,0.4-0.2,0.5
						c-0.1,0.1-0.3,0.2-0.6,0.2h-25v20.9h7.6V21.8h18.2c2.1,0,3.9-0.7,5.4-2.2c1.5-1.5,2.2-3.3,2.2-5.4V8.6c0-2.1-0.7-3.9-2.2-5.4
						C335.1,1.7,333.3,1,331.3,1L331.3,1z"/>
				</g>
				<g>
					<path class="st0" d="M366.3,3c1.5,0,2.8,0.5,3.9,1.6c1.1,1.1,1.6,2.4,1.6,3.9v5.7c0,0.5-0.1,1-0.3,1.5
						c-0.1,0.3-0.3,0.6-0.4,0.7l-1.9,1.6l1.9,1.5c0,0,0.2,0.2,0.4,0.7c0.1,0.2,0.2,0.7,0.4,1.8l1.6,11h-3.5l-1.6-10.8l0,0l0,0
						c-0.3-1.5-1.4-2.4-2.7-2.4h-17.4h-2v2v11.3h-3.6V16.2h23c0.8,0,1.5-0.3,2-0.8c0.5-0.5,0.8-1.2,0.8-1.9V9.3
						c0-1.6-1.2-2.7-2.8-2.7h-23V3H366.3 M366.3,1h-25.8v7.6h25c0.5,0,0.8,0.2,0.8,0.7v4.2c0,0.2-0.1,0.4-0.2,0.5
						c-0.1,0.1-0.3,0.2-0.6,0.2h-25v20.9h7.6V21.8h17.4c0.4,0,0.7,0.3,0.8,0.8l1.9,12.5h7.6l-1.9-13.3c-0.1-0.9-0.3-1.7-0.4-2.1
						c-0.2-0.8-0.6-1.3-1-1.7c0.4-0.4,0.8-0.9,1-1.6c0.2-0.7,0.4-1.4,0.4-2.2V8.6c0-2.1-0.7-3.9-2.2-5.4C370.1,1.7,368.4,1,366.3,1
						L366.3,1z"/>
				</g>
				<g>
					<path class="st0" d="M402.1,3c2.8,0,4.7,1.3,5.9,4.1c1,2.4,1.6,6.1,1.6,10.9c0,4.7-0.6,8.4-1.7,10.9c-1.3,2.8-3.1,4.1-5.7,4.1
						h-15.2c-2.7,0-4.5-1.3-5.7-4.1c-1.1-2.6-1.7-6.2-1.7-10.9c0-3.1,0.2-5.7,0.6-7.8c0.5-2.4,1.2-4.2,2.3-5.4
						c1.1-1.2,2.6-1.9,4.5-1.9H402.1 M387.7,29.5h13.6c1.1,0,3.1-0.5,3.9-4c0.4-1.8,0.6-4.3,0.6-7.5c0-3.3-0.2-5.7-0.6-7.5
						c-0.8-3.4-2.8-4-3.9-4h-13.6c-0.9,0-3.2,0.4-4,3.9c-0.4,1.7-0.5,4.2-0.5,7.6c0,3.2,0.2,5.7,0.6,7.5
						C384.6,29,386.6,29.5,387.7,29.5 M402.1,1h-15.2c-2.5,0-4.5,0.8-6,2.5c-1.3,1.4-2.2,3.5-2.8,6.3c-0.4,2.2-0.7,4.9-0.7,8.2
						c0,5,0.6,8.9,1.9,11.7c1.6,3.5,4.1,5.3,7.6,5.3h15.2c3.5,0,6-1.8,7.6-5.3c1.3-2.8,1.9-6.8,1.9-11.7c0-5.1-0.6-9-1.7-11.7
						C408.3,2.8,405.7,1,402.1,1L402.1,1z M387.7,27.5c-0.9,0-1.5-0.8-1.9-2.5c-0.4-1.6-0.6-4-0.6-7c0-3.2,0.2-5.6,0.5-7.1
						c0.3-1.6,1-2.3,2-2.3h13.6c0.9,0,1.6,0.8,1.9,2.4c0.4,1.6,0.6,4,0.6,7.1c0,3-0.2,5.4-0.6,7c-0.4,1.7-1,2.5-1.9,2.5H387.7
						L387.7,27.5z"/>
				</g>
			</g>
		</g>
	</g>
</g>
</svg>
