<svg xmlns="http://www.w3.org/2000/svg" xmlns:xlink="http://www.w3.org/1999/xlink" width="58.266" height="80.574" viewBox="0 0 58.266 80.574">
  <defs>
    <clipPath id="clip-path">
      <rect id="Rectangle_692" data-name="Rectangle 692" width="49.482" height="75.103" fill="#11df71"/>
    </clipPath>
  </defs>
  <g id="Groupe_1344" data-name="Groupe 1344" transform="translate(9.153) rotate(7)">
    <g id="Groupe_1343" data-name="Groupe 1343" clip-path="url(#clip-path)">
      <path id="Tracé_5645" data-name="Tracé 5645" d="M11.155,28.328a4.353,4.353,0,0,1-.625.61l.677-.523a4.649,4.649,0,0,1-.994.583l.8-.337a5.31,5.31,0,0,1-1.265.347l.889-.119a5.835,5.835,0,0,1-1.552,0l.889.119a5.78,5.78,0,0,1-1.358-.37l.8.337a6.027,6.027,0,0,1-1.273-.748l.677.523a7.179,7.179,0,0,1-1.24-1.242l.523.677A8.667,8.667,0,0,1,7.006,26.3l.337.8a10.152,10.152,0,0,1-.674-2.5l.119.889A12.151,12.151,0,0,1,6.8,22.3l-.119.889a14.374,14.374,0,0,1,.976-3.537l-.337.8a16.741,16.741,0,0,1,2.159-3.668l-.523.677a23.522,23.522,0,0,1,4.195-4.123l-.677.523a36.487,36.487,0,0,1,8.062-4.678l-.8.337a37.95,37.95,0,0,1,9.618-2.633l-.889.119a30.673,30.673,0,0,1,8.043-.1l-.889-.119A19.476,19.476,0,0,1,40.551,8.1l-.8-.337a11.273,11.273,0,0,1,2.4,1.354l-.677-.523a7.074,7.074,0,0,1,1.273,1.251l-.523-.677a5.48,5.48,0,0,1,.653,1.11l-.337-.8a5.212,5.212,0,0,1,.355,1.306l-.119-.889a5.706,5.706,0,0,1-.011,1.413l.119-.889a7.637,7.637,0,0,1-.54,1.888l.337-.8a12.863,12.863,0,0,1-1.628,2.7l.523-.677a33.55,33.55,0,0,1-3.646,3.847c-1.272,1.193-2.6,2.331-3.948,3.432q-1.143.931-2.312,1.831l.677-.523C27.7,25.7,22.859,29.022,18.388,32.823a56.8,56.8,0,0,0-5.977,5.808,29.834,29.834,0,0,0-5.157,7.7,22.842,22.842,0,0,0-1.1,2.969,18.955,18.955,0,0,0-.541,3.1,11.16,11.16,0,0,0,0,2.3,13.9,13.9,0,0,0,.633,3.161,3.565,3.565,0,0,0,1.537,2,3.344,3.344,0,0,0,4.575-1.2,3.326,3.326,0,0,0,.337-2.577,10.279,10.279,0,0,1-.483-2.017l.119.889a11.521,11.521,0,0,1,.024-2.985l-.119.889a15.688,15.688,0,0,1,1.1-3.873l-.337.8a24.079,24.079,0,0,1,3.123-5.238l-.523.677a54.425,54.425,0,0,1,8.581-8.563q1.336-1.1,2.707-2.153l-.677.523c2.682-2.07,5.433-4.049,8.134-6.094a101.508,101.508,0,0,0,8.411-6.929,33.564,33.564,0,0,0,3.5-3.687,17.794,17.794,0,0,0,1.925-2.844A11.056,11.056,0,0,0,49.3,12.4a9.189,9.189,0,0,0-.089-4.06,8.938,8.938,0,0,0-1.888-3.419,6.7,6.7,0,0,0-.834-.831,15.242,15.242,0,0,0-1.575-1.181,17.041,17.041,0,0,0-2.988-1.429A23.158,23.158,0,0,0,35.641.12a30.052,30.052,0,0,0-5.6.023A40.529,40.529,0,0,0,18.649,2.788a43.43,43.43,0,0,0-5.63,2.68A39.553,39.553,0,0,0,8,8.944a22.865,22.865,0,0,0-3.691,3.684A23.186,23.186,0,0,0,2.38,15.384a20.434,20.434,0,0,0-1.442,3.18A13.919,13.919,0,0,0,.27,21.143a16.421,16.421,0,0,0-.255,3.439A13.374,13.374,0,0,0,1.8,30.8a14.038,14.038,0,0,0,1.147,1.567,6.959,6.959,0,0,0,.831.863,11.312,11.312,0,0,0,1.548,1.16,10.037,10.037,0,0,0,1.717.782,5.525,5.525,0,0,0,1.041.272,10.766,10.766,0,0,0,1.888.19,10.218,10.218,0,0,0,1.914-.236,8.919,8.919,0,0,0,1.735-.635,4.543,4.543,0,0,0,.875-.5,7.777,7.777,0,0,0,1.388-1.2,2.507,2.507,0,0,0,.691-1.076,2.518,2.518,0,0,0,.288-1.288,3.4,3.4,0,0,0-.979-2.364,3.364,3.364,0,0,0-2.364-.979,3.283,3.283,0,0,0-2.364.979" transform="translate(0 0)" fill="#11df71"/>
      <path id="Tracé_5646" data-name="Tracé 5646" d="M46.425,693.856a4.685,4.685,0,0,1,.373-.569l-.174.225a6.026,6.026,0,0,1,1.069-1.05l-.226.174a11.342,11.342,0,0,1,1.233-.815,12.489,12.489,0,0,1,1.312-.7l-.266.112a2.081,2.081,0,0,1,.5-.146l-.3.04a1.164,1.164,0,0,1,.277,0l-.3-.04a.9.9,0,0,1,.2.053l-.266-.112a.892.892,0,0,1,.151.088l-.226-.174a.887.887,0,0,1,.144.145l-.174-.226a1.209,1.209,0,0,1,.134.239l-.112-.266a3.817,3.817,0,0,1,.209.912l-.04-.3a6.513,6.513,0,0,1,0,1.679l.04-.3a7.108,7.108,0,0,1-.5,1.81l.112-.266a7.261,7.261,0,0,1-.915,1.568l.174-.226a6.836,6.836,0,0,1-1.207,1.215l.226-.174a6.25,6.25,0,0,1-1.38.808l.266-.112a4.855,4.855,0,0,1-1.207.337l.3-.04a3.484,3.484,0,0,1-.868,0l.3.04a2.751,2.751,0,0,1-.686-.186l.266.112a2.656,2.656,0,0,1-.552-.323l.226.174a2.391,2.391,0,0,1-.4-.4l.174.225a2.07,2.07,0,0,1-.266-.454l.112.266a1.956,1.956,0,0,1-.12-.45l.04.3a2.423,2.423,0,0,1,0-.587l-.04.3a4.171,4.171,0,0,1,.308-1.058l-.112.266a6.537,6.537,0,0,1,.828-1.4l-.174.225a8.6,8.6,0,0,1,1.532-1.512l-.226.174a8.045,8.045,0,0,1,1.7-1.047l-.266.112a3.951,3.951,0,0,1,1-.286l-.3.04a2.494,2.494,0,0,1,.612,0l-.3-.04a1.92,1.92,0,0,1,.449.118l-.266-.112a1.769,1.769,0,0,1,.382.221l-.226-.174a1.682,1.682,0,0,1,.285.288l-.174-.226a1.832,1.832,0,0,1,.215.374l-.112-.266a2.169,2.169,0,0,1,.139.515l-.04-.3a2.541,2.541,0,0,1,0,.642l.04-.3a2.624,2.624,0,0,1-.175.653l.112-.266a3.329,3.329,0,0,1-.412.695l.174-.226a5.583,5.583,0,0,1-1,.974l.226-.174a7.045,7.045,0,0,1-1.5.952l.266-.112a2.471,2.471,0,0,1-.577.162l.3-.04a1.734,1.734,0,0,1-.422,0l.3.04a1.7,1.7,0,0,1-.4-.105l.266.112a1.468,1.468,0,0,1-.3-.169l.226.174a1.219,1.219,0,0,1-.217-.216l.174.226a1.121,1.121,0,0,1-.123-.214l.112.266a1.232,1.232,0,0,1-.072-.265l.04.3a1.812,1.812,0,0,1,0-.449l-.04.3a7.338,7.338,0,0,1,.183-.83,5.986,5.986,0,0,1,.25-.776l-.112.266a2.961,2.961,0,0,1,.358-.633l-.174.226a1.969,1.969,0,0,1,.339-.341l-.226.174a1.921,1.921,0,0,1,.41-.238l-.266.112a1.658,1.658,0,0,1,.383-.1l-.3.04a1.382,1.382,0,0,1,.324,0l-.3-.04a1.224,1.224,0,0,1,.282.075l-.266-.112a1.265,1.265,0,0,1,.262.153l-.226-.174a1.321,1.321,0,0,1,.221.225l-.174-.226a1.66,1.66,0,0,1,.187.328l-.112-.266a2.729,2.729,0,0,1,.175.688l-.04-.3a5.975,5.975,0,0,1,.038.856,1.115,1.115,0,0,0,1.115,1.115,1.127,1.127,0,0,0,.788-.327,1.175,1.175,0,0,0,.326-.788,3.856,3.856,0,0,0-.8-2.749,2.235,2.235,0,0,0-1.674-.7,2.571,2.571,0,0,0-.943.211,3.121,3.121,0,0,0-.822.511,3.6,3.6,0,0,0-.959,1.5,7.741,7.741,0,0,0-.37,1.328,3.282,3.282,0,0,0-.059,1.1,2.222,2.222,0,0,0,.2.68,2.071,2.071,0,0,0,.3.439,1.317,1.317,0,0,0,.181.187,2.593,2.593,0,0,0,.433.312,2.459,2.459,0,0,0,.764.274,3.6,3.6,0,0,0,.52.057,3.439,3.439,0,0,0,.586-.064,3.584,3.584,0,0,0,.894-.314,7.023,7.023,0,0,0,1.177-.742,8.18,8.18,0,0,0,1.2-1.022,5.822,5.822,0,0,0,.548-.7,4.256,4.256,0,0,0,.405-.808,3.3,3.3,0,0,0,.22-1.37,3.15,3.15,0,0,0-.454-1.541,2.6,2.6,0,0,0-.506-.6,3.106,3.106,0,0,0-.96-.552,3.338,3.338,0,0,0-1.7-.074,5.227,5.227,0,0,0-1.429.505,8.061,8.061,0,0,0-1.069.652,9.8,9.8,0,0,0-2.071,1.888,8.156,8.156,0,0,0-.848,1.255,6.128,6.128,0,0,0-.583,1.495A3.283,3.283,0,0,0,42,697.786a3.158,3.158,0,0,0,.947,1.348,3.738,3.738,0,0,0,1.489.761,4.676,4.676,0,0,0,1.941.006,6.243,6.243,0,0,0,1.556-.553,6.124,6.124,0,0,0,.968-.589,8.217,8.217,0,0,0,1.05-.9,8.747,8.747,0,0,0,.871-1.08A8.133,8.133,0,0,0,51.9,694.5a8.582,8.582,0,0,0,.272-1.373,6.6,6.6,0,0,0,.051-1.13,7.725,7.725,0,0,0-.185-1.388,2.649,2.649,0,0,0-.31-.8,1.956,1.956,0,0,0-1.04-.827,2.609,2.609,0,0,0-1.97.3c-.383.187-.756.4-1.124.615a9.7,9.7,0,0,0-2.22,1.67,5.939,5.939,0,0,0-.871,1.173,1.164,1.164,0,0,0-.112.859,1.137,1.137,0,0,0,.512.666,1.125,1.125,0,0,0,.859.112,1.144,1.144,0,0,0,.666-.512" transform="translate(-37.94 -624.897)" fill="#11df71"/>
    </g>
  </g>
</svg>
