<?xml version="1.0" encoding="utf-8"?>
<!-- Generator: Adobe Illustrator 25.2.0, SVG Export Plug-In . SVG Version: 6.00 Build 0)  -->
<svg version="1.1" id="Calque_1" xmlns="http://www.w3.org/2000/svg" xmlns:xlink="http://www.w3.org/1999/xlink" x="0px" y="0px"
	 viewBox="0 0 37.4 36.1" style="enable-background:new 0 0 37.4 36.1;" xml:space="preserve">
<style type="text/css">
	.st0{fill:#020203;}
</style>
<g>
	<g>
		<path class="st0" d="M26.8,18C26.8,18,26.8,18,26.8,18c0.1-0.1,0.2-0.2,0.3-0.3c0,0,0,0,0,0c0.1-0.1,0.2-0.1,0.3-0.1
			c0.3-0.1,0.5-0.1,0.8,0v-1.2c0-1.1-0.9-1.9-1.9-1.9H26c-0.6,0-1,0.4-1,1c0,0.4,1,1.9,1.6,2.7C26.7,18.2,26.7,18.1,26.8,18z"/>
		<path class="st0" d="M27.6,20.6L27.6,20.6c-0.1,0-0.1,0-0.1,0c-0.1,0-0.1,0-0.2-0.1c-0.1,0-0.1-0.1-0.2-0.1
			c-0.1-0.1-0.2-0.2-0.3-0.3c-0.1-0.1-0.2-0.3-0.3-0.4c0-0.1-0.1-0.1-0.1-0.2l-1,0.6c-0.9,0.5-1.2,1.7-0.7,2.6l0.1,0.2
			c0.3,0.5,0.9,0.7,1.4,0.4c0.4-0.2,1.1-1.9,1.5-2.8c0,0,0,0-0.1,0C27.7,20.7,27.6,20.6,27.6,20.6z"/>
		<path class="st0" d="M27.8,20.7L27.8,20.7C27.9,20.7,27.8,20.7,27.8,20.7C27.8,20.6,27.8,20.6,27.8,20.7z"/>
		<path class="st0" d="M29.3,18.4c0,0,0,0.1,0.1,0.1c0,0.1,0.1,0.1,0.1,0.2c0,0,0,0.1,0,0.1c0.1,0.3,0.1,0.6-0.1,0.9
			c0,0.1,0,0.1-0.1,0.1c0,0,0,0.1,0,0.1v0c0,0,0,0-0.1,0.1c0,0.1-0.1,0.1-0.1,0.2l1,0.6c0.9,0.5,2.1,0.2,2.7-0.7l0.1-0.2
			c0.3-0.5,0.2-1.1-0.4-1.4C32.1,18.2,30.3,18.3,29.3,18.4z"/>
		<path class="st0" d="M28.5,18.1c-0.1-0.1-0.2-0.1-0.3-0.1c-0.5-0.1-1,0.1-1.3,0.6c0,0,0,0,0,0.1c-0.2,0.3-0.2,0.6-0.1,0.8
			c0.1,0.3,0.3,0.5,0.5,0.7c0.2,0.1,0.4,0.2,0.6,0.2c0.3,0,0.6-0.1,0.8-0.3c0.1-0.1,0.1-0.2,0.2-0.2c0.2-0.4,0.2-0.9,0-1.2
			C28.8,18.3,28.7,18.2,28.5,18.1z"/>
		<path class="st0" d="M12.2,18C12.2,18,12.2,18,12.2,18c0.1-0.1,0.2-0.2,0.3-0.3c0,0,0,0,0,0c0.1-0.1,0.2-0.1,0.3-0.1
			c0.3-0.1,0.5-0.1,0.8,0v-1.2c0-1.1-0.9-1.9-1.9-1.9h-0.3c-0.6,0-1,0.4-1,1c0,0.4,1,1.9,1.6,2.7C12,18.2,12.1,18.1,12.2,18z"/>
		<path class="st0" d="M12.9,20.6L12.9,20.6c-0.1,0-0.1,0-0.1,0c-0.1,0-0.1,0-0.2-0.1c-0.1,0-0.1-0.1-0.2-0.1
			c-0.1-0.1-0.2-0.2-0.3-0.3c-0.1-0.1-0.2-0.3-0.3-0.4c0-0.1-0.1-0.1-0.1-0.2l-1,0.6c-0.9,0.5-1.2,1.7-0.7,2.6l0.1,0.2
			c0.3,0.5,0.9,0.7,1.4,0.4c0.4-0.2,1.1-1.9,1.5-2.8c0,0,0,0-0.1,0C13,20.7,13,20.6,12.9,20.6z"/>
		<path class="st0" d="M14.7,18.4c0,0,0,0.1,0.1,0.1c0,0.1,0.1,0.1,0.1,0.2c0,0,0,0.1,0,0.1c0.1,0.3,0.1,0.6-0.1,0.9
			c0,0.1,0,0.1-0.1,0.1c0,0,0,0.1,0,0.1v0c0,0,0,0-0.1,0.1c0,0.1-0.1,0.1-0.1,0.2l1,0.6c0.9,0.5,2.1,0.2,2.7-0.7l0.1-0.2
			c0.3-0.5,0.2-1.1-0.4-1.4C17.5,18.2,15.7,18.3,14.7,18.4z"/>
		<path class="st0" d="M13.8,18.1c-0.1-0.1-0.2-0.1-0.3-0.1c-0.5-0.1-1,0.1-1.3,0.6c0,0,0,0,0,0.1c-0.2,0.3-0.2,0.6-0.1,0.8
			c0.1,0.3,0.3,0.5,0.5,0.7c0.2,0.1,0.4,0.2,0.6,0.2c0.3,0,0.6-0.1,0.8-0.3c0.1-0.1,0.1-0.2,0.2-0.2c0.2-0.4,0.2-0.9,0-1.2
			C14.1,18.3,14,18.2,13.8,18.1z"/>
	</g>
	<path class="st0" d="M32.8,9.5H5.4V6H0.2v1.8h3.8v7H2.6v1.8h1.4v3.3H2.6v3.9h1.4v6.7h1.3v-2h3.3v2h14.1v-2H26v2h5.6v-2h1.2
		c1.7-1.7,2.7-2.7,4.4-4.4V13.9C35.5,12.2,34.5,11.2,32.8,9.5z M13.1,24.7c-3.1,0-5.6-2.5-5.6-5.6c0-3.2,2.7-5.7,5.9-5.6
		c2.9,0.1,5.2,2.5,5.3,5.4C18.8,22.1,16.3,24.7,13.1,24.7z M28.2,24.7c-0.3,0-0.5,0-0.7,0c-2.8-0.2-5.1-2.6-5.1-5.5
		c0-2.9,2.2-5.3,5.1-5.5c0.2,0,0.3,0,0.5,0c3.1,0,5.6,2.6,5.6,5.7C33.4,22.1,31,24.5,28.2,24.7z"/>
</g>
</svg>
