<svg id="Calque_1" data-name="Calque 1" xmlns="http://www.w3.org/2000/svg" viewBox="0 0 54 54"><polygon points="20.962 47.1 33.036 47.1 31.104 53.916 22.466 53.916 20.962 47.1"/><polygon points="33.931 46.81 43.699 39.713 46.143 46.363 39.154 51.44 33.931 46.81"/><polygon points="44.251 38.953 47.982 27.47 53.868 31.414 51.199 39.629 44.251 38.953"/><polygon points="47.982 26.53 44.251 15.047 51.331 14.778 54 22.994 47.982 26.53"/><polygon points="43.699 14.287 33.931 7.19 39.5 2.811 46.488 7.889 43.699 14.287"/><polygon points="33.037 6.9 20.963 6.9 22.895 0.083 31.533 0.083 33.037 6.9"/><polygon points="20.07 7.19 10.301 14.287 7.858 7.637 14.846 2.56 20.07 7.19"/><polygon points="9.749 15.047 6.018 26.53 0.132 22.586 2.802 14.371 9.749 15.047"/><polygon points="6.018 27.47 9.749 38.953 2.669 39.222 0 31.007 6.018 27.47"/><polygon points="10.301 39.713 20.069 46.81 14.499 51.19 7.511 46.112 10.301 39.713"/><path d="M21.30506,21.55317A2.42434,2.42434,0,0,0,23.121,20.83a2.57338,2.57338,0,0,0,.70324-1.87067,2.44353,2.44353,0,0,0-2.51922-2.5581,2.34875,2.34875,0,0,0-1.76111.70526,2.53785,2.53785,0,0,0-.68537,1.85284A2.60689,2.60689,0,0,0,19.544,20.83,2.31874,2.31874,0,0,0,21.30506,21.55317Z"/><path d="M31.64386,32.48468a2.40595,2.40595,0,0,0-1.77807.70526,2.45068,2.45068,0,0,0-.70429,1.815,2.56736,2.56736,0,0,0,.70429,1.87268,2.38057,2.38057,0,0,0,1.77807.72125,2.42885,2.42885,0,0,0,1.816-.72125,2.57131,2.57131,0,0,0,.70422-1.87268,2.42192,2.42192,0,0,0-.72216-1.815A2.47411,2.47411,0,0,0,31.64386,32.48468Z"/><path d="M26.49329,4.42414A22.57538,22.57538,0,1,0,49.06867,26.99952,22.6001,22.6001,0,0,0,26.49329,4.42414ZM16.78363,16.32752a5.43888,5.43888,0,0,1,1.88965-1.85285,5.052,5.052,0,0,1,2.63178-.70526,5.12161,5.12161,0,0,1,2.66766.70526,5.45,5.45,0,0,1,1.89062,1.85285,4.948,4.948,0,0,1,.70325,2.63177,5.06156,5.06156,0,0,1-.70325,2.62976,5.32284,5.32284,0,0,1-1.89062,1.89063,5.2943,5.2943,0,0,1-5.28052,0,5.27078,5.27078,0,0,1-1.90857-1.89063,5.044,5.044,0,0,1-.70422-2.62976A4.93118,4.93118,0,0,1,16.78363,16.32752ZM16.56153,39.86,33.05237,14.14H36.4253L19.93341,39.86Zm19.64062-2.20545a5.38363,5.38363,0,0,1-1.88965,1.87275,5.13968,5.13968,0,0,1-2.66864.70324,5.065,5.065,0,0,1-2.63073-.70324,5.36651,5.36651,0,0,1-1.88965-1.87275,5.01841,5.01841,0,0,1-.70429-2.64965,4.94983,4.94983,0,0,1,.70429-2.61188,5.36681,5.36681,0,0,1,1.88965-1.87268,5.065,5.065,0,0,1,2.63073-.70331,5.1643,5.1643,0,0,1,2.64972.70331A5.33311,5.33311,0,0,1,36.20215,32.393a4.95935,4.95935,0,0,1,.70429,2.61188A5.028,5.028,0,0,1,36.20215,37.65454Z"/></svg>