<?xml version="1.0" encoding="utf-8"?>
<!-- Generator: Adobe Illustrator 25.2.0, SVG Export Plug-In . SVG Version: 6.00 Build 0)  -->
<svg version="1.1" id="Calque_1" xmlns="http://www.w3.org/2000/svg" xmlns:xlink="http://www.w3.org/1999/xlink" x="0px" y="0px"
	 viewBox="0 0 500 500" style="enable-background:new 0 0 500 500;" xml:space="preserve">
<g>
	<path d="M396,217.1c-6-3.1-13.1-4.6-21.3-4.6h-24.9v75.1h24.9c8.2,0,15.3-1.5,21.3-4.7c5.9-3,10.5-7.3,13.8-13
		c3.2-5.6,4.9-12.3,4.9-20c0-7.8-1.7-14.5-4.9-20.1C406.5,224.6,401.9,220.2,396,217.1"/>
	<path d="M435.4,0H64.5C28.9,0,0,28.9,0,64.6v371.1C0,471.1,28.9,500,64.5,500h370.9c35.7,0,64.6-28.9,64.6-64.3V64.6
		C500,28.9,471.1,0,435.4,0 M156.4,298c-4.3,6.4-10.8,11.6-19.1,15.4c-8.4,3.9-18.7,5.8-31.5,5.8c-10.5,0-20.6-1.4-30.3-4.2
		c-9.7-2.8-17.6-6.6-23.6-11.2l-1.5-1.2l0.8-1.8l10.1-22.5l1.2-2.6l2.4,1.7c5.2,3.7,11.6,6.9,19,9.4c7.3,2.4,14.7,3.6,22.2,3.6
		c5.6,0,10.2-0.5,13.5-1.6c3.1-1,5.5-2.4,6.9-4.1c1.4-1.6,2.1-3.5,2.1-5.6c0-2.7-1-4.7-3.1-6.3c-2.5-1.9-5.9-3.4-9.9-4.6
		c-4.5-1.3-9.4-2.5-14.5-3.6c-5.7-1.3-11.1-2.8-16.2-4.4c-5.5-1.8-10.7-4.1-15.2-6.9c-4.8-2.9-8.6-6.8-11.6-11.4
		c-3-4.8-4.5-10.9-4.5-18.2c0-7.8,2.1-15,6.3-21.5c4.2-6.4,10.6-11.7,19.1-15.5c8.2-3.7,18.8-5.6,31.3-5.6c8.2,0,16.4,1,24.5,2.9
		c8.2,2,15.4,5,21.5,8.9l1.7,1l-0.8,1.9l-9.2,22.6l-1,2.5l-2.4-1.4c-5.8-3.3-11.7-5.8-17.4-7.4c-5.8-1.5-11.6-2.4-17.1-2.4
		c-5.4,0-9.9,0.6-13.3,1.9c-3.3,1.2-5.5,2.6-6.8,4.4c-1.3,1.7-1.9,3.7-1.9,6c0,2.5,1,4.6,3,6.1c2.5,1.8,5.9,3.4,9.9,4.5
		c4.7,1.3,9.6,2.5,14.5,3.7c4.9,1.1,10.2,2.5,16.2,4.3c5.5,1.6,10.6,3.9,15.2,6.7c4.6,2.8,8.5,6.7,11.5,11.5c3,4.8,4.5,10.7,4.5,18
		C162.9,284.5,160.7,291.6,156.4,298 M283.5,298c-4.3,6.3-10.7,11.5-19.1,15.4c-8.3,3.8-18.9,5.8-31.5,5.8
		c-10.4,0-20.6-1.4-30.3-4.2c-9.7-2.9-17.7-6.6-23.7-11.2l-1.5-1.2l0.8-1.8l10.1-22.5l1.2-2.6l2.4,1.7c5.3,3.8,11.7,6.9,19,9.4
		c7.3,2.4,14.7,3.6,22.1,3.6c5.6,0,10.2-0.5,13.6-1.6c3.1-1,5.5-2.4,6.9-4.1c1.3-1.6,2-3.5,2-5.6c0-2.7-1-4.7-3.1-6.3
		c-2.5-1.9-5.9-3.4-9.9-4.6c-4.5-1.3-9.4-2.5-14.5-3.6c-5.5-1.3-10.9-2.7-16.2-4.4c-5.5-1.7-10.6-4-15.1-6.9
		c-4.7-2.9-8.5-6.6-11.6-11.5c-3-4.8-4.5-10.9-4.5-18.2c0-7.8,2.1-15,6.3-21.5c4.3-6.4,10.7-11.6,19.1-15.4
		c8.4-3.8,18.6-5.6,31.3-5.6c8.2,0,16.5,1,24.5,2.9c8.2,2,15.3,4.9,21.6,8.9l1.7,1l-0.8,1.9l-9.2,22.6l-1,2.5l-2.4-1.4
		c-5.8-3.3-11.7-5.8-17.5-7.4c-5.9-1.6-11.5-2.4-17-2.4c-5.5,0-10,0.6-13.4,1.9c-3.2,1.2-5.5,2.7-6.8,4.4c-1.2,1.7-1.9,3.7-1.9,6
		c0,2.6,1,4.6,3.1,6.1c2.5,1.8,5.8,3.4,9.8,4.5c4.7,1.3,9.6,2.5,14.5,3.7c4.9,1.1,10.3,2.5,16.2,4.3c5.5,1.6,10.6,3.9,15.2,6.7
		c4.7,2.9,8.6,6.8,11.5,11.5c3,4.8,4.6,10.8,4.6,18C290,284.4,287.8,291.6,283.5,298 M440.2,285.3c-6.2,10-15,17.9-26,23.4
		c-10.9,5.5-23.8,8.3-38.1,8.3h-60.9V183.2h60.9c14.3,0,27.1,2.8,38.1,8.3c11.1,5.5,19.8,13.3,26,23.2c6.2,9.9,9.4,21.8,9.4,35.3
		C449.6,263.5,446.5,275.4,440.2,285.3"/>
</g>
</svg>
