<?xml version="1.0" encoding="utf-8"?>
<!-- Generator: Adobe Illustrator 25.2.0, SVG Export Plug-In . SVG Version: 6.00 Build 0)  -->
<svg version="1.1" id="Calque_1" xmlns="http://www.w3.org/2000/svg" xmlns:xlink="http://www.w3.org/1999/xlink" x="0px" y="0px"
	 viewBox="0 0 500 500" style="enable-background:new 0 0 500 500;" xml:space="preserve">
<g>
	<path d="M416.4,324.3C410.7,233,321.4,105.2,250,0C180.9,102,94.8,225,84.3,315.7c-0.2,3-0.5,5.7-0.7,8.6c-0.2,3.2-0.2,6.1-0.2,9.1
		C83.4,425.5,158,500,250,500c92,0,166.6-74.5,166.6-166.6C416.6,330.5,416.6,327.5,416.4,324.3 M250,466.4c-6.4,0-11.4-5-11.4-11.4
		c0-6.4,5-11.4,11.4-11.4c3.9,0,8-0.2,11.8-0.5c51.4-5.7,92.5-46.8,98.2-98.2c0.2-3.9,0.5-8,0.5-11.8c0-6.4,5-11.4,11.4-11.4
		c6.1,0,11.4,5,11.4,11.4C383.2,406.6,323.4,466.4,250,466.4"/>
</g>
</svg>
