<?xml version="1.0" encoding="utf-8"?>
<!-- Generator: Adobe Illustrator 25.2.1, SVG Export Plug-In . SVG Version: 6.00 Build 0)  -->
<svg version="1.1" id="Calque_1" xmlns="http://www.w3.org/2000/svg" xmlns:xlink="http://www.w3.org/1999/xlink" x="0px" y="0px"
	 viewBox="0 0 1000 300" style="enable-background:new 0 0 1000 300;" xml:space="preserve">
<style type="text/css">
	.st0{fill:#FFFFFF;}
</style>
<g>
	<path class="st0" d="M598.2,99.1c-6.4-53.7-47.9-76.6-66.9-84.3c-5-2.1-10.2-3.6-15.6-4.5c-74.3-12.3-108.8,47-113.2,55.2
		c-0.3,0.5-0.1,1.2,0.4,1.5l7.5,4.4c0.5,0.3,0.7,0.9,0.4,1.4c-28.6,62.7,10.2,106.1,25.6,120c3.1,2.8,6.6,5.4,10.2,7.6
		c66.3,39.9,118.9-9.1,118.9-9.1C610.8,150.6,598.2,99.1,598.2,99.1L598.2,99.1z M431.7,109.8c-8.2,16.1-6.3,30.8-7,34.6
		c-0.6,3.6-2.8,0.4-3.1,0c0,0,0-0.1-0.1-0.1c-4.6-7.9-3.6-26.2-3.5-27.4c0,0,0-0.1,0-0.1c1.7-9.5,7-23.9,11.5-28.4
		c4.6-4.6,7.8-11.5,25.1-19.9c17.4-8.4,35-7.1,51.6,0c16.6,7.1,29.1,25.3,30.4,32.9c1.2,6.7-3.1,2.1-4,1c-0.1-0.1-0.2-0.2-0.2-0.3
		c-0.2-0.6-1.8-3.3-14-12.9c-14.3-11.1-33.3-14.3-48-10.5C455.8,82.5,439.9,93.7,431.7,109.8z M519.1,148.7
		c-18.4,19.8-36.4,5.4-37.1,4.8c0,0,0,0-0.1,0c-18.1-13.1-8.3-33.3-7.5-34.9c0-0.1,0.1-0.1,0.1-0.2c12.1-15.9,24.6-13.9,31.1-11.3
		c2.7,1.1,5.1,2.8,7.1,4.9c11.9,13.1,3.6,26.4,1,29.9c-0.4,0.5-0.3,1.2,0.2,1.5l5,3.6C519.5,147.4,519.6,148.2,519.1,148.7z
		 M578.7,142.3c0,0-20.1,61.6-85.5,54.9c0,0-43.1-6.3-50.3-51.9c0,0,0-0.1,0-0.1c-0.3-1.1-5.6-23.9,21.1-44.4c0,0,0.1,0,0.1-0.1
		c0.3-0.2,1.5-0.8,1,1.6c-0.6,2.7-8.5,5-11.6,28.2s16.3,36.9,21.4,40.4c5,3.5,36.7,16,60.4-7.1c23.2-22.5,19.8-51.6,19.7-53
		c0,0,0-0.1,0-0.1c0-1.3-1.1-27.7-27.7-49.3c-26.8-21.8-59.7-15.3-60.8-15.1c0,0,0,0-0.1,0c-0.7,0.1-14.1,2.2-34.6,15.6
		c-0.2,0.1-0.5,0.3-0.6,0.5c-0.4,0.6-1.6,1.9-3.8,1s-1.7-1.3,1.1-4.2c2.6-2.7,4.1-4.4,4.3-4.6c0,0,0,0,0.1-0.1
		c1-1.3,37.5-47.9,102-18.4c1.6,0.7,3.1,1.5,4.6,2.5C551.5,46.2,598.9,80.5,578.7,142.3L578.7,142.3z M345.7,233h12
		c0.6,0,1.1,0.5,1.1,1.1v36.3c0,0.1,0,0.2,0,0.3c0.3,1.1,2.5,8.8,10.5,8.8c8.6,0,11.3-7.5,11.3-8.8V234c0-0.6,0.5-1.1,1.1-1.1h10.5
		c0.6,0,1.1,0.5,1.1,1.1v35.9c0,0.5,0,1-0.1,1.5c-0.5,4.1-3.9,19.8-23.7,19.8c-18.5,0-22.6-13.2-23.5-18.2c-0.2-1-0.3-1.9-0.3-3
		L345.7,233L345.7,233z M429.5,260.6c0,0,7-3,7-13.5c0-10.5-12.1-14.1-17.7-14.1h-18.5c-0.6,0-1.1,0.5-1.1,1.1
		c-0.1,8-0.6,57.4,0,57.4h22.5c1,0,2-0.1,3-0.4c4-1.1,14-4.9,14-16C438.6,261.1,429.5,260.6,429.5,260.6L429.5,260.6z M411.4,245
		c0-0.6,0.5-1.1,1.1-1.1c1.4,0,4.1-0.1,6.7-0.1c2.4,0,5.3,2.4,5.3,5.9c0,2.3-1.3,3.7-2.4,4.6c-1.1,0.8-2.4,1.2-3.7,1.2h-5.8
		c-0.6,0-1.1-0.5-1.1-1.1L411.4,245L411.4,245L411.4,245z M419.6,280.4h-7.1c-0.6,0-1.1-0.5-1.1-1.1v-11.6c0-0.6,0.5-1.1,1-1.1
		c1.6-0.1,4.9-0.2,8.1-0.2c2.8,0,6.4,2.8,6.4,7.1c0,2.6-1.5,4.4-2.9,5.5C422.7,280,421.2,280.4,419.6,280.4L419.6,280.4z M444.3,233
		h10.8c0.6,0,1.1,0.5,1.1,1.1v56.1c0,0.6-0.5,1.1-1.1,1.1h-10.8c-0.6,0-1.1-0.5-1.1-1.1v-56.1C443.2,233.5,443.7,233,444.3,233z
		 M459.8,279.5l9-7.1c0.5-0.4,1.3-0.3,1.6,0.3c1.4,2.3,5.1,7.4,10.9,7.4c7.5,0,7-7.5,7-7.5s0.2-3.8-9.7-6.8
		c-9.8-3-16.1-9.3-15.7-16.5c0.5-7.2,5.5-15,12.9-16.3c7.2-1.3,16.3-1.2,23.4,8.6c0.4,0.5,0.2,1.2-0.2,1.5l-7.9,5.7
		c-0.5,0.4-1.3,0.2-1.6-0.3c-1.1-1.9-4-5.7-9.7-5.2c-7.5,0.7-6.1,7-4.1,8.9c1.8,1.8,11.1,5.1,13.3,5.9c0.3,0.1,1.3,0.5,1.6,0.6
		c0,0,0.1,0,0.1,0c2.2,1,9.6,5.4,10,11.4c0.5,7.2,0.7,13.8-10,19.2C479.9,294.6,466,289.6,459.8,279.5L459.8,279.5z M602.9,267.9
		h-23c-0.6,0-1.1,0.5-1.1,1.1v21.2c0,0.6-0.5,1.1-1.1,1.1h-9.8c-0.6,0-1.1-0.5-1.1-1.1v-56c0-0.6,0.5-1.1,1.1-1.1h36.5
		c0.6,0,1.1,0.5,1.1,1.1v10.2c0,0.6-0.5,1.1-1.1,1.1H580c-0.6,0-1.1,0.5-1.1,1.1v10.2c0,0.6,0.5,1.1,1.1,1.1h22.9 M625.6,290.2
		v-43.3c0-0.6-0.5-1.1-1.1-1.1h-13.6c-0.6,0-1.1-0.5-1.1-1.1v-10.5c0-0.6,0.5-1.1,1.1-1.1h42.3c0.6,0,1.1,0.5,1.1,1.1v10.5
		c0,0.6-0.5,1.1-1.1,1.1H640c-0.6,0-1.1,0.5-1.1,1.1v43.3c0,0.6-0.5,1.1-1.1,1.1h-11.1l0,0C626.1,291.3,625.6,290.8,625.6,290.2z
		 M534,231.8c-8,0-15.3,3.1-20.6,8.1c-0.5,0.4-0.5,1.1,0,1.6l0.1,0.1c0.4,0.4,0.4,1.1,0,1.6c-5.3,5.3-8.2,13.1-8.2,21.2
		c0,2.7,0.4,5.3,1.1,7.9c0.3,0.9,0.6,1.7,1,2.6c4.9,9.6,15,16.1,26.6,16.1c16,0,28.2-12.4,29.1-28c0-0.5,0.1-1,0.1-1.5
		C563,245.1,550.5,231.8,534,231.8z M534.7,279.7c-2.1,0.2-4,0.1-6-0.3c-5.6-1.3-10-5.5-11.3-11.1c-0.3-1.3-0.5-2.8-0.5-4.2
		c0-4.8,1.9-9.2,5-12.5c0.4-0.4,0.4-1,0-1.5l-0.3-0.3c-0.4-0.5-0.4-1.2,0.1-1.6c3.1-2.6,6.5-4.3,11-4.3c5.6,0,10.7,1.9,14,6
		c3,3.6,4.6,8.4,4,13.6C550,271.9,543.2,278.8,534.7,279.7L534.7,279.7z M602.9,267.2v-8.6"/>
</g>
</svg>
