<?xml version="1.0" encoding="utf-8"?>
<!-- Generator: Adobe Illustrator 18.1.1, SVG Export Plug-In . SVG Version: 6.00 Build 0)  -->
<svg version="1.1" id="Calque_2" xmlns="http://www.w3.org/2000/svg" xmlns:xlink="http://www.w3.org/1999/xlink" x="0px" y="0px"
	 width="64px" height="64px" viewBox="-388 563.5 64 64" enable-background="new -388 563.5 64 64" xml:space="preserve">
<path fill="#302D31" d="M-378.8,625.2c0,0-5.3,1.4-5.2-7.1s0.3-17.2,0.2-23.8s-0.1-10.6-0.1-16.8s0-12.3,0-12.3s9.1,0.1,14.4-0.1
	s19.6-0.4,23.5-0.1s9.3-1.4,9.7,4.9s-0.1,24.1,0,29.4s0.2,21.3,0.3,22.9s0.2,3.1,0.2,3.1s-14.2,0.1-20.1,0.2s-19.3-0.6-20.3,0
	s5.3,0.4,10.9,0.8s28.6,1.3,30.3,0.2c0.6-1.6,0.7-6.1,0.5-9.8s0-15.1,0-18.1s-0.2-11.4-0.3-13.4s-0.3-9.6,0.1-13.8s2.3-8.4-17.4-8
	s-32.8-0.3-32.9,1.1c-0.1,3.1,0.2,12.7,0,17.3c-0.2,4.6-0.1,16.1,0.2,20.2s-0.2,13-0.2,16.2s1,6,3.3,6.8S-378.8,625.2-378.8,625.2z"
	/>
<path fill="#302D31" d="M-372.8,591.3c0,0-4.5,0.3-5.6,0.2c-1.1,0-0.6-2.2-0.8-3.5c-0.2-1.3-0.7-3.7,3.3-3.5c4,0.2,4.5,0.3,4.5,0.3
	s0.6,0.4,0.7,1c0.1,0.5-0.4,3-0.2,3.9c-0.5,0-0.8,0-0.8-2c0-1.4-0.3-2.2-0.3-2.2s-3,0.2-4.3,0.3c-1.2,0.2-1.8,0.2-1.8,0.2
	s0,1.5,0,2.5s0.1,1.8,0.1,1.8s1.3-0.2,2.7-0.2C-373,590.2-372.6,590.7-372.8,591.3z"/>
<path fill="#302D31" d="M-362.5,591.3c0,0-4.5,0.3-5.6,0.2c-1.1,0-0.6-2.2-0.8-3.5c-0.2-1.3-0.7-3.7,3.3-3.5c4,0.2,4.5,0.3,4.5,0.3
	s0.6,0.4,0.7,1c0.1,0.5-0.4,3-0.2,3.9c-0.5,0-0.8,0-0.8-2c0-1.4-0.3-2.2-0.3-2.2s-3,0.2-4.3,0.3c-1.2,0.2-1.8,0.2-1.8,0.2
	s0,1.5,0,2.5s0.1,1.8,0.1,1.8s1.3-0.2,2.7-0.2C-362.8,590.2-362.3,590.7-362.5,591.3z"/>
<path fill="#302D31" d="M-352.1,591.3c0,0-4.5,0.3-5.6,0.2c-1.1,0-0.6-2.2-0.8-3.5s-0.7-3.7,3.3-3.5c4,0.2,4.5,0.3,4.5,0.3
	s0.6,0.4,0.7,1c0.1,0.5-0.4,3-0.2,3.9c-0.5,0-0.8,0-0.8-2c0-1.4-0.3-2.2-0.3-2.2s-3,0.2-4.3,0.3c-1.2,0.2-1.8,0.2-1.8,0.2
	s0,1.5,0,2.5s0.1,1.8,0.1,1.8s1.3-0.2,2.7-0.2C-352.4,590.2-351.9,590.7-352.1,591.3z"/>
<path fill="#302D31" d="M-341.8,591.3c0,0-4.5,0.3-5.6,0.2c-1.1,0-0.6-2.2-0.8-3.5c-0.2-1.3-0.7-3.7,3.3-3.5c4,0.2,4.5,0.3,4.5,0.3
	s0.6,0.4,0.7,1c0.1,0.5-0.4,3-0.2,3.9c-0.5,0-0.8,0-0.8-2c0-1.4-0.3-2.2-0.3-2.2s-3,0.2-4.3,0.3c-1.2,0.2-1.8,0.2-1.8,0.2
	s0,1.5,0,2.5s0.1,1.8,0.1,1.8s1.3-0.2,2.7-0.2C-342.1,590.2-341.6,590.7-341.8,591.3z"/>
<path fill="#302D31" d="M-372.8,602.6c0,0-4.5,0.3-5.6,0.2c-1.1,0-0.6-2.2-0.8-3.5c-0.2-1.3-0.7-3.7,3.3-3.5c4,0.2,4.5,0.3,4.5,0.3
	s0.6,0.4,0.7,1c0.1,0.5-0.4,3-0.2,3.9c-0.5,0-0.8,0-0.8-2c0-1.4-0.3-2.2-0.3-2.2s-3,0.2-4.3,0.3c-1.2,0.2-1.8,0.2-1.8,0.2
	s0,1.5,0,2.5s0.1,1.8,0.1,1.8s1.3-0.2,2.7-0.2C-373,601.5-372.6,602-372.8,602.6z"/>
<path fill="#302D31" d="M-362.5,602.6c0,0-4.5,0.3-5.6,0.2c-1.1,0-0.6-2.2-0.8-3.5c-0.2-1.3-0.7-3.7,3.3-3.5c4,0.2,4.5,0.3,4.5,0.3
	s0.6,0.4,0.7,1c0.1,0.5-0.4,3-0.2,3.9c-0.5,0-0.8,0-0.8-2c0-1.4-0.3-2.2-0.3-2.2s-3,0.2-4.3,0.3c-1.2,0.2-1.8,0.2-1.8,0.2
	s0,1.5,0,2.5s0.1,1.8,0.1,1.8s1.3-0.2,2.7-0.2C-362.8,601.5-362.3,602-362.5,602.6z"/>
<path fill="#302D31" d="M-352.1,602.6c0,0-4.5,0.3-5.6,0.2c-1.1,0-0.6-2.2-0.8-3.5s-0.7-3.7,3.3-3.5c4,0.2,4.5,0.3,4.5,0.3
	s0.6,0.4,0.7,1c0.1,0.5-0.4,3-0.2,3.9c-0.5,0-0.8,0-0.8-2c0-1.4-0.3-2.2-0.3-2.2s-3,0.2-4.3,0.3c-1.2,0.2-1.8,0.2-1.8,0.2
	s0,1.5,0,2.5s0.1,1.8,0.1,1.8s1.3-0.2,2.7-0.2C-352.4,601.5-351.9,602-352.1,602.6z"/>
<path fill="#302D31" d="M-341.8,602.6c0,0-4.5,0.3-5.6,0.2c-1.1,0-0.6-2.2-0.8-3.5c-0.2-1.3-0.7-3.7,3.3-3.5c4,0.2,4.5,0.3,4.5,0.3
	s0.6,0.4,0.7,1s-0.4,3-0.2,3.9c-0.5,0-0.8,0-0.8-2c0-1.4-0.3-2.2-0.3-2.2s-3,0.2-4.3,0.3c-1.2,0.2-1.8,0.2-1.8,0.2s0,1.5,0,2.5
	s0.1,1.8,0.1,1.8s1.3-0.2,2.7-0.2C-342.1,601.5-341.6,602-341.8,602.6z"/>
<path fill="#302D31" d="M-372.8,611.8c0,0-4.5,0.3-5.6,0.2c-1.1,0-0.6-2.2-0.8-3.5c-0.2-1.3-0.7-3.7,3.3-3.5c4,0.2,4.5,0.3,4.5,0.3
	s0.6,0.4,0.7,1c0.1,0.5-0.4,3-0.2,3.9c-0.5,0-0.8,0-0.8-2c0-1.4-0.3-2.2-0.3-2.2s-3,0.2-4.3,0.3c-1.2,0.2-1.8,0.2-1.8,0.2
	s0,1.5,0,2.5s0.1,1.8,0.1,1.8s1.3-0.2,2.7-0.2C-373,610.7-372.6,611.2-372.8,611.8z"/>
<path fill="#302D31" d="M-362.5,611.8c0,0-4.5,0.3-5.6,0.2c-1.1,0-0.6-2.2-0.8-3.5c-0.2-1.3-0.7-3.7,3.3-3.5c4,0.2,4.5,0.3,4.5,0.3
	s0.6,0.4,0.7,1c0.1,0.5-0.4,3-0.2,3.9c-0.5,0-0.8,0-0.8-2c0-1.4-0.3-2.2-0.3-2.2s-3,0.2-4.3,0.3c-1.2,0.2-1.8,0.2-1.8,0.2
	s0,1.5,0,2.5s0.1,1.8,0.1,1.8s1.3-0.2,2.7-0.2C-362.8,610.7-362.3,611.2-362.5,611.8z"/>
<path fill="#302D31" d="M-352.1,611.8c0,0-4.5,0.3-5.6,0.2c-1.1,0-0.6-2.2-0.8-3.5s-0.7-3.7,3.3-3.5c4,0.2,4.5,0.3,4.5,0.3
	s0.6,0.4,0.7,1c0.1,0.5-0.4,3-0.2,3.9c-0.5,0-0.8,0-0.8-2c0-1.4-0.3-2.2-0.3-2.2s-3,0.2-4.3,0.3c-1.2,0.2-1.8,0.2-1.8,0.2
	s0,1.5,0,2.5s0.1,1.8,0.1,1.8s1.3-0.2,2.7-0.2C-352.4,610.7-351.9,611.2-352.1,611.8z"/>
<path fill="#302D31" d="M-352.1,620.4c0,0-4.5,0.3-5.6,0.2s-0.6-2.2-0.8-3.5s-0.7-3.7,3.3-3.5s4.5,0.3,4.5,0.3s0.6,0.4,0.7,1
	c0.1,0.5-0.4,3-0.2,3.9c-0.5,0-0.8,0-0.8-2c0-1.4-0.3-2.2-0.3-2.2s-3,0.2-4.3,0.3s-1.8,0.2-1.8,0.2s0,1.5,0,2.5s0.1,1.8,0.1,1.8
	s1.3-0.2,2.7-0.2C-352.4,619.3-351.9,619.8-352.1,620.4z"/>
<path fill="#302D31" d="M-360.7,619.2c0,0,0.3-2.9,0.3-3.7c0-0.8-1.6-1.7-1.6-1.7s-8.3,0.2-10,0c-1.7-0.2-3.8,0.7-5.3,0.5s-2,1-2,1
	s-0.4,3.9,0,4.8s1.3,1,2.6,1s5.4-0.5,7.3-0.4c1.9,0,6.6,0.1,6.7-0.3s-3.5-0.9-6.5-0.9s-8.1,0.2-8.7,0c-0.2-2.1,0-4.2,0-4.2
	s4.2-0.3,6.2-0.3c2,0,9-0.3,9.5-0.3c0.5,0,0.7,0.2,0.7,0.2s-0.2,1-0.2,2C-361.5,618-361.8,618.9-360.7,619.2z"/>
<path fill="#302D31" d="M-342.1,620.4c0,0-5.8,0.9-6-0.3c-0.2-1.2-0.3-5.1-0.3-7.3s-0.3-6.5,0.4-7s0.8-0.5,2.7-0.6s4.4-0.4,4.4-0.4
	s1,0.3,1,2c0.1,1.7,0,6.5,0.1,7.8c0.2,1.3,0,4.4-0.5,4.2s-0.5-2.3-0.4-4.5c0.1-2.1-0.3-8.3-0.3-8.3s-3.1,0.5-4,0.4
	c-0.8-0.1-2.3,0.2-2.3,0.2s0.3,3.5,0.3,5.8c0,2.2-0.6,6.3,0.1,6.8C-346.1,619.7-342.2,619.5-342.1,620.4z"/>
<path fill="#302D31" d="M-340.1,579.3c0,0,0.2-6.1,0.2-7c0-0.9,0-0.9,0-0.9s-1.8-1.5-4.8-1.3c-3,0.2-10.1,0.3-14.8,0
	c-4.7-0.3-12.6,0.9-14.7,0.6s-4.1-0.5-4.5,0.8c-0.4,1.3,0.1,5.6-0.3,7.5c0.1,1.2-0.4,2.5,3.3,2.4c3.7,0,11-0.5,14-0.4
	s9.6-0.3,12.3-0.1c2.6,0.2,6.7,0,6.8-0.4c-6.7-0.3-11.1-1-16-0.9c-5,0.1-11.6,0.5-14,0.3s-5.1,0.1-5.1,0.1s0.3-2.5,0.2-4
	s0-4.4,0-4.4s5.6,0.2,7.5,0.1s9-0.5,11.4-0.5c2.4,0,10.8,0.2,12.5,0.1c1.7-0.1,5.2,0.2,5.2,0.2s0,3,0,3.6S-341.2,579.1-340.1,579.3z
	"/>
</svg>
