<?xml version="1.0" encoding="utf-8"?>
<!-- Generator: Adobe Illustrator 18.1.1, SVG Export Plug-In . SVG Version: 6.00 Build 0)  -->
<svg version="1.1" id="Calque_1" xmlns="http://www.w3.org/2000/svg" xmlns:xlink="http://www.w3.org/1999/xlink" x="0px" y="0px"
	 width="80px" height="80px" viewBox="0 0 80 80" enable-background="new 0 0 80 80" xml:space="preserve">
<g>
	<path fill="none" stroke="#666666" stroke-width="1.9208" d="M38.7,2.6c0,0,16.8,0.5,25.5,9.1c8.6,8.6,19.2,23.5,10.1,43.7
		c-9.1,20.2-28.8,22.1-35.5,22.1S3.2,68.9,2.2,40.1C1.3,11.3,19.5,1.2,38.7,2.6z"/>
</g>
<g>
	<g>
		<path fill="none" stroke="#666666" stroke-width="1.9208" d="M38.7,2.6c0,0,16.8,0.5,25.5,9.1c8.6,8.6,19.2,23.5,10.1,43.7
			c-9.1,20.2-28.8,22.1-35.5,22.1S3.2,68.9,2.2,40.1C1.3,11.3,19.5,1.2,38.7,2.6z"/>
	</g>
</g>
<g>
	<path fill="#666666" d="M43,38c0,0-1.2-2.4-3.8-2.4s-3.8,5.2,0.2,5.9c2.5,0.2,3.6-1.1,3.8-2.6c0.4-0.4,1.1,3.2-2.1,3.9
		s-6-1.6-6-3.8s1.7-4.8,4.2-4.6C41.8,34.6,44.2,37.3,43,38z"/>
	<path fill="#666666" d="M28.5,29.2c0,0,1.2-0.3,2.9,1.8s4.4,4.3,4.4,4.3s-0.5,0.8-1.3,0.2s-4.2-3.2-4.6-3.9
		C29.6,30.9,28.3,29.9,28.5,29.2z"/>
	<path fill="#666666" d="M42.2,35c0,0,2.8-3.5,3.6-4.7s1.9-2.5,1.9-2.5l-0.1-1.9c0,0-2.6,2.5-3.4,4.2C43.5,31.9,41.4,34.1,42.2,35z"
		/>
	<path fill="#666666" d="M39.3,43.8c0,0,1.1,0.6,0.6,2.6c-0.5,2-0.4,5.1-0.7,5.6c-0.4,0.6-1.1-1.2-0.8-2.8S38.3,44.2,39.3,43.8z"/>
	<path fill="#666666" d="M35.7,42.2c0,0-5.6,4.1-7.7,6.6c-1.8,1.2-3.9,3.6-4.2,4.1c-0.2,0.8-0.2,1.6-0.2,1.6s2.1-2.8,3.3-3.6
		c1.3-0.9,4.5-3.2,6.2-4.9C34.9,44.2,36,43.5,35.7,42.2z"/>
	<path fill="#666666" d="M43.1,42.7c0,0,5.1,3.1,6.6,3.9c1.5,0.8,3.2,2.3,5.3,2.7c0.9-0.1-0.4-1-2.5-2.3s-4.6-2.8-6-3.6
		C45.2,42.5,44.1,41.8,43.1,42.7z"/>
	<path fill="#666666" d="M19.1,23.3c0,0-0.1,8.1,1.9,8.1s5.3-0.4,6.3-0.4c0.9-0.1,1-2.5,1.2-4.2c0.2-1.6,0.9-5.6-0.2-5.6
		c-1.1-0.1-6,0.2-7.3,0.5c0.4,0.9,5.6-0.1,6.4,0.5s-0.5,7.8-0.5,7.8l-6.1,0.6C20.8,30.5,20,23.2,19.1,23.3z"/>
	<polygon fill="#666666" points="23.9,21.8 23.2,19.9 24,20 24.9,21.7 	"/>
	<path fill="#666666" d="M27.3,15.6c0,0-0.7,5.2-3.6,4.8c-2.9-0.4-4.2-2.9-3.9-5.8s2.2-4.6,4.3-4.3s3.9,2,3.6,4.4
		c-0.3,0-1.4-3.7-3.8-3.6s-3.3,3.1-2.8,4.9c0.5,1.8,1.5,3.5,2.6,3.3c1.1-0.2,2.4-1.2,2.8-2.3C26.7,15.8,27.3,15.6,27.3,15.6z"/>
	<path fill="#666666" d="M47.1,22.7c0,0-0.1,8.1,1.9,8.1s5.3-0.4,6.3-0.4c0.9-0.1,1-2.5,1.2-4.2s0.9-5.6-0.2-5.6
		c-1.1-0.1-6,0.2-7.3,0.5c0.4,0.9,5.6-0.1,6.4,0.5s-0.5,7.8-0.5,7.8L48.8,30C48.8,30,48,22.7,47.1,22.7z"/>
	<polygon fill="#666666" points="51.8,21.3 51.1,19.4 52,19.4 52.8,21.1 	"/>
	<path fill="#666666" d="M55.3,15c0,0-0.7,5.2-3.6,4.8c-2.9-0.4-4.2-2.9-3.9-5.8c0.3-2.9,2.2-4.6,4.3-4.3c2,0.2,3.9,2,3.6,4.4
		c-0.3,0-1.4-3.7-3.8-3.6c-2.4,0.1-3.3,3.1-2.8,4.9s1.5,3.5,2.6,3.3s2.4-1.2,2.8-2.3C54.7,15.2,55.3,15,55.3,15z"/>
	<path fill="#666666" d="M55.7,49.6c0,0-0.1,8.1,1.9,8.1s5.3-0.4,6.3-0.4s1-2.5,1.2-4.2c0.2-1.6,0.9-5.6-0.2-5.6
		c-1.1-0.1-6,0.2-7.3,0.5c0.4,0.9,5.6-0.1,6.4,0.5c0.8,0.5-0.5,7.8-0.5,7.8l-6.1,0.6C57.4,56.8,56.6,49.5,55.7,49.6z"/>
	<path fill="#666666" d="M63.9,41.9c0,0-0.7,5.2-3.6,4.8c-2.9-0.4-4.2-2.9-3.9-5.8c0.3-2.9,2.2-4.6,4.3-4.3s3.9,2,3.6,4.4
		c-0.3,0-1.4-3.7-3.8-3.6c-2.4,0.1-3.3,3.1-2.8,4.9c0.5,1.8,1.5,3.5,2.6,3.3c1.1-0.2,2.4-1.2,2.8-2.3C63.3,42.1,63.9,41.9,63.9,41.9
		z"/>
	<path fill="#666666" d="M15,51.9c0,0-0.1,8.1,1.9,8.1s5.3-0.4,6.3-0.4c0.9-0.1,1-2.5,1.2-4.2c0.2-1.6,0.9-5.6-0.2-5.6
		c-1.1-0.1-6,0.2-7.3,0.5c0.4,0.9,5.6-0.1,6.4,0.5s-0.5,7.8-0.5,7.8l-6.1,0.6C16.7,59.2,15.9,51.9,15,51.9z"/>
	<polygon fill="#666666" points="19.7,50.5 19,48.6 19.9,48.7 20.7,50.4 	"/>
	<path fill="#666666" d="M23.2,44.2c0,0-0.7,5.2-3.6,4.8c-2.9-0.4-4.2-2.9-3.9-5.8c0.3-2.9,2.2-4.6,4.3-4.3s3.9,2,3.6,4.4
		c-0.3,0-1.4-3.7-3.8-3.6c-2.4,0.1-3.3,3.1-2.8,4.9c0.5,1.8,1.5,3.5,2.6,3.3s2.4-1.2,2.8-2.3C22.6,44.4,23.2,44.2,23.2,44.2z"/>
	<path fill="#666666" d="M34,63.9c0,0-0.1,7.1,1.7,7.1c1.7,0,4.7-0.3,5.5-0.4c0.8-0.1,0.9-2.2,1.1-3.7c0.2-1.4,0.8-4.9-0.2-5
		c-1-0.1-5.3,0.2-6.4,0.4c0.3,0.8,4.9-0.1,5.6,0.4c0.7,0.5-0.5,6.8-0.5,6.8l-5.4,0.6C35.5,70.2,34.8,63.8,34,63.9z"/>
	<polygon fill="#666666" points="38.2,62.6 37.6,60.9 38.3,61 39.1,62.5 	"/>
	<path fill="#666666" d="M41.2,57.1c0,0-0.7,4.6-3.2,4.2c-2.5-0.3-3.7-2.6-3.4-5.1s2-4,3.8-3.8c1.8,0.2,3.4,1.8,3.1,3.9
		c-0.3,0-1.3-3.3-3.4-3.2s-2.9,2.7-2.5,4.3c0.4,1.6,1.3,3.1,2.3,2.9s2.1-1,2.4-2S41.2,57.1,41.2,57.1z"/>
</g>
</svg>
