<?xml version="1.0" encoding="utf-8"?>
<!-- Generator: Adobe Illustrator 18.1.1, SVG Export Plug-In . SVG Version: 6.00 Build 0)  -->
<svg version="1.1" id="Calque_1" xmlns="http://www.w3.org/2000/svg" xmlns:xlink="http://www.w3.org/1999/xlink" x="0px" y="0px"
	 width="80px" height="80px" viewBox="0 0 80 80" enable-background="new 0 0 80 80" xml:space="preserve">
<g>
	<path fill="none" stroke="#666666" stroke-width="1.9208" d="M38.7,2.6c0,0,16.8,0.5,25.5,9.1c8.6,8.6,19.2,23.5,10.1,43.7
		c-9.1,20.2-28.8,22.1-35.5,22.1S3.2,68.9,2.2,40.1C1.3,11.3,19.5,1.2,38.7,2.6z"/>
</g>
<g>
	<g>
		<path fill="none" stroke="#666666" stroke-width="1.9208" d="M38.7,2.6c0,0,16.8,0.5,25.5,9.1c8.6,8.6,19.2,23.5,10.1,43.7
			c-9.1,20.2-28.8,22.1-35.5,22.1S3.2,68.9,2.2,40.1C1.3,11.3,19.5,1.2,38.7,2.6z"/>
	</g>
</g>
<g>
	<path fill="#666666" d="M28.3,44.4c0,0,2.2,15.6,2.3,18.3c0.5,1.8,0.4,1.8,6.2,1.7s12.1,0.2,12.5-0.5s0.4-6.2,0.9-9.9
		s2.8-12.4,1.3-12.9s-9.6-0.8-13.1-0.1s-8.4,1.2-8.2,1.9s6.1-0.9,10.4-0.9s10,0.6,10,0.6s-1.1,6.2-1.6,10.4s-0.5,10.2-0.5,10.2
		s-6.5,0.4-9,0.4s-8,0.1-8,0.1s-0.9-7.4-1.3-10.4S29.4,44.8,28.3,44.4z"/>
	<path fill="#666666" d="M39.1,41.3c0,0-0.3-3.5-0.5-4.2c0.8-0.2,1.1,0.2,1.1,0.2s0.7,3.2,0.6,3.5C40.2,41.2,39.1,41.3,39.1,41.3z"
		/>
	<path fill="#666666" d="M39.1,37.6c0,0-6.1-0.8-8.1-7.1s0.4-12.2,1.8-13.7c1.5-1.5,4.1-3.8,7.7-2.9s6.8,2.5,7.8,7.8
		c0.5,3.5,0,4.3-0.6,1.2S47,18,43.9,16.3s-6.8-2.1-8.6-0.3c-1.8,1.8-4.3,4-4,9.7s3.3,9.1,6.5,10.3c1.9,0.5,4.8-0.4,6.3-2.2
		c1.4-1.8,2.8-3.7,3.8-7.9c0.4,0.3,0.1,4.2-1.5,6.8S42.5,37.3,39.1,37.6z"/>
	<path fill="#666666" d="M59,37.8c0,0-4.6-0.6-6.2-5.3c-1.5-4.7,0.3-9.2,1.4-10.3s3.1-2.9,5.9-2.2c2.7,0.7,5.2,1.9,6,5.9
		c0.4,2.6,0,3.2-0.5,0.9c-0.5-2.3-0.6-3.7-2.9-5c-2.4-1.3-5.2-1.6-6.6-0.2s-3.2,3-3.1,7.3c0.2,4.2,2.5,6.8,5,7.8
		c1.4,0.4,3.7-0.3,4.8-1.7c1.1-1.4,2.1-2.8,2.9-5.9c0.3,0.2,0.1,3.1-1.1,5.1C63.3,36.1,61.6,37.5,59,37.8z"/>
	<path fill="#666666" d="M19.3,37.7c0,0-4.6-0.6-6.2-5.3s0.3-9.2,1.4-10.3s3.1-2.9,5.9-2.2s5.2,1.9,6,5.9c0.4,2.6,0,3.2-0.5,0.9
		c-0.5-2.3-0.6-3.7-2.9-5s-5.2-1.6-6.6-0.2c-1.4,1.4-3.2,3-3.1,7.3s2.5,6.8,5,7.8c1.4,0.4,3.7-0.3,4.8-1.7c1.1-1.4,2.1-2.8,2.9-5.9
		c0.3,0.2,0.1,3.1-1.1,5.1C23.6,36,21.9,37.5,19.3,37.7z"/>
	<path fill="#666666" d="M36.4,23.5c0,0,0.3,2.2,0.9,2.1s0.5-2,0.2-2.1C37.2,23.5,36.4,23.5,36.4,23.5z"/>
	<path fill="#666666" d="M41.6,23.5c0,0,0.5,2,1.2,2c0.8,0,0.3-2-0.3-2.1C42,23.3,41.6,23.5,41.6,23.5z"/>
	<path fill="#666666" d="M37.4,31c0,0,0.1,1.8,2.3,0.9c2.2-1,2.8-0.9,2.5-2C40.8,30,38.8,31.2,37.4,31z"/>
	<path fill="#666666" d="M56.8,27.2l1,0.1c0,0,0.9,1.6,0.2,1.6C57.3,28.9,56.9,28.3,56.8,27.2z"/>
	<path fill="#666666" d="M60.9,27.2l1,0.1c0,0,0.4,1.5,0,1.5S61.1,28.8,60.9,27.2z"/>
	<path fill="#666666" d="M57.7,33c0,0-0.2,1.5,1.3,0.8s2.3-0.9,2.3-1.3c0-0.4-1.3-0.3-2,0S57.7,33,57.7,33z"/>
	<path fill="#666666" d="M17,27.2c0,0,0.3,1.6,1,1.6c0.4,0,0.3-1.6-0.4-1.6C17,27.2,17,27.2,17,27.2z"/>
	<path fill="#666666" d="M21,27.2c0,0,0.5,1.6,1.2,1.5s-0.1-1.5-0.1-1.5L21,27.2z"/>
	<path fill="#666666" d="M18,33c0,0,0,1.2,1.5,0.8c1.5-0.5,2.2-1,2.1-1.5c-0.1-0.5-1.4,0.3-1.8,0.4C19.5,32.8,18,33,18,33z"/>
	<path fill="#666666" d="M18.5,37.3c0,0,0.7,2.8,1.1,3.3c0.7-0.1,0.9-0.2,0.9-0.2s-0.5-2.9-0.8-3.1C19.5,37.2,18.5,37.3,18.5,37.3z"
		/>
	<path fill="#666666" d="M13.3,41.9c0,0,6-0.6,8.6-0.5s6,0.3,6,0.3s-1.3,7.8-1.3,11.9s-0.3,3.7-0.3,3.7s-7.1,0.6-9.2,0.5
		s-3.4-0.1-3.4-0.1s-0.8-5.9-1.2-7.3c-0.5-1.4-0.3-5.8-0.9-6.7c-0.4-0.2-0.4,0.3-0.4,0.3s0.2,4.1,0.7,6.9c0.5,2.8,0.8,6.8,0.8,6.8
		s1.1,1.4,2.7,1.4s1.5-0.4,3.5-0.3c2,0.1,5.9-0.3,6.8-0.4c0.9,0.3,1.6-0.3,1.8-0.9s0.6-6,0.8-8c0.2-2,0.7-6.9,1-7.9
		c0.1-0.7-1-1.3-3.3-1.3s-8.1,0.4-10,0.9S12.7,41.5,13.3,41.9z"/>
	<path fill="#666666" d="M58,37.3c0,0,0.6,3,1,3.4c0.5,0.4,0.9-0.2,0.9-0.2s-0.2-2.7-0.6-3.1C58.9,36.9,58,37.3,58,37.3z"/>
	<path fill="#666666" d="M53,42c0,0,4.4-0.5,6.8-0.5c2.4,0,7.7,0.2,7.7,0.2s-1,7.2-1.3,10.5c-0.3,3.3-0.2,5.1-0.6,5.1
		s-7.6,0.2-9.4,0.3c-1.8,0.2-2.9-0.1-2.9-0.1s-1.4-7.5-1.3-8.8c0-1.3-0.8-4.1-0.8-4.1L51,45.5c0,0,0.3,7.3,0.8,8.9
		c0.5,1.7,0.5,3,0.5,3s2.4,1.5,3.4,1.2c1-0.3,3,0,3,0l5.5-0.3c0,0,1-0.4,1.5-0.3c0.5,0.1,1.5-0.6,1.5-1.9c0-1.3,0.3-5.8,0.7-8.2
		c0.4-2.4,1.3-6.3,1.1-7S66.8,40,63.9,40c-2.9,0-7,0.6-8.3,0.8S52.5,41.5,53,42z"/>
</g>
</svg>
