<?xml version="1.0" encoding="utf-8"?>
<!-- Generator: Adobe Illustrator 18.1.1, SVG Export Plug-In . SVG Version: 6.00 Build 0)  -->
<svg version="1.1" id="Calque_1" xmlns="http://www.w3.org/2000/svg" xmlns:xlink="http://www.w3.org/1999/xlink" x="0px" y="0px"
	 width="80px" height="80px" viewBox="0 0 80 80" enable-background="new 0 0 80 80" xml:space="preserve">
<g>
	<path fill="none" stroke="#666666" stroke-width="1.9208" d="M38.7,2.6c0,0,16.8,0.5,25.5,9.1c8.6,8.6,19.2,23.5,10.1,43.7
		c-9.1,20.2-28.8,22.1-35.5,22.1S3.2,68.9,2.2,40.1C1.3,11.3,19.5,1.2,38.7,2.6z"/>
</g>
<g>
	<g>
		<path fill="none" stroke="#666666" stroke-width="1.9208" d="M38.7,2.6c0,0,16.8,0.5,25.5,9.1c8.6,8.6,19.2,23.5,10.1,43.7
			c-9.1,20.2-28.8,22.1-35.5,22.1S3.2,68.9,2.2,40.1C1.3,11.3,19.5,1.2,38.7,2.6z"/>
	</g>
</g>
<path fill="#666666" d="M36.9,36.7c0,0,2.3,13,3.8,17.2s3.3,10.7,8.4,10.6c5-0.1,7.6-3.5,6.3-8.6c-0.6-1.1-0.8-1.6-0.7,0.6
	s-0.1,5.8-3.3,6.3s-5.1,0.8-7.2-2.8c-2.1-3.5-2.8-9.4-3.7-13.8s-2.3-8.4-2.9-10.1C36.9,36.7,36.9,36.7,36.9,36.7z"/>
<path fill="#666666" d="M15.6,48.4c0,0-2.8-7.8,0.6-17S27.6,18.3,28.3,19c-1.3,0.7-3.4,2.2-6.3,5.8s-5.6,8.6-6,11.3
	S16.2,48,15.6,48.4z"/>
<path fill="#666666" d="M16.9,48.1c0,0,2.5-5.8,7.3-5.8s6.7,3,8,1s1.4-6.3,6.5-6.9s7,3.1,8.1,2.6s2.1-5.4,4.9-6.1s3.4-2.4,9.1,1.4
	c1.8,0.4,2.9-0.1,1.3-3s-3.9-7.3-7.2-9.5s-6.7-5.4-11.4-6c-4.9-0.6-10.3,0.7-9.9,1.1s6.1-1.2,11.4,0.7s8.3,4,10.2,6.4s5.8,6.8,6,7.9
	c-0.9,0.3-5.1-2.3-7.8-1s-5,1.6-6.6,6.3c-1.9-1.4-4.8-4.2-9.4-2.1s-4.9,7.3-6.4,7.3s-3.9-2.3-7.6-1.2S15.9,45.2,16.9,48.1z"/>
<path fill="#666666" d="M31.5,18.7c0,0-1.3-3.9-0.6-4.1s1.9,3.1,1.8,4.3C31.9,18.9,31.5,18.7,31.5,18.7z"/>
<path fill="#666666" d="M31.3,20.5c0,0-3.6,6.3-3,10.7c0.4,1.9-0.1,2.9,0.2,5s0.9,6.3,2.4,7c0.8-1.6-1.6-4.6-1.3-9.1
	s0.4-6.5,1.3-9.2S32.5,20.8,31.3,20.5z"/>
<path fill="#666666" d="M34.3,19.1c0,0,3.2-0.1,6.5,4.5s3.4,6.9,4.7,9.1c0.7,1.5,0.2,2.6-0.2,1.8c-0.5-0.8-3.2-7-4.7-9
	c-1.5-2-2.5-3.6-4.2-4.5C34.8,20.2,33.8,20.2,34.3,19.1z"/>
</svg>
