<?xml version="1.0" encoding="utf-8"?>
<!-- Generator: Adobe Illustrator 18.1.1, SVG Export Plug-In . SVG Version: 6.00 Build 0)  -->
<svg version="1.1" id="Calque_2" xmlns="http://www.w3.org/2000/svg" xmlns:xlink="http://www.w3.org/1999/xlink" x="0px" y="0px"
	 width="64px" height="64px" viewBox="-388 563.5 64 64" enable-background="new -388 563.5 64 64" xml:space="preserve">
<path d="M-368,571.5c0,0,7.8,0.1,10.1,0.1s4-0.8,6,1.5c1.9,2.3,4.5,4.6,5.8,5.8c1.3,1.2,2.5,1.2,2.4,3.7c-0.1,2.5-0.1,13.1,0.4,17.5
	c0.1,2.9-0.3,11.6-0.1,13.8c0.4,0.1,0.4,0.1,0.4,0.1s0.3-5.1,0.6-7.3s0.5-6.6,0-9c-0.4-2.3-0.5-8.3-0.3-10.3s0.3-6.3-0.4-7.2
	c-0.7-0.9-5.4-5.3-7.2-7c-1.8-1.7-1.9-3-7.2-2.8C-362.8,570.8-368.2,570.3-368,571.5z"/>
<path d="M-353.5,571.3c0,0,1,3.5,1,5.1s-0.7,3.7,0.7,4.1s8.6,1,8.6,1l-0.2-0.5c0,0-4.9-0.3-6-0.7c-1.1-0.3-2.1-0.4-2.1-0.4
	s0.2-1.5,0-3.3c-0.2-1.8-1.3-4.8-1.3-4.8L-353.5,571.3z"/>
<path d="M-376.8,565.2c0,0,2.2-1.5,3.8-0.4c1.6,1,4,2.3,4.7,7.9c0.3,2.3,0.3,5.8-3.3,7.5c-3.5,1.7-6.7,3.5-5,9.4
	c1.8,5.9,6.3,13.9,8,15.8c1.7,1.9,4.5,6.8,8.1,6.2c3.5-0.6,6.8-4,9.6-3.3s5.8,3,7.5,6.8c0.7,2,2.3,4.7-1.8,7.1s-10,4.4-14,3.4
	c-1.9-0.7-9.3-9-10.7-11.1c-1.4-2.1-5.5-7.5-6.9-9.7c-1.4-2.2-4.4-9.4-6-12.4c-1.6-3-3.9-10.7-4-11.9c-0.1-1.2-1-5.1,0.3-7.3
	s5.5-6.8,7.1-7.4c0.6-0.4-1.5-0.4-4.2,2.4c-2.7,2.8-5.7,5.1-3.3,14.6c2.4,9.5,7.8,19.8,9.5,22.6c1.7,2.8,8.4,11.9,10.3,14.5
	c2,2.5,5.5,6.2,7.8,6.5c2.3,0.4,5.7,0.6,8.7-0.6c3-1.2,7-3.5,8-4.8c1-1.3,1.5-3.6,0.4-5.3c-1.1-1.7-3.8-8.6-8.5-8.6
	c-4.7,0-7.3,3.7-9.8,3.6s-7.3-5.5-8.6-7.8s-5.8-10.3-6.2-11.6c-0.3-1.4-2.3-6.7,0.7-8.7c3-2,6.8-3.5,6.9-6.4
	c0.2-2.9,0.3-5.4-0.9-7.9S-373.6,561.6-376.8,565.2z"/>
<path d="M-367.1,619c0,0-6.4,0.2-9,0.2c-2.6,0-7.3-0.3-7.3-0.3s-0.6-4.2-0.5-6.4c0.2-2.3,0.3-8.5,0.1-10.6c-0.1-2.2-0.4-9.2,0-10.5
	c0.4,1,0.3,3.7,0.8,6.5c0.5,2.8,0.5,6.8,0.2,10.4c-0.3,3.5,0.3,9.5,0.3,9.5s3.9,0.1,6,0.3S-367.2,617.9-367.1,619z"/>
<path fill="none" stroke="#000000" stroke-width="0.1496" d="M-374.1,581.5c0,0,0.3-8.2-6.5-15.2"/>
<path fill="none" stroke="#000000" stroke-width="0.1496" d="M-372.3,581c0,0-0.1-9.1-6.2-15.3"/>
<path fill="none" stroke="#000000" stroke-width="0.1496" d="M-358,610.7c0,0,7.9,3.5,9.5,13.4"/>
<path fill="none" stroke="#000000" stroke-width="0.1496" d="M-356.4,609.3c0,0,8,4,9.6,13.8"/>
</svg>
