<?xml version="1.0" encoding="utf-8"?>
<!-- Generator: Adobe Illustrator 21.0.2, SVG Export Plug-In . SVG Version: 6.00 Build 0)  -->
<svg version="1.1" id="Calque_1" xmlns="http://www.w3.org/2000/svg" xmlns:xlink="http://www.w3.org/1999/xlink" x="0px" y="0px"
	 viewBox="0 0 90 60" style="enable-background:new 0 0 90 60;" xml:space="preserve">
<style type="text/css">
	.st0{fill:#FFFFFF;}
</style>
<title>picto-hp-assurance-deces</title>
<g id="ass_deces">
	<path class="st0" d="M30.8,8.4c2.1,0.1,3.7,1.8,3.7,3.9c0,2.1-1.7,3.9-3.8,3.9c0,0,0,0,0,0c-2.1,0-3.7-1.7-3.7-3.8c0,0,0-0.1,0-0.1
		C26.9,10.2,28.6,8.5,30.8,8.4C30.8,8.4,30.8,8.4,30.8,8.4 M30.8,6.8c-3,0-5.4,2.4-5.4,5.5c-0.1,2.9,2.2,5.4,5.2,5.4
		c0,0,0.1,0,0.1,0c3,0,5.4-2.4,5.4-5.4c-0.1-2.9-2.4-5.2-5.3-5.3V6.8z"/>
	<path class="st0" d="M52.3,8.1c2.1,0.1,3.8,1.8,3.9,3.9c0,2.1-1.7,3.9-3.9,3.9s-3.9-1.7-3.9-3.9S50.2,8.1,52.3,8.1L52.3,8.1
		 M52.3,6.5c-3,0-5.4,2.4-5.4,5.4s2.4,5.4,5.4,5.4s5.4-2.4,5.4-5.4l0,0C57.7,9,55.3,6.6,52.3,6.5z"/>
	<path class="st0" d="M53.4,17.4c0.6,0,1.2,0.3,1.6,0.7c0,0.1,0.1,0.2,0.2,0.2c3.3,2.2,5.2,6.4,7.7,11.9c0.4,0.6,0.3,1.4-0.2,1.8
		c0.3,0.3,0.8,0.4,1.2,0.4c1.3-0.2,2.6-0.6,3.8-1.2l0.7,0.9l0.7-0.9c0.5,0.3,1.8,1.2,2.5,1.5c1.7,1.4,2.5,3.6,2.2,5.7
		c0.1,0.5-0.3,0.9-0.7,1c-0.1,0-0.2,0-0.3,0c-0.5,0.1-0.9-0.3-1-0.8c0-0.1,0-0.2,0-0.2c0-1-0.2-2-0.7-2.9v1.5l1,6.4h-1.5v7.2
		c0,0.7-0.5,1.2-1.2,1.2c-0.6,0-1.2-0.5-1.2-1.2v-7.2h-0.2v7.2c0,0.7-0.5,1.2-1.2,1.2c-0.6,0-1.2-0.5-1.2-1.2v-7.2h-1.5l1.2-6.4
		v-1.8c-0.4,0.1-0.8,0.2-1.2,0.2c-1.3-0.1-2.4-0.7-3.3-1.6c-0.3-0.3-0.4-0.6-0.3-1c-0.4-0.1-0.7-0.5-0.8-0.9c-0.9-2.2-1.9-4.3-3-6.4
		v2.8l2.5,15.5c-0.9,0.3-1.7,0.5-2.6,0.7v4.5c0,1.1-0.9,2-2,2c-1.1,0-2-0.9-2-2c0,0,0,0,0,0v-4.5h-0.2v4.5c-0.1,1.1-1.1,1.9-2.2,1.8
		c-1-0.1-1.8-0.9-1.8-1.8v-4.9c-0.9-0.1-1.8-0.4-2.7-0.8l2.2-15v-3.9c-0.1-0.1-0.1-0.2-0.2-0.3c-1.3,1.8-2.3,3.8-3,5.9
		c-0.2,0.7-0.9,1.2-1.6,1.2c-0.3,0-0.5-0.2-0.7-0.2c-0.3,0-0.6-0.1-0.8-0.3c-0.2,0.5-0.7,0.5-0.8,0.7c-0.2,0.1-0.4,0.2-0.7,0.2
		c-0.7,0-1.4-0.5-1.6-1.2c-0.8-2.2-1.9-4.3-3.3-6.2v7.1c-0.1,0.6-0.3,1.2-0.7,1.6v16.4c0,1.1-0.9,2-2,2c-1.1,0-2-0.9-2-2
		c0,0,0,0,0,0V35.1h-0.2v14c-0.1,1.1-1.1,1.9-2.2,1.8c-1-0.1-1.8-0.9-1.8-1.8V32.2c-0.1-0.4-0.2-0.8-0.2-1.2v-5.9
		c-1.1,2.1-2.2,4.2-3,6.4c-0.1,0.4-0.4,0.7-0.8,0.8c-0.3,0.2-0.7,0.3-1,0.3c-0.3,0-0.6-0.1-0.8-0.3c-0.3-0.6-0.4-1.2-0.2-1.8
		c2.4-5.5,4.2-9.9,7.7-11.9c0-0.1,0.1-0.2,0.1-0.2c0,0,0,0,0,0c0.7-0.2,1-0.3,1.6-0.5l1,1.2l1-1c0.5,0,0.9,0.1,1.3,0.3
		c0,0,0.3,0.2,0.9,0.5c0.5,0.3,4.6,2.7,7.4,9.6c2.8-7.1,7.1-9.6,7.4-9.8c0.3-0.2,0.5-0.2,0.7-0.3c0.6-0.3,1.2-0.6,1.8-0.8l1,1
		L53.4,17.4 M51.7,15.6l-1,0.5l-0.5,0.2c-0.6,0.2-1.1,0.4-1.6,0.8l-0.4,0.2c-2.9,1.9-5.2,4.5-6.7,7.5c-2.5-4.5-5.3-6.8-6.7-7.4
		c-0.5-0.3-0.8-0.5-0.9-0.5h-0.1h-0.1l-0.3-0.1c-0.5-0.2-1.1-0.3-1.6-0.3h-0.6l-0.3,0.3l-0.5-0.6l-0.9,0.2c-0.4,0.1-0.7,0.2-1,0.3
		l-0.6,0.2c-0.4,0.1-0.8,0.3-1,0.6c-3.7,2.3-5.6,6.8-8,12.4V30v0.1c-0.3,1.1-0.1,2.3,0.6,3.3c0.5,0.5,1.2,0.8,1.9,0.8
		c0.6,0,1.2-0.2,1.7-0.5c0.8-0.3,1.4-0.9,1.6-1.6V32c0,0.2,0.1,0.4,0.1,0.5v16.5c0,1.9,1.5,3.5,3.4,3.6c0,0,0.1,0,0.1,0
		c0.7,0,1.4-0.2,2-0.6c0.6,0.5,1.4,0.7,2.2,0.7c1.9,0,3.5-1.5,3.6-3.4c0-0.1,0-0.1,0-0.2V33.4c0.4-0.6,0.6-1.4,0.7-2.1v-0.8
		c0.1,0.1,0.1,0.3,0.1,0.4c0.5,1.4,1.7,2.3,3.2,2.3c0.5,0,1-0.1,1.4-0.3l0.2-0.1l0,0l0.2-0.1h0.3c0.3,0.1,0.6,0.2,0.9,0.2
		c1.2,0,2.3-0.6,2.9-1.6l-1.7,11.9l-0.2,1.2l1.1,0.5l0.5,0.2c0.4,0.2,0.8,0.3,1.3,0.5v3.6c0,1.9,1.5,3.5,3.4,3.6c0,0,0.1,0,0.1,0
		c0.8,0,1.5-0.2,2.1-0.7c0.6,0.4,1.3,0.7,2.1,0.7c1.9,0.1,3.6-1.4,3.6-3.4c0-0.1,0-0.2,0-0.2v-3.3c0.6-0.1,1.1-0.3,1.6-0.4l1.3-0.4
		L61,43.6l-1.6-9.7c0.1,0.4,0.4,0.7,0.6,1c1,1.1,2.4,1.8,3.9,2.1l0,0l-1.1,6.3l-0.3,1.8h1.8v5.7c0,1.5,1.2,2.7,2.7,2.7c0,0,0,0,0,0
		c0.4,0,0.9-0.1,1.3-0.3c0.4,0.2,0.8,0.3,1.2,0.3c1.5,0,2.7-1.2,2.7-2.7c0,0,0,0,0-0.1v-5.7H74l-0.3-1.8L73.4,41
		c1.2-0.2,2.1-1.3,2.1-2.5c0.2-2.3-0.6-4.7-2.2-6.4v-0.3l-0.9-0.4c-0.8-0.4-1.6-0.9-2.3-1.4l-1.2-0.8l-0.4,0.5h-0.6
		c-0.4,0-0.7,0.1-1,0.3c-0.7,0.3-1.3,0.6-2,0.8c0-0.5-0.2-0.9-0.4-1.3c-2.7-5.9-4.7-10-8.2-12.4l0,0c-0.8-0.7-1.7-1.1-2.8-1.1h-0.7
		l-0.4,0.4l-0.6-0.6L51.7,15.6z"/>
	<path class="st0" d="M68.5,23.4c1.6,0,2.8,1.3,2.8,2.8c0,0,0,0,0,0c0,1.6-1.3,2.9-2.8,2.9c-1.6,0-2.9-1.3-2.9-2.8
		C65.6,24.7,66.9,23.4,68.5,23.4C68.5,23.4,68.5,23.4,68.5,23.4 M68.5,21.8c-2.4,0-4.4,2-4.4,4.4c0,2.4,2,4.4,4.4,4.4
		c2.4,0,4.4-2,4.4-4.4c0,0,0,0,0,0C72.9,23.8,71,21.9,68.5,21.8C68.6,21.8,68.5,21.8,68.5,21.8z"/>
</g>
</svg>
