<?xml version="1.0" encoding="utf-8"?>
<!-- Generator: Adobe Illustrator 18.1.1, SVG Export Plug-In . SVG Version: 6.00 Build 0)  -->
<svg version="1.1" id="Calque_2" xmlns="http://www.w3.org/2000/svg" xmlns:xlink="http://www.w3.org/1999/xlink" x="0px" y="0px"
	 width="64px" height="64px" viewBox="-388 563.5 64 64" enable-background="new -388 563.5 64 64" xml:space="preserve">
<path d="M-386.4,604.8c0,0,0.1,10,0.7,14s1,6.3,1.5,7.3s5.6,1.6,11.4,1.4c5.8-0.2,9.3-0.5,9.5-1.2s0.8-10.9,1.3-13.8
	c0.5-2.9,2.7-10.8,0.7-11.5c-2-0.7-10.3-0.6-13.9-0.1s-9.8,1.5-9.9,2.1c0,0.6,5.9-0.8,9-0.9c3-0.2,6.5-0.5,9.3-0.3
	c2.8,0.2,4.9,0.8,4.9,0.8s-0.8,3-1,6.1c-0.2,3.1-0.9,6-1.1,9s-0.3,7.8-0.3,7.8s-7.8,0.8-9.6,0.7c-1.8-0.1-8.5,1.5-9.3-1.6
	c-0.8-3.1-1.2-7.5-1.6-9.5c-0.4-2.1-0.4-3.9-0.5-5.6S-385.7,604.8-386.4,604.8z"/>
<path d="M-379.6,595.3c0,0-0.3,5.6,0.4,5.8c0.7,0.2,1.5,0.3,1.2-0.8c-0.3-1.1-0.8-4-0.5-4.8C-379.3,594.9-379.6,595.3-379.6,595.3z"
	/>
<path d="M-376.1,596.5c0,0,0.5,1.3,0.7,2.7c0.3,1.3,0.1,2.3,0.8,2.3s1.2,0,1.1-0.4s-0.5-2.2-0.7-3.3
	C-374.4,596.8-376.1,596.5-376.1,596.5z"/>
<path d="M-365.3,584.2c0,0-0.2,2.1-1.9,5.5c-1.7,3.5-3.9,5.2-6.3,5.7c-2.3,0.5-6.2-0.4-7.5-3.1c-1.3-2.7-3-5.5-2.7-7.4
	c0.3-1.9,0.1-6.3,1.4-8.3c1.3-2,3.2-4,4.7-4.3c1.5-0.4,4.3-0.9,6.1,0.3c1.8,1.3,3.1,1.3,4.5,3.3c1.4,2,1.5,6.4,2.1,7
	c0.6,0.6,0.4,0.3,0.3-1.6c0-1.9-0.2-3.9-1.9-6s-4.1-5-9.1-4.6c-5,0.5-6.3,2.9-7.7,5s-1.7,5.6-1.8,8c-0.1,2.4,0.8,6.8,2,8.2
	s2.9,4.2,5.9,4.9c3,0.7,5.5-0.3,7-1.5c1.6-1.2,2.7-2.8,3.3-3.8C-366.1,590.7-363.8,584.3-365.3,584.2z"/>
<path d="M-377,590.2c0,0,1.9,0,2.9-0.2s2.9-1.1,3-0.7c0.1,0.4-1,1-2.8,1.3C-375.8,591-376.8,591.1-377,590.2z"/>
<path d="M-377.5,581.8c0,0-0.2,1.9,0.1,2s0.8-1.1,0.7-2.1C-377.4,581.6-377.5,581.8-377.5,581.8z"/>
<path d="M-371.6,581.7c0,0-0.2,2.1,0.4,2.1s0.4-2.1,0.4-2.1L-371.6,581.7z"/>
<path d="M-377.3,571.6c0,0-0.5-6.5,0.8-6.5s9.3,0.5,11.5,0.4s8.5,0.5,10.7,0.5c2.2,0,7.5,0.4,7.5,0.4l0.9,1c0,0-0.3,4-0.5,4.8
	c-0.2,0.8-0.4,1.3-0.4,1.3s6.5,2.5,7.3,3.1s0.9,1.5,0.4,4.4c-0.1,1.5-0.1,1.5-0.1,1.5s-1.2-0.8-0.5-3.5c0.1-1.5-0.5-2.1-3.4-2.9
	c-2.8-0.8-4.8-2.1-4.8-2.1s0.4-2.9,0.5-4.6c0.2-1.7,0-2.2,0-2.2s-7.2,0.3-14.7-0.5s-13.9-0.5-13.9-0.5S-376.5,571.3-377.3,571.6z"/>
<path d="M-345.3,567.2c0,0-0.4,1.9,1.9,4.6s4,5.8,4,5.8l0.5,0.2c0,0,0.3-0.9-1.4-3.5C-342,571.7-344.3,567-345.3,567.2z"/>
<path d="M-340.2,593c0,0-0.6,9.6-0.5,13s-0.4,10.2-0.7,13c-0.3,2.8-0.1,3.3-1.5,3.3s-8.5,0-9.9-0.5c-1.3-0.4-8.6-0.5-10.2-0.9
	c0-0.6-0.2-0.8-0.2-0.8s7,0.5,8.9,0.5c1.9,0.1,6.2,0.3,7.8,0.4c1.7,0.2,3.8-0.1,3.8-0.1s-0.2-5,0.2-7.9s0.5-9.2,0.5-10.6
	s0.2-6.2,0.6-7.5C-341,593.8-340.9,593.2-340.2,593z"/>
<path d="M-356.1,604.1c0,0,0.9-5.1,1.9-6.2c1-1.1,5.3-5.1,6.9-6.8c1.6-1.6,6.3-6,8.1-7.9c1.8-1.9,8.1-8.6,8.4-8.6
	c0.3,0,3.8,3.4,3.6,3.8c-0.2,0.4-7,6.6-8.5,8.5s-8.8,8.8-9.9,9.8c-1.1,1.1-4.5,5.3-6.6,5.9C-354.3,603.3-355.4,604-356.1,604.1z"/>
</svg>
