<?xml version="1.0" encoding="utf-8"?>
<!-- Generator: Adobe Illustrator 25.2.0, SVG Export Plug-In . SVG Version: 6.00 Build 0)  -->
<svg version="1.1" id="Calque_1" xmlns="http://www.w3.org/2000/svg" xmlns:xlink="http://www.w3.org/1999/xlink" x="0px" y="0px"
	 viewBox="0 0 82.7 52.9" style="enable-background:new 0 0 82.7 52.9;" xml:space="preserve">
<g>
	<polygon points="-104.9,0 -177.9,0 -177.9,5.2 -109.3,5.2 -109.3,46.5 -154.9,46.5 -154.9,55.9 -104.9,55.9 -104.9,0 	"/>
	<polygon points="-132.6,65.2 -132.6,59.8 -148.2,59.8 -148.2,65.2 -153.9,70.2 -127.3,70.2 	"/>
	<path d="M-184.5,10.7v65.6h25.5V10.7H-184.5z M-174.4,64.2h-5.7v-5.7h5.7V64.2z M-163.3,29.7h-16.8v-5.3h16.8V29.7z M-163.3,22.7
		h-16.8v-5.3h16.8V22.7z"/>
</g>
<g>
	<rect x="-75.5" y="18.7" transform="matrix(0.7071 -0.7071 0.7071 0.7071 -44.7119 -37.3125)" width="16.2" height="33.2"/>
	<rect x="-54.5" y="-2.8" transform="matrix(0.7071 0.7071 -0.7071 0.7071 5.0791 40.5464)" width="16.2" height="58.4"/>
</g>
<g>
	<rect x="48.2" y="-2.7" transform="matrix(0.7071 0.7071 -0.7071 0.7071 35.2407 -32.0782)" width="16.2" height="58.4"/>
	<rect x="18.3" y="-2.8" transform="matrix(-0.7071 0.7071 -0.7071 -0.7071 63.7456 26.4043)" width="16.2" height="58.4"/>
</g>
</svg>
