<svg xmlns="http://www.w3.org/2000/svg" viewBox="0 0 52 38.13">
    <title>Payment</title>
    <g id="Layer_2" data-name="Layer 2">
        <g id="Layer_1-2" data-name="Layer 1" fill="#717171">
            <path d="M48.34,0H3.66A3.66,3.66,0,0,0,0,3.66V34.48a3.66,3.66,0,0,0,3.66,3.65H48.34A3.66,3.66,0,0,0,52,34.48V3.66A3.66,3.66,0,0,0,48.34,0Zm1.93,34.48a1.93,1.93,0,0,1-1.93,1.92H3.66a1.93,1.93,0,0,1-1.93-1.92V3.66A1.94,1.94,0,0,1,3.66,1.73H48.34a1.94,1.94,0,0,1,1.93,1.93Z" />
            <path d="M13.87,25.13H6.07a.87.87,0,1,0,0,1.74h7.8a.87.87,0,0,0,0-1.74Z" />
            <path d="M25.13,25.13h-7.8a.87.87,0,0,0,0,1.74h7.8a.87.87,0,0,0,0-1.74Z" />
            <path d="M6.93,29.47H6.07a.87.87,0,1,0,0,1.73h.86a.87.87,0,1,0,0-1.73Z" />
            <path d="M12.13,29.47H10.4a.87.87,0,1,0,0,1.73h1.73a.87.87,0,1,0,0-1.73Z" />
            <path d="M16.47,29.47H15.6a.87.87,0,1,0,0,1.73h.87a.87.87,0,0,0,0-1.73Z" />
            <path d="M21.67,29.47H19.93a.87.87,0,0,0,0,1.73h1.74a.87.87,0,0,0,0-1.73Z" />
            <path d="M24.52,29.72a.87.87,0,1,0,1.23,0A.91.91,0,0,0,24.52,29.72Z" />
            <path d="M41.6,21.67a6,6,0,0,0-3,.82,6.07,6.07,0,1,0,0,10.49,6,6,0,0,0,3,.82,6.07,6.07,0,1,0,0-12.13Zm-4.52,10.1a4.41,4.41,0,0,1-1.55.3,4.34,4.34,0,0,1,0-8.67,4.19,4.19,0,0,1,1.55.3,6,6,0,0,0,0,8.07Zm1.49-.95a4.31,4.31,0,0,1,0-6.17,4.31,4.31,0,0,1,0,6.17Zm3,1.25a4.41,4.41,0,0,1-1.55-.3,6,6,0,0,0,0-8.07,4.19,4.19,0,0,1,1.55-.3,4.34,4.34,0,0,1,0,8.67Z" />
            <path d="M7.15,19.07h11.7a2,2,0,0,0,1.95-2V8.89a2,2,0,0,0-1.95-2H7.15a2,2,0,0,0-1.95,2v8.22A2,2,0,0,0,7.15,19.07Zm11.92-2a.22.22,0,0,1-.22.22H15.58a1.5,1.5,0,0,0,0-.22V15.6h3.47Zm0-3.24H15.6V12.35a.22.22,0,0,1,.22-.22h3l.22,0Zm-6.94-5a.22.22,0,0,1,.22-.22h6.5a.22.22,0,0,1,.22.22v1.29a.22.22,0,0,1-.22.22h-3a2,2,0,0,0-2,1.95v4.76a.22.22,0,0,1-.22.22h-1.3a.22.22,0,0,1-.22-.22Zm-5.2,0a.22.22,0,0,1,.22-.22h3.27a1.5,1.5,0,0,0,0,.22V10.4H6.93Zm0,3.24H10.4v1.74H6.93Zm0,3.47H10.4v1.51a1.5,1.5,0,0,0,0,.22H7.15a.22.22,0,0,1-.22-.22Z" />
        </g>
    </g>
</svg>
