<svg xmlns="http://www.w3.org/2000/svg" xmlns:xlink="http://www.w3.org/1999/xlink" width="1139.062" height="704.613" viewBox="0 0 1139.062 704.613">
  <defs>
    <clipPath id="clip-path">
      <rect id="Rectangle_697" data-name="Rectangle 697" width="1139.062" height="704.613" fill="none"/>
    </clipPath>
  </defs>
  <g id="Groupe_1349" data-name="Groupe 1349" clip-path="url(#clip-path)">
    <path id="Tracé_5665" data-name="Tracé 5665" d="M970.738,141.779a33.566,33.566,0,0,0-17.972,5.99,66.608,66.608,0,0,0-14.08,12.987,119.194,119.194,0,0,0-19.108,31.614q-5.247-18.015-10.188-31.876a320.125,320.125,0,0,0-12.812-30.871q-16.093-33.19-38.086-54.615Q848.829,65.694,840.52,61.1a54.735,54.735,0,0,0-23.132-6.559,51.423,51.423,0,0,0-23.612,3.98q-13.688,5.9-24.794,19.764a100.463,100.463,0,0,0-14.648,25.623q-9.53,1.459-19.241,3.936a127.547,127.547,0,0,0-18.54,6.209q2.1-1.748,4.241-3.761,4.154-3.847,9.62-9.838a188.493,188.493,0,0,0,17.753-22.169,95.573,95.573,0,0,0,12.419-25.274q3.323-10.8,1.355-18.5a27.95,27.95,0,0,0-5.728-10.932A43.268,43.268,0,0,0,742,12.129a48.767,48.767,0,0,0-17.622-5.246,80.653,80.653,0,0,0-19.2.83Q669.329,13,633.911,36.311A267.214,267.214,0,0,0,603.39,59.879Q590.228,71.466,575.667,86.9q-5.858,6.165-9.4,10.713a33.7,33.7,0,0,0,.656-4.154,113.315,113.315,0,0,0,.131-18.409,182.279,182.279,0,0,0-3.411-28.379,82.013,82.013,0,0,0-10.189-26.235Q546.546,9.55,537.319,4.652a28.594,28.594,0,0,0-10.8-3.455,24.473,24.473,0,0,0-11.237,1.094,28.907,28.907,0,0,0-10.145,6.428,67.086,67.086,0,0,0-7.958,9.445Q482.923,38.234,473.3,66.656q-13.554,39.923-11.15,74.554a199.492,199.492,0,0,0-13.993-15.216q-11.719-11.151-23.656-16.485a39.221,39.221,0,0,0-14.605-3.586,21.984,21.984,0,0,0-7.433,1.093,18.012,18.012,0,0,0-6.472,3.629,22.786,22.786,0,0,0-5.554,8q-4.809,10.363-3.323,24.093,1.006,9.795,6.035,23.744a253.771,253.771,0,0,0,21.731,44.908,263.432,263.432,0,0,0,22.782,31.658,2.38,2.38,0,0,0-.438-.263,52.713,52.713,0,0,0-6.777-3.1q-7.959-3.017-14.561-1.4a15.088,15.088,0,0,0-6.515,3.41,11.822,11.822,0,0,0-4.022,5.991,17.9,17.9,0,0,0,.262,9.226q2.449,9.839,11.282,21.208,3.155,4,6.558,7.7-3.541,3.726-7.3,7.827-6.734,7.346-10.32,12.156a66.684,66.684,0,0,0-5.247,7.958,36.918,36.918,0,0,0,.787-4.548,79.173,79.173,0,0,0,0-14.954q-1.442-18.977-5.99-32.838-1.15-3.537-2.537-6.865.148-.445.263-.919a105.676,105.676,0,0,0,3.148-30.783q-1.354-23.525-15.435-45.957a122.766,122.766,0,0,0-34.632-36.206,142.037,142.037,0,0,0-44.907-20.333,162.006,162.006,0,0,0-35.594-5.246q1.794-1.794,3.454-3.717a73.717,73.717,0,0,0,15.567-28.16q4.984-16.834,1.617-32.183a57.324,57.324,0,0,0-14.473-27.023A73.316,73.316,0,0,0,247.849,7.1a78.2,78.2,0,0,0-27.2-7q-17.228-.962-38.61,6.908a96.171,96.171,0,0,0-22,10.976A72.785,72.785,0,0,0,135.689,48.2a70.1,70.1,0,0,0-5.422,19.852,70.023,70.023,0,0,0,.262,20.377,63.728,63.728,0,0,0,33.8,45.52,68.528,68.528,0,0,0,13.993,5.115,126.256,126.256,0,0,0-27.417,28.073,156.047,156.047,0,0,0-21.382,42.371,69.355,69.355,0,0,0-7.3-11.5A63.329,63.329,0,0,0,100.1,180.39a62.373,62.373,0,0,0-29.34-6.253,68.98,68.98,0,0,0-20.027,3.891,69.346,69.346,0,0,0-18.278,9.314,71.092,71.092,0,0,0-14.605,13.6A66.879,66.879,0,0,0,7.833,217.294a93.484,93.484,0,0,0-6.384,23.787q-3.367,22.563,1.094,39.18a78.253,78.253,0,0,0,12.374,25.23,72.979,72.979,0,0,0,21.427,20.114,57.52,57.52,0,0,0,29.384,8.658q15.653.217,31.176-8.134a73.487,73.487,0,0,0,24.443-20.9q1.967-2.668,3.717-5.422.568,1.967,1.136,3.979a120.708,120.708,0,0,0,19.2,37.693,102.043,102.043,0,0,0,31.614,28.159,99.724,99.724,0,0,0,24.443,9.62,55.584,55.584,0,0,0-1.75,17.053q-20.986,1.09-41.891,13.555-1.88,1.093-3.716,2.274l-17.01,12.987a4.672,4.672,0,0,0-.568.481q-14.779-15.173-30.564-30.3-7.609-7.26-12.463-11.632-7-6.253-13.162-10.932a80.372,80.372,0,0,0-10.231-6.69,36.232,36.232,0,0,0-11.414-3.935,10.667,10.667,0,0,0-3.935.088,3.9,3.9,0,0,0-2.886,2.492,1.983,1.983,0,0,0-.131.7.508.508,0,0,0-.131.088,2.7,2.7,0,0,0-.262,2.537,18.357,18.357,0,0,0,1.967,4.372q.787,1.356,2.536,4.024,1.268,2.055,4.2,8,8.527,17.316,20.376,38.26,7.258,12.813,21.864,37.474,1.442,2.318,2.579,4.285-4.2,6.953-7.7,14.168A157.182,157.182,0,0,0,84.7,515.773a136.165,136.165,0,0,0-1.88,40.49Q85.011,577.472,93.537,594a85.339,85.339,0,0,0,17.272,22.956,84.076,84.076,0,0,0,22.082,15.086q20.771,9.707,49.323,9.445,32.27-.263,59.382-12.463a132.086,132.086,0,0,0,27.242-16.441,136.582,136.582,0,0,0,23.656-23.831,113.806,113.806,0,0,0,14.123-23.481,61.276,61.276,0,0,0,8.4,0q-2.57,22.821,2.711,40.534a3.855,3.855,0,0,0,1.224,2.186,52.24,52.24,0,0,0-6.253,13.074,48.439,48.439,0,0,0-2.318,16.18,45.226,45.226,0,0,0,3.235,15.873q4.5,10.757,15.785,21.426a103.729,103.729,0,0,0,19.065,14.3q23.656,13.686,58.2,15.523A170.031,170.031,0,0,0,446.018,702a123.426,123.426,0,0,0,36.95-12.855,87.168,87.168,0,0,0,13.424-8.876,71.168,71.168,0,0,0,17.1-20.377,56.42,56.42,0,0,0,5.423-12.812,46.336,46.336,0,0,0,1.486-8.658q.088-2.581.044-5.2-.13-.874-.262-1.574a58.4,58.4,0,0,0-7.127-17.009q-.394-.656-.743-1.312a20.169,20.169,0,0,0,1.355-3.542,115.889,115.889,0,0,0,3.5-18.1q1.344-9.834,1.836-17.753c.1.177.2.351.307.524a12.477,12.477,0,0,0,1.355,1.793,79.187,79.187,0,0,0,3.586,20.07,76.308,76.308,0,0,0,9.62,19.851,65.21,65.21,0,0,0,12.987,14.3,49.934,49.934,0,0,0,16.834,9.139q7.827,2.23,12.812.044a4.9,4.9,0,0,0,.307.525q8.526,14.21,28.466,24.312A104.766,104.766,0,0,0,644.318,675.9a83.68,83.68,0,0,0,20.42-.743,75.948,75.948,0,0,0,19.546-5.816,13.729,13.729,0,0,0,4.767-3.149,6.486,6.486,0,0,0,.874-1.18.683.683,0,0,1,.175-.131,3.062,3.062,0,0,0,.438-.219.654.654,0,0,0,.13.175q4.068,4.942,12.812,7.653a61.985,61.985,0,0,0,18.89,2.842,59.142,59.142,0,0,0,18.89-3.105,56.6,56.6,0,0,0,16.791-9.095,57.643,57.643,0,0,0,9.97-9.971,11.292,11.292,0,0,0,4.678-.786,44.81,44.81,0,0,0,12.244-7.085,64.939,64.939,0,0,0,13.074-13.948,73.88,73.88,0,0,0,8.833-17.053,90.376,90.376,0,0,0,4.941-37.912,56.137,56.137,0,0,0-3.761-17.928,36.847,36.847,0,0,0-3.892-7.215q5,1.245,10.057,2.143a141.985,141.985,0,0,0,35.812,1.574,123.309,123.309,0,0,0,15.436-2.274,80.339,80.339,0,0,0,8.4,4.417q5.159,2.362,13.25,5.335a323.63,323.63,0,0,0,38.042,11.631,206.257,206.257,0,0,0,39.222,5.509q10.189.35,16.4-1.443a18.389,18.389,0,0,0,6.778-3.454,10.787,10.787,0,0,0,3.979-5.991q1.312-5.946-4.722-13.292a326.964,326.964,0,0,0,57.806-1.094q12.288-1.225,21.645-2.974a140.1,140.1,0,0,0,21.077-5.509,49.328,49.328,0,0,0,14.6-7.478,28.166,28.166,0,0,0,5.641-6.034,20.935,20.935,0,0,0,3.105-7.565,19,19,0,0,0-.657-9.4,26.105,26.105,0,0,0-4.373-8.483,37.865,37.865,0,0,0-6.733-6.777,84.931,84.931,0,0,0-7.915-5.379q-20.333-12.157-46.525-17.4a210.65,210.65,0,0,0-35.507-3.672,238.4,238.4,0,0,0,59.512-25.756,193.609,193.609,0,0,0,49.542-42.633,124.232,124.232,0,0,0,11.807-16.835,75.215,75.215,0,0,0,7.739-18.933q2.581-10.145.744-18.278a24.811,24.811,0,0,0-3.542-8.527,20.971,20.971,0,0,0-6.428-6.472q-5.729-3.5-14.867-3.586a69.828,69.828,0,0,0-17.4,2.318,141.64,141.64,0,0,0-16.792,5.509q-32.4,12.505-57.369,30.783a178.4,178.4,0,0,0,9.445-30.521,286.508,286.508,0,0,0,5.248-36.6q5.639-67.951-15.042-115.613-10.8-24.881-26.673-37.343a48.177,48.177,0,0,0-11.369-6.734,31.9,31.9,0,0,0-12.769-2.623m-37.474,36.293a105.324,105.324,0,0,1,12.375-16.7q12.419-13.555,25.055-14.123a27.844,27.844,0,0,1,12.813,2.711,44.8,44.8,0,0,1,11.15,7.434q13.467,11.85,22.781,33.538a185.047,185.047,0,0,1,12.638,45.432,282.791,282.791,0,0,1,2.93,47.268q-.569,35.637-7.784,63.666-1.486,5.86-3.847,13.556-.263.743-4.241,13.424a3.207,3.207,0,0,0-.131.612q-2.362,1.836-4.679,3.717,1.925-.83,4.679-2.143a1.113,1.113,0,0,0,.831.875q1.268.349,2.142-1.75l.349-.7q10.1-4.94,28.6-14.561,22.607-11.719,37.169-16.834,14.255-4.9,25.187-5.423,10.1-.392,15.566,3.717a17.374,17.374,0,0,1,6.384,10.625,33.883,33.883,0,0,1-.087,12.594,64.389,64.389,0,0,1-6.952,19.152,109.864,109.864,0,0,1-11.588,17.053,191.063,191.063,0,0,1-51.248,43.727,251.109,251.109,0,0,1-62.31,25.93,97.213,97.213,0,0,1-15.435,3.193,6.855,6.855,0,0,0-2.581.7,2.116,2.116,0,0,0-.744,1.049.826.826,0,0,0-.044.263.174.174,0,0,0-.13.044c.028.233.057.481.086.743v.219a4.333,4.333,0,0,1,.307.349l.263.438.437.218q1.617.307,3.41.482,2.011.217,6.559.349,16.354.307,24.531.962a189.671,189.671,0,0,1,45.738,9.051q18.453,6.123,30.347,15.217a35.764,35.764,0,0,1,8.133,8.221q3.541,5.6,2.667,10.975a15.646,15.646,0,0,1-5.553,9.533,36.223,36.223,0,0,1-9.62,5.641,105.567,105.567,0,0,1-15.785,5.16q-7.083,1.748-16.354,3.149a340.873,340.873,0,0,1-71.712,2.842,23.879,23.879,0,0,1-5.816-.919,35.19,35.19,0,0,1-4.5-2.318q-15.609-9.094-28.509-9.139a9.064,9.064,0,0,0-4.2.656,4.7,4.7,0,0,0-1.662,1.268,2.925,2.925,0,0,0-.787,1.924,4.9,4.9,0,0,0,1.794,3.717q3.672,3.717,11.281,5.859a95.688,95.688,0,0,0,19.283,3.367q2.187.175,3.105.35a10.184,10.184,0,0,1,2.886.919,8.767,8.767,0,0,1,2.8,2.143,27.749,27.749,0,0,1,2.274,2.886,18.59,18.59,0,0,1,2.011,3.454,5.737,5.737,0,0,1,.349,3.761q-.874,2.929-5.29,4.5a32.942,32.942,0,0,1-8,1.618,65.875,65.875,0,0,1-8.221.131,201.247,201.247,0,0,1-35.156-4.548A339.274,339.274,0,0,1,895,559.805a237.89,237.89,0,0,1-23.088-8.7q3.979-1.137,7.652-2.58,21.6-8.264,39.136-27.547a124.016,124.016,0,0,0,25.274-41.891,135.509,135.509,0,0,0,8-46.22,146.176,146.176,0,0,0-6.952-44.557q-8.789-28.16-25.8-46.525-18.628-20.245-47.924-29.3-27.242-8.483-58.812-5.9a172.062,172.062,0,0,0-35.069,6.34q-.194-.167-.394-.349a50.245,50.245,0,0,0-8.177-6.122q3.15-.088,7.041-.524,14.385-1.444,24.224-3.235a147.148,147.148,0,0,0,23.612-6.3q9.532-3.585,14.649-7.871a27.547,27.547,0,0,0,5.6-6.253,19.932,19.932,0,0,0,2.974-7.7q1.225-7.477-3.368-16.311-5.072-10.1-16.353-19.9a102.142,102.142,0,0,0-27.373-17.185,92.28,92.28,0,0,0-17.621-5.509,240.132,240.132,0,0,0,57.019-25.755q12.244-7.521,19.065-14.649,8.4-8.789,10.232-18.059a29.638,29.638,0,0,0-1.138-15.349,37.948,37.948,0,0,0-7.827-13.511q-8.965-10.056-26.018-16.79a141.973,141.973,0,0,0-48.755-9.577,173.393,173.393,0,0,0-24.443,1.136q.482-1.092.962-2.143a90.183,90.183,0,0,1,9.445-15.654Q782.757,69.1,796.619,63.333a44.994,44.994,0,0,1,20.2-3.236,50.482,50.482,0,0,1,19.764,5.379q10.45,5.378,21.951,17.709a185.414,185.414,0,0,1,28.422,39.573,280.3,280.3,0,0,1,12.987,28.728q9.883,24.662,14.342,43.158a21.259,21.259,0,0,1,.831,5.728,24.766,24.766,0,0,1-1.443,6.209,248.446,248.446,0,0,0-9.052,34.326,154.006,154.006,0,0,0-2.448,35.2,70.886,70.886,0,0,0,1.093,9.575,34.451,34.451,0,0,0,3.017,9.008,15.582,15.582,0,0,0,3.542,4.678,7.629,7.629,0,0,0,5.072,2.186,8.314,8.314,0,0,0,6.472-3.279,21.328,21.328,0,0,0,3.367-6.559,74.605,74.605,0,0,0,3.368-15.829,142.726,142.726,0,0,0,.656-16.223,242.31,242.31,0,0,0-6.035-52.253q-.524-2.274-.7-3.323a11.622,11.622,0,0,1-.044-3.324,22.216,22.216,0,0,1,1.487-4.285,197.458,197.458,0,0,1,9.794-18.409m-77.833-42.983a28.781,28.781,0,0,1,5.465,10.976,22.25,22.25,0,0,1-.044,11.981q-1.924,6.778-9.575,14.08a94.482,94.482,0,0,1-11.326,9.052q-5.2,3.584-12.374,7.652a290.22,290.22,0,0,1-48.669,21.994q-5.422,1.925-7.171,2.756a5.4,5.4,0,0,0-.917.568c-.321-.029-.612-.044-.875-.044q-1.356.436-2.667.875l-.831.393-.175.394a1.028,1.028,0,0,0,.044.874l.044.044v.044a5.118,5.118,0,0,0,.919.526,138.8,138.8,0,0,0,15.26,5.641q10.757,3.367,15.392,5.378a94.667,94.667,0,0,1,19.458,11.85q12.9,9.883,18.8,20.332,5.2,9.315,2.536,15.961-1.792,4.417-8.09,8.353A64.424,64.424,0,0,1,816.6,291.15a138.165,138.165,0,0,1-15.086,3.979,311.372,311.372,0,0,1-44.121,6.253,5.609,5.609,0,0,0-2.011.394,1.624,1.624,0,0,0-.7.7,1.277,1.277,0,0,0-.131,1.748,5.664,5.664,0,0,0,1.4,1.269l3.324,2.186a6.2,6.2,0,0,0,.787.524q3.979,3.28,10.888,8.833a43.49,43.49,0,0,1,9.882,12.2,15.178,15.178,0,0,1,1.836,7.739,12.1,12.1,0,0,1-3.717,7.433,28.18,28.18,0,0,1-6.908,4.811,63.273,63.273,0,0,1-18.89,6.428,87.065,87.065,0,0,1-8.658.961q-3.628.219-8.658.263a289.62,289.62,0,0,1-34.369-1.88,108.624,108.624,0,0,0,20.421-13.818q18.234-15.872,27.285-41.016a117.928,117.928,0,0,0,6.952-49.761,138.676,138.676,0,0,0-12.768-47.618,161.689,161.689,0,0,0-27.11-40.535q-21.6-23.919-47.094-35.375-28.029-12.68-61.83-10.625-31.438,1.88-62.4,16a176.9,176.9,0,0,0-35.681,21.338A143.156,143.156,0,0,0,479.994,183.8a120.055,120.055,0,0,0-18.1,38.742,100.927,100.927,0,0,0-3.41,32.445A201.541,201.541,0,0,0,437.491,272q-4.6,4.25-9.664,9.314-3.138-3.4-6.034-7.084-8.046-10.275-10.145-18.759-1.181-4.548.263-7.215a6.731,6.731,0,0,1,4.372-3.191,15.007,15.007,0,0,1,5.9-.35,32.652,32.652,0,0,1,17.228,8.09q.613.526,1.925,1.618a10.388,10.388,0,0,0,2.143,1.312,5.351,5.351,0,0,0,2.492.349,3.34,3.34,0,0,0,2.186-1.005,3.375,3.375,0,0,0,.919-2.537,4.968,4.968,0,0,0-.919-2.711c-.146-.175-.292-.335-.437-.481a6.161,6.161,0,0,0-.438-1.006A163.3,163.3,0,0,0,437.8,234q-6.91-9.182-10.189-13.9a213.936,213.936,0,0,1-31.178-64.847,76.76,76.76,0,0,1-3.323-18.278q-.35-10.187,3.8-17.4a12.564,12.564,0,0,1,4.111-4.636,13.124,13.124,0,0,1,7-1.836q8.57-.175,17.8,5.071A93.647,93.647,0,0,1,441.164,129.8q6.647,6.035,10.888,10.713a78.026,78.026,0,0,1,9.139,12.156q1.006,1.706,1.224,2.056a8.535,8.535,0,0,0,1.574,1.836,1.116,1.116,0,0,0,.263.263,3.713,3.713,0,0,0,.568,1.005,2.881,2.881,0,0,0,1.443.962,1.912,1.912,0,0,0,1.662-.219.122.122,0,0,1,.086-.044q.044-1.617.044-2.711.131-4.2.307-7.7A204.386,204.386,0,0,1,502.251,22.493a53.533,53.533,0,0,1,7.958-9.62,19.769,19.769,0,0,1,10.625-5.248q7.434-.874,15.566,4.9a43.4,43.4,0,0,1,10.232,10.844,59.656,59.656,0,0,1,6.734,13.424,93.689,93.689,0,0,1,3.672,14.6q1.049,6.3,1.706,14.955.918,11.193.962,21.863.044,4.2.174,6.734a.824.824,0,0,0-.043.262l-.175,6.035a6.618,6.618,0,0,0,.393,3.017,3.033,3.033,0,0,0,.568.787,2.672,2.672,0,0,1,.743.218,6.226,6.226,0,0,0,2.143.438,6.957,6.957,0,0,0,2.012-.438q.874-.3,1.967-.786a27.79,27.79,0,0,0,2.842-2.056,84.942,84.942,0,0,0,7.7-7.52Q592.2,79.862,604.483,68.711a274.44,274.44,0,0,1,29.035-23.174q33.626-23.22,67.6-29.647a85.48,85.48,0,0,1,19.546-1.662,44.223,44.223,0,0,1,18.54,4.811,38.006,38.006,0,0,1,8.7,6.428,24.773,24.773,0,0,1,6.034,8.7q3.411,8.877-2.4,22.695-6.254,14.867-18.671,30.347a356.592,356.592,0,0,1-24.269,26.63,6.394,6.394,0,0,0-2.055,3.06,2.316,2.316,0,0,0,.175,1.531l.044.131v.044l.481.481.919.568h.088a3.2,3.2,0,0,0,1.662.35,17.441,17.441,0,0,0,2.448-.263q7.74-1.049,15.785-2.886,1.356-.3,2.493-.656,5.247-1.093,12.9-2.755,25.186-4.94,46.832-3.673,25.142,1.531,45.431,11.02,13.118,6.034,19.634,14.3m67.777,124.752a131.5,131.5,0,0,1-1.357,21.338,39.243,39.243,0,0,1-3.8,12.375,4.464,4.464,0,0,1-2.23,2.23q-1.88.35-3.5-1.836a19.22,19.22,0,0,1-2.93-6.691A65.913,65.913,0,0,1,907.6,272.3q-.568-26.8,10.32-61.13a249.323,249.323,0,0,1,5.291,48.668M877.732,369.026a67.027,67.027,0,0,1,15.742,2.186,58.5,58.5,0,0,1,14.692,6.035A50.679,50.679,0,0,1,920.452,387.3a44.661,44.661,0,0,1,8.4,13.336,31.392,31.392,0,0,1,2.36,9.708,21.929,21.929,0,0,1-.568,6.733,11.7,11.7,0,0,0-7.739,3.324,27.263,27.263,0,0,0-5.16,7.04l-1.924,3.891q-1.225,2.318-2.143,3.8a6.384,6.384,0,0,0-1.05,1.924,2.354,2.354,0,0,0-.612.482,169.358,169.358,0,0,1-62.049,16.965,126.337,126.337,0,0,1-23.393-.219,82.225,82.225,0,0,1-28.422-8.22,63.484,63.484,0,0,1-22.826-18.759,74.1,74.1,0,0,1-11.062-21.776q-6.51-19.364-6.472-43.6,2.794-.581,5.422-1.355a37.394,37.394,0,0,0-1.661,8.789,30.443,30.443,0,0,0,1.792,12.987q3.586,9.837,15,18.628a43.926,43.926,0,0,0,9.969,5.99,7.939,7.939,0,0,0,4.9.656,3.668,3.668,0,0,0,.961-.481,1.573,1.573,0,0,0,.568-.437h.044a.683.683,0,0,1,.175-.131l.35-.263.481-.612,1.268-2.755c.088-.234.161-.422.219-.568a35.563,35.563,0,0,0,2.362-6.254q4.721-17.316,3.1-30.783A47.88,47.88,0,0,0,798.5,350.4a39.784,39.784,0,0,0-6.777-10.145q-.7-.962-1.531-1.924c-.091-.115-.179-.23-.263-.35q.566-6.231-3.5-13.511a47.684,47.684,0,0,1,7.346-.349,36.384,36.384,0,0,1,11.281,2.23,35.352,35.352,0,0,1,12.375,8.132,46.8,46.8,0,0,1,8.789,12.2q5.727,11.282,7.433,28.991a3.173,3.173,0,0,0,.044.524c.029.35.073.7.131,1.05l.263.743.044.174.086.088.131.306a.473.473,0,0,0,.35.131c.088.029.19.058.305.088a3.284,3.284,0,0,0,2.055-.35l6.3-2.667a.336.336,0,0,1,.131-.044q1.311-.482,3.06-1.137a87.605,87.605,0,0,1,31.178-5.553m23.525,1.094a68.623,68.623,0,0,0-32.008-4.241Q856,367.1,839.995,373.224a23.423,23.423,0,0,0-3.323,1.531,14,14,0,0,0-.131-1.792q-1.529-18.1-8.745-30.7a48.343,48.343,0,0,0-10.231-12.418,38.034,38.034,0,0,0-13.862-7.783,41.555,41.555,0,0,0-19.327-.962q-.772-1.161-1.662-2.318,25.691-6.61,56.932-5.291a138.829,138.829,0,0,1,20.158,2.144,60.9,60.9,0,0,1,18.54,6.47,87.273,87.273,0,0,1,13.73,10.014,175.484,175.484,0,0,1,20.464,19.9,110.823,110.823,0,0,1,15.042,23.612,140.972,140.972,0,0,1,12.9,65.59,119.922,119.922,0,0,1-8.264,39,109.615,109.615,0,0,1-21.994,35.026q-14.954,16.091-33.145,23.218a95.1,95.1,0,0,1-31.265,6.122q-30.7,1.336-60.6-11.763A45.043,45.043,0,0,0,782.713,517q-.659-1.78-1.487-3.5c.29.109.581.211.875.307q12.768,4.154,28.248.786,11.5-2.491,26.63-10.1a250.335,250.335,0,0,0,67.3-49.325q3.847-3.935,6.209-6.865,1.137-1.356,2.1-2.711a39.742,39.742,0,0,1,6.166-3.8q2.491-1.268,7.477-3.586a31.667,31.667,0,0,0,7.478-4.767,11.782,11.782,0,0,0,4.11-7.7,8.565,8.565,0,0,0-.612-4.154,6.781,6.781,0,0,0-2.274-3.193,4.381,4.381,0,0,0-1.18-.7,19.777,19.777,0,0,0,.743-7.783q-.7-10.406-7.7-20.332a53.759,53.759,0,0,0-11.326-11.544,57.934,57.934,0,0,0-14.211-7.915m-30.652,87.8a1.445,1.445,0,0,0,.219.175,23.1,23.1,0,0,1,3.542,3.236q1.092,1.181,3.235,3.672a48.537,48.537,0,0,0,4.066,4.111q-10.625,8.526-21.907,15.961,1.486-4.156,3.8-9.489,3.192-7.041,4.722-10.583a31.546,31.546,0,0,0,1.836-4.81,15.172,15.172,0,0,0,.482-2.274m2.274-2.055a.126.126,0,0,0-.088-.044q9.226-2.142,18.147-5.116l-.875,1.881q-1.225,2.842-3.542,8.658l-2.186,5.6q-2.055-1.836-3.761-3.586-2.405-2.668-3.673-3.936a29.891,29.891,0,0,0-4.023-3.454m-10.67,2.011q2.8-.48,5.554-1.049-.832,1.792-1.881,4.241l-3.1,7.3q-3.1,7.433-4.548,10.976-1.792,4.634-3.1,8.7a1.162,1.162,0,0,0-.393.263c-.175-.175-.365-.378-.568-.612a19.96,19.96,0,0,1-3.236-4.066l-9.445-14.386q-2.055-3.236-2.579-4.285-1.488-3.062-2.318-4.548a6.33,6.33,0,0,1-.393-.524,145.935,145.935,0,0,0,26.017-2.012m44.471-13.643a29.206,29.206,0,0,0,2.972-1.7,139.5,139.5,0,0,1-9.838,10.45q-4.723,4.592-9.663,8.965c.057-.146.116-.292.174-.438q2.449-6.077,3.061-7.389a35.337,35.337,0,0,0,1.793-4.373q.086-.35.13-.568,1.356-.526,2.668-1.05a79.192,79.192,0,0,0,8.7-3.892m46.087,100.878a26.282,26.282,0,0,1-6.558-2.842,41.283,41.283,0,0,1,13.773,2.536q1.005.394,3.673,1.531,2.317,1.049,3.673,1.531a44.44,44.44,0,0,1-7.608-1.093q-4.723-.962-6.953-1.662m-105.6-60.3a28.044,28.044,0,0,0,4.241,5.465q-6.777,4.11-13.9,7.827a140.771,140.771,0,0,1-16.354,7.521,77.123,77.123,0,0,1-17.272,4.548,52.865,52.865,0,0,1-10.626.393,90.537,90.537,0,0,0,9.883-9.794q4.417-5.03,14.167-17.185l15.654-19.5q.743-1.006,1.181-1.662,2.011,4.679,3.454,7.259,1.006,1.748,2.842,4.46,2.318,3.411,2.93,4.417,1.354,2.1,3.8,6.253m-180.2-345.572a131.637,131.637,0,0,1,25.93,17.272,152.529,152.529,0,0,1,21.689,22.825A146.029,146.029,0,0,1,735.4,215.108a118.812,118.812,0,0,1,9.182,40.71,103.407,103.407,0,0,1-6.559,41.933q-7.957,21.077-23.218,34.676-11.5,10.362-28.947,17.447-30.7,12.581-67.077,10.976a61.855,61.855,0,0,0,3.324-6.559q5.554-12.812,1.487-21.689a21.622,21.622,0,0,0-8.745-9.358,43.492,43.492,0,0,0-12.112-4.636,92.825,92.825,0,0,0-40.4-.656A116.837,116.837,0,0,0,524.6,332.69q-.706.431-1.4.831a3.63,3.63,0,0,1-.35-.175q-.113-.064-.219-.131l1.138-1.531q8.4-11.193,12.768-17.928a163.515,163.515,0,0,0,11.281-20.726q6.953-15.261,7.915-27.023a39.747,39.747,0,0,0-.7-12.2q-.259-1.179-.612-2.318a332.669,332.669,0,0,1,55.795,4.941,409.435,409.435,0,0,1,81.595,22.606q6.472,2.449,7.871,2.93a50.7,50.7,0,0,0,8.09,2.186,13.835,13.835,0,0,0-4.243-4.678,40.005,40.005,0,0,0-5.6-3.236,217.449,217.449,0,0,0-29.952-11.369q-61.613-19.088-115.613-18.321a23.346,23.346,0,0,0-2.405-3.586q-5.291-6.69-14.823-9.27a52.376,52.376,0,0,0-17.622-1.313,101.855,101.855,0,0,0-29.427,6.691,131.641,131.641,0,0,0-21.732,10.757,95.445,95.445,0,0,1,5.728-34.238,116.308,116.308,0,0,1,24.7-40.535q27.941-30.04,78.8-46.175a151.925,151.925,0,0,1,21.426-5.335,76.029,76.029,0,0,1,21.775-.656,116.159,116.159,0,0,1,18.453,4.678,210.566,210.566,0,0,1,29.734,11.675M279.507,45.1a54.82,54.82,0,0,1,2.974,22.039,64.332,64.332,0,0,1-5.423,21.994,68.334,68.334,0,0,1-11.937,18.452,85.233,85.233,0,0,1-7.739,7.478q-2.143,0-4.241.044-31.79,1.006-56.277,12.812a98.021,98.021,0,0,0-10.32,5.6,68.324,68.324,0,0,1-18.889-5.6,57.193,57.193,0,0,1-18.147-13.949,52.686,52.686,0,0,1-11.369-21.251,58.5,58.5,0,0,1-1.574-22.651,65.679,65.679,0,0,1,6.428-22.038A64.817,64.817,0,0,1,156.11,30.363a59.038,59.038,0,0,1,16.572-11.107A76.624,76.624,0,0,1,187.593,12.3q1.181-.438,2.318-.787.962-.394,1.88-.787a63.82,63.82,0,0,1,20.551-4.722,68.453,68.453,0,0,1,20.684,1.88,78.635,78.635,0,0,1,19.458,7.739A68.746,68.746,0,0,1,268.4,27.521,50.079,50.079,0,0,1,279.507,45.1M358.3,175.4a5.649,5.649,0,0,0-3.1,1.618,20.136,20.136,0,0,0-2.362,2.886q-19.108,26.892-47.575,57.456-15.392,16.573-52.472,53.347-7.039,6.91-13.9,13.906-8.178,8.307-26.849,28.16l-16.966,18.058q-1.225,1.268-.875,2.144a1.516,1.516,0,0,0,.393.481,1.313,1.313,0,0,0-.568.787q-.219,1.225,1.355,2.36a28.609,28.609,0,0,0,9.577,4.285q3.526.974,7.084,1.662a25.233,25.233,0,0,0-6.253,6.952q-.595.928-1.138,1.881a88.482,88.482,0,0,1-24.792-9.358q-20.028-11.151-33.626-32.445a117.255,117.255,0,0,1-10.32-20.377,61.488,61.488,0,0,0,7.346,8.877,50.694,50.694,0,0,0,19.852,12.375,55.305,55.305,0,0,0,23.568,2.1,65.051,65.051,0,0,0,23.132-7.3,71.454,71.454,0,0,0,18.715-14.561,78.377,78.377,0,0,0,12.812-19.064,66.289,66.289,0,0,0,5.772-17.884,52.11,52.11,0,0,0-.131-18.191,46.279,46.279,0,0,0-6.472-16q2.537.92,5.248,1.662a67.084,67.084,0,0,0,18.671,2.1,75.739,75.739,0,0,0,22.65-3.891,72.491,72.491,0,0,0,20.945-11.107,63.673,63.673,0,0,0,16.092-18.1,53.686,53.686,0,0,0,7.783-22.387,49.66,49.66,0,0,0-3.149-23.132,62.621,62.621,0,0,0-11.981-19.546,67.571,67.571,0,0,0-14.649-12.462q1.969.569,3.98,1.181a127.539,127.539,0,0,1,37.3,18.671,108.136,108.136,0,0,1,28.772,31.176q11.631,19.066,12.9,38.873a81.06,81.06,0,0,1-.612,16.485,67.425,67.425,0,0,0-5.335-6.647,54.6,54.6,0,0,0-4.941-4.81,108.736,108.736,0,0,0,.044-14.036q-1.529-21.908-12.375-32.752A8.11,8.11,0,0,0,359,178.9a.179.179,0,0,1-.131-.044,4.14,4.14,0,0,0-.568-3.454m-8.832,18.627q4.5-5.991,7.084-10.057.48.568,1.18,1.4,9.138,9.883,10.276,28.728.313,4.642.174,9.226a29.363,29.363,0,0,0-20.157-3.629,38.566,38.566,0,0,0-10.976,3.761q-9.1,4.679-17.753,14.823-18.017,21.121-26.98,55.489-1.88,7.149-3.279,14.43-.812.318-1.618.656a94.082,94.082,0,0,0-24.18,14.692,105.077,105.077,0,0,0-16.311,16.879,97.437,97.437,0,0,0-11.194,18.408,5.562,5.562,0,0,1-.612,0,55.86,55.86,0,0,0-7.958-.524,41.71,41.71,0,0,0-5.072.35,96.453,96.453,0,0,1-16-2.537,48.965,48.965,0,0,1-7.52-2.405q-.876-.392-1.487-.612c.146-.117.305-.247.481-.393a212.222,212.222,0,0,0,19.765-18.584q6.253-6.471,18.671-19.721,5.422-5.553,18.977-18.628,30.522-29.514,49.149-49.148a670.989,670.989,0,0,0,45.345-52.6m-67.34-65.59a61.7,61.7,0,0,1,10.408,3.542,58.694,58.694,0,0,1,18.846,13.25,62.954,62.954,0,0,1,12.9,19.415,49.783,49.783,0,0,1,3.8,13.555q1.356,11.5-4.11,23.744a56.748,56.748,0,0,1-14.954,20.071,64.689,64.689,0,0,1-21.3,12.287,73.119,73.119,0,0,1-23.525,4.066q-18.583.088-31-8.439-.611-.438-1.224-.919-2.493-2.449-5.2-4.634a47.664,47.664,0,0,1-8.527-12.681,67.917,67.917,0,0,1-6.034-24.049q-1.049-15.48,3.586-27.9a49.72,49.72,0,0,1,6.777-12.943,44.781,44.781,0,0,1,10.32-10.276,55.53,55.53,0,0,1,12.505-6.122,69.484,69.484,0,0,1,17.228-3.542l2.842.088q8.441.35,16.66,1.487m46.263,111.853q6.866-7.083,13.292-10.1a26.506,26.506,0,0,1,8.046-2.492,20.618,20.618,0,0,1,8.265.349q8.264,2.057,15.7,11.414a78.507,78.507,0,0,1,13.336,26.586,142.518,142.518,0,0,1,5.072,29.777q.83,11.151,1.18,13.949a48.886,48.886,0,0,0,3.586,13.336q.307-.568.657-1.136a.8.8,0,0,0,.262.349,1.638,1.638,0,0,0,1.837.394,5.478,5.478,0,0,0,1.967-1.138,93.006,93.006,0,0,0,6.472-6.865q11.368-13.075,19.546-21.6a258.143,258.143,0,0,1,21.163-19.853q24.793-20.681,50.2-28.685,19.721-6.209,34.151-1.924,6.121,1.88,9.007,5.116,3.411,3.891,3.892,10.888.655,9.138-3.717,21.382-4.636,12.637-15.086,29.384Q514.93,327.967,509.29,337.5a11.106,11.106,0,0,0-1.574,3.717,3.747,3.747,0,0,0,.131,2.055,2.747,2.747,0,0,0,1.093,1.618,2.966,2.966,0,0,0,2.012.612h.349a5.673,5.673,0,0,0,.612.437,3.016,3.016,0,0,0,1.75.438,6.5,6.5,0,0,0,2.667-.656q.787-.394,2.362-1.4,21.426-13.556,41.54-18.059a91.5,91.5,0,0,1,22.65-2.186,73.216,73.216,0,0,1,22.257,3.935q7.128,2.493,9.577,6.428,3.542,5.816-.831,15.392-5.553,12.157-19.152,24.7-3.674,3.411-11.851,10.32-7.87,6.6-11.806,10.32a26.454,26.454,0,0,0-4.285,4.853,9.567,9.567,0,0,0-1.75,5.816,16.72,16.72,0,0,0,2.668-.219,8.415,8.415,0,0,0,1.7.831,23.673,23.673,0,0,0,4.46,1.224q22.125,4.285,36.687,15.392a40.483,40.483,0,0,1,10.057,10.582,22.448,22.448,0,0,1,3.717,13.906q-.788,8.4-9.27,17.228-10.014,10.45-27.417,19.064-5.991,2.973-15.261,6.909-8.089,3.365-12.987,5.465a103.459,103.459,0,0,0,5.029-36.38A117.445,117.445,0,0,0,552.973,412.4a130.738,130.738,0,0,0-27.854-38,146.642,146.642,0,0,0-37.954-26.149q-27.286-13.337-53.7-13.948-28.992-.745-57.851,14.036-26.892,13.642-48.974,38.13A181.082,181.082,0,0,0,302.9,419.312a143.721,143.721,0,0,0-14.954,38.349,120.489,120.489,0,0,0-2.274,41.8q2.624,21.862,12.856,38.916a90.712,90.712,0,0,0,16.66,20.2,60.53,60.53,0,0,1-6.689-.305,93.707,93.707,0,0,1-60.737-30.566q-6.864-7.652-8.046-14.211-.524-3.061.743-4.592,1.312-1.4,4.855-1.4a124.906,124.906,0,0,1,19.939,1.618,9.026,9.026,0,0,0,3.323,0,2.361,2.361,0,0,0,2.055-1.574,2.006,2.006,0,0,0,2.23-3.017,7.219,7.219,0,0,0-1.792-2.317,373.682,373.682,0,0,1-27.5-27.461,162.5,162.5,0,0,1-22.213-31.571,125.165,125.165,0,0,1-12.287-35.069q-3.8-19.459,1.924-31.614,2.756-5.86,6.91-8.221,4.022-2.274,10.713-1.88a54.26,54.26,0,0,1,15.523,3.454,109.7,109.7,0,0,1,14.605,6.908,217.007,217.007,0,0,1,28.641,19.022,18.49,18.49,0,0,0,2.143,1.574,5.224,5.224,0,0,0,.568,1.136,2.222,2.222,0,0,0,2.143,1.224,2.2,2.2,0,0,0,1.618-1.005q.787.044,1.967.088a3.219,3.219,0,0,1,1.618.524,4.91,4.91,0,0,1-.568-1.967,17.9,17.9,0,0,0-.35-3.324,8.717,8.717,0,0,0-1.88-3.191q-.088-2.712-.307-5.772-.568-6.909-.874-10.408-3.236-40.054,5.465-75.865,9.094-37.43,29.472-58.507M435.917,346.289a119.7,119.7,0,0,1,28.728,5.684,140.938,140.938,0,0,1,27.066,12.243A137.847,137.847,0,0,1,522.5,388.485a115.579,115.579,0,0,1,22.3,33.145,102.819,102.819,0,0,1,8.963,40.316q.482,21.993-8.09,40.01-6.471,13.686-19.239,26.761a140.108,140.108,0,0,1-11.106,10.232,7.8,7.8,0,0,0-2.23-3.324l-.35-.262a4.214,4.214,0,0,0-1.487-.613c-.262-.058-.51-.1-.743-.13h-.175a10.914,10.914,0,0,0-1.442-.088q-.7,0-1.881.088a30.009,30.009,0,0,0-7.3.481,162.069,162.069,0,0,0-27.066,7.215q-4.285,1.093-8.483,2.536a104.277,104.277,0,0,0-25.711,13.25,33.66,33.66,0,0,0-7.171,6.34,54.074,54.074,0,0,0-6.6-1.53,93.563,93.563,0,0,0-30.434-.262q-4.11-5.378-12.593-11.063a132.815,132.815,0,0,0-45.432-19.5,17.41,17.41,0,0,0-6.34-.393,5.566,5.566,0,0,0-2.362,1.136.981.981,0,0,0-.305-.131q-1.051-.307-2.274,1.181a35.1,35.1,0,0,0-5.728,10.582q-.756,2.208-1.443,4.941a80.284,80.284,0,0,1-13.206-16.441q-11.368-18.8-12.375-43.683a116.409,116.409,0,0,1,7.39-45.825q13.861-37.692,52.735-71.669a144.174,144.174,0,0,1,16.878-12.987,69.771,69.771,0,0,1,18.8-8.832,108.722,108.722,0,0,1,17.8-2.886,196.732,196.732,0,0,1,30.128-.787m-150.9-1.706a5.177,5.177,0,0,1-.044.568,130.388,130.388,0,0,1-34.544,11.894q-5.2.962-10.319,1.443,13.6-23.963,33.494-37.255a83.556,83.556,0,0,1,14.474-7.783,233.237,233.237,0,0,0-3.061,31.133m-.088,7.259q.012,3.389.088,6.734a170.891,170.891,0,0,1-16,6.952q-3.82,1.415-7.609,2.579-4.8-2.552-8.92-4.285-1.13-.47-2.274-.917a132.677,132.677,0,0,0,34.718-11.063m2.274,32.577q-4.765-3.63-11.544-7.915-1.479-.943-2.93-1.837,6.377-2.2,12.9-5.029.569,7.4,1.574,14.78M328.174,540.7a.686.686,0,0,1,.175.131,12.59,12.59,0,0,0,2.8,1.224q.743.219,2.93.656a135.96,135.96,0,0,1,27.679,9.052,133.357,133.357,0,0,1,22.87,13.117,23.411,23.411,0,0,0-8.221,4.635,2.421,2.421,0,0,0-.919,1.662,1.545,1.545,0,0,0,1.181,1.531,4.876,4.876,0,0,0,2.1.218q2.579-.175,6.121-.743,2.011-.349,6.079-1.093a101.452,101.452,0,0,1,24.968-1.574,60.831,60.831,0,0,1,24.137,6.559q3.061,1.53,4.329.349a2.5,2.5,0,0,0,.656-2.448q-.48-2.8-4.066-5.247a24.037,24.037,0,0,0-2.579-1.487q1.181-.568,2.536-1.268A251.232,251.232,0,0,1,491.8,546.338a64.442,64.442,0,0,0,8.046-2.536q4.066-.745,4.2-.743.874-.175,1.662-.394.263.7.656,1.75a30.316,30.316,0,0,1,1.355,5.509,111.733,111.733,0,0,1,.962,26.892q-.787,10.538-3.629,26.542-.569-.7-1.18-1.355a110.587,110.587,0,0,0-9.315-8.7,9.05,9.05,0,0,1-1.573-1.006l-3.368-2.711-.437-.35a10.723,10.723,0,0,1-1.05-.7c-.262-.145-.539-.291-.83-.437a46.064,46.064,0,0,0-4.9-2.143l-1.792-.481a2.463,2.463,0,0,0-2.011.7,2.068,2.068,0,0,0-.263,2.1,5.245,5.245,0,0,0,1.268,1.792q.962.832,3.717,2.8,15.13,10.844,23.263,33.627a2.467,2.467,0,0,0,.131.305,44.532,44.532,0,0,1,.13,10.232,43.486,43.486,0,0,1-4.329,14.691,52.67,52.67,0,0,1-8.788,12.638q-9.534,10.319-25.318,17.4-28.073,12.593-65.766,11.018-29.383-1.225-49.892-11.15a86.756,86.756,0,0,1-12.724-7.609q-13.819-9.8-20.027-22.169a42.969,42.969,0,0,1-4.373-14.386,34.807,34.807,0,0,1,1.312-14.823,51.108,51.108,0,0,1,3.586-8.221,69.824,69.824,0,0,1,6.777-10.757,36.741,36.741,0,0,1,9.14-8.527q1.661-1.049,1.4-2.011a1.181,1.181,0,0,0-.787-.831,2.525,2.525,0,0,0-1.4-.131,10.832,10.832,0,0,0-4.548,2.493,59.132,59.132,0,0,0-9.533,9.751,28.251,28.251,0,0,1-.524-5.159,169.752,169.752,0,0,1,4.285-45.039q2.055-8.875,2.186-9.445.394-2.143.656-4.066M297.216,564a102.4,102.4,0,0,1-13.687,20.639,124.845,124.845,0,0,1-46.306,34.588A147.355,147.355,0,0,1,183.657,631.3a130.658,130.658,0,0,1-23.874-.962,85.886,85.886,0,0,1-23.307-6.3,74.578,74.578,0,0,1-21.338-13.774,76.95,76.95,0,0,1-16.572-21.513q-9.488-18.234-10.32-42.371A128.393,128.393,0,0,1,94.412,502q.48-1.619,1.049-3.193c.058-.174.117-.335.175-.481L108.1,471.477l.524-.874a7.7,7.7,0,0,0,.437.7q4.373,6.864,13.075,18.671a5.574,5.574,0,0,0,.875.481,12.409,12.409,0,0,0,1.706.875l3.716,1.355a22.073,22.073,0,0,0,5.072.481,24.918,24.918,0,0,0,7.653-1.487,40.17,40.17,0,0,0,13.2-8.308q7.346-6.559,10.32-13.424,2.579-6.035.612-10.1a4.923,4.923,0,0,0-.568-.962v-.175a5.666,5.666,0,0,0-1.181-2.974,63.123,63.123,0,0,0-5.422-7.258q-2.055-2.405-6.079-6.734-5.508-5.816-11.106-11.632.307-.35.7-.743l10.1-8.833a.678.678,0,0,1,.175-.13,4.242,4.242,0,0,0,.524-.438,54.76,54.76,0,0,1,15.7-8.527,76.738,76.738,0,0,1,14.779-2.8,173.43,173.43,0,0,1,17.972-1.05q3.792,23.393,17.447,45.914,12.9,21.295,34.588,41.146,4.066,3.761,7.7,6.691a51.523,51.523,0,0,0-16.135-1.4q-5.161.436-7.783,2.186a9.99,9.99,0,0,0-3.717,4.722,13.17,13.17,0,0,0-.962,6.035q.35,5.2,4.2,11.5a70.121,70.121,0,0,0,16.572,18.671,102.8,102.8,0,0,0,21.47,13.2A101.417,101.417,0,0,0,297.216,564m239.972-31.046a112.468,112.468,0,0,0,17.753-25.8q1.4-2.887,2.624-5.9c.2.029.437.058.7.088a23,23,0,0,0,6.034-.35,26.933,26.933,0,0,0-2.1,3.848,20.384,20.384,0,0,0-1.748,6.865,16.887,16.887,0,0,0,.743,7,18.97,18.97,0,0,0,5.509,7.915,8.4,8.4,0,0,0-.131,1.617q.219,10.277.524,15.3a5.872,5.872,0,0,0,.088,1.05q-1.486.436-2.93.961-7.477,2.712-10.844,6.953a12.464,12.464,0,0,0-2.623,6.034,9.58,9.58,0,0,0,1.181,6.254,14.837,14.837,0,0,0,4.372,4.022A44.44,44.44,0,0,0,563.6,572.4q1.312.524,3.542,1.268a9.446,9.446,0,0,0,.088,1.749q.438,3.628,1.05,6.733a54.591,54.591,0,0,0,3.586,9.27,5.663,5.663,0,0,0,.305-.612v-.044q-.3-4.5-.218-7.259.131-2.885.088-3.41a4.21,4.21,0,0,1,0-1.224l-.088-1.18q-.088-1.531-.044-2.537,19.064,5.9,36.731,11.632.568-.088,1.355-.263h.218a5.981,5.981,0,0,0,.613-.305,7.333,7.333,0,0,0,2.536-2.624,25.138,25.138,0,0,0,1.531-3.41q3.76-9.62,3.979-10.057,2.537-5.553,3.717-8.4.874-2.186,1.531-4.154l.131-.131a7.874,7.874,0,0,0,.524-1.4l.263-.438L627.527,548v-.088a3.629,3.629,0,0,0-.262-1.618,1.423,1.423,0,0,1-.175-.218,17.914,17.914,0,0,1-2.23-.7h-.044l-1.706-.438q-11.98-1.967-23.481-2.711a128.919,128.919,0,0,0-17.972-.131,77.093,77.093,0,0,0-9.882,1.355l-.088-1.487c-.029-.378-.058-.743-.088-1.093l.656-10.625a47.6,47.6,0,0,0,10.844,3.629,112.012,112.012,0,0,0,25.537,2.317,199.109,199.109,0,0,0,25.667-2.36q7.565-1.137,12.812-2.449a75.9,75.9,0,0,0,12.375-4.11,33.1,33.1,0,0,0,10.057-6.647,16.282,16.282,0,0,0,5.072-10.713q.349-6.953-6.035-14.08a38.3,38.3,0,0,0-12.2-9.1A57.126,57.126,0,0,0,647.6,483.5l-5.99-1.662q-5.816-1.617-8.965-2.143a74.909,74.909,0,0,0-21.119-.568A70.54,70.54,0,0,0,626.3,464.569a46.286,46.286,0,0,0,2.667-4.022,30.7,30.7,0,0,1,5.947,1.531,35.585,35.585,0,0,1,7.215,3.628q2.71,1.75,6.559,4.811a4.931,4.931,0,0,0,1.967,1.093,1.533,1.533,0,0,0,1.706-.481q.612-.874-.263-2.623a28.715,28.715,0,0,0-2.579-4.024c.349,0,.7-.015,1.049-.044q1.225-.088,8.658-.7,26.018-2.405,44.251,3.892a62.872,62.872,0,0,1,19.59,10.844,51.23,51.23,0,0,1,11.107,12.593,3.907,3.907,0,0,0-1.881,1.706,2.266,2.266,0,0,0,.219,1.88,3.239,3.239,0,0,0,1.355,1.443,10.1,10.1,0,0,0,3.848.787q13.118.962,22.606,7.083a35.32,35.32,0,0,1,8.789,8.09,29.257,29.257,0,0,1,5.335,10.581q1.573,5.9.917,15.086a22.082,22.082,0,0,0-.044,3.629,6.005,6.005,0,0,0,1.225,3.236,4.5,4.5,0,0,0,6.646.218.682.682,0,0,0,.131-.174,4.068,4.068,0,0,0,.307.437,19.272,19.272,0,0,0,1.662,1.88q9.182,9.359,12.286,18.278a52.737,52.737,0,0,1,2.449,14.08q.962,19.94-6.516,35.943a61.07,61.07,0,0,1-10.232,15.3,53.314,53.314,0,0,1-8.746,7.739,7.185,7.185,0,0,0-.7-2.974,4.28,4.28,0,0,0-2.712-2.492,3.848,3.848,0,0,0-2.536.175,5.825,5.825,0,0,0-2.186,1.4,11.625,11.625,0,0,0-1.618,2.1q-.219.392-1.312,2.317a47.628,47.628,0,0,1-13.206,15.7,45.5,45.5,0,0,1-13.073,6.865,51.821,51.821,0,0,1-14.561,2.667,73.033,73.033,0,0,1-27.68-4.459,2.534,2.534,0,0,0-.524-1.881q-1.268-1.529-4.548-.831a92.212,92.212,0,0,0-11.762,3.848l-.612.263q-.657.13-1.443.349a101.019,101.019,0,0,1-38.174,2.011,102.132,102.132,0,0,1-36.338-11.981q-18.451-10.362-22.737-24.487a8.473,8.473,0,0,0-.656-1.662,2.156,2.156,0,0,0-1.136-1.18,2,2,0,0,0-1.487-.044,3.194,3.194,0,0,0-1.355.875,6.178,6.178,0,0,0-.962,2.974,14.989,14.989,0,0,0,.393,4.634,4.241,4.241,0,0,1-.524-.218q-1.573-.657-5.116-2.012-3.367-1.267-5.116-2.011a50.573,50.573,0,0,1-15-10.538,55.887,55.887,0,0,1-10.669-14.954,63.373,63.373,0,0,1-5.6-17.447,74.467,74.467,0,0,1-.7-18.409,18.47,18.47,0,0,0,0-4.46,4.5,4.5,0,0,0-2.493-3.5,3.579,3.579,0,0,0-2.755-.131,4.7,4.7,0,0,0-2.4,1.531,6.184,6.184,0,0,0-1.357,2.4,32.237,32.237,0,0,1-1.005-3.41,45.021,45.021,0,0,1-1.094-9.838,149.488,149.488,0,0,0,17.4-16.529m19.24,27.766a4.214,4.214,0,0,1,.088-2.536,5.9,5.9,0,0,1,1.268-2.274,14.02,14.02,0,0,1,4.155-2.886,56.423,56.423,0,0,1,19.021-4.9,124.728,124.728,0,0,1,19.9,0q10.014.787,20.289,2.4-.175.394-.349.875-.788,1.924-6.122,14.123-3.28,7.479-5.116,12.813l-.7,1.7q-19.546-6.077-40.272-12.068-3.367-1.006-5.072-1.618a23.623,23.623,0,0,1-4.547-2.4,6.387,6.387,0,0,1-2.537-3.236M770.645,358.138a1.513,1.513,0,0,0,.088-.218,54.451,54.451,0,0,0,6.253-3.1q8.057-4.718,11.151-10.757a60.315,60.315,0,0,1,6.733,13.555,54.232,54.232,0,0,1,2.186,22.169,114.494,114.494,0,0,1-4.591,21.908,6.012,6.012,0,0,0-.219,1.093q-9.97-5.291-15.436-10.669-7.913-7.74-9.226-16.879a28.728,28.728,0,0,1,3.061-17.1m-67.689,2.537q1.43.285,3.061.524a115.1,115.1,0,0,0-10.976,17.84,41.617,41.617,0,0,0-7-.656,33.56,33.56,0,0,0-13.643,2.581,23.6,23.6,0,0,0-10.625,8.351,7.907,7.907,0,0,0-1.138,2.186,8.958,8.958,0,0,0-1.312,1.792,3.4,3.4,0,0,0-.218,1.925,2.562,2.562,0,0,0,.874,1.661q1.75,1.225,4.679-.743.524-.349,3.5-2.448a36.883,36.883,0,0,1,3.629-2.274,21.459,21.459,0,0,1,15.3-1.618c.459.138.911.283,1.355.438q-1.051,3.114-1.881,6.253a94.133,94.133,0,0,0-2.711,31.134q.224,3.291.7,6.558-.675.569-1.224,1.006-4.154,3.455-6.778,5.947a47.341,47.341,0,0,0-9.095,11.5q-4.548,0-9.095.305a45.612,45.612,0,0,0-6.866.831q-.458-.214-.962-.437-2.1-.962-2.8-1.312a40.964,40.964,0,0,1-11.806-9.445q-3.061-3.455-2.886-5.991a8.44,8.44,0,0,1,1.792-3.979,18.1,18.1,0,0,1,3.586-3.848,12.954,12.954,0,0,1,3.936-1.75q1.4-.392,4.285-.874l6.559-1.094a13.3,13.3,0,0,0,2.448-.524,4.324,4.324,0,0,0,2.012-1.4,2.711,2.711,0,0,0,.612-1.618,1.983,1.983,0,0,0,.13-1.355v-.088a2.611,2.611,0,0,0-.218-.787,3.764,3.764,0,0,0-1.224-1.662,11.254,11.254,0,0,0-3.717-1.529,137.179,137.179,0,0,1-13.25-4.5q-6.3-3.017-13.2-7-7.391-4.285-21.515-13.687a75.438,75.438,0,0,1-8.57-6.384.214.214,0,0,0-.086-.044,136.219,136.219,0,0,0,12.112-12.331.264.264,0,0,0,.044-.088q4.252.4,8.483.568a175.6,175.6,0,0,0,38.435-2.623,159.909,159.909,0,0,0,36.73-11.5,77.144,77.144,0,0,0,8.527,2.186m15.48,2.011q8.875.787,15,.962a127.3,127.3,0,0,0,14.692-.307,288.373,288.373,0,0,0-5.684,32.708q-1.967,15.916-2.36,27.46a155.524,155.524,0,0,0,1.268,27.461q.743,5.378,2.4,12.855,3.062,13.774,7.085,21.951,1.3,2.634,2.8,5.071-1.029-.3-2.1-.568a33.906,33.906,0,0,0-9.052-1.049,38.577,38.577,0,0,0-4.5-7.827,67.328,67.328,0,0,0-14.342-14.3,65.766,65.766,0,0,0-17.709-9.358q-.611-.832-.919-1.225a12.846,12.846,0,0,1-2.1-7.084,18.986,18.986,0,0,1,1.4-7.477,35.576,35.576,0,0,1,3.629-6.6q1.356-2.143,4.373-6.254a104.347,104.347,0,0,0,5.553-9.007,32.122,32.122,0,0,0,3.717-9.97,21.576,21.576,0,0,0-1.049-9.62,29.187,29.187,0,0,0-4.9-9.182,33.743,33.743,0,0,0-7.741-7.084,34.76,34.76,0,0,0-5.858-3.105,100.621,100.621,0,0,1,11.893-18.889q2.153.232,4.5.437m33.275,7.3q.569-2.449,1.05-4.5a136.026,136.026,0,0,0,3.017,28.379q-2.405,4.11-5.335,9.926-1.529,3.017-4.329,8.832.219-3.192.612-6.6.7-6.559,2.449-19.415,1.356-10.408,2.536-16.616m5.423,29.69a107.922,107.922,0,0,0,4.9,14.561,84.881,84.881,0,0,0-15.436,1.662l9.752-19.5q.394,1.619.787,3.279m-56.058-.174a20.143,20.143,0,0,1,1.836,13.424,24.738,24.738,0,0,1-6.121,12.375q-1.085,1.167-2.624,2.536-.059-.812-.13-1.617a84.642,84.642,0,0,1,2.274-29.516q.32-1.23.656-2.449a18.582,18.582,0,0,1,4.11,5.248m7.128,16.747a25.149,25.149,0,0,0,1.268-9.97,26.47,26.47,0,0,0-1.355-6.515,26.012,26.012,0,0,0-6.165-9.751,27.428,27.428,0,0,0-5.291-4.154,29.052,29.052,0,0,1,13.206,8q5.771,6.077,5.946,12.9a21.511,21.511,0,0,1-1.88,8.4,56.89,56.89,0,0,1-4.154,7.608q-3.192,4.811-4.811,7.215A61.9,61.9,0,0,0,700.6,437.5a28.323,28.323,0,0,0-2.712,8.176,19.784,19.784,0,0,0,.526,8.7q.217.657.481,1.355a111.413,111.413,0,0,0-11.675-2.055q-6.428-.787-12.855-.961a31.435,31.435,0,0,1,3.279-4.417,58.526,58.526,0,0,1,8.572-7.871q3.017-2.362,9.182-7.084a47.059,47.059,0,0,0,8.089-8.134,29.71,29.71,0,0,0,4.723-8.964m56.626,5.116a6.358,6.358,0,0,0,.219-.7,68.472,68.472,0,0,0,8.614,12.9A65.04,65.04,0,0,0,789.185,446.9q-.962.217-2.186.612-16.922,5.9-34.806,13.118-.788.349-1.487.656a6.92,6.92,0,0,0,.262-.743q1.444-4.2,7.171-19.5,4.5-12.025,6.691-19.677m-9.707-3.148q2.8-.219,7.827-.219a1.7,1.7,0,0,0-.087.219q-2.318,8.089-7.127,20.376-6.3,16.4-7.609,19.983a158.416,158.416,0,0,1-2.711-33.144q.044-2.712.219-5.642.349-.086.787-.218a47.383,47.383,0,0,1,8.7-1.355m37.648,36.9q-.131-2.579-.524-5.816l.087-.088a2.6,2.6,0,0,0,.262-.305,82.1,82.1,0,0,0,21.908,8.4,105.635,105.635,0,0,0,16.878,2.405q-4.721,5.771-12.505,15.61-9.227,11.543-12.812,16.048-4.986,6.209-8.09,9.751a108.429,108.429,0,0,1-8.658,8.789,162.469,162.469,0,0,1,.568-18.322q.394-5.464,1.924-19.327a120.142,120.142,0,0,0,.962-17.141m-2.755-4.634q-.044.874-.088,2.055-.263,7.957-2.362,27.329a261.787,261.787,0,0,0-1.836,27.373q0,1.006.044,1.923a40.476,40.476,0,0,1-7.434-2.93q-1.614-.807-3.148-1.748-.349-.362-.7-.743a44.986,44.986,0,0,0-10.451-8.4,2.665,2.665,0,0,1-.262-.175,49.607,49.607,0,0,1-6.822-9.488,72.916,72.916,0,0,1-6.209-15.96q-.788-2.712-1.4-5.465a70.871,70.871,0,0,0,10.713-3.149l29.953-10.625M593.639,388.879a18.814,18.814,0,0,0,3.761,3.979,57.581,57.581,0,0,0,5.684,3.935q20.989,13.25,24.094,15.043a129.458,129.458,0,0,0,15.479,7.564,46.971,46.971,0,0,0-8.4,4.417,16.9,16.9,0,0,0-5.684,6.384q-.755-1.374-1.662-2.711-6.82-9.97-20.989-17.71-14.779-8.045-27.766-8.788,1.748-1.137,3.761-2.624,5.97-4.467,11.718-9.488m41.322,61.173a49.132,49.132,0,0,0,9.926,7.522l-1.574,1.049a1.011,1.011,0,0,0-.262-.174,33.587,33.587,0,0,0-10.932-5.029,24.8,24.8,0,0,0,.875-5.335q.911.974,1.967,1.967m2.362,34.632a24.838,24.838,0,0,1,3.891,1.05q1.093.436,3.149,1.531,6.34,3.409,9.314,5.334a55.542,55.542,0,0,1,8.483,6.472,20.231,20.231,0,0,1,4.548,5.86,9.3,9.3,0,0,1,.568,7.259q-1.225,3.28-5.947,6.209a55.669,55.669,0,0,1-13.818,5.86,126.24,126.24,0,0,1-14.779,3.017,197.875,197.875,0,0,1-26.367,2.4,104.167,104.167,0,0,1-26.149-2.755,35.084,35.084,0,0,1-7.127-2.536l-1.224-.656a1.2,1.2,0,0,0-.35-.307.983.983,0,0,0-.349-.175,12.345,12.345,0,0,1-3.586-3.586,12.005,12.005,0,0,1-1.881-6.515,16.058,16.058,0,0,1,1.4-6.733,24.786,24.786,0,0,1,6.341-8.177q.313-.108.612-.218,8.789-3.367,14.6-5.9a137.574,137.574,0,0,0,13.643-6.953q2.567-.488,5.248-.874a89.768,89.768,0,0,1,29.779.393M76.528,180.7a53.235,53.235,0,0,1,23.131,6.866,56.388,56.388,0,0,1,17.272,14.954,65.823,65.823,0,0,1,9.4,17.579q-.436,1.617-.831,3.279a167.1,167.1,0,0,0-5.071,39.834,140.061,140.061,0,0,0,2.755,28.467,72.128,72.128,0,0,1-6.428,10.363,69.179,69.179,0,0,1-15.567,15.436,64.927,64.927,0,0,1-20.464,9.751A54.8,54.8,0,0,1,58.512,328.8,49.853,49.853,0,0,1,39.1,321.5a68.358,68.358,0,0,1-14.954-13.2,79.112,79.112,0,0,1-11.5-17.491,69.216,69.216,0,0,1-5.991-19.852,62.514,62.514,0,0,1,.437-21.077q.175-1.006.394-2.011.088-1.181.262-2.405a77.255,77.255,0,0,1,3.8-16.047,58.118,58.118,0,0,1,7.565-18.453,63.166,63.166,0,0,1,14.648-16.441,64.712,64.712,0,0,1,20.246-10.757,58.538,58.538,0,0,1,22.52-3.061m52.341,99.654q-.394-3.062-.612-6.166-.044-1.268-.044-2.492a61.676,61.676,0,0,1,4.722-23.088,66.817,66.817,0,0,1,13.206-20.595,51.031,51.031,0,0,1,10.713-8.833,42.311,42.311,0,0,1,13.643-5.248,50.247,50.247,0,0,1,14.518-.961q13.2.918,26.891,8.22a78.363,78.363,0,0,1,11.937,7.871q1.75,1.575,3.455,3.149a56.751,56.751,0,0,1,4.11,4.285A45.57,45.57,0,0,1,241.9,257.61q2.756,14.825-4.941,31.746a72.763,72.763,0,0,1-13.38,19.809,64.062,64.062,0,0,1-19.9,14.429A57.275,57.275,0,0,1,179.2,329.06q-13.337-.088-23.307-5.991a51.354,51.354,0,0,1-10.844-9.007,64.142,64.142,0,0,1-16.178-33.713M234.425,128.836q1.7-.307,3.454-.526a41.8,41.8,0,0,0-8.09,4.285,46.5,46.5,0,0,0-10.932,10.364,53.751,53.751,0,0,0-7.52,13.162,75.884,75.884,0,0,0,1.268,56.494q.83,1.836,1.75,3.673-1.225-.7-2.537-1.312a71.755,71.755,0,0,0-28.29-7.521,53.176,53.176,0,0,0-15.086,1.443,45.476,45.476,0,0,0-13.906,5.772q-9.532,5.86-17.184,18.015a82.02,82.02,0,0,0-8.614,17.228,187.792,187.792,0,0,1,8.09-37.955,85.293,85.293,0,0,1,17.359-14.3A66.648,66.648,0,0,1,178.1,188.3a32.038,32.038,0,0,0,3.367-.743,6.876,6.876,0,0,0,2.93-1.618,2.744,2.744,0,0,0,.919-1.792,2.183,2.183,0,0,0-.524-1.531,2.744,2.744,0,0,0-1.138-.831,8.1,8.1,0,0,0-.262-.962,30.081,30.081,0,0,1-1.05-11.018,89.052,89.052,0,0,1,1.706-11.195q.655-3.1,1.006-4.241a20.954,20.954,0,0,1,1.486-4.11q.307-.613,1.006-1.837a17.021,17.021,0,0,0,.875-1.924,6.868,6.868,0,0,0,.219-.875,162.428,162.428,0,0,1,16.528-8.351,129.544,129.544,0,0,1,29.254-8.439M177.973,152.01q.985-.616,1.925-1.224-.347,1.208-.656,2.755a116.767,116.767,0,0,0-2.581,13.425,33.2,33.2,0,0,0,1.181,13.555q.263.792.568,1.487a78.8,78.8,0,0,0-21.645,7.827A79.6,79.6,0,0,0,140.543,201.2q.5-1.3,1.006-2.623a134.426,134.426,0,0,1,8.877-19.284,67.54,67.54,0,0,1,12.68-16.485,106,106,0,0,1,14.867-10.8M134.29,430.9c.263.234.453.408.568.524l2.056,2.23c.08.1.153.183.218.263q.874.962,1.881,1.967v.175a3.478,3.478,0,0,1-.526,1.443,35.623,35.623,0,0,1-1.836,3.235,18.1,18.1,0,0,1-2.755,3.28,22.4,22.4,0,0,1-2.493,2.143,19.574,19.574,0,0,1-3.148,1.967,3.652,3.652,0,0,0-1.05.7q-.524.655-.044,1.136.394.438,1.355.088a16.586,16.586,0,0,0,4.067-1.792,22.625,22.625,0,0,0,3.454-3.017A27.633,27.633,0,0,0,139.319,441a22.8,22.8,0,0,0,1.531-3.149l.044-.044q3.236,3.367,6.778,7.041,7.039,7.433,9.838,10.625,1.748,1.924,3.323,3.935a7.832,7.832,0,0,0-.175,1.268,22.052,22.052,0,0,1-3.979,11.37,39.426,39.426,0,0,1-8.308,8.876,37.07,37.07,0,0,1-9.752,5.991,18.718,18.718,0,0,1-11.237,1.006,10.42,10.42,0,0,0-1.355-.35q-6.559-8.746-13.687-20.377-.286-.475-.612-.961l-.088-.131-2.842-4.853q-.175-.307-.875-1.443-.04-.054-.088-.131v.044q-3.411-5.772-8.046-13.905l-8.046-14.036q-8.089-14.212-12.025-21.338-6.559-11.894-11.413-21.645-3.847-7.871-5.16-10.32a91.424,91.424,0,0,0-5.816-9.838q-.217-.35-.437-.7,5.335-.175,12.375,4.022a93.9,93.9,0,0,1,10.713,7.478q2.579,2.011,5.772,4.81a4.524,4.524,0,0,1-.219,1.224,7.489,7.489,0,0,1-.743,1.793,17.321,17.321,0,0,1-1.224,1.748l-1.138,1.355L79.5,392.77a10.726,10.726,0,0,0-2.536,2.886,3.467,3.467,0,0,0,2.011-.219,7.043,7.043,0,0,0,1.925-.787q.173-.13,1.4-1.268l1.268-.961a14.613,14.613,0,0,0,1.88-2.056l.962-1.268a11.946,11.946,0,0,0,1.355-3.1q1.049.962,2.186,1.967,10.363,9.313,21.994,20.682a8.13,8.13,0,0,1-.874,2.449,14.387,14.387,0,0,1-1.313,1.573l-1.836,2.056a10.488,10.488,0,0,1-1.312,1.4,12.56,12.56,0,0,1-1.793,1.355q-.655.436-1.924,1.268a9.279,9.279,0,0,0-3.236,3.149,2.348,2.348,0,0,0,1.75.262,13.341,13.341,0,0,0,4.941-2.362A23,23,0,0,0,108.623,418a27.359,27.359,0,0,0,3.367-4.066,22.317,22.317,0,0,0,1.662-2.624,7.161,7.161,0,0,0,.307-.7q2.666,2.624,5.334,5.291,5.42,5.378,12.462,12.549a1.519,1.519,0,0,1,.218.088,2.172,2.172,0,0,1,.482.394l1.836,1.967m31.09-152.693a5.783,5.783,0,0,0-2.055,1.093l-1.312,1.4a17.991,17.991,0,0,0-1.969,1.924,7.382,7.382,0,0,0-1.18,2.581,7.138,7.138,0,0,0-.307,2.93,10.324,10.324,0,0,0,1.75,3.891,9.565,9.565,0,0,0,1.4,1.881,4.976,4.976,0,0,0,3.761,1.355,7.6,7.6,0,0,0,3.935-1.18,8.99,8.99,0,0,0,2.055-1.75,11.138,11.138,0,0,0,2.493-5.379,7.528,7.528,0,0,0,.175-2.492,5.3,5.3,0,0,0-.526-1.924,8.618,8.618,0,0,0-2.492-3.412,5.055,5.055,0,0,0-3.761-1.487,6.738,6.738,0,0,0-1.967.569m624.2,109.36a3.5,3.5,0,0,0,.393-2.492,3.936,3.936,0,0,0-1.224-2.23,3.9,3.9,0,0,0-4.811.088,3.476,3.476,0,0,0-1.224,2.186,3.651,3.651,0,0,0,.481,2.492,3.564,3.564,0,0,0,1.925,1.662,3.786,3.786,0,0,0,2.536-.088,3.639,3.639,0,0,0,1.925-1.618m-98.6,144.168a32.842,32.842,0,0,0,3.673,11.543,75.633,75.633,0,0,0,7.04,10.976q3.236,4.285,8.439,9.926a194.042,194.042,0,0,0,18.5,17.972,122.669,122.669,0,0,0,13.118,9.577l-.175.131q-.173.219-.961,1.136-1.4,2.055-1.75,2.581l-.612,1.093q-4.417-3.716-9.97-7.739a283.67,283.67,0,0,0-51.466-29.209.039.039,0,0,1,.044-.044q-1.663-.745-3.236-1.443-2.623-.962-5.991-2.186-1.573-.438-2.93-.962-3.236-1.093-5.465-1.924l-1.88-.526-.35-.174-.481-.131-.044-.044q-7-1.967-13.862-3.542-.612-.088-1.224-.219a4.3,4.3,0,0,0-.612-.044h-.263q-1.181.35-1.487.482l-.044.043a30.381,30.381,0,0,0-2.274,3.8q-2.055,3.805-3.8,7.346l-1.312,2.974q-3.018,7.083-5.554,14.08-1.88,5.51-3.1,9.533-.131.611-.219,1.224v.482l.088,1.093a5.294,5.294,0,0,0,.262,1.355.763.763,0,0,0,.131.307q.394.349,1.05.875l.088.086a1.364,1.364,0,0,0,.7.088h.088q8.132,2.712,15.917,5.423l10.887,3.847q28.947,10.8,62.268,24.487a.687.687,0,0,0-.131.175,64.256,64.256,0,0,1-5.466,6.384q-3.935,4.241-5.553,6.384a2.144,2.144,0,0,0-.524,1.443q3.061-1.661,5.772-3.367l2.8-2.274q3.367-2.754,4.81-4.11l1.925-2.274a5.283,5.283,0,0,1,.481-.656q5.291,2.186,10.757,4.417,5.116,2.143,7.52,2.974a42.633,42.633,0,0,0,7.915,1.924,14.1,14.1,0,0,0,5.9-.307,9.316,9.316,0,0,0,4.9-4.066,12.152,12.152,0,0,0,1.881-6.3q.131-5.422-3.892-12.244A64.212,64.212,0,0,0,742.179,600.3q-.525-.524-1.05-1.006a13.2,13.2,0,0,0,1.224-1.312,25.219,25.219,0,0,0,2.274-2.886,8.278,8.278,0,0,0,.787-1.18q2.274,1.312,4.548,2.492a44.781,44.781,0,0,0,13.075,4.417q7.826,1.006,13.468-2.536a15.794,15.794,0,0,0,4.985-4.941,21.126,21.126,0,0,0,2.974-6.472,30.958,30.958,0,0,0,.174-14.124Q781.4,556.44,765.66,539.517q-10.277-11.019-20.246-16.4a81.256,81.256,0,0,0-8.351-3.98l-5.728-2.492a61.854,61.854,0,0,0-8.877-2.973,37.869,37.869,0,0,0-15.173-.612q-9.4,1.529-13.555,7.171a16.446,16.446,0,0,0-2.755,11.5m7.783,3.5q-1.792-5.291-.7-8.614a9.279,9.279,0,0,1,4.985-5.247,21.037,21.037,0,0,1,7.259-1.75,51.532,51.532,0,0,1,10.625.35q3.542.35,10.581,1.706a20.807,20.807,0,0,1,3.455.743,24.968,24.968,0,0,1,3.673,1.617,90.128,90.128,0,0,1,23.437,18.41q13.206,14.21,17.009,28.9,2.055,7.915.568,13.687a16.127,16.127,0,0,1-3.148,6.078,11.664,11.664,0,0,1-5.553,3.935,13.441,13.441,0,0,1-7.259.219,34.982,34.982,0,0,1-7.127-2.492,104.834,104.834,0,0,1-22.083-14.256,200.279,200.279,0,0,1-19.021-18.452,118.738,118.738,0,0,1-9.62-11.632,57.527,57.527,0,0,1-7.084-13.2m-56.538,20.2c.175-.263.32-.5.437-.7q10.189,2.4,20.682,5.6,33.977,13.773,60.169,32.4a119.147,119.147,0,0,1,15.3,12.637,54.478,54.478,0,0,1,11.412,15.917,13,13,0,0,1,1.357,4.9,5.534,5.534,0,0,1-.394,2.537,3.964,3.964,0,0,1-1.574,2.011,6.357,6.357,0,0,1-3.979.917,21.829,21.829,0,0,1-5.16-1.136q-1.663-.526-4.853-1.924-37.474-16.4-71.668-29.735v-.044q-.876-.436-4.155-1.924l-.349-.088-.7-.219q-.613-.263-1.443-.656l-9.182-3.148h-.044l-.482-.088-2.317-.831q-.482-.219-.962-.394l-1.574-.524-.044.044q-6.952-2.318-14.079-4.635.524-1.617,1.268-3.76,1.531-4.592,2.536-7.04,1.312-3.018,2.712-5.9l3.717-7.871a58.185,58.185,0,0,1,3.367-6.34M204.3,499.594a15.627,15.627,0,0,0,2.055-.7,13.477,13.477,0,0,0,2.8-1.4,8.493,8.493,0,0,0,2.055-2.4,26.107,26.107,0,0,0,1.4-2.93,11.194,11.194,0,0,0,.919-2.93,7.331,7.331,0,0,0-.307-2.493q-.131-.393-.831-2.36-.787-2.144-1.049-2.668a7.41,7.41,0,0,0-4.11-3.761,10.728,10.728,0,0,0-4.46-.48,13.9,13.9,0,0,0-3.193.306,10.536,10.536,0,0,0-5.422,3.235,11.829,11.829,0,0,0-2.405,4.024,14.725,14.725,0,0,0-.219,8.22,10.171,10.171,0,0,0,.919,2.405,7.645,7.645,0,0,0,2.449,2.579,9.191,9.191,0,0,0,3.323,1.355,25.374,25.374,0,0,0,3.017.131,22.7,22.7,0,0,0,3.061-.131m-76.435,50.724q-2.362.743-2.448,2.143a1.8,1.8,0,0,0,.349,1.18,2.283,2.283,0,0,0,.962.7,5.249,5.249,0,0,0,2.448.307q2.318-.088,4.548-.35a14.829,14.829,0,0,1-.219,6.428,71.586,71.586,0,0,1-2.667,8.221,53.74,53.74,0,0,1-6.165,11.893q-2.318,3.1-2.624,3.586a31.719,31.719,0,0,0-2.579,5.029q-1.049.874-1.967,1.793a3.548,3.548,0,0,0-.831,1.355,1.309,1.309,0,0,0,.131,1.355,1.794,1.794,0,0,0,2.011.437,11.27,11.27,0,0,0,3.235-1.18q2.055-1.049,3.061-1.618a34.314,34.314,0,0,1,6.952-2.667q2.8-.83,7.3-1.706,4.592-.918,8.046-1.355a71.753,71.753,0,0,1,15.392-.175.975.975,0,0,0-.131.307,5.613,5.613,0,0,0-.263,3.017,3.044,3.044,0,0,0,.787,1.312,2.145,2.145,0,0,0,1.355.612,2.5,2.5,0,0,0,2.1-1.355,10.833,10.833,0,0,0,.875-2.405,40.681,40.681,0,0,1,5.6-10.363q2.537-3.63,4.679-6.166A50.674,50.674,0,0,1,189.736,560.5a51.456,51.456,0,0,1,11.107-5.071,15.881,15.881,0,0,0-.307,3.279,4.4,4.4,0,0,0,.481,2.143,1.909,1.909,0,0,0,1.75,1.136,1.846,1.846,0,0,0,1.618-.83,6.185,6.185,0,0,0,.7-2.712,21.923,21.923,0,0,1,.786-4.591,1.417,1.417,0,0,0,.7-1.006,1.355,1.355,0,0,0-.131-1.005,43.446,43.446,0,0,1,1.617-4.242,60.361,60.361,0,0,1,6.079-11.63,21.233,21.233,0,0,1,10.189-8,42.16,42.16,0,0,0,3.279,5.2,9.891,9.891,0,0,0,2.668,2.536,3.542,3.542,0,0,0,1.748.568,2.7,2.7,0,0,0,1.75-.393,3.606,3.606,0,0,0-.743-3.5,9.927,9.927,0,0,0-1.138-1.4q-1.181-1.268-1.268-1.4a18.939,18.939,0,0,1-2.449-3.98,49.914,49.914,0,0,1-5.465-17.84,4.092,4.092,0,0,0,1.006-1.967,2.164,2.164,0,0,0-.219-1.4,1.431,1.431,0,0,0-.919-.831q.088-2.8.656-7.04l.743-5.2q.175-.874-.218-1.138a.718.718,0,0,0-.526-.174.948.948,0,0,0-.524.174,3.265,3.265,0,0,0-.7.919,30.106,30.106,0,0,0-1.268,3.586,42.759,42.759,0,0,0-1.75,11.5,23.113,23.113,0,0,1-5.029,4.024,37.513,37.513,0,0,1-4.941,2.4q-17.535,7.346-33.1,7.609-2.1,0-3.1.044a18.42,18.42,0,0,0-3.149.305,5.068,5.068,0,0,0-3.41,1.88q.962,2.449,5.378,2.712,2.668.175,5.423.088a64.8,64.8,0,0,1-5.335,5.159q-3.323,2.8-8.351,6.254-10.364,6.952-18.059,9.4a86.229,86.229,0,0,1-8.7,2.1q-5.9,1.268-8.746,2.143m.394,34.631q1.006-1.267,1.487-1.88a37.3,37.3,0,0,0,3.279-6.035,55.5,55.5,0,0,0,4.9-16.659,17.48,17.48,0,0,0,.088-4.9,10.883,10.883,0,0,0-.393-1.792,63.832,63.832,0,0,0,15.7-5.465,95.365,95.365,0,0,0,20.639-14.212,58.084,58.084,0,0,0,4.81-4.678,23.123,23.123,0,0,0,3.017-4.373Q194.852,523.6,209.85,517a41.27,41.27,0,0,0,6.3-3.279q1.487-1.049,3.1-2.449.175,1.7.437,3.454a44.5,44.5,0,0,0,2.8,9.4q-7.127,2.23-12.987,10.932-1.529,2.318-2.842,4.766a76.155,76.155,0,0,0-4.415,10.625,9.98,9.98,0,0,0-2.362.394,40.009,40.009,0,0,0-8.527,3.542,60.28,60.28,0,0,0-17.71,13.73,93.079,93.079,0,0,0-7.171,10.232q-1.181,1.836-2.011,3.454a43.065,43.065,0,0,0-13.555-1.006,103.46,103.46,0,0,0-16,2.318,59.033,59.033,0,0,0-6.646,1.836m-3.193-61.129a7.315,7.315,0,0,0-5.728.7,16.944,16.944,0,0,0-4.373,4.634l-1.312,2.055a10.871,10.871,0,0,0-1.268,6.6,10.183,10.183,0,0,0,2.886,6.078,9.322,9.322,0,0,0,4.329,2.492,9.543,9.543,0,0,0,5.029.219q1.006-.263,2.667-.875a11.7,11.7,0,0,0,2.974-1.662,13.447,13.447,0,0,0,2.274-2.492,15.193,15.193,0,0,0,2.886-5.029A7.756,7.756,0,0,0,134.99,532a10.446,10.446,0,0,0-2.667-3.891,26.764,26.764,0,0,0-4.022-2.8,11.392,11.392,0,0,0-3.236-1.487m302.458,61.086-.175.218a19.24,19.24,0,0,0-2.492,5.9,50.389,50.389,0,0,0-1.313,7.608l-.305,3.629q-.175,3.28-.524,9.8-.35,5.639-.787,9.751a14.6,14.6,0,0,0-.088,3.5,4.333,4.333,0,0,0,1.617,3.017,3.48,3.48,0,0,0,1.662.524,2.4,2.4,0,0,0,1.618-.524,4.541,4.541,0,0,0,1.093-3.061q1.531-15.829,1.75-32.707a21,21,0,0,0-.219-3.936,7.617,7.617,0,0,0-1.4-3.5.418.418,0,0,0-.437-.218m-56.277,33.451a.925.925,0,0,0-.524-.524.96.96,0,0,0-.743-.131,2.948,2.948,0,0,0-1.4.656q-3.1,2.493-4.241,9.051a28.727,28.727,0,0,0-.482,6.384,15.082,15.082,0,0,0,3.017,7.871,18.745,18.745,0,0,0,6.384,5.685q7.172,3.891,16.792,2.536a36.547,36.547,0,0,0,16.266-6.428,14.027,14.027,0,0,0,1.969-1.531,14.921,14.921,0,0,0,1.529,1.487,36.927,36.927,0,0,0,15.261,8.57q9.315,2.624,16.923-.263A17.784,17.784,0,0,0,449.123,647a15.107,15.107,0,0,0,4.022-7.434,26.233,26.233,0,0,0,.394-6.384q-.219-6.645-2.93-9.576a2.683,2.683,0,0,0-1.313-.787,1.593,1.593,0,0,0-.742,0,.992.992,0,0,0-.613.437q-.392.525.219,1.924a18.6,18.6,0,0,1,1.05,6.341,24.771,24.771,0,0,1-.35,7.04,10.177,10.177,0,0,1-5.334,6.647,16.452,16.452,0,0,1-4.242,1.443,24.887,24.887,0,0,1-13.249-1.531,45.564,45.564,0,0,1-11.544-6.866,24.856,24.856,0,0,0-2.362-1.661,10.882,10.882,0,0,0-2.492-1.313,2.419,2.419,0,0,0-.612-.174,2.7,2.7,0,0,0-1.006-.175,6.764,6.764,0,0,0-3.1,1.224q-.743.526-.961.7-.657.35-1.531.875a47.087,47.087,0,0,1-12.419,5.2,24.533,24.533,0,0,1-13.336-.263,17.234,17.234,0,0,1-4.024-1.967,10.256,10.256,0,0,1-2.93-3.193,11.006,11.006,0,0,1-1.443-4.11,24.231,24.231,0,0,1,.569-7.04,21.034,21.034,0,0,1,1.924-6.122q.787-1.311.481-1.88m24.443-34.763q-.088-1.486-.831-1.88a1.1,1.1,0,0,0-1-.044,1.224,1.224,0,0,0-.831.524,6.331,6.331,0,0,0-.787,1.925,196.2,196.2,0,0,0-2.537,21.119q-.393,5.729-.305,8.527v2.493q.044,1.486,0,2.492-.044.7-.175,2.1a9.253,9.253,0,0,0,.044,2.056,3.758,3.758,0,0,0,2.23,3.323,2.992,2.992,0,0,0,2.186-.131,2.791,2.791,0,0,0,1.531-1.574,6.273,6.273,0,0,0,.305-2.317L395.645,609q.044-1.225.524-7.871.307-4.811.263-7.871-.044-3.236-.743-9.664M330.973,399.2a51.149,51.149,0,0,0-11.544,14.081A57.827,57.827,0,0,0,312.7,430.9a40.725,40.725,0,0,0-.175,17.579,35.075,35.075,0,0,0,3.542,8.876,39.854,39.854,0,0,0,5.728,7.871,46.728,46.728,0,0,0,15.3,11.151,54.866,54.866,0,0,0,13.511,4.285,57.361,57.361,0,0,0,13.6.656A63.325,63.325,0,0,0,389,473.97q16.617-8.7,23.482-22.52a42.117,42.117,0,0,0,4.2-17.1,42.981,42.981,0,0,0-3.5-18.365q-4.854-11.063-15.96-20.158a43.959,43.959,0,0,0-12.156-7.39,42.8,42.8,0,0,0-11.237-2.274,69.485,69.485,0,0,0-9.445-.131,58.562,58.562,0,0,0-17.972,3.892,51.271,51.271,0,0,0-15.436,9.27M319.08,426.046a63.333,63.333,0,0,1,3.761-8.57,53.843,53.843,0,0,1,16.529-18.715,48.007,48.007,0,0,1,14.429-6.778,42.763,42.763,0,0,1,16.311-1.4,44.859,44.859,0,0,1,16.922,5.379h.044a49.191,49.191,0,0,1,14.605,11.981,42.933,42.933,0,0,1,7.04,11.981,35.416,35.416,0,0,1,2.143,13.118,34.923,34.923,0,0,1-2.536,12.287v.044q-4.068,10.1-14.3,17.8a61.707,61.707,0,0,1-29.165,11.85q-16,2.143-28.334-4.242a38.467,38.467,0,0,1-12.462-10.1,31.684,31.684,0,0,1-7.259-14.341q-1.836-9.052,2.274-20.29m48.974,10.013a6.552,6.552,0,0,0-.438-3.368,5.079,5.079,0,0,0-2.055-2.579,6.1,6.1,0,0,0-4.417-1.006,7.157,7.157,0,0,0-3.235,1.006,5,5,0,0,0-2.143,2.405,4.863,4.863,0,0,0,.262,4.2,8.874,8.874,0,0,0,2.886,3.235,6.354,6.354,0,0,0,4.548,1.531,5.03,5.03,0,0,0,3.193-1.88,6.621,6.621,0,0,0,1.4-3.542m154.7,22.476a18.646,18.646,0,0,0-9.794-.219,67.136,67.136,0,0,0-9.926,3.061Q482.4,469.028,464.6,474.1q-17.84,5.072-34.281,8.09H430.1a343.645,343.645,0,0,1-36.6,3.016q-18.5.7-40.446-.262a79.535,79.535,0,0,0-10.451.174,20.023,20.023,0,0,0-9.226,3.236,8.641,8.641,0,0,0-2.842,3.279.126.126,0,0,1-.044.088q-.131.175-.307.394a10.023,10.023,0,0,0-1.18,1.88l-.044.044a11.481,11.481,0,0,0-1.88,4.985,17.847,17.847,0,0,0,.7,7.915A31.306,31.306,0,0,0,334.6,518.4a46.83,46.83,0,0,0,10.5,8.7h.044q16.484,10.145,42.633,12.331a197.057,197.057,0,0,0,47.838-1.967.387.387,0,0,1,.174.044q.657-.131,1.355-.219a197,197,0,0,0,49.586-13.381q24.225-10.144,36.818-24.924a47.338,47.338,0,0,0,7.346-11.544,31.326,31.326,0,0,0,2.886-12.987,18.3,18.3,0,0,0-1.749-7.739,11.16,11.16,0,0,0-3.323-4.154l-.044-.044a12.854,12.854,0,0,0-1.706-1.4l-.437-.263a.51.51,0,0,1-.131-.088,7.812,7.812,0,0,0-3.629-2.229M405.221,492.466q.219,6.253.219,6.34a217.977,217.977,0,0,0,3.935,32.1,171.528,171.528,0,0,1-27.242-1.443,99.634,99.634,0,0,1-10.844-1.881l-2.667-18.933q-1.4-9.62-2.493-15.217a363.162,363.162,0,0,0,39.092-.962m5.116,10.232a73.084,73.084,0,0,0-1.881-8.614,14.442,14.442,0,0,0-.656-1.836q10.538-.876,20.989-2.405h.044a.126.126,0,0,1,.088-.044q1.356-.131,2.667-.307l.524-.086q9.183-1.531,18.278-3.587.263,6.035.612,9.052.219,2.011,1.006,6.384l1.4,7.652a115.8,115.8,0,0,0,3.061,13.905q.217.787.437,1.355-8.526,2.186-17.579,3.673h-.13l-.482.131h-.088l-1.4.175h-.305a208.576,208.576,0,0,1-22.739,2.536L411.605,511.4q-.787-5.86-1.268-8.7m-63.448-10.057a39.38,39.38,0,0,1,5.335.131q5.2.349,10.363.568.263,5.072.919,12.244a178.86,178.86,0,0,0,3.017,20.77,61.018,61.018,0,0,1-7.084-2.492h.044q-12.113-4.854-19.2-13.337a17.551,17.551,0,0,1-3.191-5.378,11.758,11.758,0,0,1-1.006-2.1v-.044a6.679,6.679,0,0,1-.305-3.411v-.044a5.843,5.843,0,0,1,1.443-2.93h.044a6.14,6.14,0,0,1,4.022-2.711.178.178,0,0,1,.131-.044h.044a.25.25,0,0,1,.174-.088c0-.029.015-.043.044-.043a14.424,14.424,0,0,1,5.2-1.094M523.9,469.9a8.8,8.8,0,0,1,.481,5.684,17.548,17.548,0,0,1-1.312,6.121q-4.154,10.277-14.124,18.628-.611.569-1.268,1.094-.349-1.049-.875-2.581-5.072-14.56-8.4-22.781a37.612,37.612,0,0,0-1.792-3.848q4.765-1.792,9.575-3.672h-.044a38.2,38.2,0,0,1,5.072-1.793,15.658,15.658,0,0,1,5.247-.612h.044a1.274,1.274,0,0,1,.305.044,6.734,6.734,0,0,1,4.811,1.4A5.917,5.917,0,0,1,523.9,469.9m-31.527,3.8a9.048,9.048,0,0,0,.743,2.449q1.7,4.241,5.027,14.561,2.931,9.007,5.072,14.036a102.575,102.575,0,0,1-14.167,7.915,178.262,178.262,0,0,1-27.461,10.276q-.48-3.1-1.312-7.346l-1.924-9.4q-1.4-6.822-2.23-10.625-1.4-5.86-2.93-10.408a369.275,369.275,0,0,0,39.18-11.456M480.081,368.982a60.078,60.078,0,0,0-18.453.394,49.969,49.969,0,0,0-16.747,6.121,50.576,50.576,0,0,0-13.774,11.544,56.626,56.626,0,0,0-9.577,16.048,40.409,40.409,0,0,0-3.061,17.1,38.372,38.372,0,0,0,2.056,9.4,46.349,46.349,0,0,0,4.329,8.789v.044a51.221,51.221,0,0,0,13.292,13.861A57.988,57.988,0,0,0,464.165,462.3a64.355,64.355,0,0,0,25.8-2.4Q507.8,454.6,516.9,442.268a40.884,40.884,0,0,0,6.953-15.873,41.463,41.463,0,0,0-.438-18.54q-2.973-11.894-12.505-23a47.215,47.215,0,0,0-10.8-9.533,44.7,44.7,0,0,0-10.669-4.285,71.577,71.577,0,0,0-9.358-2.055M428.7,399.46a56.081,56.081,0,0,1,5.116-7.7,50.8,50.8,0,0,1,19.458-15.086,45.589,45.589,0,0,1,15.261-3.935,45,45,0,0,1,16.485,1.836,47.573,47.573,0,0,1,15.873,8.528A52.435,52.435,0,0,1,513.4,397.579a42.6,42.6,0,0,1,4.853,13.118,31.637,31.637,0,0,1,.044,13.337,35.023,35.023,0,0,1-4.459,11.456q-5.772,9.182-17.1,14.779a60.924,60.924,0,0,1-30.871,5.991q-16.091-1.049-27.329-9.62a41.4,41.4,0,0,1-10.625-12.331,32.249,32.249,0,0,1-4.81-15.391q-.35-9.183,5.6-19.458m37.211,14.954a6.417,6.417,0,0,0-3.41-.568,5.674,5.674,0,0,0-3.1,1.355,7.816,7.816,0,0,0-1.924,3.1,7.129,7.129,0,0,0-.219,3.016,4.651,4.651,0,0,0,1.269,2.624,6.151,6.151,0,0,0,3.323,1.617,6.644,6.644,0,0,0,4.373-.218,4.6,4.6,0,0,0,2.318-2.143,5.8,5.8,0,0,0,.831-3.149,6.825,6.825,0,0,0-3.455-5.641M290.264,151.223A7.573,7.573,0,0,0,287.9,152.8a10.251,10.251,0,0,0-3.06,5.16,5.769,5.769,0,0,0-.175,1.618,7.129,7.129,0,0,0,.568,2.23,9.148,9.148,0,0,0,3.235,4.329,7.691,7.691,0,0,0,5.2.961,9.212,9.212,0,0,0,3.892-1.443,6.739,6.739,0,0,0,2.623-2.972,12.817,12.817,0,0,0,.787-4.5,15.128,15.128,0,0,0-.044-1.574,5.863,5.863,0,0,0-.393-1.4,8.581,8.581,0,0,0-.787-1.793,6.153,6.153,0,0,0-1.443-1.136,9.25,9.25,0,0,0-2.055-1.224,7.949,7.949,0,0,0-3.411-.394,9.269,9.269,0,0,0-2.579.568M627.833,214.5a31.123,31.123,0,0,0-3.98.743,9.079,9.079,0,0,0-2.011.787q.088.569.219,1.574a2.782,2.782,0,0,0,.044.831,6.893,6.893,0,0,0,.831,2.492l.262.438a.772.772,0,0,0,.088.349,16.5,16.5,0,0,0,1.268,2.93,53.546,53.546,0,0,0,10.057,14.43,61.722,61.722,0,0,0,10.057,8.351,80.967,80.967,0,0,0,27.811,12.287A89.578,89.578,0,0,0,703,261.634a69.962,69.962,0,0,0,18.8-4.592,46.805,46.805,0,0,0,16.136-10.32c.028-.057.057-.086.086-.086a1.751,1.751,0,0,0,1.05-.219,1.4,1.4,0,0,0,.656-1.094,1.746,1.746,0,0,0-.175-1.312,7.26,7.26,0,0,0-1.836-1.924,150.924,150.924,0,0,0-52.253-24.006,161.341,161.341,0,0,0-57.632-3.586m1.005,7.522a.122.122,0,0,0-.086-.044q-.876-2.274-1.487-3.629,1.442,0,3.673-.175a189.354,189.354,0,0,1,39.7,1.662,147.721,147.721,0,0,1,38,10.932,227.618,227.618,0,0,1,25.624,13.992q-1.312.788-3.017,1.925-3.148,2.1-4.5,2.842-8.833,5.072-22.476,6.558-22.125,2.362-40.841-4.941a67.5,67.5,0,0,1-18.059-10.187,62.134,62.134,0,0,1-14.036-15.13q-1.619-2.493-2.493-3.8m16.835,3.586a5.738,5.738,0,0,0-3.41,1.049q-1.268,1.137-1.094,4.2a5.576,5.576,0,0,0,1.006,3.279,4.809,4.809,0,0,0,2.8,1.224,5.01,5.01,0,0,0,2.93-.262,4.465,4.465,0,0,0,2.318-2.537,6.306,6.306,0,0,0,.568-3.586,3.749,3.749,0,0,0-1.924-2.886,7.322,7.322,0,0,0-3.193-.481M613.141,213.14a10.756,10.756,0,0,0-1.355-1.748,29.225,29.225,0,0,0-3.1-2.668A160.757,160.757,0,0,0,557.039,183.1a149.248,149.248,0,0,0-57.369-5.334,6.165,6.165,0,0,0-2.448.742,1.741,1.741,0,0,0-.875,1.006,1.371,1.371,0,0,0,.044,1.224,1.713,1.713,0,0,0,.875.743v.131a46.61,46.61,0,0,0,8.746,17.053A69.9,69.9,0,0,0,520.047,212a89.138,89.138,0,0,0,27.373,13.6,82.492,82.492,0,0,0,30.347,3.279,64.822,64.822,0,0,0,12.812-2.23,55.145,55.145,0,0,0,15.917-7.433,19.091,19.091,0,0,0,2.536-1.925,2.74,2.74,0,0,0,.307-.262,1.215,1.215,0,0,0,.349-.307,6.867,6.867,0,0,0,2.011-1.661,2.678,2.678,0,0,0,.438-.787q.655-.7,1-1.138m-8.963-2.755q1.836,1.268,3.1,1.967-1.267.962-3.192,2.449l-.044-.044q-1.356.7-4.022,2.055a62.529,62.529,0,0,1-19.765,6.122,69.383,69.383,0,0,1-20.682-.219q-19.9-3.061-37.823-16.136-11.063-8.132-16.267-16.878-.743-1.4-2.4-4.766-.963-1.881-1.706-3.193a224.736,224.736,0,0,1,29.209.612,147.731,147.731,0,0,1,38.349,9.62,190.591,190.591,0,0,1,35.244,18.409m-75.3-13.6A3.881,3.881,0,0,0,527,195.125a3.277,3.277,0,0,0-2.492-.218,5.659,5.659,0,0,0-2.143,1.443,5.719,5.719,0,0,0-1.837,3.935,4.3,4.3,0,0,0,1.312,3.061,4.347,4.347,0,0,0,1.969,1.268,4.185,4.185,0,0,0,2.318.044,4.845,4.845,0,0,0,2.929-2.93,5.425,5.425,0,0,0-.174-4.941m383.133,200.4a28.041,28.041,0,0,0-9.533-3.279q-18.5-3.411-39.659,1.661A86.967,86.967,0,0,0,839.3,404.62a53.73,53.73,0,0,0-18.277,17.053,4.153,4.153,0,0,0-.524,1.268,2.864,2.864,0,0,0-.307.175,1.941,1.941,0,0,0-.656,1.224,2.748,2.748,0,0,0,.131,1.443,7.146,7.146,0,0,0,1.661,2.274,67.624,67.624,0,0,0,18.541,13.6,58.754,58.754,0,0,0,21.95,6.121,52.7,52.7,0,0,0,22.694-3.148,47.4,47.4,0,0,0,18.978-12.506,45.57,45.57,0,0,0,8.134-12.549,44.138,44.138,0,0,0,3.629-14.386q.349-4.5-1.313-6.647a3.526,3.526,0,0,0-1.924-1.355M903.4,399.9q3.1.35,5.2.482a15.05,15.05,0,0,0-.175,2.579,35.764,35.764,0,0,1-4.81,17.228,40.251,40.251,0,0,1-12.156,13.292A45.118,45.118,0,0,1,874.8,440.3a49.247,49.247,0,0,1-18.015.263,56.859,56.859,0,0,1-17.1-5.729,69.771,69.771,0,0,1-14.824-10.363q-.436-.394-.786-.7a.126.126,0,0,1,.044-.088A62.54,62.54,0,0,1,840.564,410a75.335,75.335,0,0,1,19.939-8.177q18.889-4.9,42.9-1.924m-43.027,26.673a3.757,3.757,0,0,0,.656-.962,3.477,3.477,0,0,0-.175-3.673,3.635,3.635,0,0,0-3.279-1.661,3.33,3.33,0,0,0-1.793.7,3.12,3.12,0,0,0-1.224,1.443,3.88,3.88,0,0,0-.306,1.574,3.3,3.3,0,0,0,.306,1.487,3.185,3.185,0,0,0,1.312,1.53,3.753,3.753,0,0,0,1.925.613,3.508,3.508,0,0,0,2.579-1.05" transform="translate(0 0)"/>
  </g>
</svg>
