<svg id="Calque_1" data-name="Calque 1" xmlns="http://www.w3.org/2000/svg" viewBox="0 0 400 400"><defs><style>.cls-1{fill:#fff;}</style></defs><path d="M0,400V0H400V400ZM184.41,224.93c19.41,28.26,38.67,56.23,57.8,84.28a7.69,7.69,0,0,0,7.28,3.87c19-.17,38-.08,57-.09,1.23,0,2.46-.13,4.35-.24l-89.7-130.62L303.75,86a59.79,59.79,0,0,1-6.57,0c-8.65-1.12-14.91,1.31-20.79,8.71-14.9,18.73-31,36.52-46.61,54.67-5.68,6.59-11.41,13.13-17.25,19.85-1-1.29-1.73-2-2.29-2.83Q183.93,128,157.7,89.66c-1.77-2.59-3.59-3.77-6.86-3.74-19.16.16-38.32.07-57.48.1-1.2,0-2.4.24-3.87.39.89,1.46,1.44,2.47,2.09,3.41q40.65,59.25,81.43,118.4c2.36,3.42,1.86,5.24-.65,8-7.35,8.14-14.43,16.55-21.59,24.87q-23.43,27.22-46.85,54.48c-4.78,5.56-9.49,11.16-14.79,17.4,3.43,0,5.8-.29,8.08.05,7.91,1.18,13.36-1.58,18.56-8,15-18.48,30.76-36.29,46.26-54.33C169.39,242.15,176.83,233.65,184.41,224.93Z"/><path class="cls-1" d="M184.41,224.93c-7.58,8.72-15,17.22-22.38,25.79-15.5,18-31.29,35.85-46.26,54.33-5.2,6.42-10.65,9.18-18.56,8-2.28-.34-4.65-.05-8.08-.05,5.3-6.24,10-11.84,14.79-17.4q23.4-27.25,46.85-54.48c7.16-8.32,14.24-16.73,21.59-24.87,2.51-2.79,3-4.61.65-8q-40.9-59.07-81.43-118.4c-.65-.94-1.2-1.95-2.09-3.41C91,86.26,92.16,86,93.36,86c19.16,0,38.32.06,57.48-.1,3.27,0,5.09,1.15,6.86,3.74q26.16,38.41,52.54,76.71c.56.81,1.25,1.54,2.29,2.83,5.84-6.72,11.57-13.26,17.25-19.85,15.63-18.15,31.71-35.94,46.61-54.67,5.88-7.4,12.14-9.83,20.79-8.71a59.79,59.79,0,0,0,6.57,0l-82.63,96.13,89.7,130.62c-1.89.11-3.12.24-4.35.24-19,0-38-.08-57,.09a7.69,7.69,0,0,1-7.28-3.87C223.08,281.16,203.82,253.19,184.41,224.93ZM115.91,101c6.57,9.47,12.64,18.28,18.77,27.06Q193.38,212,252.12,296c.86,1.23,2.35,2.85,3.58,2.88,9.21.24,18.43.13,28.14.13-.84-1.52-1.24-2.42-1.8-3.21q-67.05-96-134.18-192c-.84-1.21-2.45-2.64-3.73-2.68C135,100.9,125.91,101,115.91,101Z"/><path d="M115.91,101c10,0,19.12-.11,28.22.12,1.28,0,2.89,1.47,3.73,2.68Q215,199.75,282,295.77c.56.79,1,1.69,1.8,3.21-9.71,0-18.93.11-28.14-.13-1.23,0-2.72-1.65-3.58-2.88q-58.77-83.91-117.44-167.9C128.55,119.29,122.48,110.48,115.91,101Z"/></svg>