<svg id="Groupe_1382" data-name="Groupe 1382" xmlns="http://www.w3.org/2000/svg" xmlns:xlink="http://www.w3.org/1999/xlink" width="388.266" height="65.803" viewBox="0 0 388.266 65.803">
  <defs>
    <clipPath id="clip-path">
      <rect id="Rectangle_660" data-name="Rectangle 660" width="388.266" height="65.803" fill="none"/>
    </clipPath>
  </defs>
  <g id="Groupe_1282" data-name="Groupe 1282" transform="translate(0 0)" clip-path="url(#clip-path)">
    <path id="Tracé_5098" data-name="Tracé 5098" d="M40.551,29.079A41.7,41.7,0,0,1,35.7,49.231,27.932,27.932,0,0,1,18.131,63.637a27.029,27.029,0,0,1-11.373-1.5q-5.059-1.9-5.3-4.978Q0,35.554,0,15.64,0,8.279.325,5.12,2.344.749,13.356.748A38.678,38.678,0,0,1,24.444,2.206a24.78,24.78,0,0,1,9.226,7.77q6.88,9.067,6.882,19.1M20.316,21.793a3.053,3.053,0,0,0-2.185-1.377,3.164,3.164,0,0,0-1.215.325,5.331,5.331,0,0,1-.808.325,160.971,160.971,0,0,1,1.133,19.1,12.347,12.347,0,0,0,3.926-4.776A14.157,14.157,0,0,0,22.743,29a11.088,11.088,0,0,0-2.427-7.2" transform="translate(0 0.626)"/>
    <path id="Tracé_5099" data-name="Tracé 5099" d="M61.088,25.495A7.828,7.828,0,0,1,61.331,28a9.036,9.036,0,0,1-3.481,7.2,8.6,8.6,0,0,1-6.8,2.346,6.429,6.429,0,0,0-2.429-.081,22.9,22.9,0,0,1-.567,5.18,3.152,3.152,0,0,0,1.7,2.914,8.392,8.392,0,0,1,5.424,0,5.132,5.132,0,0,1,3.643,4.372A10.4,10.4,0,0,1,56.8,57.022a19.528,19.528,0,0,1-6.718,6.03A17.764,17.764,0,0,1,41.1,65.237a19.1,19.1,0,0,1-8.176-1.7q-1.54-.727-4.614-4.531-3.319-5.5-3.4-23.232a165.285,165.285,0,0,1,1.7-23.311q1.049-7.6,4.37-9.873L44.5,1.213A32.467,32.467,0,0,1,51.133.484q6.312,0,7.445,3.158a8.22,8.22,0,0,1,.487,2.914,7.073,7.073,0,0,1-2.591,5.666,10.843,10.843,0,0,1-7.2,2.185H47.49a10.373,10.373,0,0,0-.648,3.85q-.163,3.368-.242,3.85a1.942,1.942,0,0,0,1.7,1.445,9.218,9.218,0,0,1,5.908-1.862,8.228,8.228,0,0,1,6.88,3.8" transform="translate(20.822 0.405)"/>
    <path id="Tracé_5100" data-name="Tracé 5100" d="M93.081,50.365l.083.081a19.841,19.841,0,0,1-7.407,10.359,20.48,20.48,0,0,1-12.261,3.8q-12.87,0-19.993-9.713-6.07-8.257-6.07-20.072A48.713,48.713,0,0,1,48.4,24.787Q52.855,3.663,67.263.991A14.951,14.951,0,0,1,70.015.749,21.654,21.654,0,0,1,82.6,5.04a21.037,21.037,0,0,1,8.215,10.44q4.533,13.355,4.533,20.8A49.183,49.183,0,0,1,93,50.365ZM73.009,44.537v-.081q2.346-.4,2.346-8.984a43.552,43.552,0,0,0-.891-9.107q-.89-4.167-1.943-4.331-1.779-.482-3.237,3.887a30.3,30.3,0,0,0-1.456,9.632q0,9.794,5.18,8.984" transform="translate(39.657 0.626)"/>
    <path id="Tracé_5101" data-name="Tracé 5101" d="M121.435,10.975h.081a16.688,16.688,0,0,1,.242,3.158,9.3,9.3,0,0,1-1.941,6.149q-.73.81-6.516,1.9T107.352,23.6q-.162.89,1.86,16.916a52.165,52.165,0,0,1,.406,6.476,32.461,32.461,0,0,1-1.943,12.14q-2.429,5.993-7.122,5.828-7.61-.242-10.6-4.776-2.267-3.4-2.346-10.765,0,.647.323-8.5l.4-10.359a63.743,63.743,0,0,1,1.052-8.418,4.883,4.883,0,0,1-1.456.163,17.75,17.75,0,0,1-5.5-.892,8.7,8.7,0,0,1-5.1-3.558,12.449,12.449,0,0,1-1.943-6.233q0-4.858,5.341-7.526Q87.6.616,97.317.618A62.117,62.117,0,0,1,108,1.587q2.671.969,8.1,3,4.531,2.347,5.341,6.391" transform="translate(63.024 0.517)"/>
    <path id="Tracé_5102" data-name="Tracé 5102" d="M148.141,50.365l.083.081a19.841,19.841,0,0,1-7.407,10.359,20.48,20.48,0,0,1-12.261,3.8q-12.87,0-19.993-9.713-6.07-8.257-6.07-20.072a48.713,48.713,0,0,1,.971-10.038q4.451-21.124,18.858-23.8a14.951,14.951,0,0,1,2.752-.242A21.654,21.654,0,0,1,137.661,5.04a21.036,21.036,0,0,1,8.215,10.44q4.533,13.355,4.533,20.8a49.181,49.181,0,0,1-2.348,14.084Zm-20.072-5.828v-.081q2.346-.4,2.346-8.984a43.551,43.551,0,0,0-.891-9.107q-.89-4.167-1.943-4.331-1.779-.482-3.237,3.887a30.3,30.3,0,0,0-1.456,9.632q0,9.794,5.18,8.984" transform="translate(85.691 0.626)"/>
    <path id="Tracé_5103" data-name="Tracé 5103" d="M176.794,50.365l.083.081a19.841,19.841,0,0,1-7.407,10.359,20.48,20.48,0,0,1-12.261,3.8q-12.87,0-19.993-9.713-6.07-8.257-6.07-20.072a48.713,48.713,0,0,1,.971-10.038q4.451-21.124,18.858-23.8a14.951,14.951,0,0,1,2.752-.242A21.654,21.654,0,0,1,166.314,5.04a21.037,21.037,0,0,1,8.215,10.44q4.533,13.355,4.533,20.8a49.183,49.183,0,0,1-2.348,14.084Zm-20.072-5.828v-.081q2.346-.4,2.346-8.984a43.557,43.557,0,0,0-.89-9.107q-.89-4.167-1.943-4.331-1.779-.482-3.237,3.887a30.3,30.3,0,0,0-1.456,9.632q0,9.794,5.18,8.984" transform="translate(109.647 0.626)"/>
    <path id="Tracé_5104" data-name="Tracé 5104" d="M207.339,16.965v-.081q.807,9.389.81,17.725,0,25.66-8.5,28.815a8.514,8.514,0,0,1-2.995.487,22.74,22.74,0,0,1-5.26-.812q-4.048-2.264-12.384-25.98a54.24,54.24,0,0,1,1.458,12.34q0,6.737-1.943,10.715a7.579,7.579,0,0,1-3.2,3.2,7.1,7.1,0,0,1-4.41,1.1q-6.72-.65-9.147-8.185-1.619-5.026-1.618-15.561,0-20.5,1.7-27.556A14.994,14.994,0,0,1,167.759,4.5a9.931,9.931,0,0,1,5.989-1.944,11.732,11.732,0,0,1,3.562.566Q182,5.634,186.538,18.1A101.964,101.964,0,0,1,190.017,30q-.81-5.343-1.375-9.39a86.269,86.269,0,0,1-.971-10.442,10.059,10.059,0,0,1,2.1-6.555,8.356,8.356,0,0,1,6.88-2.995q7.849,0,9.794,8.742a73.771,73.771,0,0,1,.891,7.607" transform="translate(133.898 0.516)"/>
    <path id="Tracé_5105" data-name="Tracé 5105" d="M204.118,48.643h.081q2.928-.73,3.009-2.914a2.224,2.224,0,0,0-.689-1.539,39.481,39.481,0,0,0-5.139-3.479,36.569,36.569,0,0,1-5.424-3.966,22.328,22.328,0,0,1-4.289-6.153,23.207,23.207,0,0,1-2.51-10.359q0-7.607,5.989-13.6A21.656,21.656,0,0,1,211.013,0a18.716,18.716,0,0,1,9.63,2.508A21.163,21.163,0,0,1,226.392,8.5a7.337,7.337,0,0,1,1.375,3.645q.08,2.022-1.943,4.937l.081.081q-2.591,3.641-5.424,3.641a12.324,12.324,0,0,1-2.671-.4q-2.589-.647-2.993-4.533c-.11-1.025-.891-1.537-2.348-1.537a3.68,3.68,0,0,0-2.023.567,6.648,6.648,0,0,0-.89,3.235,5.519,5.519,0,0,0,2.591,4.614q9.548,6.8,11.25,8.418,6.07,5.748,6.476,12.059.08,1.54.242,4.129.163,10.441-12.572,16.268a21.872,21.872,0,0,1-9.081,2.185,13.6,13.6,0,0,1-1.785-.16l-.162-.081q-15.572-2.509-16.789-11.738c-.217-1.4-.364-2.389-.446-2.954s-.121-.74-.121-.525a5.9,5.9,0,0,1,1.3-3.8,3.741,3.741,0,0,1,2.929-1.619q.733,0,4.307,1.9t4.961,1.9a7.239,7.239,0,0,0,1.383-.162Z" transform="translate(158.149 0)"/>
  </g>
</svg>
