<svg id="logo_cyber" data-name="logo cyber" xmlns="http://www.w3.org/2000/svg" xmlns:xlink="http://www.w3.org/1999/xlink" width="270.718" height="53.038" viewBox="0 0 270.718 53.038">
  <defs>
    <clipPath id="clip-path">
      <rect id="Rectangle_150" data-name="Rectangle 150" width="270.718" height="53.038"/>
    </clipPath>
  </defs>
  <g id="Groupe_226" data-name="Groupe 226" clip-path="url(#clip-path)">
    <path id="Tracé_1548" data-name="Tracé 1548" d="M26.629,182.721H8.311q-4.571,0-6.648-4.662Q0,174.329,0,167.767a36.874,36.874,0,0,1,.589-7.183,11.6,11.6,0,0,1,2.424-5.526,6.751,6.751,0,0,1,5.3-2.21H26.629v6.631H9q-1.178,0-1.7,2.158a36.637,36.637,0,0,0,0,12.294q.519,2.159,1.7,2.158H26.629Z" transform="translate(0 -129.683)"/>
    <path id="Tracé_1549" data-name="Tracé 1549" d="M223.508,162.794q0,4.559-4.675,6.631-3.74,1.658-10.319,1.658-6.787,0-10.284-1.485-4.71-2-4.709-6.8v-9.946h6.649v9.29q0,1.175,2.191,1.675a29.145,29.145,0,0,0,6.155.5,29.966,29.966,0,0,0,6.224-.484q2.122-.483,2.122-1.692v-9.29h6.648Zm-11.67,19.927h-6.649v-8.288h6.649Z" transform="translate(-164.19 -129.683)"/>
    <path id="Tracé_1550" data-name="Tracé 1550" d="M452.634,176.089a6.671,6.671,0,0,1-6.649,6.631h-23.3V164.451h22.646a.649.649,0,0,0,.658-.656v-3.661a.65.65,0,0,0-.658-.656H422.681v-6.631h23.3a6.612,6.612,0,0,1,6.649,6.631v4.973a6.186,6.186,0,0,1-.294,1.934,2.788,2.788,0,0,1-.918,1.381,3.028,3.028,0,0,1,.883,1.4,5.828,5.828,0,0,1,.329,1.917Zm-6.649-.691v-3.626a.677.677,0,0,0-.191-.5.639.639,0,0,0-.467-.19h-16v5.008h16q.658,0,.658-.691" transform="translate(-358.62 -129.682)"/>
    <path id="Tracé_1551" data-name="Tracé 1551" d="M698.018,182.721h-23.3a6.612,6.612,0,0,1-6.648-6.631V159.479a6.612,6.612,0,0,1,6.648-6.631h23.3v6.631H675.371a.65.65,0,0,0-.658.656v4.317h23.3v6.631h-23.3V175.4a.675.675,0,0,0,.191.5.634.634,0,0,0,.467.19h22.646Z" transform="translate(-566.814 -129.683)"/>
    <path id="Tracé_1552" data-name="Tracé 1552" d="M928.868,182.721H922.22l-1.662-10.948q-.139-.691-.692-.691H904.559v11.638h-6.648V164.452h21.954a.679.679,0,0,0,.5-.19.634.634,0,0,0,.19-.466v-3.661q0-.656-.692-.656H897.911v-6.631h22.646a6.455,6.455,0,0,1,4.675,1.934,6.331,6.331,0,0,1,1.974,4.7v4.973a5.671,5.671,0,0,1-.329,1.9,3.128,3.128,0,0,1-.918,1.416,2.94,2.94,0,0,1,.866,1.45,11.2,11.2,0,0,1,.381,1.865Z" transform="translate(-761.825 -129.683)"/>
    <path id="Tracé_1553" data-name="Tracé 1553" d="M1149.943,159.479H1119.99v-6.631h29.953Zm-11.635,23.242h-6.649V162.794h6.649Z" transform="translate(-950.246 -129.683)"/>
    <path id="Tracé_1554" data-name="Tracé 1554" d="M1374.988,182.721h-23.3a6.612,6.612,0,0,1-6.649-6.631V159.479a6.612,6.612,0,0,1,6.649-6.631h23.3v6.631h-22.646a.65.65,0,0,0-.658.656v4.317h23.3v6.631h-23.3V175.4a.674.674,0,0,0,.191.5.634.634,0,0,0,.467.19h22.646Z" transform="translate(-1141.183 -129.683)"/>
    <path id="Tracé_1555" data-name="Tracé 1555" d="M1610.4,182.721h-7.791l-4.987-10.948c-.093-.161-.179-.316-.26-.466a.419.419,0,0,0-.4-.224h-11.323v11.638h-6.649V152.848h6.649v11.6h9a.419.419,0,0,0,.277-.086,2.788,2.788,0,0,0,.381-.57l5.644-10.948h7.791l-6.129,11.6q-.209.415-.416.777a1.85,1.85,0,0,1-.554.6,8.619,8.619,0,0,1,2.009,2.21,22.981,22.981,0,0,1,1.627,3.039Z" transform="translate(-1339.683 -129.683)"/>
    <path id="Tracé_1556" data-name="Tracé 1556" d="M918.5,18.269h-3.971V9.918l-3.923,8.351h-4.4l-3.923-8.351v8.351h-3.947V1.9h4.38l5.7,12.008L914.094,1.9h4.4Z" transform="translate(-762.182 -1.616)"/>
    <path id="Tracé_1557" data-name="Tracé 1557" d="M1065.279,8.471A8.447,8.447,0,1,1,1056.833,0a8.478,8.478,0,0,1,8.447,8.471m-13.284,0a4.813,4.813,0,1,0,4.837-4.789A4.817,4.817,0,0,0,1052,8.471" transform="translate(-889.494)"/>
    <path id="Tracé_1558" data-name="Tracé 1558" d="M1192.883,10.062c0,4.765-3.538,8.206-8.639,8.206H1177V1.928l7.244-.024c5.39-.024,8.639,3.441,8.639,8.158m-11.936,4.548h3.3a4.358,4.358,0,0,0,4.644-4.548c0-2.936-1.853-4.5-4.644-4.5h-3.3Z" transform="translate(-998.615 -1.616)"/>
    <path id="Tracé_1559" data-name="Tracé 1559" d="M1315.942,10.062c0,4.765-3.538,8.206-8.639,8.206h-7.244V1.928L1307.3,1.9c5.391-.024,8.639,3.441,8.639,8.158m-11.936,4.548h3.3a4.358,4.358,0,0,0,4.644-4.548c0-2.936-1.853-4.5-4.644-4.5h-3.3Z" transform="translate(-1103.024 -1.616)"/>
    <path id="Tracé_1560" data-name="Tracé 1560" d="M1435.655,1.905V5.563h-8.591V8.379h7.171V11.8h-7.171v2.816h8.591v3.658h-12.538V1.905Z" transform="translate(-1207.431 -1.616)"/>
    <path id="Tracé_1561" data-name="Tracé 1561" d="M1542.845,10.062c0,4.765-3.537,8.206-8.639,8.206h-7.244V1.928l7.244-.024c5.391-.024,8.639,3.441,8.639,8.158m-11.936,4.548h3.3a4.358,4.358,0,0,0,4.645-4.548c0-2.936-1.853-4.5-4.645-4.5h-3.3Z" transform="translate(-1295.537 -1.616)"/>
    <path id="Tracé_1562" data-name="Tracé 1562" d="M1673.374,63.636c0,1.282-.82,2.286-2.968,2.286h-3.868V58.07h3.406c2.275,0,2.991.9,2.991,2.159a2.025,2.025,0,0,1-.739,1.5,2.044,2.044,0,0,1,1.178,1.9m-2.24-3.164c0-.531-.346-.785-1.074-.785h-1.628v1.64h1.628c.819,0,1.074-.243,1.074-.854m-.947,2.3h-1.755v1.524h1.755q1.143,0,1.143-.762c0-.577-.393-.762-1.143-.762" transform="translate(-1413.96 -49.269)"/>
    <path id="Tracé_1563" data-name="Tracé 1563" d="M1723.139,62.955v2.968h-1.905V62.955l-3.348-4.884h2.182l2.136,3.21,2.1-3.21h2.206Z" transform="translate(-1457.524 -49.27)"/>
    <rect id="Rectangle_149" data-name="Rectangle 149" width="131.268" height="0.785" transform="translate(0.026 7.978)"/>
  </g>
</svg>
