<svg xmlns="http://www.w3.org/2000/svg" width="383.671" height="105.932" viewBox="0 0 383.671 105.932">
  <g id="Groupe_1373" data-name="Groupe 1373" transform="translate(-3210.495 -242.454)">
    <path id="Tracé_5745" data-name="Tracé 5745" d="M7.607,103.121A188.5,188.5,0,0,0,14.9,69.156a184.6,184.6,0,0,0,1.354-24.3,26.353,26.353,0,0,0,3.373,1.768,28.283,28.283,0,0,0,6.48,2.054,26.589,26.589,0,0,0,6.67.4A26.308,26.308,0,0,0,53.782,35.634a24.644,24.644,0,0,0-1.068-24.791,22.966,22.966,0,0,0-10-8.432A26.854,26.854,0,0,0,36.258.452,31.033,31.033,0,0,0,29.5.046c-9.363.571-17.722,5.3-24.571,11.472q-1.163,1.047-2.27,2.155a3.987,3.987,0,0,0-1.132,2.734,3.935,3.935,0,0,0,1.132,2.734,4.064,4.064,0,0,0,3.9.939q.223,1.455.423,2.914A183.3,183.3,0,0,1,8.454,41.486,184.4,184.4,0,0,1,8,60.674q-.385,5.08-1.053,10.134A183.493,183.493,0,0,1,2.126,94.377Q1.2,97.74.15,101.065a3.9,3.9,0,0,0,2.7,4.756,3.951,3.951,0,0,0,4.756-2.7M34.147,7.9A24.263,24.263,0,0,1,39.12,9.232,20.944,20.944,0,0,1,42.9,11.415a18.9,18.9,0,0,1,2.63,2.624,20.116,20.116,0,0,1,2.1,3.635,21.563,21.563,0,0,1,1.149,4.28,21.485,21.485,0,0,1,.021,4.427,20.04,20.04,0,0,1-1.109,4.137,20.914,20.914,0,0,1-2.179,3.715,22.8,22.8,0,0,1-3.418,3.39,23.417,23.417,0,0,1-4.137,2.4,22.3,22.3,0,0,1-4.593,1.266,22.6,22.6,0,0,1-4.853-.01,24.681,24.681,0,0,1-5.205-1.43,25.468,25.468,0,0,1-4.611-2.679,24.579,24.579,0,0,1-2.84-2.665c-.427-6.381-1.187-12.743-2.245-19.049a2.564,2.564,0,0,0-.347-.869,41.384,41.384,0,0,1,8.145-4.818,30.618,30.618,0,0,1,6.675-1.861,27.229,27.229,0,0,1,6.066,0" transform="translate(3210.495 242.453)"/>
    <path id="Tracé_5746" data-name="Tracé 5746" d="M140.757,52.154l.39-.924a62.189,62.189,0,0,0-3.491,10.039,54.984,54.984,0,0,0-1.449,11.817A54.424,54.424,0,0,0,137.4,84.931a44.771,44.771,0,0,0,3.683,10.755,28.448,28.448,0,0,0,3.159,4.882,21.358,21.358,0,0,0,4.192,3.962,22.106,22.106,0,0,0,10.694,3.835,33.577,33.577,0,0,0,10.845-.738,55.86,55.86,0,0,0,10.515-3.546,63.415,63.415,0,0,0,18.232-12.1q.954-.9,1.868-1.844a4.009,4.009,0,0,0,1.132-2.734,3.934,3.934,0,0,0-1.132-2.734,3.891,3.891,0,0,0-2.734-1.132,3.984,3.984,0,0,0-2.734,1.132,60.737,60.737,0,0,1-5.975,5.376,61.079,61.079,0,0,1-12.708,7.413,47,47,0,0,1-10.886,3.129,28.194,28.194,0,0,1-6.326.048,19.96,19.96,0,0,1-3.855-1.021,17.006,17.006,0,0,1-2.875-1.66,18.5,18.5,0,0,1-2.594-2.631,26.616,26.616,0,0,1-2.745-4.836,45.928,45.928,0,0,1-2.831-10.635,50.6,50.6,0,0,1,0-12.347,49.452,49.452,0,0,1,3.3-11.922l-.39.924c1.11-2.626,2.164-5.274,3.264-7.9a52.6,52.6,0,0,1,4.141-8.016c.438-.675.9-1.33,1.385-1.973a29.344,29.344,0,0,1,4.469-4.491,29,29,0,0,1,5.475-3.185,37.5,37.5,0,0,1,8.515-2.257,55.523,55.523,0,0,1,6.761-.406,3.992,3.992,0,0,0,2.734-1.132,3.867,3.867,0,0,0-2.734-6.6,50.11,50.11,0,0,0-14.675,1.988A32.981,32.981,0,0,0,156.2,27.744a33.384,33.384,0,0,0-4.22,3.752,38.791,38.791,0,0,0-3.386,4.256,46.6,46.6,0,0,0-4.151,7.532c-1.192,2.656-2.238,5.373-3.346,8.063q-.167.4-.337.808" transform="translate(3124.451 229.472)"/>
    <path id="Tracé_5747" data-name="Tracé 5747" d="M502.447,108.022a3.868,3.868,0,0,0,5.68,4.367,4.34,4.34,0,0,0,1.777-2.311q3.277-9.026,6.91-17.917.925-2.263,1.876-4.516,3.076-7.265,6.392-14.426a3.772,3.772,0,0,0,2.723,1.123l12.169-1.106q.4,9.024.6,18.055.173,8.019.186,16.04a3.991,3.991,0,0,0,1.133,2.734,3.867,3.867,0,0,0,6.6-2.734q-.024-14.3-.556-28.593-.115-3.1-.259-6.207a4.064,4.064,0,0,0,2.589-1.116,3.866,3.866,0,0,0,0-5.468,3.782,3.782,0,0,0-2.734-1.132l-.237.021q-.4-7.284-.928-14.561-.571-7.827-1.3-15.643.743-1.289,1.493-2.573a4.007,4.007,0,0,0,.39-2.98,3.868,3.868,0,0,0-7.067-.924q-8.654,14.793-16.245,30.173-7.729,15.665-14.319,31.856-3.615,8.849-6.878,17.837M538.36,46.678q.625,8.058,1.093,16.128c.052.91.1,1.82.144,2.73l-11.384,1.035c.125-.26.246-.521.371-.78q4.671-9.666,9.777-19.113" transform="translate(2893.174 225.852)"/>
    <path id="Tracé_5748" data-name="Tracé 5748" d="M639.372,112.442a3.9,3.9,0,0,0,2.98.39l.924-.39a3.889,3.889,0,0,0,1.387-1.387c2.08-2.816,2.551-6.451,2.882-9.831.313-3.206.506-6.423.644-9.641.279-6.481.337-12.971.694-19.449.166-3,.4-5.993.752-8.976.588,2.065,1.192,4.126,1.831,6.176q2.819,9.053,6.276,17.891,2.11,5.39,4.438,10.691l.6.783a2.9,2.9,0,0,0,1.245.8,3.712,3.712,0,0,0,2.517.195,4.017,4.017,0,0,0,2.839-3.729c.236-5.071.716-10.126,1.374-15.159q.591-4.332,1.344-8.636.434,6.972,1.159,13.923c.508,4.86,1.125,9.709,1.82,14.545a3.861,3.861,0,0,0,1.777,2.311,3.867,3.867,0,0,0,5.291-1.387l.39-.924a3.9,3.9,0,0,0,0-2.056q-.21-1.46-.407-2.921-1.479-11.168-2.232-22.416-.757-11.551-.668-23.137.057-6.491.4-12.975A3.877,3.877,0,0,0,678.5,34.4a3.974,3.974,0,0,0-2.22-1.064,3.848,3.848,0,0,0-4.242,2.77c-1.828,7.613-3.655,15.228-5.259,22.892-1.442,6.885-2.684,13.81-3.621,20.781q-.813-2.216-1.588-4.446-2.876-8.3-5.2-16.774-1.317-4.8-2.454-9.655a3.464,3.464,0,0,0-.878-1.581,4.164,4.164,0,0,0-.526-2.179,3.867,3.867,0,0,0-7.067.924,93.406,93.406,0,0,0-4.056,22.408c-.559,7.376-.6,14.778-.893,22.166-.157,3.928-.33,7.885-.816,11.789a16.976,16.976,0,0,1-.784,3.2,9.519,9.519,0,0,1-.91,1.519,3.888,3.888,0,0,0-.39,2.98,3.943,3.943,0,0,0,1.777,2.311" transform="translate(2807.784 221.417)"/>
    <path id="Tracé_5749" data-name="Tracé 5749" d="M783.009,121.88a3.909,3.909,0,0,0,2.734-1.132l.6-.783a3.849,3.849,0,0,0,.528-1.951q.456-3.842.913-7.685a319.671,319.671,0,0,0,30.9-8.588q4.344-1.446,8.645-3.017a4.153,4.153,0,0,0,2.311-1.778,3.866,3.866,0,0,0-1.387-5.29,3.815,3.815,0,0,0-2.98-.389,319.726,319.726,0,0,1-30.993,9.563c-1.838.466-3.682.91-5.528,1.343L790.21,89.95q.924-7.784,1.849-15.568c.011.042.018.087.032.129a3.911,3.911,0,0,0,1.777,2.311,4.248,4.248,0,0,0,2.98.39l21.524-4.484a3.868,3.868,0,0,0,.924-7.068,4.246,4.246,0,0,0-2.98-.39l-21.524,4.484a3.919,3.919,0,0,0-2.311,1.776c-.039.067-.073.14-.108.211q.585-4.928,1.17-9.856l1.868-15.723a3.856,3.856,0,0,0-1.133-2.735,3.868,3.868,0,0,0-5.468,0l-.6.783a3.849,3.849,0,0,0-.528,1.952q-1.667,14.031-3.334,28.064t-3.333,28.063l-1.867,15.723a3.855,3.855,0,0,0,1.132,2.734,3.93,3.93,0,0,0,2.734,1.132" transform="translate(2718.289 215.735)"/>
    <path id="Tracé_5750" data-name="Tracé 5750" d="M829.993,47.83l20.619-2.085,5.839-.59a4.178,4.178,0,0,0,2.734-1.132,3.867,3.867,0,0,0,0-5.468,3.762,3.762,0,0,0-2.734-1.133l-20.619,2.085-5.839.59a4.182,4.182,0,0,0-2.734,1.132,3.867,3.867,0,0,0,0,5.469,3.762,3.762,0,0,0,2.734,1.132" transform="translate(2688.602 218.82)"/>
    <path id="Tracé_5751" data-name="Tracé 5751" d="M966.707,102.673a117.486,117.486,0,0,1-16.381-15.611q-1.931-2.233-3.743-4.565-2.453-3.2-4.677-6.568a32.188,32.188,0,0,0,9.375-4.757,24.5,24.5,0,0,0,5.7-5.992,17.557,17.557,0,0,0,2.726-6.838,17.164,17.164,0,0,0-.453-7.716,18.884,18.884,0,0,0-3.807-6.814,16.484,16.484,0,0,0-12.89-5.643,18.651,18.651,0,0,0-8.112,2.172,17.138,17.138,0,0,0-6.134,5.6,3.813,3.813,0,0,0,.069,4,3.2,3.2,0,0,0-.979.711,3.905,3.905,0,0,0-1.132,2.734q.44,11.14.3,22.292-.141,11.1-.86,22.185-.405,6.246-.994,12.479a3.875,3.875,0,0,0,1.133,2.734,3.866,3.866,0,0,0,5.468,0,4.371,4.371,0,0,0,1.132-2.734q1.047-11.1,1.516-22.242.2-4.877.29-9.757a126.83,126.83,0,0,0,8.371,11.521,117.564,117.564,0,0,0,11.457,12.187q3.454,3.186,7.157,6.085a4.216,4.216,0,0,0,2.734,1.133,3.935,3.935,0,0,0,2.734-1.133,3.892,3.892,0,0,0,1.132-2.734,3.733,3.733,0,0,0-1.132-2.734M934.33,70.095c0-1.4,0-2.793-.016-4.189q-.064-6.259-.312-12.514a4.253,4.253,0,0,0-.611-2.068,4.393,4.393,0,0,0,1.6-1.476c.054-.08.113-.157.169-.236a13.16,13.16,0,0,1,1.6-1.6A14.317,14.317,0,0,1,939,46.7a14.772,14.772,0,0,1,2.691-.737,14.014,14.014,0,0,1,2.578,0,12.745,12.745,0,0,1,2.157.587,13,13,0,0,1,1.912,1.122,14.224,14.224,0,0,1,1.779,1.782,14.839,14.839,0,0,1,1.366,2.337,14.191,14.191,0,0,1,.7,2.541,12.969,12.969,0,0,1,.005,2.281,14.321,14.321,0,0,1-.692,2.5,16.964,16.964,0,0,1-1.651,2.808,20.408,20.408,0,0,1-2.963,2.939,27.275,27.275,0,0,1-5.033,2.851,52.862,52.862,0,0,1-7,2.2,3.5,3.5,0,0,0-.516.177" transform="translate(2626.324 218.346)"/>
    <path id="Tracé_5752" data-name="Tracé 5752" d="M405.677,102.618a38.488,38.488,0,0,0,1.734-8.4,58.346,58.346,0,0,0,.295-7.83,55.486,55.486,0,0,0,13.328-1.993,4,4,0,0,0,2.311-1.777,3.867,3.867,0,0,0-4.367-5.68,45.487,45.487,0,0,1-15.317,1.672,3.89,3.89,0,0,0-3.867,3.867,65.559,65.559,0,0,1-.186,12.275,31.342,31.342,0,0,1-1.759,6.793,20.963,20.963,0,0,1-2.192,3.806,18.1,18.1,0,0,1-2.439,2.44,16.592,16.592,0,0,1-2.726,1.588,18.4,18.4,0,0,1-3.732,1,20.426,20.426,0,0,1-4.015-.009,20.992,20.992,0,0,1-4.378-1.181,19.874,19.874,0,0,1-3.477-2.031,22.3,22.3,0,0,1-3.284-3.322,25.126,25.126,0,0,1-2.586-4.483,27.533,27.533,0,0,1-1.62-5.937,28.717,28.717,0,0,1,.017-6.5,34.386,34.386,0,0,1,2.13-7.669,41.94,41.94,0,0,1,4.9-8.31,47.835,47.835,0,0,1,7.84-7.816,49.383,49.383,0,0,1,10.049-5.86,44.766,44.766,0,0,1,10.264-2.89,30.9,30.9,0,0,1,7.062-.017,23.185,23.185,0,0,1,4.712,1.24,17.013,17.013,0,0,1,2.942,1.69,14.12,14.12,0,0,1,1.794,1.8,13.812,13.812,0,0,1,.99,1.642,3.867,3.867,0,1,0,6.678-3.9c-2.551-4.99-7.61-8.182-12.936-9.5a35.216,35.216,0,0,0-16.646.25,51.534,51.534,0,0,0-16.5,7.22,52.446,52.446,0,0,0-13.643,13.207,44.7,44.7,0,0,0-4.776,8.731,37.194,37.194,0,0,0-2.522,9.59,31.117,31.117,0,0,0,3.108,18.037,26.405,26.405,0,0,0,5.377,7.247,24.639,24.639,0,0,0,8.26,5.125,20.547,20.547,0,0,0,3.908,1.06,25.732,25.732,0,0,0,4.917.414,22.778,22.778,0,0,0,9.353-2.267c5.423-2.611,9.064-7.753,11-13.314" transform="translate(2983.389 213.12)"/>
  </g>
</svg>
