<svg id="Groupe_1375" data-name="Groupe 1375" xmlns="http://www.w3.org/2000/svg" width="185.713" height="34.216" viewBox="0 0 185.713 34.216">
  <path id="Tracé_5100" data-name="Tracé 5100" d="M55.131,25.441H50.909L46.792,9.768,42.628,25.441H38.313L32.652,5.069h3.83l4.083,16.2,4.456-16.2h3.869l4.19,16.3,3.877-16.3h3.7Z" transform="translate(11.936 1.854)" fill="#fff"/>
  <g id="Groupe_1287" data-name="Groupe 1287" transform="translate(0 0)">
    <path id="Tracé_5101" data-name="Tracé 5101" d="M58.22,6.688a1.777,1.777,0,0,1-.609,1.378,2.182,2.182,0,0,1-2.9,0,1.8,1.8,0,0,1-.594-1.378,1.861,1.861,0,0,1,.594-1.405,2.056,2.056,0,0,1,1.449-.565,1.984,1.984,0,0,1,1.464.58A1.873,1.873,0,0,1,58.22,6.688Zm-3.819,4.2h3.422V25.57H54.4Z" transform="translate(19.783 1.725)" fill="#fff"/>
    <path id="Tracé_5102" data-name="Tracé 5102" d="M69.067,23.983V15.809c0-2.141-.664-3.989-2.821-3.989a3.692,3.692,0,0,0-3.508,3.888v8.275H59.391V9.3h3.347v2.077H62.8a5.18,5.18,0,0,1,4.811-2.324,4.479,4.479,0,0,1,3.653,1.393,6.859,6.859,0,0,1,1.251,4.579v8.957Z" transform="translate(21.71 3.311)" fill="#fff"/>
    <path id="Tracé_5103" data-name="Tracé 5103" d="M81.719,25.782v-1.89H81.66c-1.062,1.788-3.232,2.2-4.744,2.2-4.5,0-6.145-3.492-6.145-7.209a8.962,8.962,0,0,1,1.841-5.913,6.039,6.039,0,0,1,4.956-2.132c3.219,0,4.093,1.792,4.093,1.792h.059v-8.5h3.473V25.782Zm.029-8.365A3.574,3.574,0,0,0,78.2,13.629c-2.752,0-3.821,2.394-3.821,5.154,0,2.41,1.009,4.6,3.63,4.633,2.569,0,3.716-2.45,3.736-4.474Z" transform="translate(25.87 1.512)" fill="#fff"/>
    <path id="Tracé_5104" data-name="Tracé 5104" d="M98.2,16.6c0,5.085-3.04,7.84-7.6,7.84-4.962,0-7.506-2.971-7.506-7.521,0-5.2,3.048-7.912,7.868-7.912C95.381,9,98.2,11.827,98.2,16.6m-3.565.116c0-2.263-.8-4.777-3.864-4.777-2.936,0-4.078,2.185-4.078,4.864,0,2.91,1.371,4.76,4.057,4.76C93.633,21.561,94.619,19.351,94.639,16.713Z" transform="translate(30.375 3.292)" fill="#fff"/>
    <path id="Tracé_5105" data-name="Tracé 5105" d="M112.349,23.905h-3.777L105.685,13.28l-3.1,10.625H98.922L94.65,9.269h3.585l2.788,11.371,3.261-11.371h3.361l2.907,11.341,2.719-11.341h3.284Z" transform="translate(34.599 3.389)" fill="#fff"/>
    <path id="Tracé_5106" data-name="Tracé 5106" d="M121.2,19.914c0,3.268-2.963,4.542-5.935,4.542a12.321,12.321,0,0,1-3.862-.744V20.235a6.765,6.765,0,0,0,4.015,1.478c1.6,0,2.326-.507,2.326-1.469a1.6,1.6,0,0,0-.993-1.517,14.365,14.365,0,0,0-1.812-.855,9.425,9.425,0,0,1-2.159-1.2,3.734,3.734,0,0,1-1.043-1.363,4.436,4.436,0,0,1-.386-1.79c0-2.64,2.2-4.5,5.719-4.5a7.327,7.327,0,0,1,3.333.571v3.3a6.952,6.952,0,0,0-3.369-1.153c-1.23,0-2.162.448-2.178,1.461-.008,1.307,1.592,1.943,2.547,2.33a7.569,7.569,0,0,1,2.98,1.845A3.557,3.557,0,0,1,121.2,19.914Z" transform="translate(40.704 3.294)" fill="#fff"/>
    <path id="Tracé_5107" data-name="Tracé 5107" d="M130.509,4.635V25.6h-3.5V8.876a10.649,10.649,0,0,1-4.282,1.913V7.806c4.58-1.695,6.226-3.171,6.226-3.171Z" transform="translate(44.861 1.695)" fill="#fff"/>
    <rect id="Rectangle_666" data-name="Rectangle 666" width="16.217" height="16.217" fill="#0295f0"/>
    <rect id="Rectangle_667" data-name="Rectangle 667" width="16.217" height="16.217" transform="translate(17.997)" fill="#0295f0"/>
    <rect id="Rectangle_668" data-name="Rectangle 668" width="16.217" height="16.217" transform="translate(0 17.999)" fill="#0295f0"/>
    <rect id="Rectangle_669" data-name="Rectangle 669" width="16.217" height="16.217" transform="translate(17.997 17.999)" fill="#0295f0"/>
    <path id="Tracé_5108" data-name="Tracé 5108" d="M138.083,4.635V25.6h-3.5V8.876A10.649,10.649,0,0,1,130.3,10.79V7.806c4.58-1.695,6.226-3.171,6.226-3.171Z" transform="translate(47.63 1.695)" fill="#fff"/>
  </g>
</svg>
