<svg width="500" height="500" viewBox="0 0 500 500" fill="none" xmlns="http://www.w3.org/2000/svg">
<path d="M250 437.054L130.269 500L153.135 366.677L56.2705 272.258L190.134 252.806L250 131.505L309.866 252.806L443.729 272.258L346.865 366.677L369.731 500L250 437.054Z" fill="#FFCF00"/>
<path d="M97.2604 194.49L55.2759 216.562L63.2942 169.812L29.3281 136.703L76.2681 129.883L97.2604 87.3477L118.253 129.883L165.193 136.703L131.226 169.812L139.245 216.562L97.2604 194.49Z" fill="#FFCF00"/>
<path d="M402.74 194.49L360.755 216.562L368.774 169.812L334.808 136.703L381.748 129.883L402.74 87.3477L423.732 129.883L470.672 136.703L436.706 169.812L444.724 216.562L402.74 194.49Z" fill="#FFCF00"/>
</svg>
