<?xml version="1.0" encoding="utf-8"?>
<!-- Generator: Adobe Illustrator 25.2.0, SVG Export Plug-In . SVG Version: 6.00 Build 0)  -->
<svg version="1.1" id="Calque_1" xmlns="http://www.w3.org/2000/svg" xmlns:xlink="http://www.w3.org/1999/xlink" x="0px" y="0px"
	 viewBox="0 0 74.5 74.5" style="enable-background:new 0 0 74.5 74.5;" xml:space="preserve">
<g>
	<polygon points="67,54.6 18.5,54.6 15.9,50.4 23.5,35.5 28.7,38.1 23.2,48.8 67,48.8 	"/>
	<path d="M23.3,57.1c-4.8,0-8.7,3.9-8.7,8.7c0,4.8,3.9,8.7,8.7,8.7c4.8,0,8.7-3.9,8.7-8.7C32,61,28.1,57.1,23.3,57.1z M27,65.8
		c0,2-1.6,3.6-3.6,3.6c-2,0-3.6-1.6-3.6-3.6c0-2,1.6-3.6,3.6-3.6C25.3,62.2,27,63.8,27,65.8z"/>
	<path d="M60,57.1c-4.8,0-8.7,3.9-8.7,8.7c0,4.8,3.9,8.7,8.7,8.7s8.7-3.9,8.7-8.7C68.7,61,64.8,57.1,60,57.1z M63.7,65.8
		c0,2-1.6,3.6-3.6,3.6s-3.6-1.6-3.6-3.6c0-2,1.6-3.6,3.6-3.6S63.7,63.8,63.7,65.8z"/>
	<polygon points="13.2,11.4 8.2,5.8 0,5.8 0,0 9.5,0 11.7,1 17.6,7.6 	"/>
	<path d="M10.9,7.2l12.8,33.2h36.2L74.5,7.2H10.9z M54.1,33.8H29.3l-8.8-20.3h43.6L54.1,33.8z"/>
</g>
</svg>
