<?xml version="1.0" encoding="utf-8"?>
<!-- Generator: Adobe Illustrator 25.2.0, SVG Export Plug-In . SVG Version: 6.00 Build 0)  -->
<svg version="1.1" id="Calque_1" xmlns="http://www.w3.org/2000/svg" xmlns:xlink="http://www.w3.org/1999/xlink" x="0px" y="0px"
	 viewBox="0 0 64.6 57.4" style="enable-background:new 0 0 64.6 57.4;" xml:space="preserve">
<g>
	<path d="M-20,61.7h-36.8V0H-20V61.7z M-52,56.9h27.3V4.7H-52V56.9z"/>
	<rect x="-41.5" y="49.1" width="6.2" height="6.2"/>
	<rect x="-43.6" y="2.4" width="10.5" height="4.5"/>
</g>
<g>
	<polyline points="0,57.4 12.7,35.2 52,35.2 64.6,57.4 	"/>
	<g>
		<path d="M32.3,0c-8.2,0-14.8,6.6-14.8,14.8s6.6,14.8,14.8,14.8S47.2,23,47.2,14.8S40.5,0,32.3,0z M32.3,23.2
			c-4.6,0-8.4-3.7-8.4-8.4s3.7-8.4,8.4-8.4c4.6,0,8.4,3.7,8.4,8.4S36.9,23.2,32.3,23.2z"/>
	</g>
</g>
</svg>
