<svg width="59" height="40" viewBox="0 0 59 40" fill="none" xmlns="http://www.w3.org/2000/svg">
<g clip-path="url(#clip0_17_299)">
<path d="M18.5301 11.1111H3.33542V13.5555H18.5301V11.1111Z" fill="black"/>
<path d="M16.8254 16H1.63065V18.4444H16.8254V16Z" fill="black"/>
<path d="M15.1947 20.963H0V23.4075H15.1947V20.963Z" fill="black"/>
<path d="M22.4586 40C19.4196 40 16.8995 37.4815 16.8995 34.4445C16.8995 31.4074 19.4196 28.8889 22.4586 28.8889C25.4975 28.8889 28.0176 31.4074 28.0176 34.4445C28.0176 37.4815 25.5716 40 22.4586 40ZM22.4586 31.3334C20.7538 31.3334 19.3455 32.7408 19.3455 34.4445C19.3455 36.1482 20.7538 37.5556 22.4586 37.5556C24.1633 37.5556 25.5716 36.1482 25.5716 34.4445C25.6457 32.7408 24.2374 31.3334 22.4586 31.3334Z" fill="black"/>
<path d="M48.4008 40C45.3618 40 42.8417 37.4815 42.8417 34.4445C42.8417 31.4074 45.3618 28.8889 48.4008 28.8889C51.4397 28.8889 53.9598 31.4074 53.9598 34.4445C53.9598 37.4815 51.4397 40 48.4008 40ZM48.4008 31.3334C46.696 31.3334 45.2877 32.7408 45.2877 34.4445C45.2877 36.1482 46.696 37.5556 48.4008 37.5556C50.1055 37.5556 51.5138 36.1482 51.5138 34.4445C51.5138 32.7408 50.1055 31.3334 48.4008 31.3334Z" fill="black"/>
<path d="M50.5503 5.11111H40.9146V0H10.9698V9.40741H20.309V24.5185H10.9698V31.3333H38.4686H40.9146H58.9259V12.7407L50.5503 5.11111ZM53.2927 22.4444H43.4347V10.2222H49.4384L53.3668 13.7037V22.4444H53.2927Z" fill="black"/>
</g>
<defs>
<clipPath id="clip0_17_299">
<rect width="59" height="40" fill="white"/>
</clipPath>
</defs>
</svg>
