<svg id="Calque_1" data-name="Calque 1" xmlns="http://www.w3.org/2000/svg" viewBox="0 0 536.46 216.55"><defs><style>.cls-1{fill:#1c1c1c;}</style></defs><polygon class="cls-1" points="347.28 84.66 361.33 83.67 361.33 118.97 374.12 118.98 374.12 83.67 388.18 84.66 388.18 74.46 347.28 74.46 347.28 84.66"/><path class="cls-1" d="M302.73,99.07l-21-24.75H270.18a41.15,41.15,0,0,0-29.5-15.58L83,45.8l21.35,29.64L47.83,96.64l56.51,21.19L83,147.47l157.69-12.94c12-1.21,22.72-7,29.49-15.71v0h13.07l-2-25.7,21.71,25.7h10.84V74.32H300.68Zm-172.3,19.78,1-19.2L113.92,74.32H130l7.59,13.84,8-13.84h15.76L143.78,99.65l1.05,19.2Zm77.86-22.26c0,12.94-10.69,23.07-24.34,23.07h0c-13.57,0-24.19-10.08-24.19-22.94v-.14c0-12.94,10.68-23.07,24.33-23.07s24.2,10.07,24.2,22.94Zm51.52,1.91c0,14.13-7.18,21-21.95,21h0c-14.38,0-21.68-6.93-21.68-20.6l-.46-24.56h13.7L229,97.54c0,6.37,3.37,10.16,9,10.16s9-3.57,9-9.79l-.45-23.58h13.7Z"/><path class="cls-1" d="M184,84.47c-6.42,0-11.27,5.15-11.27,12v.14c0,6.91,4.9,12.12,11.41,12.12s11.27-5.16,11.27-12v-.13C195.36,89.68,190.46,84.47,184,84.47Z"/><rect class="cls-1" x="324.33" y="74.46" width="12.79" height="44.52"/><polygon class="cls-1" points="435.57 108.62 410.19 109.62 410.19 100.72 433.53 100.72 433.53 92.37 410.19 92.37 410.19 83.81 435.23 84.8 435.23 74.45 397.68 74.45 397.68 118.97 435.57 118.97 435.57 108.62"/><path class="cls-1" d="M419.85,144.52a10.56,10.56,0,0,0-5.85-1.67,9.82,9.82,0,0,0-4.56,1.05,9.3,9.3,0,0,0-3.35,2.87,10.59,10.59,0,0,0-1.07,1.88l-.3-5.26h-6.6v38.09h7.35V165.54a9.9,9.9,0,0,0,2.5,3.22,8.7,8.7,0,0,0,5.87,2,10.75,10.75,0,0,0,5.93-1.66,11.36,11.36,0,0,0,4.1-4.8,19.61,19.61,0,0,0,0-15A11.22,11.22,0,0,0,419.85,144.52ZM416.34,163a5.63,5.63,0,0,1-4.64,2.12,5.53,5.53,0,0,1-3.3-1,6.12,6.12,0,0,1-2.17-2.89,11.85,11.85,0,0,1-.76-4.43,11.17,11.17,0,0,1,.81-4.48,6.62,6.62,0,0,1,2.22-2.84,5.64,5.64,0,0,1,3.3-1,5.45,5.45,0,0,1,4.59,2.12A10,10,0,0,1,418,156.8,9.81,9.81,0,0,1,416.34,163Z"/><path class="cls-1" d="M475.75,159.16l-1.66,5.69-1.4-5.37-5.09-16.09h-8.16l8.21,20.22,3,7-.91,2.31a4.94,4.94,0,0,1-1.85,2.57,5.06,5.06,0,0,1-2.6.64,8.81,8.81,0,0,1-2.58-.34,6.6,6.6,0,0,1-2.14-1.16L459,179.92a12,12,0,0,0,3,1.32,13.62,13.62,0,0,0,3.84.51,11.36,11.36,0,0,0,4.9-1,9.54,9.54,0,0,0,3.65-3.11,22.26,22.26,0,0,0,2.87-5.79l10.84-28.49h-7.46Z"/><path class="cls-1" d="M461.77,74.45h-16.7V119h16.15c17.17,0,27.41-8.42,27.41-22.53v-.13C488.63,82.42,478.84,74.45,461.77,74.45Zm13.94,22.33c0,7.4-4.83,11.47-13.6,11.47h-4.25V85.18h4.25c8.77,0,13.6,4.07,13.6,11.47Z"/><path class="cls-1" d="M455.26,163.67V152.78a9.68,9.68,0,0,0-1.48-5.53,9,9,0,0,0-4.1-3.3,16,16,0,0,0-6.17-1.1,14.29,14.29,0,0,0-8.29,2.15,9.69,9.69,0,0,0-4,5.69l6.28,1.93a5.93,5.93,0,0,1,2.2-3.38,6,6,0,0,1,3.49-1,4.73,4.73,0,0,1,3.46,1.29A4.8,4.8,0,0,1,448,153.1v1L438.73,156a10.49,10.49,0,0,0-5.52,2.6,6.59,6.59,0,0,0-1.93,4.91,7.07,7.07,0,0,0,1.07,4,6.75,6.75,0,0,0,3.06,2.44,13.15,13.15,0,0,0,9,.08,9.77,9.77,0,0,0,3.52-2.17,7,7,0,0,0,.78-1,4.86,4.86,0,0,0,.56,1.22,5.17,5.17,0,0,0,2.36,2,8.49,8.49,0,0,0,3.38.65,7.83,7.83,0,0,0,3.49-.7l.43-4.56a5.39,5.39,0,0,1-1.72.27C455.9,165.71,455.26,165,455.26,163.67Zm-7.3-3.33a5.76,5.76,0,0,1-.48,2.47,3.94,3.94,0,0,1-1.34,1.61,6,6,0,0,1-1.93.86,9,9,0,0,1-2.2.27,4.09,4.09,0,0,1-2.39-.7,2.35,2.35,0,0,1-1-2,2.21,2.21,0,0,1,.94-2,8,8,0,0,1,2.76-1l5.63-1.13Z"/></svg>