<?xml version="1.0" encoding="utf-8"?>
<!-- Generator: Adobe Illustrator 25.2.0, SVG Export Plug-In . SVG Version: 6.00 Build 0)  -->
<svg version="1.1" id="Calque_1" xmlns="http://www.w3.org/2000/svg" xmlns:xlink="http://www.w3.org/1999/xlink" x="0px" y="0px"
	 viewBox="0 0 500 500" style="enable-background:new 0 0 500 500;" xml:space="preserve">
<g>
	<path d="M0,286.6L0,286.6l0,11.6h0v96.2h4.5v24.6h174.4V385h9.4v34.1h257.2v-24.6h4.6V286.6H0z M197.7,384.8H436v24.9H197.7V384.8z
		 M14.1,384.8h155.5v24.9H14.1V384.8z"/>
	<path d="M500,80.9L500,80.9h-11.6H61.6H50v11.6v96.2h4.5v24.6h174.4v-34.1h9.4v34.1h257.2v-24.6h4.6V80.9z M219.5,204.1H64v-24.9
		h155.5V204.1z M485.9,204.1H247.6v-24.9h238.3V204.1z"/>
</g>
</svg>
