<?xml version="1.0" encoding="utf-8"?>
<!-- Generator: Adobe Illustrator 25.2.0, SVG Export Plug-In . SVG Version: 6.00 Build 0)  -->
<svg version="1.1" id="Calque_1" xmlns="http://www.w3.org/2000/svg" xmlns:xlink="http://www.w3.org/1999/xlink" x="0px" y="0px"
	 viewBox="0 0 500 500" style="enable-background:new 0 0 500 500;" xml:space="preserve">
<g>
	<path d="M250.2,278.3c34.7,0,66.6,12.5,91.2,33.3c12,10.1,13.2,28.1,3,40c-10.1,11.6-27.7,13.2-39.4,3.3
		c-14.8-12.5-33.9-20-54.8-20c-20.9,0-40,7.5-54.8,20c-11.7,9.9-29.4,8.3-39.4-3.3c-10.3-11.9-9-29.9,3-40
		C183.6,290.8,215.4,278.3,250.2,278.3"/>
	<path d="M250.2,278.3c34.7,0,66.6,12.5,91.2,33.3c12,10.1,13.2,28.1,3,40c-10.1,11.6-27.7,13.2-39.4,3.3
		c-14.8-12.5-33.9-20-54.8-20c-20.9,0-40,7.5-54.8,20c-11.7,9.9-29.4,8.3-39.4-3.3c-10.3-11.9-9-29.9,3-40
		C183.6,290.8,215.4,278.3,250.2,278.3"/>
	<path d="M250.2,278.3c34.7,0,66.6,12.5,91.2,33.3c12,10.1,13.2,28.1,3,40c-10.1,11.6-27.7,13.2-39.4,3.3
		c-14.8-12.5-33.9-20-54.8-20c-20.9,0-40,7.5-54.8,20c-11.7,9.9-29.4,8.3-39.4-3.3c-10.3-11.9-9-29.9,3-40
		C183.6,290.8,215.4,278.3,250.2,278.3"/>
	<path d="M250.2,165.1c63.1,0,120.8,22.9,165.3,60.9c11.9,10.2,13.2,28.1,2.9,40l0,0c-10.1,11.7-27.9,13.2-39.7,3.1
		c-34.6-29.5-79.5-47.3-128.5-47.3c-49.1,0-94,17.8-128.5,47.4c-11.8,10.1-29.5,8.6-39.7-3.1l0,0c-10.2-11.8-9-29.8,2.9-40
		C129.4,188,187.1,165.1,250.2,165.1"/>
	<path d="M250.2,278.3c34.7,0,66.6,12.5,91.2,33.3c12,10.1,13.2,28.1,3,40c-10.1,11.6-27.7,13.2-39.4,3.3
		c-14.8-12.5-33.9-20-54.8-20c-20.9,0-40,7.5-54.8,20c-11.7,9.9-29.4,8.3-39.4-3.3c-10.3-11.9-9-29.9,3-40
		C183.6,290.8,215.4,278.3,250.2,278.3"/>
	<path d="M250.2,165.1c63.1,0,120.8,22.9,165.3,60.9c11.9,10.2,13.2,28.1,2.9,40l0,0c-10.1,11.7-27.9,13.2-39.7,3.1
		c-34.6-29.5-79.5-47.3-128.5-47.3c-49.1,0-94,17.8-128.5,47.4c-11.8,10.1-29.5,8.6-39.7-3.1l0,0c-10.2-11.8-9-29.8,2.9-40
		C129.4,188,187.1,165.1,250.2,165.1"/>
	<path d="M250.2,278.3c34.7,0,66.6,12.5,91.2,33.3c12,10.1,13.2,28.1,3,40c-10.1,11.6-27.7,13.2-39.4,3.3
		c-14.8-12.5-33.9-20-54.8-20c-20.9,0-40,7.5-54.8,20c-11.7,9.9-29.4,8.3-39.4-3.3c-10.3-11.9-9-29.9,3-40
		C183.6,290.8,215.4,278.3,250.2,278.3"/>
	<path d="M250.2,165.1c63.1,0,120.8,22.9,165.3,60.9c11.9,10.2,13.2,28.1,2.9,40l0,0c-10.1,11.7-27.9,13.2-39.7,3.1
		c-34.6-29.5-79.5-47.3-128.5-47.3c-49.1,0-94,17.8-128.5,47.4c-11.8,10.1-29.5,8.6-39.7-3.1l0,0c-10.2-11.8-9-29.8,2.9-40
		C129.4,188,187.1,165.1,250.2,165.1"/>
	<path d="M250.2,51.9c91.3,0,174.9,33.3,239.2,88.4c11.9,10.2,13.3,28.2,3,40c-10.2,11.8-28,13.1-39.8,3
		c-54.4-46.6-125.2-74.8-202.4-74.8c-77.3,0-148,28.2-202.5,74.8c-11.8,10.1-29.6,8.8-39.8-3c-10.3-11.9-8.9-29.8,3-40
		C75.2,85.1,158.8,51.9,250.2,51.9"/>
	<path d="M250.2,391.5c15.6,0,28.3,12.7,28.3,28.3c0,3.6-0.7,7-1.9,10.2c-2.4,6.2-6.8,11.3-12.5,14.5c-4.1,2.3-8.8,3.6-13.9,3.6
		c-5,0-9.8-1.3-13.9-3.6c-5.7-3.2-10.2-8.3-12.6-14.5c-1.2-3.1-1.9-6.6-1.9-10.1C221.8,404.2,234.5,391.5,250.2,391.5"/>
	<path d="M250.2,278.3c34.7,0,66.6,12.5,91.2,33.3c12,10.1,13.2,28.1,3,40c-10.1,11.6-27.7,13.2-39.4,3.3
		c-14.8-12.5-33.9-20-54.8-20c-20.9,0-40,7.5-54.8,20c-11.7,9.9-29.4,8.3-39.4-3.3c-10.3-11.9-9-29.9,3-40
		C183.6,290.8,215.4,278.3,250.2,278.3"/>
	<path d="M250.2,165.1c63.1,0,120.8,22.9,165.3,60.9c11.9,10.2,13.2,28.1,2.9,40l0,0c-10.1,11.7-27.9,13.2-39.7,3.1
		c-34.6-29.5-79.5-47.3-128.5-47.3c-49.1,0-94,17.8-128.5,47.4c-11.8,10.1-29.5,8.6-39.7-3.1l0,0c-10.2-11.8-9-29.8,2.9-40
		C129.4,188,187.1,165.1,250.2,165.1"/>
	<path d="M250.2,51.9c91.3,0,174.9,33.3,239.2,88.4c11.9,10.2,13.3,28.2,3,40c-10.2,11.8-28,13.1-39.8,3
		c-54.4-46.6-125.2-74.8-202.4-74.8c-77.3,0-148,28.2-202.5,74.8c-11.8,10.1-29.6,8.8-39.8-3c-10.3-11.9-8.9-29.8,3-40
		C75.2,85.1,158.8,51.9,250.2,51.9"/>
</g>
</svg>
