<?xml version="1.0" encoding="utf-8"?>
<!-- Generator: Adobe Illustrator 25.2.1, SVG Export Plug-In . SVG Version: 6.00 Build 0)  -->
<svg version="1.1" id="User" xmlns="http://www.w3.org/2000/svg" xmlns:xlink="http://www.w3.org/1999/xlink" x="0px" y="0px"
	 viewBox="0 0 32 32" style="enable-background:new 0 0 32 32;" xml:space="preserve">
<style type="text/css">
	.st0{fill:none;}
</style>
<path d="M16,4.2c3,0,5.5,2.5,5.5,5.5S19,15.1,16,15.1s-5.5-2.5-5.5-5.5S13,4.2,16,4.2 M16,2c-4.2,0-7.7,3.4-7.7,7.7
	c0,4.2,3.4,7.7,7.7,7.7s7.7-3.4,7.7-7.7C23.7,5.4,20.2,2,16,2L16,2z"/>
<g>
	<path class="st0" d="M24,23c-2.1-1.7-5-2.7-8-2.7c-3,0-5.9,0.9-8,2.7c-1.6,1.3-2.7,3-3,4.8h22C26.7,26,25.7,24.3,24,23z"/>
	<path d="M29.3,27.7C28.6,22.3,22.9,18,16,18c-6.9,0-12.6,4.3-13.3,9.7c0,0.4-0.1,0.7-0.1,1.1c0,0,0,0,0,0c0,0.6,0.5,1.1,1.1,1.1
		h24.4c0.6,0,1.1-0.5,1.1-1.1c0,0,0,0,0,0C29.4,28.5,29.3,28.1,29.3,27.7z M5,27.7C5.4,26,6.4,24.3,8,23c2.1-1.7,5-2.7,8-2.7
		s5.9,0.9,8,2.7c1.6,1.3,2.7,3,3,4.8H5z"/>
</g>
</svg>
