<?xml version="1.0" encoding="utf-8"?>
<!-- Generator: Adobe Illustrator 25.2.0, SVG Export Plug-In . SVG Version: 6.00 Build 0)  -->
<svg version="1.1" id="Calque_1" xmlns="http://www.w3.org/2000/svg" xmlns:xlink="http://www.w3.org/1999/xlink" x="0px" y="0px"
	 viewBox="0 0 37.4 36.1" style="enable-background:new 0 0 37.4 36.1;" xml:space="preserve">
<style type="text/css">
	.st0{clip-path:url(#SVGID_1_);}
	.st1{fill:#020203;}
	.st2{fill:#FFFFFF;}
</style>
<g>
	<g>
		<defs>
			<rect id="SVGID_3_" width="37.4" height="36.1"/>
		</defs>
		<clipPath id="SVGID_1_">
			<use xlink:href="#SVGID_3_"  style="overflow:visible;"/>
		</clipPath>
		<g class="st0">
			<rect x="4.7" y="4.5" class="st1" width="28" height="27.1"/>
			<path class="st1" d="M32.2,12v4.4h5.1v3.3h-5.1v4.4h5.1v3.3h-5.1v2.4c0,0.8-0.7,1.5-1.5,1.5h-2.5v4.9h-3.4v-4.9h-4.6v4.9h-3.4
				v-4.9h-4.6v4.9H8.9v-4.9H6.4c-0.8,0-1.5-0.7-1.5-1.5v-2.4h-5.1v-3.3h5.1v-4.4h-5.1v-3.3h5.1V12h-5.1V8.7h5.1V6.3
				c0-0.8,0.7-1.4,1.5-1.4h2.5V0h3.4v4.9h4.6V0h3.4v4.9h4.6V0h3.4v4.9h2.5c0.9,0,1.5,0.7,1.5,1.4v2.4h5.1V12L32.2,12L32.2,12z"/>
			<rect x="8.4" y="8.1" class="st2" width="20.6" height="19.9"/>
			<rect x="11.2" y="10.8" class="st1" width="15" height="14.4"/>
		</g>
	</g>
</g>
</svg>
