<svg xmlns="http://www.w3.org/2000/svg" viewBox="0 0 51.73 50">
    <title>Recyclable</title>
    <g id="Layer_2" data-name="Layer 2">
        <g id="Layer_1-2" data-name="Layer 1" fill="#717171">
            <path d="M12.47,8.49l9.48,6a.86.86,0,0,0,.47.14l.21,0a.87.87,0,0,0,.54-.42L26.79,7.7l4,7.5-3.61,2.16a.88.88,0,0,0-.39.93.84.84,0,0,0,.74.67l12.83,1.46h.1a.84.84,0,0,0,.77-.48L47.33,7.27a.86.86,0,0,0-.4-1.15.87.87,0,0,0-.77,0L42.45,8,39.54,3a5.7,5.7,0,0,0-5.06-3H20.12a6.17,6.17,0,0,0-5.25,3L12.2,7.31A.86.86,0,0,0,12.47,8.49Zm22-6.77a4,4,0,0,1,3.57,2.16l3.32,5.7a.85.85,0,0,0,1.13.33l2.16-1.09-4.75,9.82-9.7-1.11,2.13-1.27a.88.88,0,0,0,.32-1.15L25.58,1.72ZM16.34,3.86a4.45,4.45,0,0,1,3.78-2.14h3.5L25.75,6l-3.64,6.56-8-5.08Z" />
            <path d="M51,24.14l-2.79-5.56A.86.86,0,0,0,47,18.19l-.05,0-10.34,6a.86.86,0,0,0-.32,1.17l3.6,6.48h-8V28.45a.86.86,0,0,0-.86-.86.85.85,0,0,0-.64.28l-8.62,9.48a.88.88,0,0,0-.05,1.11l8.62,11.2a.86.86,0,0,0,1.55-.52V46.55h6a5.53,5.53,0,0,0,5.06-3L49,33.2l1.8-2.9A6.12,6.12,0,0,0,51,24.14ZM41.49,42.69a3.87,3.87,0,0,1-3.56,2.14H31a.86.86,0,0,0-.87.86v.91L23.54,38l6.63-7.3v2.08a.86.86,0,0,0,.87.86H46.78ZM49.35,29.4l-1.56,2.49h-5.9l-3.66-6.57,8.83-5.15L49.45,25A4.43,4.43,0,0,1,49.35,29.4Z" />
            <path d="M15.44,14.29a.87.87,0,0,0-.84-.5L.81,14.66a.85.85,0,0,0-.81.91.87.87,0,0,0,.41.68h0l4.26,2.64-2.84,5.7a6.18,6.18,0,0,0,0,6l4.8,8.29,2.62,4.54a6.33,6.33,0,0,0,5.4,3.12H18.1a.86.86,0,0,0,.87-.86V33.62a.86.86,0,0,0-.87-.86H11.66L16,25.3l3.56,1.37a.86.86,0,0,0,1.11-.5.82.82,0,0,0,0-.67Zm1.8,20.19V44.83H14.66a4.6,4.6,0,0,1-3.91-2.26l-2.36-4.1,2.44-4ZM15.9,23.42a.87.87,0,0,0-1.06.38L7.38,36.74l-4-7a4.51,4.51,0,0,1,0-4.36L6.57,19a.86.86,0,0,0-.32-1.12L3.61,16.21l10.51-.66,4,8.74Z" />
        </g>
    </g>
</svg>
