<svg xmlns="http://www.w3.org/2000/svg" viewBox="0 0 50 50">
    <title>Free-delivery</title>
    <g id="Layer_2" data-name="Layer 2">
        <g id="Layer_1-2" data-name="Layer 1" fill="#717171">
            <path d="M49.22,39.84a.78.78,0,0,1-.78-.78V30.47a.78.78,0,0,1,1.56,0v8.59a.78.78,0,0,1-.78.78Z" />
            <path d="M49.22,31.25a.79.79,0,0,1-.67-.37L42.3,20.72a.78.78,0,0,1,.26-1.07.77.77,0,0,1,1.07.25l6.25,10.16a.77.77,0,0,1-.25,1.07.78.78,0,0,1-.41.12Z" />
            <path d="M45.31,29.69a.76.76,0,0,1-.66-.37L40.8,23.06A.77.77,0,0,1,41.06,22a.78.78,0,0,1,1.07.25L46,28.5a.79.79,0,0,1-.67,1.19Z" />
            <path d="M43,21.09H32.81a.78.78,0,1,1,0-1.56H43a.78.78,0,0,1,0,1.56Z" />
            <path d="M32.81,37.5a.78.78,0,0,1-.78-.78V14.84a.78.78,0,0,1,1.56,0V36.72a.78.78,0,0,1-.78.78Z" />
            <path d="M32.81,35.16H1.56a.79.79,0,0,1,0-1.57H32.81a.79.79,0,0,1,0,1.57Z" />
            <path d="M1.56,39.84a.78.78,0,0,1-.78-.78V31.25a.78.78,0,0,1,1.56,0v7.81a.78.78,0,0,1-.78.78Z" />
            <path d="M1.56,44.53a.78.78,0,0,1-.78-.78V39.06a.78.78,0,0,1,1.56,0v4.69a.78.78,0,0,1-.78.78Z" />
            <path d="M34.38,44.53h-18a.78.78,0,1,1,0-1.56h18a.78.78,0,1,1,0,1.56Z" />
            <path d="M49.22,44.53a.78.78,0,0,1-.78-.78V39.06a.78.78,0,0,1,1.56,0v4.69a.78.78,0,0,1-.78.78Z" />
            <path d="M39.84,46.87A3.13,3.13,0,1,1,43,43.75a3.12,3.12,0,0,1-3.13,3.12Zm0-4.68a1.56,1.56,0,1,0,1.57,1.56,1.56,1.56,0,0,0-1.57-1.56Z" />
            <path d="M39.84,50a6.25,6.25,0,1,1,6.25-6.25A6.26,6.26,0,0,1,39.84,50Zm0-10.94a4.69,4.69,0,1,0,4.69,4.69,4.69,4.69,0,0,0-4.69-4.69Z" />
            <path d="M10.94,46.87a3.13,3.13,0,1,1,3.12-3.12,3.13,3.13,0,0,1-3.12,3.12Zm0-4.68a1.56,1.56,0,1,0,1.56,1.56,1.57,1.57,0,0,0-1.56-1.56Z" />
            <path d="M10.94,50a6.25,6.25,0,1,1,6.25-6.25A6.25,6.25,0,0,1,10.94,50Zm0-10.94a4.69,4.69,0,1,0,4.68,4.69,4.69,4.69,0,0,0-4.68-4.69Z" />
            <path d="M5.47,44.53H1.56a.78.78,0,0,1,0-1.56H5.47a.78.78,0,0,1,0,1.56Z" />
            <path d="M49.22,44.53H45.31a.78.78,0,0,1,0-1.56h3.91a.78.78,0,0,1,0,1.56Z" />
            <path d="M35.16,29.69a.77.77,0,0,1-.78-.78V22.66a.78.78,0,1,1,1.56,0v6.25a.78.78,0,0,1-.78.78Z" />
            <path d="M45.31,29.69H35.16a.79.79,0,0,1,0-1.57H45.31a.79.79,0,0,1,0,1.57Z" />
            <path d="M41.47,23.44H35.16a.79.79,0,0,1,0-1.57h6.31a.79.79,0,0,1,0,1.57Z" />
            <path d="M1.56,32a.78.78,0,0,1-.78-.78V15.62a.78.78,0,0,1,1.56,0V31.25a.78.78,0,0,1-.78.78Z" />
            <path d="M33.59,15.62H.78A.77.77,0,0,1,0,14.84V8.59a.78.78,0,0,1,.78-.78H33.59a.78.78,0,0,1,.79.78v6.25a.78.78,0,0,1-.79.78Zm-32-1.56H32.81V9.37H1.56Z" />
            <path d="M19.53,7.81A.78.78,0,0,1,18.75,7a1.57,1.57,0,0,0-3.13,0,.78.78,0,0,1-1.56,0,3.13,3.13,0,0,1,6.25,0,.78.78,0,0,1-.78.78Z" />
            <path d="M14.84,9.37a.77.77,0,0,1-.78-.78V7a.78.78,0,1,1,1.56,0V8.59a.77.77,0,0,1-.78.78Z" />
            <path d="M19.53,9.37a.77.77,0,0,1-.78-.78V7a.78.78,0,0,1,1.56,0V8.59a.77.77,0,0,1-.78.78Z" />
            <path d="M25,9.37a.78.78,0,0,1,0-1.56,3.13,3.13,0,1,0,0-6.25A.78.78,0,0,1,25,0a4.69,4.69,0,1,1,0,9.37Z" />
            <path d="M19.53,7.81h-.1a.79.79,0,0,1-.67-.88C19.06,4.54,20.75,0,25,0a.78.78,0,1,1,0,1.56c-3.94,0-4.67,5.34-4.69,5.57a.79.79,0,0,1-.78.68Z" />
            <path d="M9.37,9.37A4.69,4.69,0,0,1,9.37,0a.78.78,0,1,1,0,1.56,3.13,3.13,0,0,0,0,6.25.78.78,0,1,1,0,1.56Z" />
            <path d="M14.84,7.81a.78.78,0,0,1-.77-.68c0-.23-.76-5.57-4.7-5.57A.78.78,0,0,1,9.37,0c4.26,0,6,4.54,6.25,6.93a.79.79,0,0,1-.68.88Z" />
            <path d="M14.84,34.42a.78.78,0,0,1-.78-.78v-25a.78.78,0,1,1,1.56,0V33.64a.77.77,0,0,1-.78.78Z" />
            <path d="M19.53,34.42a.78.78,0,0,1-.78-.78v-25a.78.78,0,0,1,1.56,0V33.64a.78.78,0,0,1-.78.78Z" />
        </g>
    </g>
</svg>
