<svg xmlns="http://www.w3.org/2000/svg" viewBox="0 0 50 50">
    <title>Facebook</title>
    <g id="Layer_2" data-name="Layer 2">
        <g id="Layer_1-2" data-name="Layer 1">
            <path d="M43.26,0H6.74A6.74,6.74,0,0,0,0,6.74V43.26A6.74,6.74,0,0,0,6.74,50h18l0-17.87H20.14A1.11,1.11,0,0,1,19,31l0-5.76a1.1,1.1,0,0,1,1.1-1.1h4.63V18.62c0-6.46,3.95-10,9.71-10h4.72a1.1,1.1,0,0,1,1.1,1.1v4.85a1.1,1.1,0,0,1-1.1,1.1h-2.9c-3.13,0-3.74,1.49-3.74,3.68v4.81h6.89a1.11,1.11,0,0,1,1.09,1.23l-.69,5.76a1.08,1.08,0,0,1-1.08,1H32.57l0,17.87H43.26A6.74,6.74,0,0,0,50,43.26V6.74A6.74,6.74,0,0,0,43.26,0Z" />
        </g>
    </g>
</svg>
