<svg xmlns="http://www.w3.org/2000/svg" viewBox="0 0 43.28 50.67">
    <title>Free-sample</title>
    <g id="Layer_2" data-name="Layer 2">
        <g id="Layer_1-2" data-name="Layer 1" fill="#717171">
            <path d="M42.08,26.12a3.39,3.39,0,0,0-4.74.38l-5,5.13a3.38,3.38,0,0,0-2.63-1.26H20.29a10.91,10.91,0,0,0-4.23-.85,10.45,10.45,0,0,0-9.53,5.41,2.53,2.53,0,0,0-2.26.7l-4,4a.85.85,0,0,0,0,1.2l9.49,9.56a.85.85,0,0,0,1.19,0l4.1-4a2.57,2.57,0,0,0,.6-2.63l.88-.85a2.57,2.57,0,0,1,1.76-.71H29.51a7.54,7.54,0,0,0,5.3-2.15c.06-.06-.44.54,7.67-9.16A3.4,3.4,0,0,0,42.08,26.12ZM13.84,45.19l-3.5,3.44L2,40.26l3.42-3.44a.86.86,0,0,1,1-.11c.15.08-.27-.3,7.32,7.29A.85.85,0,0,1,13.84,45.19ZM41.19,29.8l-7.58,9.07a5.9,5.9,0,0,1-4.1,1.64H18.27a4.17,4.17,0,0,0-2.93,1.19l-.72.69L8,35.77a8.73,8.73,0,0,1,8.06-4.56,9.29,9.29,0,0,1,3.72.78.8.8,0,0,0,.34.07h9.6a1.69,1.69,0,1,1,0,3.38h-6.9a.85.85,0,0,0,0,1.69h6.9a3.38,3.38,0,0,0,3.38-3.38,3.15,3.15,0,0,0,0-.44l5.54-5.69a1.69,1.69,0,1,1,2.58,2.18Z" />
            <path d="M31.6,8,29.75,3.61H23.51a3.7,3.7,0,0,1,.38-.53c1-1.16,2.62-1.74,4.81-1.74s3.8.58,4.78,1.73a5.55,5.55,0,0,1,1.13,3.71H32.46l-.55,7.68h6.64L38,6.78H36a6.78,6.78,0,0,0-1.44-4.56C33.26.75,31.31,0,28.7,0s-4.57.75-5.83,2.22A5.49,5.49,0,0,0,22,3.61H14.4L12.56,8v18.2h19Zm5.51,5.17H33.35l.36-5h3ZM30.26,24.81H13.89V8.22l1.4-3.28h6.26a7.2,7.2,0,0,0-.13.71,1.92,1.92,0,1,0,1.36,0,5.27,5.27,0,0,1,.15-.73h5.94l1.39,3.28Z" />
            <path d="M22.08,11.6a5.05,5.05,0,1,0,5,5A5.06,5.06,0,0,0,22.08,11.6Zm0,8.76a3.71,3.71,0,1,1,3.71-3.71A3.72,3.72,0,0,1,22.08,20.36Z" />
        </g>
    </g>
</svg>
