<svg xmlns="http://www.w3.org/2000/svg" viewBox="0 0 50 50">
    <title>Pinterest</title>
    <g id="Layer_2" data-name="Layer 2">
        <g id="Layer_1-2" data-name="Layer 1">
            <path d="M50,25.73A25,25,0,1,0,14.08,47.49a.7.7,0,0,0,1-.66,18.88,18.88,0,0,1,.32-4.71C15.72,40.76,17,35.5,17.78,32a12.32,12.32,0,0,0,.13-5.13A11,11,0,0,1,17.73,25c0-3.7,2.14-6.46,4.81-6.46,2.26,0,3.36,1.71,3.36,3.75,0,2.28-1.45,5.69-2.2,8.85a3.86,3.86,0,0,0,3.93,4.8c4.73,0,8.36-5,8.36-12.17,0-6.36-4.57-10.81-11.1-10.81-7.56,0-12,5.67-12,11.53a10.31,10.31,0,0,0,2,6.06.81.81,0,0,1,.18.77c-.2.84-.65,2.64-.74,3s-.38.59-.89.36C10.1,33.11,8,28.26,8,24.36,8,16,14.12,8.28,25.59,8.28,34.81,8.28,42,14.85,42,23.63c0,9.16-5.77,16.53-13.79,16.53a7.81,7.81,0,0,1-5.32-2,.66.66,0,0,0-1.11.3l-1.32,5a22.82,22.82,0,0,1-2,4.79.7.7,0,0,0,.45,1,25,25,0,0,0,6.4.77A25.42,25.42,0,0,0,50,25.73Z" />
        </g>
    </g>
</svg>
