<svg xmlns="http://www.w3.org/2000/svg" viewBox="0 0 50 50">
    <title>Instagram</title>
    <g id="Layer_2" data-name="Layer 2">
        <g id="Layer_1-2" data-name="Layer 1">
            <path d="M45,35.1A9.87,9.87,0,0,1,35.1,45H14.9A9.87,9.87,0,0,1,5,35.1V14.9A9.87,9.87,0,0,1,14.9,5H35.1A9.87,9.87,0,0,1,45,14.9V35.1ZM35.1,0H14.9A14.91,14.91,0,0,0,0,14.9V35.1A14.91,14.91,0,0,0,14.9,50H35.1A14.91,14.91,0,0,0,50,35.1V14.9A14.91,14.91,0,0,0,35.1,0Z" />
            <path d="M25,32.9A7.9,7.9,0,1,1,32.9,25,7.9,7.9,0,0,1,25,32.9Zm0-20.83A12.93,12.93,0,1,0,37.93,25,12.94,12.94,0,0,0,25,12.07Z" />
            <path d="M38,9.07a3.1,3.1,0,1,1-3.1,3.1A3.1,3.1,0,0,1,38,9.07Z" />
        </g>
    </g>
</svg>
