<?xml version="1.0" encoding="utf-8"?>
<!-- Generator: Adobe Illustrator 27.8.1, SVG Export Plug-In . SVG Version: 6.00 Build 0)  -->
<svg version="1.1" id="Calque_1" xmlns="http://www.w3.org/2000/svg" xmlns:xlink="http://www.w3.org/1999/xlink" x="0px" y="0px"
	 viewBox="0 0 100 100" style="enable-background:new 0 0 100 100;" xml:space="preserve">
<style type="text/css">
	.st0{fill:#010101;}
	.st1{fill:#FFFFFF;}
</style>
<polygon class="st0" points="27.3,28.3 27,34 23.5,34 23.5,28.3 "/>
<polygon class="st0" points="76.8,28.3 76.8,34 73.3,34 73,28.3 "/>
<polygon class="st0" points="72.1,34 28.2,34 28.5,28.3 28.5,27.6 28.6,27 29.3,12.1 71,12.1 71.7,27 71.7,27.6 71.8,28.3 "/>
<polygon class="st0" points="100.3,39 100.3,76.1 88.1,76.1 85,70.9 91.5,70.9 91.5,53.3 8.8,53.3 8.8,70.9 15.3,70.9 12.2,76.1 
	0,76.1 0,39 "/>
<polygon class="st0" points="87,79.8 86.6,79.2 83.5,74 83.2,73.4 82.8,72.7 73.8,57.6 26.4,57.6 17.5,72.7 17.1,73.4 16.7,74 
	13.6,79.2 13.3,79.8 12.9,80.5 8.5,87.9 91.8,87.9 87.4,80.5 "/>
<rect x="8.8" y="53.2" class="st1" width="82.7" height="0.1"/>
</svg>
