<svg id="Calque_1" data-name="Calque 1" xmlns="http://www.w3.org/2000/svg" viewBox="0 0 2575.46 489.5">
	<defs>
		<style>.cls-1{fill:#fff;}.cls-2{fill:#E72121;}</style>
	</defs>
	<rect class="cls-1" x="745.64" y="195.53" width="78.04" height="239.11"/>
	<rect class="cls-2" x="908.63" y="195.53" width="78.04" height="239.11"/>
	<rect class="cls-2" x="1307.27" y="356.98" width="78.04" height="78.04"/>
	<path class="cls-1" d="M1072,31.38H745.64v78h325.6V435h78V108.65A77.28,77.28,0,0,0,1072,31.38Z"/>
	<polygon class="cls-1" points="1757.81 31.38 1757.42 31.38 1757.42 49.07 1757.42 50.22 1757.42 435.02 1757.81 435.02 2126.46 435.02 2126.46 356.98 1835.46 356.98 1835.46 283.56 1835.46 272.03 2126.46 272.03 2126.46 193.99 1835.46 193.99 1835.46 190.15 1835.46 109.04 1951.93 109.04 2083.41 109.04 2126.46 109.04 2126.46 31.38 1762.03 31.38 1757.81 31.38"/>
	<path class="cls-1" d="M2574.69,206.68c-.39-4.62-.77-8.84-1.16-13.07q-.57-4-1.15-8.08a168.92,168.92,0,0,0-11.53-41.9,180.18,180.18,0,0,0-58.43-76.49C2470.13,42.53,2430.15,31,2389.78,31H2206v78h180.68c14.61,0,29.6,2.69,42.67,8.84,26.91,12.68,58.43,42.28,60.74,110.71v8.46c-2.69,68.42-34.22,98-61.13,110.71a102.33,102.33,0,0,1-42.67,8.84H2283.69v-163h-78v241H2389.4c40.36,0,80.34-11.54,112.63-36.14a179.91,179.91,0,0,0,53.44-65.35,177.2,177.2,0,0,0,16.14-53c.39-2.69.77-5.38,1.16-8.07.38-4.23.76-8.46,1.15-13.07.77.38,1.54-15,1.54-25.76v-.77C2575.46,221.67,2574.69,206.68,2574.69,206.68Z"/>
	<path class="cls-1" d="M1671.7,111.73a22.66,22.66,0,0,1-.77-2.69,112.79,112.79,0,0,0-106.48-78H1307.66v78h241.79a42.81,42.81,0,0,1,39.21,25.75l1.16,3.46a37.62,37.62,0,0,1,2.3,13.07,39.75,39.75,0,0,1-3.46,16.53,42.49,42.49,0,0,1-36.13,25.76H1412.6V194H1307.66v78h98l1.54,1.54L1561.75,435h114.94l-98-102.64-1.15-1.15-55-57.66L1521,272h43.44a112.43,112.43,0,0,0,107.25-78,109.33,109.33,0,0,0,5.38-33.83V143.25a9.75,9.75,0,0,1-.77-4.61A106.5,106.5,0,0,0,1671.7,111.73Z"/>
	<path class="cls-2" d="M225.4,198.3c2.2-.1,4.5-.1,4.5-.1V43h-3.6L179,126.6S225.4,146,225.4,198.3Z"/>
	<path class="cls-1" d="M140.1,176.2,48.3,268c-5.5,24.3-16.3,51.6-34.7,81.9L129.7,466l23.5,23.5,3-3-11-37-19.1-64.3s-20.2-80.7,3.9-133.1c18.5,21,73,72.6,96.2,193.6l3.9.9V241.4C229.9,241.4,175.9,225.8,140.1,176.2Z"/>
	<path class="cls-1" d="M52.2,242.9l79.5-79.5C110.2,126.8,99.3,74.5,120,1.4L115.2,0,0,115.2S59.7,157.3,52.2,242.9Z"/>
	<path class="cls-2" d="M295.3,126.5,248,43h-3.6V198.2h4.5C248.9,145.9,295.3,126.5,295.3,126.5Z"/>
	<path class="cls-1" d="M334.2,176.2c-35.8,49.6-89.8,65.2-90,65.2V446.6l3.9-.9c23.2-121,77.7-172.6,96.2-193.6,24.1,52.4,3.9,133.1,3.9,133.1l-19.1,64.3-11,37,3,3L344.6,466,460.7,349.9c-18.4-30.3-29.2-57.6-34.7-81.9Z"/>
	<path class="cls-1" d="M354.3,1.4c20.7,73.1,9.8,125.4-11.7,162l79.5,79.5c-7.5-85.6,52.2-127.7,52.2-127.7L359.1,0Z"/>
</svg>