<?xml version="1.0" encoding="utf-8"?>
<!-- Generator: Adobe Illustrator 25.2.0, SVG Export Plug-In . SVG Version: 6.00 Build 0)  -->
<svg version="1.1" id="Calque_1" xmlns="http://www.w3.org/2000/svg" xmlns:xlink="http://www.w3.org/1999/xlink" x="0px" y="0px"
	 viewBox="0 0 2048 2048" style="enable-background:new 0 0 2048 2048;" xml:space="preserve">
<style type="text/css">
	.st0{display:none;fill:#1CB7EB;}
	.st1{display:none;}
	.st2{display:inline;}
	.st3{fill:#FFFFFF;}
	.st4{display:none;fill:url(#SVGID_1_);}
	.st5{display:none;fill:url(#SVGID_2_);}
	.st6{display:none;fill:#FFFFFF;}
	.st7{fill:url(#SVGID_3_);}
</style>
<image style="display:none;overflow:visible;enable-background:new    ;" width="2048" height="2048" xlink:href="../Facebook_f_logo_(2021).svg.png" >
</image>
<circle class="st0" cx="1024" cy="1024" r="1024"/>
<g class="st1">
	<g class="st2">
		<path class="st3" d="M1703,567.8c-47.6,26.5-105.9,42.3-158.8,47.6c58.2-37,100.6-95.3,121.7-164.1
			c-52.9,31.8-111.1,58.2-180,74.1c-52.9-58.2-121.7-95.3-201.1-95.3c-153.5,0-280.5,132.3-280.5,301.7c0,21.2,0,47.6,5.3,68.8
			C776.7,790,570.3,668.3,432.7,488.3c-26.5,42.3-37,95.3-37,153.5c0,105.9,47.6,195.8,121.7,248.8c-47.6,0-90-15.9-127-37v5.3
			c0,142.9,95.3,264.6,222.3,296.4c-21.2,5.3-47.6,10.6-74.1,10.6c-15.9,0-37,0-52.9-5.3c37,121.7,137.6,206.4,259.3,206.4
			c-95.3,79.4-217,127-344,127c-21.2,0-42.3,0-68.8-5.3c121.7,84.7,269.9,137.6,428.7,137.6c513.4,0,793.9-455.2,793.9-852.1
			c0-10.6,0-26.5,0-37C1618.3,684.2,1666,631.3,1703,567.8z"/>
	</g>
</g>
<radialGradient id="SVGID_1_" cx="-157.664" cy="546.0031" r="2020.6366" gradientTransform="matrix(1 0 0 -1 0 2050)" gradientUnits="userSpaceOnUse">
	<stop  offset="0" style="stop-color:#FFDD55"/>
	<stop  offset="0.1" style="stop-color:#FFDD55"/>
	<stop  offset="0.5" style="stop-color:#FF543E"/>
	<stop  offset="1" style="stop-color:#C837AB"/>
</radialGradient>
<path class="st4" d="M1024,2048L1024,2048c565.5,0,1024-458.5,1024-1024S1589.5,0,1024,0l0,0C462.1,0,6,452.5,0.1,1013
	c0,3.5,0,7,0,10.6c0,3.9,0,7.7,0,11.5C6,1595.5,462.2,2048,1024,2048z"/>
<radialGradient id="SVGID_2_" cx="-6.5013" cy="2093.9094" r="1148.9041" gradientTransform="matrix(1 0 0 -1 0 2050)" gradientUnits="userSpaceOnUse">
	<stop  offset="0" style="stop-color:#3771C8"/>
	<stop  offset="0.128" style="stop-color:#3771C8"/>
	<stop  offset="1" style="stop-color:#6600FF;stop-opacity:0"/>
</radialGradient>
<path class="st5" d="M1024,2048L1024,2048c565.5,0,1024-458.5,1024-1024S1589.5,0,1024,0l0,0C462.1,0,6,452.5,0.1,1013
	c0,3.5,0,7,0,10.6c0,3.9,0,7.7,0,11.5C6,1595.5,462.2,2048,1024,2048z"/>
<path class="st6" d="M1024.1,338c-186.3,0-209.7,0.8-282.9,4.1c-73,3.3-122.9,14.9-166.5,31.9c-45.1,17.5-83.4,41-121.5,79.1
	c-38.2,38.1-61.6,76.4-79.2,121.5c-17,43.6-28.6,93.5-31.9,166.5c-3.3,73.2-4.1,96.6-4.1,282.9s0.8,209.6,4.1,282.8
	c3.4,73,14.9,122.9,31.9,166.5c17.5,45.1,41,83.4,79.1,121.5c38.1,38.2,76.4,61.7,121.5,79.2c43.7,17,93.5,28.5,166.5,31.9
	c73.2,3.3,96.6,4.1,282.9,4.1s209.7-0.8,282.8-4.1c73-3.3,123-14.9,166.6-31.9c45.1-17.5,83.3-41,121.5-79.2
	c38.2-38.1,61.6-76.4,79.2-121.5c16.9-43.6,28.4-93.5,31.9-166.5c3.3-73.2,4.1-96.5,4.1-282.8s-0.9-209.7-4.1-282.9
	c-3.4-73-15-122.9-31.9-166.5c-17.6-45.1-41-83.4-79.2-121.5c-38.2-38.2-76.3-61.6-121.5-79.1c-43.7-17-93.6-28.5-166.7-31.9
	c-73.2-3.3-96.5-4.1-282.9-4.1L1024.1,338z M962.6,461.6c18.3,0,38.6,0,61.5,0c183.2,0,204.9,0.7,277.2,3.9
	c66.9,3.1,103.2,14.2,127.4,23.6c32,12.4,54.8,27.3,78.8,51.3s38.9,46.9,51.3,78.9c9.4,24.2,20.6,60.5,23.6,127.4
	c3.3,72.3,4,94.1,4,277.2s-0.7,204.8-4,277.2c-3.1,66.9-14.2,103.2-23.6,127.4c-12.4,32-27.3,54.8-51.3,78.8s-46.8,38.9-78.8,51.3
	c-24.2,9.4-60.5,20.6-127.4,23.6c-72.3,3.3-94.1,4-277.2,4c-183.2,0-204.9-0.7-277.2-4c-66.9-3.1-103.2-14.3-127.4-23.7
	c-32-12.4-54.9-27.3-78.9-51.3s-38.9-46.8-51.3-78.9c-9.4-24.2-20.6-60.5-23.6-127.4c-3.3-72.3-3.9-94.1-3.9-277.3
	s0.7-204.8,3.9-277.2c3.1-66.9,14.2-103.2,23.6-127.4c12.4-32,27.3-54.9,51.3-78.9s46.9-38.9,78.9-51.3
	c24.2-9.4,60.5-20.6,127.4-23.7c63.3-2.9,87.8-3.7,215.7-3.9L962.6,461.6L962.6,461.6z M1390.4,575.6c-45.5,0-82.3,36.8-82.3,82.3
	s36.9,82.3,82.3,82.3s82.3-36.9,82.3-82.3S1435.8,575.5,1390.4,575.6L1390.4,575.6z M1024.1,671.8c-194.6,0-352.3,157.8-352.3,352.3
	s157.8,352.3,352.3,352.3c194.6,0,352.3-157.7,352.3-352.3S1218.7,671.8,1024.1,671.8L1024.1,671.8z M1024.1,795.4
	c126.3,0,228.7,102.4,228.7,228.7s-102.4,228.7-228.7,228.7s-228.7-102.4-228.7-228.7C795.4,897.8,897.8,795.4,1024.1,795.4z"/>
<image style="display:none;overflow:visible;" width="2048" height="2048" xlink:href="../Facebook_f_logo_(2021).svg.png"  transform="matrix(1 0 0 1 0 4.1999)">
</image>
<linearGradient id="SVGID_3_" gradientUnits="userSpaceOnUse" x1="1024" y1="14.1999" x2="1024" y2="2062.2">
	<stop  offset="0" style="stop-color:#18ABFD"/>
	<stop  offset="0.2142" style="stop-color:#1094F4"/>
	<stop  offset="0.5195" style="stop-color:#0779E9"/>
	<stop  offset="0.7913" style="stop-color:#0269E2"/>
	<stop  offset="1" style="stop-color:#0063E0"/>
</linearGradient>
<circle class="st7" cx="1024" cy="1028.2" r="1024"/>
<g id="XMLID_834_">
	<path id="XMLID_835_" class="st3" d="M629.9,1322.5H820V2105c0,15.4,12.5,28,28,28h322.3c15.4,0,28-12.5,28-28v-778.8h218.5
		c14.2,0,26.2-10.7,27.8-24.8l33.2-288.1c0.9-7.9-1.6-15.9-6.9-21.8c-5.3-6-12.9-9.4-20.9-9.4h-251.7V801.6c0-54.4,29.3-82,87.1-82
		c8.2,0,164.6,0,164.6,0c15.4,0,28-12.5,28-28V427.2c0-15.4-12.5-28-28-28h-226.8c-1.6-0.1-5.2-0.2-10.4-0.2
		c-39.4,0-176.1,7.7-284.2,107.1c-119.7,110.1-103.1,242-99.1,264.9v211.2H629.9c-15.4,0-28,12.5-28,28v284.4
		C602,1310,614.5,1322.5,629.9,1322.5z"/>
</g>
</svg>
