<?xml version="1.0" encoding="utf-8"?>
<!-- Generator: Adobe Illustrator 25.2.0, SVG Export Plug-In . SVG Version: 6.00 Build 0)  -->
<svg version="1.1" id="Calque_1" xmlns="http://www.w3.org/2000/svg" xmlns:xlink="http://www.w3.org/1999/xlink" x="0px" y="0px"
	 viewBox="0 0 227.9 66.9" style="enable-background:new 0 0 227.9 66.9;" xml:space="preserve">
<style type="text/css">
	.st0{fill:#E53029;}
	.st1{fill:#E42320;}
	.st2{fill:#282828;}
</style>
<g id="Grosbill_1_">
	<g>
		<path class="st0" d="M153.4,35.3c-0.4-0.2-0.7-0.3-1-0.6C152.7,35,153.1,35.2,153.4,35.3z"/>
	</g>
	<g>
		<path class="st0" d="M154.8,35.7c-0.3-0.1-0.6-0.1-0.9-0.2C154.2,35.6,154.5,35.7,154.8,35.7z"/>
	</g>
	<g>
		<path class="st0" d="M149.4,28.4c0-0.1,0-0.2,0-0.4C149.4,28.2,149.4,28.3,149.4,28.4z"/>
	</g>
	<g>
		<path class="st0" d="M156.7,36c-0.5,0-1-0.1-1.5-0.1C155.7,35.9,156.2,36,156.7,36z"/>
	</g>
	<g>
		<path class="st0" d="M88.5,12.9c-5.8,0-10.1,1.4-12.9,4.3c-2.8,2.9-4.2,6.3-4.2,10.2c0,4,1.4,7.4,4.2,10.2
			c2.8,2.8,7.1,4.3,12.9,4.3c5.8,0,10.1-1.4,12.9-4.3c2.8-2.8,4.2-6.3,4.2-10.2c0-3.9-1.4-7.3-4.2-10.2
			C98.5,14.4,94.2,12.9,88.5,12.9z M94.3,33.8C93,35.3,91,36,88.4,36s-4.5-0.7-5.9-2.2c-1.4-1.5-2.1-3.6-2.1-6.3
			c0-2.7,0.7-4.8,2.1-6.3c1.4-1.5,3.4-2.2,5.9-2.2s4.5,0.7,5.9,2.2c1.4,1.5,2.1,3.6,2.1,6.3C96.4,30.2,95.7,32.3,94.3,33.8z"/>
	</g>
	<g>
		<path class="st0" d="M159.2,13h-9.8V0h-8.8V13h-18.2v0c0,0-0.1,0-0.1,0c-4.4,0-7.9,0.9-10.3,2.7c-2.4,1.8-3.7,4-3.7,6.5
			c0,2.1,0.8,3.8,2.3,4.9c1.6,1.1,4.2,2.1,8.1,2.9c5.3,1,8.4,1.7,9.2,2.1c0.8,0.4,1.2,1,1.2,1.8c0,0.8-0.5,1.5-1.5,1.9
			c-1,0.4-2.4,0.6-4.1,0.6c-2.9,0-5-0.5-6.1-1.4c-0.6-0.5-1-1.4-1.2-2.7h-8.9c0,2.8,1.3,5.1,3.8,6.9c2.5,1.8,6.4,2.7,11.7,2.7
			c5.2,0,9-0.9,11.5-2.6c2.5-1.7,3.7-3.9,3.7-6.6c0-2-0.9-3.8-2.6-5.1c-1.7-1.3-4.4-2.4-7.9-3c-5.2-0.9-8.3-1.6-9.2-2
			c-0.9-0.4-1.3-1-1.3-1.8c0-0.6,0.4-1.2,1.2-1.7c0.8-0.5,2.2-0.7,4.1-0.7h18.2v7.7v1.6l0,0c0,0,0,0,0,0c0,1.2,0.1,2.2,0.3,3.3
			c0.9,5.7,4.1,11.1,15.8,11.1c2.8,0,5.1-0.3,7-0.9c0.2,0,0.3-0.1,0.4-0.1c0.2-0.1,0.4-0.1,0.5-0.2c0.3-0.1,0.6-0.2,0.9-0.3
			c0.3-0.1,0.6-0.3,0.9-0.4c0,0,0.1,0,0.1,0c1.9-1,3.2-2.3,4.2-3.8c1.8-2.6,2.7-5.6,2.7-9.2c0-4.1-1.3-7.4-3.8-10
			C167.1,14.5,163.6,13,159.2,13z M162.3,33.6C162.3,33.6,162.3,33.6,162.3,33.6c0,0-0.1,0.1-0.1,0.1c-1.3,1.5-3.1,2.2-5.5,2.2
			c-0.5,0-1,0-1.5-0.1c-0.2,0-0.3-0.1-0.5-0.1c-0.3-0.1-0.6-0.1-0.9-0.2c-0.2-0.1-0.3-0.1-0.5-0.2c-0.4-0.2-0.7-0.3-1-0.6
			c-0.4-0.3-0.8-0.6-1.2-1c0,0-0.1-0.1-0.1-0.1c-1.1-1.3-1.6-3-1.8-5.2c0-0.1,0-0.2,0-0.4c0-0.2,0-0.4,0-0.6c0,0,0-0.1,0-0.1
			c0-0.1,0-0.2,0-0.4c0-0.1,0-0.2,0-0.3h0v-8.2h7.4c3.2,0,5.3,2.2,6.5,4.5c0.6,1.3,0.9,2.9,0.9,4.8
			C164.2,30.2,163.5,32.2,162.3,33.6z"/>
	</g>
	<g>
		<rect x="176.2" y="14.8" class="st0" width="8.9" height="27.2"/>
	</g>
	<g>
		<rect x="190.6" class="st0" width="8.8" height="42"/>
	</g>
	<g>
		<rect x="205" class="st0" width="8.8" height="42"/>
	</g>
	<g>
		<path class="st0" d="M47.6,19.5h-3.3h-6.5l0,0H24.6v6.2h12.9l-0.2,0.7c-0.7,2.6-2,4.6-3.8,6c-2.5,1.9-5.5,2.9-8.6,3.1
			c0,0-0.9,0.1-1.9,0c-3.3-0.2-6.2-1.3-8.7-3.1c-2.9-2.2-4.4-5.8-4.4-11c0-5,1.4-8.9,4-11.4c2.6-2.5,6-3.8,10-3.8
			c4,0.1,7.4,1.3,10,3.8c0.9,0.9,1.7,1.9,2.3,3.2c0,0,0.1,0.1,0.1,0.3h10c-1.1-2.9-2.8-5.5-5.2-7.6C36.9,2.2,31.5,0.2,24.8,0h-1.8
			C16.2,0.2,10.7,2.2,6.6,5.9C2.2,9.7,0,14.9,0,21.4c0,6.4,2.2,11.4,6.5,15.1c2.8,2.4,6.1,4,9.9,4.9c0,0,0.1,0,0.1,0
			c0.1,0,0.2,0,0.3,0c1,0.2,2,0.3,3,0.4c0.1,0,0.2,0,0.3,0c0.2,0,0.4,0,0.5,0c1,0.1,2.1,0.1,3.3,0.1c1.2,0,2.4-0.1,3.5-0.2
			c0.3,0,0.6-0.1,0.9-0.1c0.3,0,0.7-0.1,1-0.1c0.1,0,0.1,0,0.1,0c4.6-0.6,8.5-2.4,11.7-5.2c4.3-3.7,6.5-8.7,6.5-15.1
			C47.7,20.7,47.6,20.1,47.6,19.5z"/>
	</g>
	<g>
		<path class="st0" d="M73.3,14.1h-9.8c-4.4,0-7.9,1.5-10.4,4c-2.5,2.6-3.8,5.9-3.8,10c0,0,0,0.1,0,0.1h0V42h8.8V28.3
			c0.1-1.6,0.4-3,0.9-4.1c1.2-2.4,3.4-4.5,6.5-4.5h7.8v-5.4H73.3z"/>
	</g>
	<g>
		<path class="st0" d="M186,5.4c0-2.9-2.4-5.3-5.3-5.3c-2.9,0-5.3,2.4-5.3,5.3c0,2.9,2.4,5.3,5.3,5.3C183.6,10.7,186,8.3,186,5.4z"
			/>
	</g>
</g>
<g id="_x2E_com_1_">
	<g>
		<path class="st1" d="M226.9,39c0.6,0,1.1,0.4,1.1,1c0,0.6-0.5,1-1.1,1c-0.6,0-1.1-0.4-1.1-1C225.8,39.4,226.2,39,226.9,39z"/>
	</g>
	<g>
		<path class="st1" d="M220.4,28.7l1.2,1c-0.6,0.6-1,1.5-1,2.5c0,1.5,1.1,2.6,2.8,2.6c1.7,0,2.8-1.1,2.8-2.6c0-1.1-0.4-2-1.1-2.6
			l1.1-1.1c1,0.8,1.6,2.1,1.6,3.8c0,2.6-1.8,4.5-4.5,4.5c-2.7,0-4.5-1.8-4.5-4.5C219,30.8,219.5,29.5,220.4,28.7z"/>
	</g>
	<g>
		<path class="st1" d="M223.5,17.7c2.7,0,4.5,1.9,4.5,4.6c0,2.7-1.8,4.6-4.5,4.6c-2.7,0-4.5-1.9-4.5-4.6
			C219,19.6,220.8,17.7,223.5,17.7z M223.5,25c1.7,0,2.9-1.1,2.9-2.7c0-1.6-1.2-2.7-2.9-2.7c-1.7,0-2.9,1.1-2.9,2.7
			C220.6,23.9,221.8,25,223.5,25z"/>
	</g>
	<g>
		<path class="st1" d="M222.4,0.1h5.5V2h-5c-1.3,0-2.2,0.8-2.2,2.1c0.1,1.5,1.2,2.4,2.8,2.4h4.4v1.9h-5c-1.3,0-2.2,0.8-2.2,2.1
			c0.1,1.5,1.2,2.5,2.8,2.5h4.4v1.9h-8.8V13h1.7c-1.2-0.6-1.8-1.7-1.8-3.2c0-1.6,0.8-2.7,2.1-3.1C219.7,6.2,219,5,219,3.4
			C219,1.3,220.3,0.1,222.4,0.1z"/>
	</g>
</g>
<g>
	<path class="st2" d="M0.9,62.9c-0.3,0-0.5-0.1-0.6-0.2C0.1,62.5,0,62.3,0,62V49.2c0-0.3,0.1-0.5,0.2-0.7c0.1-0.2,0.4-0.2,0.6-0.2
		s0.5,0.1,0.6,0.2s0.2,0.4,0.2,0.7v12.2h6.7c0.2,0,0.4,0.1,0.6,0.2c0.1,0.1,0.2,0.3,0.2,0.5c0,0.2-0.1,0.4-0.2,0.5
		c-0.1,0.1-0.3,0.2-0.6,0.2H0.9z"/>
	<path class="st2" d="M15.3,63.1c-1.1,0-2-0.2-2.7-0.6s-1.3-1-1.8-1.8s-0.6-1.7-0.6-2.8c0-1,0.2-1.9,0.6-2.7s1-1.4,1.7-1.8
		s1.6-0.7,2.5-0.7c0.7,0,1.3,0.1,1.8,0.3c0.5,0.2,1,0.6,1.4,1c0.4,0.4,0.7,0.9,0.9,1.5s0.3,1.3,0.3,2c0,0.2-0.1,0.4-0.2,0.5
		c-0.1,0.1-0.3,0.2-0.5,0.2h-7.1v-1.1h6.8l-0.3,0.3c0-0.7-0.1-1.4-0.3-1.9c-0.2-0.5-0.5-0.9-1-1.2c-0.4-0.3-0.9-0.4-1.6-0.4
		c-0.7,0-1.3,0.2-1.8,0.5c-0.5,0.3-0.9,0.8-1.1,1.3c-0.2,0.6-0.4,1.2-0.4,2v0.1c0,1.3,0.3,2.2,0.9,2.9c0.6,0.7,1.5,1,2.6,1
		c0.5,0,0.9-0.1,1.4-0.2c0.5-0.1,0.9-0.3,1.3-0.6c0.2-0.1,0.4-0.2,0.5-0.2c0.2,0,0.3,0.1,0.4,0.1s0.2,0.2,0.2,0.3c0,0.1,0,0.3,0,0.4
		c-0.1,0.2-0.2,0.3-0.4,0.4c-0.5,0.3-1,0.6-1.6,0.8S15.9,63.1,15.3,63.1z"/>
	<path class="st0" d="M27.9,63c-0.3,0-0.5-0.1-0.6-0.2c-0.1-0.2-0.2-0.4-0.2-0.6v-8.6c0-0.3,0.1-0.5,0.2-0.6
		c0.1-0.1,0.3-0.2,0.6-0.2c0.3,0,0.5,0.1,0.6,0.2c0.1,0.1,0.2,0.4,0.2,0.6v1.8l-0.2-0.3c0.3-0.8,0.7-1.4,1.3-1.8
		c0.6-0.4,1.3-0.6,2.1-0.6c0.8,0,1.5,0.2,2.1,0.6c0.5,0.4,0.9,1,1.1,1.9h-0.3c0.2-0.8,0.7-1.4,1.3-1.8c0.6-0.4,1.4-0.7,2.2-0.7
		c0.8,0,1.4,0.1,1.9,0.4c0.5,0.3,0.9,0.7,1.1,1.3c0.2,0.6,0.4,1.3,0.4,2.2v5.5c0,0.3-0.1,0.5-0.2,0.6C41.2,62.9,41,63,40.7,63
		c-0.3,0-0.5-0.1-0.6-0.2c-0.1-0.2-0.2-0.4-0.2-0.6v-5.4c0-0.9-0.2-1.6-0.5-2c-0.3-0.4-0.8-0.6-1.6-0.6c-0.8,0-1.5,0.3-1.9,0.9
		c-0.5,0.6-0.7,1.3-0.7,2.3v4.9c0,0.3-0.1,0.5-0.2,0.6c-0.1,0.2-0.4,0.2-0.6,0.2c-0.3,0-0.5-0.1-0.6-0.2c-0.1-0.2-0.2-0.4-0.2-0.6
		v-5.4c0-0.9-0.2-1.6-0.5-2c-0.3-0.4-0.9-0.6-1.6-0.6c-0.8,0-1.5,0.3-1.9,0.9c-0.5,0.6-0.7,1.3-0.7,2.3v4.9
		C28.8,62.7,28.5,63,27.9,63z"/>
	<path class="st0" d="M49.1,63.1c-1.1,0-2-0.2-2.7-0.6s-1.3-1-1.8-1.8S44,59,44,57.9c0-1,0.2-1.9,0.6-2.7s1-1.4,1.7-1.8
		s1.6-0.7,2.5-0.7c0.7,0,1.3,0.1,1.8,0.3c0.5,0.2,1,0.6,1.4,1c0.4,0.4,0.7,0.9,0.9,1.5s0.3,1.3,0.3,2c0,0.2-0.1,0.4-0.2,0.5
		c-0.1,0.1-0.3,0.2-0.5,0.2h-7.1v-1.1H52l-0.3,0.3c0-0.7-0.1-1.4-0.3-1.9c-0.2-0.5-0.5-0.9-1-1.2c-0.4-0.3-0.9-0.4-1.6-0.4
		c-0.7,0-1.3,0.2-1.8,0.5c-0.5,0.3-0.9,0.8-1.1,1.3c-0.2,0.6-0.4,1.2-0.4,2v0.1c0,1.3,0.3,2.2,0.9,2.9c0.6,0.7,1.5,1,2.6,1
		c0.5,0,0.9-0.1,1.4-0.2c0.5-0.1,0.9-0.3,1.3-0.6c0.2-0.1,0.4-0.2,0.5-0.2c0.2,0,0.3,0.1,0.4,0.1s0.2,0.2,0.2,0.3c0,0.1,0,0.3,0,0.4
		c-0.1,0.2-0.2,0.3-0.4,0.4c-0.5,0.3-1,0.6-1.6,0.8S49.7,63.1,49.1,63.1z"/>
	<path class="st0" d="M56.4,50.5c-0.3,0-0.6-0.1-0.8-0.3s-0.3-0.4-0.3-0.8c0-0.3,0.1-0.6,0.3-0.7s0.5-0.3,0.8-0.3
		c0.4,0,0.6,0.1,0.8,0.3c0.2,0.2,0.3,0.4,0.3,0.7c0,0.3-0.1,0.6-0.3,0.8C57,50.4,56.7,50.5,56.4,50.5z M56.4,63
		c-0.3,0-0.5-0.1-0.6-0.2c-0.1-0.2-0.2-0.4-0.2-0.7v-8.4c0-0.3,0.1-0.5,0.2-0.7c0.1-0.2,0.3-0.2,0.6-0.2c0.3,0,0.5,0.1,0.6,0.2
		c0.2,0.2,0.2,0.4,0.2,0.7v8.4c0,0.3-0.1,0.5-0.2,0.7C56.9,62.9,56.6,63,56.4,63z"/>
	<path class="st0" d="M63.4,63.1c-1,0-1.7-0.3-2.3-0.9c-0.5-0.6-0.8-1.5-0.8-2.6V49.1c0-0.3,0.1-0.5,0.2-0.6
		c0.1-0.1,0.3-0.2,0.6-0.2c0.3,0,0.5,0.1,0.6,0.2c0.2,0.1,0.2,0.4,0.2,0.6v10.3c0,0.7,0.1,1.3,0.4,1.7c0.3,0.4,0.7,0.5,1.3,0.5
		c0.1,0,0.2,0,0.3,0c0.1,0,0.2,0,0.3,0c0.2,0,0.3,0,0.3,0.1c0.1,0.1,0.1,0.2,0.1,0.5s-0.1,0.4-0.2,0.6S64.3,63,64.1,63
		c-0.1,0-0.2,0-0.3,0C63.6,63.1,63.5,63.1,63.4,63.1z"/>
	<path class="st0" d="M69.4,63.1c-1,0-1.7-0.3-2.3-0.9c-0.5-0.6-0.8-1.5-0.8-2.6V49.1c0-0.3,0.1-0.5,0.2-0.6
		c0.1-0.1,0.3-0.2,0.6-0.2c0.3,0,0.5,0.1,0.6,0.2c0.2,0.1,0.2,0.4,0.2,0.6v10.3c0,0.7,0.1,1.3,0.4,1.7c0.3,0.4,0.7,0.5,1.3,0.5
		c0.1,0,0.2,0,0.3,0c0.1,0,0.2,0,0.3,0c0.2,0,0.3,0,0.3,0.1c0.1,0.1,0.1,0.2,0.1,0.5s-0.1,0.4-0.2,0.6S70.4,63,70.1,63
		c-0.1,0-0.2,0-0.3,0C69.7,63.1,69.5,63.1,69.4,63.1z"/>
	<path class="st0" d="M76.9,63.1c-1.1,0-2-0.2-2.7-0.6s-1.3-1-1.8-1.8s-0.6-1.7-0.6-2.8c0-1,0.2-1.9,0.6-2.7s1-1.4,1.7-1.8
		s1.6-0.7,2.5-0.7c0.7,0,1.3,0.1,1.8,0.3c0.5,0.2,1,0.6,1.4,1c0.4,0.4,0.7,0.9,0.9,1.5s0.3,1.3,0.3,2c0,0.2-0.1,0.4-0.2,0.5
		c-0.1,0.1-0.3,0.2-0.5,0.2H73v-1.1h6.8l-0.3,0.3c0-0.7-0.1-1.4-0.3-1.9c-0.2-0.5-0.5-0.9-1-1.2c-0.4-0.3-0.9-0.4-1.6-0.4
		c-0.7,0-1.3,0.2-1.8,0.5c-0.5,0.3-0.9,0.8-1.1,1.3c-0.2,0.6-0.4,1.2-0.4,2v0.1c0,1.3,0.3,2.2,0.9,2.9c0.6,0.7,1.5,1,2.6,1
		c0.5,0,0.9-0.1,1.4-0.2c0.5-0.1,0.9-0.3,1.3-0.6c0.2-0.1,0.4-0.2,0.5-0.2c0.2,0,0.3,0.1,0.4,0.1s0.2,0.2,0.2,0.3c0,0.1,0,0.3,0,0.4
		c-0.1,0.2-0.2,0.3-0.4,0.4c-0.5,0.3-1,0.6-1.6,0.8S77.5,63.1,76.9,63.1z"/>
	<path class="st0" d="M86.8,63.1c-0.8,0-1.5-0.1-2-0.4c-0.5-0.3-0.9-0.7-1.2-1.3c-0.3-0.6-0.4-1.3-0.4-2.2v-5.5
		c0-0.3,0.1-0.5,0.2-0.6c0.1-0.1,0.3-0.2,0.6-0.2c0.3,0,0.5,0.1,0.6,0.2c0.1,0.1,0.2,0.3,0.2,0.6v5.5c0,0.9,0.2,1.5,0.5,2
		s0.9,0.6,1.7,0.6c0.8,0,1.5-0.3,2.1-0.9c0.5-0.6,0.8-1.3,0.8-2.3v-5c0-0.3,0.1-0.5,0.2-0.6c0.1-0.1,0.4-0.2,0.6-0.2
		c0.3,0,0.5,0.1,0.6,0.2c0.1,0.1,0.2,0.3,0.2,0.6v8.6c0,0.6-0.3,0.9-0.8,0.9c-0.3,0-0.5-0.1-0.6-0.2c-0.1-0.2-0.2-0.4-0.2-0.6v-1.9
		l0.3,0.3c-0.3,0.8-0.7,1.4-1.3,1.8C88.4,62.8,87.6,63.1,86.8,63.1z"/>
	<path class="st0" d="M95.7,63c-0.3,0-0.5-0.1-0.6-0.2s-0.2-0.4-0.2-0.6v-8.6c0-0.3,0.1-0.5,0.2-0.6c0.1-0.1,0.3-0.2,0.6-0.2
		c0.3,0,0.5,0.1,0.6,0.2c0.1,0.1,0.2,0.4,0.2,0.6v1.7h-0.2c0.2-0.8,0.6-1.4,1.3-1.9s1.4-0.7,2.3-0.7c0.2,0,0.4,0,0.5,0.1
		c0.1,0.1,0.2,0.3,0.2,0.5c0,0.2,0,0.4-0.2,0.6c-0.1,0.1-0.3,0.2-0.6,0.2l-0.3,0c-0.9,0.1-1.6,0.4-2.1,0.9c-0.5,0.5-0.7,1.2-0.7,2.1
		v5c0,0.3-0.1,0.5-0.2,0.6C96.1,62.9,95.9,63,95.7,63z"/>
	<path class="st2" d="M111.3,63.1c-0.9,0-1.7-0.2-2.3-0.6c-0.7-0.4-1.2-1-1.5-1.8c-0.4-0.8-0.5-1.7-0.5-2.7c0-1.1,0.2-2,0.5-2.8
		s0.9-1.4,1.5-1.8c0.7-0.4,1.4-0.6,2.3-0.6c0.9,0,1.7,0.2,2.3,0.7c0.6,0.5,1.1,1.1,1.3,1.8h-0.2v-6.1c0-0.3,0.1-0.5,0.2-0.6
		c0.1-0.1,0.4-0.2,0.6-0.2c0.3,0,0.5,0.1,0.6,0.2c0.1,0.1,0.2,0.4,0.2,0.6v13.1c0,0.3-0.1,0.5-0.2,0.6s-0.3,0.2-0.6,0.2
		c-0.3,0-0.5-0.1-0.6-0.2s-0.2-0.4-0.2-0.6v-2l0.2,0.3c-0.2,0.8-0.7,1.4-1.3,1.9C112.9,62.8,112.2,63.1,111.3,63.1z M111.6,61.7
		c0.6,0,1.2-0.2,1.6-0.5s0.8-0.7,1.1-1.3s0.4-1.3,0.4-2.1c0-1.2-0.3-2.2-0.8-2.9c-0.6-0.7-1.3-1-2.2-1c-0.6,0-1.2,0.1-1.6,0.4
		c-0.5,0.3-0.8,0.7-1.1,1.3s-0.4,1.3-0.4,2.1c0,1.2,0.3,2.2,0.8,2.8C109.9,61.4,110.7,61.7,111.6,61.7z"/>
	<path class="st2" d="M123,63.1c-0.8,0-1.5-0.1-2-0.4c-0.5-0.3-0.9-0.7-1.2-1.3c-0.3-0.6-0.4-1.3-0.4-2.2v-5.5
		c0-0.3,0.1-0.5,0.2-0.6s0.3-0.2,0.6-0.2c0.3,0,0.5,0.1,0.6,0.2c0.1,0.1,0.2,0.3,0.2,0.6v5.5c0,0.9,0.2,1.5,0.5,2
		c0.4,0.4,0.9,0.6,1.7,0.6c0.8,0,1.5-0.3,2.1-0.9c0.5-0.6,0.8-1.3,0.8-2.3v-5c0-0.3,0.1-0.5,0.2-0.6c0.1-0.1,0.4-0.2,0.6-0.2
		c0.3,0,0.5,0.1,0.6,0.2s0.2,0.3,0.2,0.6v8.6c0,0.6-0.3,0.9-0.8,0.9c-0.3,0-0.5-0.1-0.6-0.2c-0.1-0.2-0.2-0.4-0.2-0.6v-1.9l0.3,0.3
		c-0.3,0.8-0.7,1.4-1.3,1.8C124.5,62.8,123.8,63.1,123,63.1z"/>
	<path class="st2" d="M137.3,63c-0.3,0-0.5-0.1-0.6-0.2s-0.2-0.4-0.2-0.6v-13c0-0.3,0.1-0.5,0.2-0.7s0.4-0.2,0.6-0.2
		c0.3,0,0.5,0.1,0.6,0.2s0.2,0.4,0.2,0.7v5.7h8.7v-5.7c0-0.3,0.1-0.5,0.2-0.7s0.4-0.2,0.6-0.2s0.5,0.1,0.6,0.2
		c0.1,0.2,0.2,0.4,0.2,0.7v13c0,0.3-0.1,0.5-0.2,0.6c-0.1,0.2-0.4,0.2-0.6,0.2s-0.5-0.1-0.6-0.2s-0.2-0.4-0.2-0.6v-5.9h-8.7v5.9
		c0,0.3-0.1,0.5-0.2,0.6C137.8,62.9,137.6,63,137.3,63z"/>
	<path class="st2" d="M152.7,50.5c-0.3,0-0.6-0.1-0.8-0.3s-0.3-0.4-0.3-0.8c0-0.3,0.1-0.6,0.3-0.7s0.5-0.3,0.8-0.3
		c0.4,0,0.6,0.1,0.8,0.3s0.3,0.4,0.3,0.7c0,0.3-0.1,0.6-0.3,0.8S153.1,50.5,152.7,50.5z M152.7,63c-0.3,0-0.5-0.1-0.6-0.2
		s-0.2-0.4-0.2-0.7v-8.4c0-0.3,0.1-0.5,0.2-0.7c0.1-0.2,0.3-0.2,0.6-0.2c0.3,0,0.5,0.1,0.6,0.2c0.2,0.2,0.2,0.4,0.2,0.7v8.4
		c0,0.3-0.1,0.5-0.2,0.7C153.2,62.9,153,63,152.7,63z"/>
	<path class="st2" d="M161.1,66.8c-0.7,0-1.4-0.1-2.1-0.3c-0.7-0.2-1.3-0.4-1.9-0.8c-0.2-0.1-0.3-0.2-0.3-0.3s-0.1-0.3,0-0.4
		s0.1-0.2,0.2-0.3c0.1-0.1,0.2-0.2,0.3-0.2c0.1,0,0.3,0,0.4,0.1c0.6,0.4,1.2,0.6,1.7,0.8s1.1,0.2,1.6,0.2c1,0,1.7-0.3,2.2-0.8
		c0.5-0.5,0.7-1.3,0.7-2.3v-2.3h0.2c-0.2,0.8-0.6,1.4-1.3,1.9c-0.7,0.5-1.4,0.7-2.3,0.7c-0.9,0-1.7-0.2-2.4-0.6
		c-0.7-0.4-1.2-1-1.5-1.8c-0.4-0.8-0.5-1.6-0.5-2.6c0-0.7,0.1-1.4,0.3-2c0.2-0.6,0.5-1.1,0.9-1.6c0.4-0.4,0.9-0.8,1.4-1
		c0.6-0.2,1.2-0.4,1.9-0.4c0.9,0,1.7,0.2,2.3,0.7c0.7,0.5,1.1,1.1,1.3,1.9l-0.2,0.2v-1.9c0-0.3,0.1-0.5,0.2-0.6
		c0.1-0.1,0.3-0.2,0.6-0.2c0.3,0,0.5,0.1,0.6,0.2c0.1,0.1,0.2,0.4,0.2,0.6v8.6c0,1.5-0.4,2.7-1.1,3.4
		C163.7,66.4,162.5,66.8,161.1,66.8z M160.8,61.3c0.6,0,1.2-0.1,1.7-0.4c0.5-0.3,0.8-0.7,1.1-1.3c0.3-0.5,0.4-1.2,0.4-1.9
		c0-1.1-0.3-2-0.8-2.6s-1.3-1-2.3-1c-0.6,0-1.2,0.1-1.6,0.4c-0.5,0.3-0.8,0.7-1.1,1.3c-0.3,0.5-0.4,1.2-0.4,1.9c0,1.1,0.3,2,0.8,2.6
		C159.1,61,159.9,61.3,160.8,61.3z"/>
	<path class="st2" d="M169.5,63c-0.3,0-0.5-0.1-0.6-0.2s-0.2-0.4-0.2-0.6V49.1c0-0.3,0.1-0.5,0.2-0.6c0.1-0.1,0.3-0.2,0.6-0.2
		c0.3,0,0.5,0.1,0.6,0.2c0.2,0.1,0.2,0.4,0.2,0.6v6h-0.3c0.3-0.8,0.8-1.4,1.4-1.8c0.6-0.4,1.4-0.6,2.2-0.6c0.8,0,1.5,0.1,2,0.4
		c0.5,0.3,0.9,0.7,1.2,1.3c0.3,0.6,0.4,1.3,0.4,2.2v5.5c0,0.3-0.1,0.5-0.2,0.6c-0.1,0.2-0.3,0.2-0.6,0.2c-0.3,0-0.5-0.1-0.6-0.2
		c-0.1-0.2-0.2-0.4-0.2-0.6v-5.4c0-0.9-0.2-1.6-0.5-2c-0.4-0.4-0.9-0.6-1.7-0.6c-0.9,0-1.6,0.3-2.2,0.9c-0.5,0.6-0.8,1.3-0.8,2.3v5
		C170.3,62.7,170.1,63,169.5,63z"/>
	<path class="st2" d="M180.8,58.1c-0.2,0-0.4-0.1-0.5-0.2c-0.1-0.1-0.2-0.3-0.2-0.5c0-0.2,0.1-0.4,0.2-0.5c0.1-0.1,0.3-0.2,0.5-0.2
		h4.6c0.2,0,0.4,0.1,0.5,0.2c0.1,0.1,0.2,0.3,0.2,0.5c0,0.2-0.1,0.4-0.2,0.5c-0.1,0.1-0.3,0.2-0.5,0.2H180.8z"/>
	<path class="st2" d="M192.7,63c-0.3,0-0.5-0.1-0.6-0.2c-0.2-0.2-0.2-0.4-0.2-0.6V49.9h-4.6c-0.2,0-0.4-0.1-0.6-0.2
		s-0.2-0.3-0.2-0.5c0-0.2,0.1-0.4,0.2-0.5s0.3-0.2,0.6-0.2h10.9c0.2,0,0.4,0.1,0.6,0.2s0.2,0.3,0.2,0.5s-0.1,0.4-0.2,0.5
		s-0.3,0.2-0.6,0.2h-4.6v12.3c0,0.3-0.1,0.5-0.2,0.6S193,63,192.7,63z"/>
	<path class="st2" d="M203.4,63.1c-1.1,0-2-0.2-2.7-0.6s-1.3-1-1.8-1.8c-0.4-0.8-0.6-1.7-0.6-2.8c0-1,0.2-1.9,0.6-2.7
		c0.4-0.8,1-1.4,1.7-1.8s1.6-0.7,2.5-0.7c0.7,0,1.3,0.1,1.8,0.3c0.5,0.2,1,0.6,1.4,1c0.4,0.4,0.7,0.9,0.9,1.5s0.3,1.3,0.3,2
		c0,0.2-0.1,0.4-0.2,0.5s-0.3,0.2-0.5,0.2h-7.1v-1.1h6.8l-0.3,0.3c0-0.7-0.1-1.4-0.3-1.9c-0.2-0.5-0.5-0.9-1-1.2
		c-0.4-0.3-0.9-0.4-1.6-0.4c-0.7,0-1.3,0.2-1.8,0.5c-0.5,0.3-0.9,0.8-1.1,1.3c-0.2,0.6-0.4,1.2-0.4,2v0.1c0,1.3,0.3,2.2,0.9,2.9
		s1.5,1,2.6,1c0.5,0,0.9-0.1,1.4-0.2c0.5-0.1,0.9-0.3,1.3-0.6c0.2-0.1,0.4-0.2,0.5-0.2s0.3,0.1,0.4,0.1c0.1,0.1,0.2,0.2,0.2,0.3
		c0,0.1,0,0.3,0,0.4c-0.1,0.2-0.2,0.3-0.4,0.4c-0.5,0.3-1,0.6-1.6,0.8S204,63.1,203.4,63.1z"/>
	<path class="st2" d="M214.1,63.1c-1,0-1.9-0.2-2.6-0.7c-0.7-0.4-1.3-1-1.7-1.8c-0.4-0.8-0.6-1.7-0.6-2.7c0-0.8,0.1-1.5,0.3-2.1
		c0.2-0.6,0.5-1.2,1-1.6c0.4-0.4,0.9-0.8,1.5-1c0.6-0.2,1.3-0.3,2-0.3c0.5,0,1,0.1,1.5,0.2c0.5,0.2,1,0.4,1.5,0.8
		c0.1,0.1,0.2,0.2,0.3,0.3s0,0.3,0,0.4s-0.1,0.2-0.2,0.3c-0.1,0.1-0.2,0.1-0.4,0.2c-0.1,0-0.3,0-0.4-0.1c-0.4-0.3-0.7-0.5-1.1-0.6
		c-0.4-0.1-0.7-0.2-1.1-0.2c-0.5,0-1,0.1-1.4,0.3c-0.4,0.2-0.7,0.4-1,0.7c-0.3,0.3-0.5,0.7-0.6,1.2c-0.1,0.5-0.2,1-0.2,1.6
		c0,1.2,0.3,2.1,0.8,2.8c0.6,0.7,1.4,1,2.4,1c0.3,0,0.7-0.1,1.1-0.2c0.4-0.1,0.7-0.3,1.1-0.6c0.2-0.1,0.3-0.2,0.4-0.1
		s0.3,0.1,0.3,0.2s0.2,0.2,0.2,0.3s0,0.3,0,0.4s-0.1,0.2-0.3,0.3c-0.4,0.4-0.9,0.6-1.4,0.8S214.6,63.1,214.1,63.1z"/>
	<path class="st2" d="M220.2,63c-0.3,0-0.5-0.1-0.6-0.2s-0.2-0.4-0.2-0.6V49.1c0-0.3,0.1-0.5,0.2-0.6c0.1-0.1,0.3-0.2,0.6-0.2
		c0.3,0,0.5,0.1,0.6,0.2c0.2,0.1,0.2,0.4,0.2,0.6v6h-0.3c0.3-0.8,0.8-1.4,1.4-1.8c0.6-0.4,1.4-0.6,2.2-0.6c0.8,0,1.5,0.1,2,0.4
		c0.5,0.3,0.9,0.7,1.2,1.3c0.3,0.6,0.4,1.3,0.4,2.2v5.5c0,0.3-0.1,0.5-0.2,0.6c-0.1,0.2-0.3,0.2-0.6,0.2c-0.3,0-0.5-0.1-0.6-0.2
		c-0.1-0.2-0.2-0.4-0.2-0.6v-5.4c0-0.9-0.2-1.6-0.5-2c-0.4-0.4-0.9-0.6-1.7-0.6c-0.9,0-1.6,0.3-2.2,0.9c-0.5,0.6-0.8,1.3-0.8,2.3v5
		C221,62.7,220.7,63,220.2,63z"/>
</g>
</svg>
