<svg id="Calque_1" data-name="Calque 1" xmlns="http://www.w3.org/2000/svg" viewBox="0 0 180 180"><defs><style>.cls-1,.cls-2{fill:#016fd0;}.cls-1{fill-rule:evenodd;}</style></defs><g id="surface1"><path class="cls-1" d="M72.87109,144.44531V94.11719h42.67579v11.59375H86.69141V113.582h28.168v11.40235h-28.168v7.73046h28.85547v11.73047H72.87109"/><path class="cls-1" d="M115.33594,144.44531l23.60937-25.1914L115.33594,94.12109h18.27344l14.42968,15.94922,14.46875-15.94922H180v.39453l-23.10938,24.73829L180,143.73438v.71093H162.332l-14.68359-16.10937-14.53516,16.10937H115.33594"/><polygon class="cls-2" points="0 0 0 180 180 180 180 151.621 158.816 151.621 147.559 139.199 136.379 151.672 65.203 151.52 65.203 94.27 42.141 94.27 70.559 29.773 98.23 29.773 107.949 51.844 107.949 29.773 142.113 29.773 148.004 46.309 153.914 29.773 180 29.773 180 0 0 0"/><polygon class="cls-2" points="180 133.43 180 104.941 166.73 119.117 180 133.43"/><path class="cls-1" d="M75.80078,36.78125l-22.332,50.28516H68.78516l4.21093-10.07032H95.82422l4.21094,10.07032h15.69531L93.49219,36.78125Zm1.918,28.92969,6.69531-16.00782,6.69141,16.00782Z"/><path class="cls-1" d="M115.52344,87.05859V36.77344l21.52734.07422,11.07813,30.91406,11.15234-30.98828H180V87.05859l-13.332.11719v-34.543L154.082,87.05859H141.91016l-12.84766-34.543v34.543H115.52344"/></g></svg>