<svg width="22" height="16" viewBox="0 0 22 16" fill="none" xmlns="http://www.w3.org/2000/svg">
<path d="M6.91807 4.69629H1.24512V5.61296H6.91807V4.69629Z" fill="white"/>
<path d="M6.25401 6.55762H0.581055V7.47428H6.25401V6.55762Z" fill="white"/>
<path d="M5.67295 8.39111H0V9.30778H5.67295V8.39111Z" fill="white"/>
<path d="M8.38504 15.5578C7.25045 15.5578 6.30957 14.6133 6.30957 13.4744C6.30957 12.3356 7.25045 11.3911 8.38504 11.3911C9.51963 11.3911 10.4605 12.3356 10.4605 13.4744C10.4605 14.6133 9.54731 15.5578 8.38504 15.5578ZM8.38504 12.3078C7.74856 12.3078 7.22277 12.8356 7.22277 13.4744C7.22277 14.1133 7.74856 14.6411 8.38504 14.6411C9.02152 14.6411 9.5473 14.1133 9.5473 13.4744C9.5473 12.8356 9.04919 12.3078 8.38504 12.3078Z" fill="white"/>
<path d="M18.0706 15.5578C16.936 15.5578 15.9951 14.6133 15.9951 13.4744C15.9951 12.3356 16.936 11.3911 18.0706 11.3911C19.2052 11.3911 20.1461 12.3356 20.1461 13.4744C20.1461 14.6133 19.2052 15.5578 18.0706 15.5578ZM18.0706 12.3078C17.4341 12.3078 16.9083 12.8356 16.9083 13.4744C16.9083 14.1133 17.4341 14.6411 18.0706 14.6411C18.7071 14.6411 19.2329 14.1133 19.2329 13.4744C19.2329 12.8356 18.7071 12.3078 18.0706 12.3078Z" fill="white"/>
<path d="M18.873 2.47428H15.2756V0.557617H4.0957V4.08539H7.58249V9.75206H4.0957V12.3076H14.3624H15.2756H22.0001V5.33539L18.873 2.47428ZM19.8969 8.97429H16.2165V4.39095H18.458L19.9246 5.69651V8.97429H19.8969Z" fill="white"/>
</svg>
