<svg width="33" height="40" viewBox="0 0 33 40" fill="none" xmlns="http://www.w3.org/2000/svg">
<path d="M32.7124 6.05263C31.6929 5.96491 30.7159 5.78947 29.7388 5.61404C27.9122 5.30702 26.2556 4.86842 24.8113 4.38597C23.0696 3.81579 21.6253 3.15789 20.3934 2.58772C17.7173 1.22807 16.3579 0 16.3579 0C16.3579 0 14.9561 1.22807 12.3224 2.58772C11.133 3.20175 9.64622 3.85965 7.90458 4.38597C6.46029 4.86842 4.84609 5.30702 2.97701 5.61404C2.04247 5.78947 1.02297 5.92105 0.00346788 6.05263C0.00346788 7.2807 -0.0390122 9.42982 0.173383 12.2368C0.258342 14.0351 0.513217 16.0526 0.938009 18.1579C1.40528 20.5702 2.12742 23.114 3.23188 25.7456C3.78411 27.0614 4.50625 28.4649 5.27088 29.7807C6.8426 32.3246 8.83912 34.7368 11.4728 36.886C12.1525 37.4123 12.7897 37.8947 13.5118 38.3772C14.4039 38.9474 15.2959 39.5614 16.3154 40C17.2925 39.4737 18.2695 38.9474 19.1191 38.3772C19.8412 37.8947 20.5209 37.3684 21.1581 36.886C23.7918 34.7807 25.8308 32.3246 27.36 29.7807C28.1671 28.4649 28.8468 27.1491 29.399 25.7456C30.461 23.2018 31.1831 20.614 31.6929 18.1579C32.1177 16.0526 32.3725 14.0351 32.4575 12.2368C32.7549 9.47368 32.7124 7.23684 32.7124 6.05263Z" fill="#242424"/>
<path opacity="0.9" d="M29.9088 8.42102C29.0592 8.3333 28.2521 8.20172 27.445 8.07014C25.9157 7.80699 24.5564 7.45611 23.367 7.06137C21.9227 6.57892 20.7333 6.0526 19.7138 5.57014C17.5049 4.42979 16.3579 3.42102 16.3579 3.42102C16.3579 3.42102 15.211 4.42979 13.0021 5.57014C12.0251 6.09646 10.7932 6.62278 9.34887 7.06137C8.15946 7.45611 6.80012 7.80699 5.27088 8.07014C4.50625 8.20172 3.65667 8.3333 2.80709 8.42102C2.80709 9.42979 2.76461 11.228 2.93453 13.5526C3.01948 15.0438 3.23188 16.7105 3.57171 18.4649C3.95402 20.4824 4.54873 22.5877 5.48327 24.7368C5.95054 25.8333 6.54525 26.9737 7.18244 28.0701C8.49929 30.1754 10.156 32.193 12.3224 33.9473C12.8746 34.3859 13.4269 34.7807 14.0216 35.1754C14.7437 35.6579 15.5083 36.1403 16.3579 36.5351C17.165 36.0965 17.9721 35.6579 18.6943 35.1754C19.289 34.7807 19.8412 34.3421 20.3934 33.9473C22.5599 32.193 24.259 30.1754 25.5334 28.0701C26.2131 26.9737 26.7653 25.8772 27.2326 24.7368C28.1246 22.6315 28.7193 20.4824 29.1441 18.4649C29.484 16.7105 29.6964 15.0438 29.7813 13.5526C29.9512 11.2719 29.9088 9.42979 29.9088 8.42102Z" fill="#585858"/>
<path d="M14.2764 26.1403L23.5369 16.5789L20.8607 13.8596L14.2764 20.6579L11.2179 17.5L8.49927 20.2631L14.2764 26.1403Z" fill="white"/>
</svg>
