<svg width="32" height="21" viewBox="0 0 32 21" fill="none" xmlns="http://www.w3.org/2000/svg">
<path d="M24.6685 3.17763C24.1337 3.13158 23.6212 3.03947 23.1086 2.94737C22.1504 2.78618 21.2813 2.55592 20.5237 2.30263C19.61 2.00329 18.8524 1.65789 18.2061 1.35855C16.8022 0.644737 16.0891 0 16.0891 0C16.0891 0 15.3538 0.644737 13.9721 1.35855C13.3482 1.68092 12.5682 2.02632 11.6546 2.30263C10.8969 2.55592 10.0501 2.78618 9.06964 2.94737C8.57939 3.03947 8.04457 3.10855 7.50975 3.17763C7.50975 3.82237 7.48747 4.95066 7.59889 6.42434C7.64346 7.36842 7.77716 8.42763 8 9.5329C8.24513 10.7993 8.62396 12.1349 9.20335 13.5164C9.49304 14.2072 9.87187 14.9441 10.273 15.6349C11.0975 16.9704 12.1449 18.2368 13.5265 19.3651C13.883 19.6414 14.2173 19.8947 14.5961 20.148C15.0641 20.4474 15.532 20.7697 16.0669 21C16.5794 20.7237 17.0919 20.4474 17.5376 20.148C17.9164 19.8947 18.273 19.6184 18.6072 19.3651C19.9889 18.2599 21.0585 16.9704 21.8607 15.6349C22.2841 14.9441 22.6407 14.2533 22.9304 13.5164C23.4875 12.1809 23.8663 10.8224 24.1337 9.5329C24.3566 8.42763 24.4903 7.36842 24.5348 6.42434C24.6908 4.97368 24.6685 3.79934 24.6685 3.17763Z" fill="#242424"/>
<path opacity="0.9" d="M23.1978 4.42114C22.7521 4.37509 22.3287 4.30601 21.9053 4.23693C21.1031 4.09877 20.39 3.91456 19.766 3.70733C19.0084 3.45404 18.3844 3.17772 17.8496 2.92443C16.6908 2.32575 16.0891 1.79614 16.0891 1.79614C16.0891 1.79614 15.4875 2.32575 14.3287 2.92443C13.8162 3.20075 13.1699 3.47706 12.4123 3.70733C11.7883 3.91456 11.0752 4.09877 10.273 4.23693C9.87187 4.30601 9.42619 4.37509 8.9805 4.42114C8.9805 4.95075 8.95822 5.89483 9.04736 7.11522C9.09192 7.89812 9.20334 8.77312 9.38162 9.69417C9.58217 10.7534 9.89415 11.8586 10.3844 12.9869C10.6295 13.5626 10.9415 14.1613 11.2758 14.7369C11.9666 15.8422 12.8357 16.9014 13.9721 17.8225C14.2618 18.0527 14.5515 18.26 14.8635 18.4672C15.2423 18.7205 15.6435 18.9738 16.0891 19.181C16.5125 18.9507 16.9359 18.7205 17.3148 18.4672C17.6267 18.26 17.9164 18.0297 18.2061 17.8225C19.3426 16.9014 20.234 15.8422 20.9025 14.7369C21.2591 14.1613 21.5487 13.5856 21.7939 12.9869C22.2618 11.8817 22.5738 10.7534 22.7967 9.69417C22.9749 8.77312 23.0864 7.89812 23.1309 7.11522C23.2201 5.91785 23.1978 4.95075 23.1978 4.42114Z" fill="#585858"/>
<path d="M14.9972 13.7237L19.8551 8.704L18.4512 7.27637L14.9972 10.8454L13.3927 9.18755L11.9666 10.6382L14.9972 13.7237Z" fill="white"/>
</svg>
