<svg xmlns="http://www.w3.org/2000/svg" viewBox="0 0 60.11 50">
    <title>Twitter</title>
    <g id="Layer_2" data-name="Layer 2">
        <g id="Layer_1-2" data-name="Layer 1">
            <path d="M59.15,5.82A23.16,23.16,0,0,1,55,7.21a12.84,12.84,0,0,0,3.41-5.43h0a.68.68,0,0,0-1-.79h0a23.59,23.59,0,0,1-6.34,2.62,1.74,1.74,0,0,1-.39.05,1.68,1.68,0,0,1-1.11-.42A13,13,0,0,0,41,0a13.79,13.79,0,0,0-4.1.63,12.55,12.55,0,0,0-8.46,9,13.56,13.56,0,0,0-.31,4.77.49.49,0,0,1-.12.37.48.48,0,0,1-.36.16h0A34,34,0,0,1,4.26,2.5h0a.68.68,0,0,0-1.11.08h0A13,13,0,0,0,5.26,18.34a11.73,11.73,0,0,1-3-1.15h0a.67.67,0,0,0-1,.59h0a13,13,0,0,0,7.57,12H8.59a12.36,12.36,0,0,1-2.18-.2h0a.68.68,0,0,0-.78.87h0a13,13,0,0,0,10.26,8.83A23.9,23.9,0,0,1,2.5,43.3H1a1,1,0,0,0-1,.75,1,1,0,0,0,.49,1.13A35.62,35.62,0,0,0,18.4,50a36,36,0,0,0,15.27-3.24,33.8,33.8,0,0,0,11.17-8.37,36.74,36.74,0,0,0,6.85-11.46A36.3,36.3,0,0,0,54,14.38v-.2a2.18,2.18,0,0,1,.83-1.71A25.69,25.69,0,0,0,60,6.81h0a.68.68,0,0,0-.84-1Z" />
        </g>
    </g>
</svg>