<svg xmlns="http://www.w3.org/2000/svg" viewBox="0 0 90 60"><defs><style>.cls-1{fill:none;stroke:#fff;stroke-miterlimit:10;stroke-width:1.81px;}</style></defs><title>picto-hp-auto</title><g id="auto"><circle class="cls-1" cx="72.07" cy="44.5" r="6.8"/><circle class="cls-1" cx="14.53" cy="44.05" r="6.8"/><path class="cls-1" d="M24.86,43.6H61.23a10.87,10.87,0,0,1,21.71.9h3.4a5,5,0,0,0,1.36-3.85c0-2.72,1.14-5.2-3.17-9.52-3.4-3.39-19.94-5.43-19.94-5.43l-6.11-4.76C54.4,17.77,51,14.37,35.59,14.37,20,14.37,17.7,16,17.7,16A38.47,38.47,0,0,0,5,27.28a13.42,13.42,0,0,0-1.13,5.21c0,1.36-2-.22-2,4.31,0,3.93.57,4.65,3.09,5.09l.13,0A9.74,9.74,0,0,1,24.39,43.6h3.05"/></g></svg>