<?xml version="1.0" encoding="utf-8"?>
<!-- Generator: Adobe Illustrator 18.1.1, SVG Export Plug-In . SVG Version: 6.00 Build 0)  -->
<svg version="1.1" id="Calque_1" xmlns="http://www.w3.org/2000/svg" xmlns:xlink="http://www.w3.org/1999/xlink" x="0px" y="0px"
	 width="80px" height="80px" viewBox="-439 241 80 80" enable-background="new -439 241 80 80" xml:space="preserve">
<g>
	<path fill="none" stroke="#666666" stroke-width="1.9208" d="M-400.3,243.6c0,0,16.8,0.5,25.5,9.1c8.6,8.6,19.2,23.5,10.1,43.7
		s-28.8,22.1-35.5,22.1s-35.6-8.6-36.6-37.4C-437.7,252.3-419.5,242.2-400.3,243.6z"/>
</g>
<g>
	<g>
		<path fill="none" stroke="#666666" stroke-width="1.9208" d="M-400.3,243.6c0,0,16.8,0.5,25.5,9.1c8.6,8.6,19.2,23.5,10.1,43.7
			s-28.8,22.1-35.5,22.1s-35.6-8.6-36.6-37.4C-437.7,252.3-419.5,242.2-400.3,243.6z"/>
	</g>
</g>
<path fill="#6D6D6D" d="M-385.7,273c0,0-1.6,0-3-0.2s-4.3-1.1-7.7-1.2c-3.3-0.1-8.5,1.5-8.5,1.5s-3.8,6-6.3,7.8
	c-0.5,0.8-0.1,4,3.4,2.6c3.5-1.4,8.3-4.5,8.7-4.5c0.4,0,4.3,2.6,6,3.8c1.7,1.3,9.1,5.7,10,6.3c0.9,0.6,2,0,2,0s2.3-2.8,3.3-4.5
	c-1-1.1-0.4-0.9-0.4-0.9s-2.4,3.5-2.9,3.7s-3-0.7-4.7-2c-1.7-1.2-7-4.2-8.8-5.3c-1.8-1.1-3.9-3.5-6.2-2.1c-2.2,1.4-4.5,3.7-6.6,4
	s-2.7,0.2-2.5-0.4c0.2-0.6,3.3-3.7,4.4-5c1-1.3,1.1-2.3,2-2.5s4.7-1.5,7.2-1.2s6.4,0.9,8,1c1.5,0.1,3.5-0.1,3.6-0.3
	C-385.3,273.1-385.7,273-385.7,273z"/>
<path fill="#6D6D6D" d="M-373.5,275.9c-0.5-0.9-4.2-6.3-4.6-7s-1.2-2.3-1.6-2.4c-0.4-0.1-5.7,2.4-5.7,3.8c0,0,2.6,3.8,4.6,6.9
	c2,3.1,4.7,8.4,6.5,8.6c1.8,0.3,3.9-2.5,4.9-3.5C-368.4,281.3-372.9,276.7-373.5,275.9z M-373.2,283.9c-1.4,0.9-1.3-1.2-3.7-4
	s-6.2-9.5-6.2-9.5c0.7-1.1,3.2-2.1,3.2-2.1s0.5,0.5,1.1,1.4c0.7,0.9,3.4,5.2,4.5,6.9c1.1,1.7,4,5.1,4,5.1S-371.8,283-373.2,283.9z"
	/>
<path fill="#6D6D6D" d="M-374.6,278.5c0,0,1.4-0.2,1.7,0.7c0.3,0.9-0.1,1.6-0.9,1.3C-374.5,280.1-375.2,279.5-374.6,278.5z"/>
<path fill="#6D6D6D" d="M-427.9,282.7c1,1,3.3,3.7,5,3.4c1.8-0.3,4.3-5.6,6.2-8.8c1.9-3.2,4.4-7,4.4-7c0-1.4-5.4-3.7-5.8-3.6
	c-0.4,0.1-1.1,1.7-1.5,2.4c-0.4,0.7-3.9,6.3-4.4,7.1C-424.5,277.1-429,281.7-427.9,282.7z M-427,282.1c0,0,2.8-3.6,3.9-5.2
	c1.1-1.6,3.7-6.1,4.3-7c0.6-0.9,1.1-1.4,1.1-1.4s2.5,1,3.2,2c0,0-3.6,6.9-5.9,9.7c-2.3,2.9-2.2,4.9-3.6,4.1S-427,282.1-427,282.1z"
	/>
<path fill="#6D6D6D" d="M-422.7,279.6c0,0-1.4-0.2-1.7,0.7s0.1,1.6,0.9,1.3C-422.8,281.3-422.2,280.7-422.7,279.6z"/>
<path fill="#6D6D6D" d="M-405.5,274.7c0,0-3.5-0.2-4.2-0.5c-0.7-0.4-2.8-1.5-2.8-1.5l-0.9,1.6c0,0,0.7,0.3,2.4,0.8
	c1.6,0.5,4.5,1.2,4.5,1.2L-405.5,274.7z"/>
<path fill="#6D6D6D" d="M-414.2,288c0,0-0.7,0.2-2.6,2.9c-1.9,2.7-1,4.3,0.1,4.9c1.1,0.6,2,0.4,2.8-0.6s3.4-4.9,3.5-5.5
	C-410.3,289-411.5,285.8-414.2,288z M-413.1,292.4c-0.6,0.9-2.2,2.7-2.7,2.9c-0.6,0.2-1.1-1.5-0.6-2.5s2.7-3.6,2.7-3.6
	c0.7-0.9,1.4-0.2,1.9,0.1C-411.2,289.4-412.5,291.5-413.1,292.4z"/>
<path fill="#6D6D6D" d="M-403.3,294.4c0,0-0.7,0.2-2.4,2.7c-1.8,2.5-1,4.1,0,4.6c1,0.6,1.9,0.4,2.7-0.6s3.3-4.5,3.3-5.1
	C-399.7,295.4-400.8,292.4-403.3,294.4z M-402.4,298.5c-0.6,0.8-2.3,2.6-2.7,2.3c-0.5-0.3-0.9-1.1-0.4-2.1c0.5-0.9,2.6-3.4,2.6-3.4
	c0.7-0.9,1.3-0.2,1.8,0.1C-400.5,295.7-401.8,297.7-402.4,298.5z"/>
<path fill="#6D6D6D" d="M-407.8,288.3c-1.5-0.7-3.1,1.4-3.1,1.4s-0.2,0.4-0.6,1.2c-0.3,0.8-3.3,4.4-3.3,4.4s-0.4,0.8-0.3,1.6
	c0,0.9,1.1,1.9,2.3,2.2c1.2,0.4,2.4-1.4,3.4-2.9s3-4.3,3.5-5.2C-405.4,290.2-406.2,289-407.8,288.3z M-407.1,291
	c-0.1,0.6-1.4,2.6-1.7,3c-0.3,0.4-2.1,2.8-2.6,3.5s-1.4,0.6-1.9,0.4s-0.8-1.6-0.3-2.4c0.4-0.8,1.6-2.3,2.6-3.6
	c1-1.3,1.7-2.3,1.7-2.3c0.4-0.2,1.3-0.4,1.8,0C-407.2,289.9-407,290.4-407.1,291z"/>
<path fill="#6D6D6D" d="M-403.7,291.1c-1.3-0.8-2.6,0-2.7,0l-3.2,4.8c0,0-1.2,1.8-1.4,2.4c-0.2,0.6,0.6,1.8,1.1,2.3
	c0.5,0.6,1.8,0.7,3.1-0.5c1.4-1.1,4-6,4.2-6.6C-402.3,293-402.4,291.9-403.7,291.1z M-403.5,293.3c-0.1,0.4-1.8,3.1-2.6,4.4
	c-0.7,1.3-1.8,2-2.3,2.3s-1.3-0.5-1.4-1.2s0.8-1.9,2-3.8c1.2-1.9,2.1-3,2.1-3C-404,290.9-403.4,292.9-403.5,293.3z"/>
<path fill="#6D6D6D" d="M-420.1,285.7c0,0,1.3,1.2,2.2,2.6c0.9,1.4,1.4,2.2,1.4,2.2l1.2-1.6c0,0-0.6-0.4-1.6-1.6s-2.3-2.9-2.3-2.9
	L-420.1,285.7z"/>
<path fill="#6D6D6D" d="M-381.4,288.5c0,0,1.3,2.4-0.3,4.1c-1.6,1.8-4.4,0.1-6.7-1c-2.3-1.1-5.2-3.3-6.6-3.8
	c-0.4-0.3-0.4-0.9,0.5-0.8c0.9,0.1,2.7,0.6,3.8,1.5c1.1,0.8,4.8,2.9,5.4,3.1c0.7,0.2,1.9,0.5,2,0.3s1.4-2.4,0.5-3
	C-383.7,288.2-381.4,288.5-381.4,288.5z"/>
<path fill="#6D6D6D" d="M-384.7,292.8c0,0,0.4,2.7-1.3,3.5c-1.7,0.8-2,0.6-4-0.2s-3.5-2-4.8-2.5s-2.5-1.8-2.3-2.1
	c0.2-0.3,1.1,0.3,2.5,1s4.4,2,5.3,2.4c0.9,0.5,2,0.7,2.5,0.4c0.5-0.3,1.1-1.6,0.8-2.2c-0.3-0.6-0.8-1.1-0.8-1.1L-384.7,292.8z"/>
<path fill="#6D6D6D" d="M-390.4,295.5c0,0,1.1,1.1,0,2.3s-1.9,0.3-3.1-0.3s-3.6-1.8-4.5-1.9c-0.9-0.1-0.3,0.7-0.3,0.7s1.8,1.1,3,1.7
	c1.3,0.7,3.2,1.9,4,1.9s2.2-0.6,2.6-1.4c0.4-0.7,0.1-2.5,0.1-2.5L-390.4,295.5z"/>
<path fill="#6D6D6D" d="M-402.6,300c0,0,4.3,1.7,6.4,1.7c2.2,0,4.2-2.1,4.2-2.1l-1.2-0.9c0,0-1.2,2-2.9,2c-1.3,0-3.4-0.4-4.5-0.9
	c-0.8-0.3-1.7-0.7-1.7-0.7L-402.6,300z"/>
<path fill="#6D6D6D" d="M-413.5,271.3l2,1.1c0,0-3.7,6.5-5,8.6c-1,1.6-2.8,4.1-3.6,5.3c-0.2,0.3-0.6,0.3-0.8,0.1l-1-1.3l0.6-0.6
	l0.7,1.1c0,0,1.3-2.1,1.7-2.7c0.4-0.5,3.8-5.9,4.1-6.3c0.1-0.3,2-4.1,2-4.1l-0.7-0.7L-413.5,271.3z"/>
<path fill="#6D6D6D" d="M-384.5,270.6l-2,1.1c0,0,3.9,6.4,5.3,8.4c1,1.5,3,4,3.7,5.2c0.2,0.3,0.6,0.3,0.8,0l1-1.3l-0.7-0.6l-0.7,1.1
	c0,0-1.4-2.1-1.8-2.6s-4-5.8-4.2-6.2c-0.1-0.3-2.1-4-2.1-4l0.6-0.7L-384.5,270.6z"/>
<path fill="#6D6D6D" d="M-379.7,266.5c0,0,9.9-5.5,10.7-6.1c0.9,0.5,0.9,1.2,0.9,1.2s-8.6,3.9-11,5.9
	C-379.8,267.3-379.7,266.5-379.7,266.5z"/>
<path fill="#6D6D6D" d="M-369.4,282.3c0,0,2.8-2.3,4.4-3s3.4-2.3,3.4-2.3l-0.3-1.5c0,0-2.8,2.3-4.5,3.4c-1.7,1.1-3.6,2.1-3.6,2.1
	L-369.4,282.3z"/>
<path fill="#6D6D6D" d="M-418.1,266.7c0,0-4.1-2-5.3-2.7s-7.8-5.3-7.8-5.3l-0.7,1.4c0,0,3.4,2.3,5.5,3.5c1.8,1.1,7.3,4.4,7.8,4.3
	C-418.2,267.2-418.1,266.7-418.1,266.7z"/>
<path fill="#6D6D6D" d="M-428,282.4c0,0-4.3-3.4-5-4c-0.7-0.6-2.9-2-2.9-2l-0.3-1.6c0,0,3.1,1.6,3.8,2.6s5,3.6,5,3.6L-428,282.4z"/>
</svg>
