<svg xmlns="http://www.w3.org/2000/svg" viewBox="0 0 90 60"><defs><style>.cls-1{fill:#fff;}</style></defs><title>picto-hp-assurance vie</title><g id="ass_vie" data-name="ass vie"><path class="cls-1" d="M42.73,7a8.33,8.33,0,1,1-8.33,8.33A8.33,8.33,0,0,1,42.73,7m0-1.52a9.85,9.85,0,0,0-4.21,18.75c.66.31,2.45,0,4.21,0s3.32.37,3.9.11a9.85,9.85,0,0,0-3.9-18.89Z"/><path class="cls-1" d="M36.56,22.68a28.57,28.57,0,0,0-3.24,1.23l.62,2.62A21.62,21.62,0,0,1,43,24.45a22.44,22.44,0,0,1,9.23,2.08l.61-2.62a14.47,14.47,0,0,0-3.54-1.38l-.46,0A27.88,27.88,0,0,0,36.56,22.68Zm14.78-2.46a14.31,14.31,0,0,1,5.86,3.39c1.54-1.7,2.46-2.47,4.77-2.78A4.92,4.92,0,0,0,62.28,25a14.45,14.45,0,0,1,6.93,6.93,2.64,2.64,0,0,0,.6,0c.63,0,1.48-.09,2.27-.09a7.33,7.33,0,0,1,.83,0c.15,2.62,0,4.63-.77,5.55C66.75,43,58.89,45,57.35,45.33a12,12,0,0,0,0,5.23H51a18.48,18.48,0,0,1-2.31-3.39c-1.44.1-2.87.15-4.27.15a38.64,38.64,0,0,1-9-.92,18.35,18.35,0,0,0,.15,4.16H29.16c-1.85-2.46-2.62-6.31-3.08-10.32-3.23-2.77-2.93-10-.62-13.4-2.48-.52-1.64-4.59.46-4.59a2.23,2.23,0,0,1,1.24.43,2,2,0,0,0-.4-.05c-1.46,0-1.5,2.37-.22,2.52a19.71,19.71,0,0,1,7.86-4.78l0-2.09.15.09-.69.22a21.37,21.37,0,0,0-5.46,2.65l-.15-.1a4,4,0,0,0-2.3-.76,4.09,4.09,0,0,0-3.82,3.91A4.16,4.16,0,0,0,23,27.46a15.75,15.75,0,0,0-1.19,6.34,10.86,10.86,0,0,0,2.48,7.32c.44,3.53,1.25,7.75,3.36,10.57l.57.74h9.52l-.26-2.1c-.07-.53-.13-1.09-.17-1.65a45.67,45.67,0,0,0,7.13.51c1,0,2.13,0,3.26-.08a13.84,13.84,0,0,0,2,2.78l.55.54h9.33l-.4-2.2A11.66,11.66,0,0,1,59,46.86c2.78-.75,9.55-3,14.5-8.09l0-.05,0,0c1-1.26,1.4-3.31,1.2-6.86l-.09-1.55-1.55-.19A8.43,8.43,0,0,0,72.08,30c-.47,0-1,0-1.36,0l-.37,0a16.26,16.26,0,0,0-6.62-6.46c-.3-.75-.25-1.09.06-2.33l.67-2.68L61.72,19A7.78,7.78,0,0,0,57.09,21a17.21,17.21,0,0,0-5.19-2.61c-.22.39-1.92.87-1.15,1.72C50.86,20.28,51.22,20.15,51.34,20.22Zm11.71,12a1.45,1.45,0,0,0,1.54-1.54,1.54,1.54,0,1,0-1.54,1.54"/></g></svg>