<?xml version="1.0" encoding="utf-8"?>
<!-- Generator: Adobe Illustrator 18.1.1, SVG Export Plug-In . SVG Version: 6.00 Build 0)  -->
<svg version="1.1" id="Calque_1" xmlns="http://www.w3.org/2000/svg" xmlns:xlink="http://www.w3.org/1999/xlink" x="0px" y="0px"
	 width="80px" height="80px" viewBox="0 0 80 80" enable-background="new 0 0 80 80" xml:space="preserve">
<g>
	<path fill="none" stroke="#666666" stroke-width="1.9208" d="M38.7,2.6c0,0,16.8,0.5,25.5,9.1c8.6,8.6,19.2,23.5,10.1,43.7
		c-9.1,20.2-28.8,22.1-35.5,22.1S3.2,68.9,2.2,40.1C1.3,11.3,19.5,1.2,38.7,2.6z"/>
</g>
<g>
	<g>
		<path fill="none" stroke="#666666" stroke-width="1.9208" d="M38.7,2.6c0,0,16.8,0.5,25.5,9.1c8.6,8.6,19.2,23.5,10.1,43.7
			c-9.1,20.2-28.8,22.1-35.5,22.1S3.2,68.9,2.2,40.1C1.3,11.3,19.5,1.2,38.7,2.6z"/>
	</g>
</g>
<g>
	<g>
		<g>
			<path fill="#666666" d="M40.1,42.6L40.1,42.6L40.1,42.6z"/>
			<polygon fill="#666666" points="40.1,42.6 40.1,42.6 40.1,42.6 40.1,42.6 40.1,42.6 40.1,42.6 40.1,42.6 40.1,42.6 40.1,42.6 
				40.1,42.6 40.1,42.6 40.1,42.6 40.1,42.6 40.1,42.6 40.1,42.6 40.1,42.6 40.1,42.6 40.1,42.6 40.1,42.6 40.1,42.6 40.1,42.6 
				40.1,42.6 40.1,42.6 40.1,42.6 40.1,42.6 40.1,42.6 40.1,42.6 40.1,42.6 40.1,42.6 40.1,42.6 40.1,42.6 40.1,42.6 40.1,42.6 
				40.1,42.6 40.1,42.6 40.1,42.6 40.1,42.6 40.1,42.6 40.1,42.6 40.1,42.6 40.1,42.6 40.1,42.6 40.1,42.6 40.1,42.6 40.1,42.6 
				40.1,42.6 40.1,42.6 40.1,42.6 40.1,42.6 40.1,42.6 40.1,42.6 40.1,42.6 40.1,42.6 40.1,42.6 40.1,42.6 40.1,42.6 40.1,42.6 
				40.1,42.6 40.1,42.6 40.1,42.6 40.1,42.6 40.1,42.6 40.1,42.6 40.1,42.6 40.1,42.6 40.1,42.6 40.1,42.6 40.1,42.6 40.1,42.6 
				40.1,42.6 40.1,42.6 40.1,42.6 40.1,42.6 40.1,42.6 40.1,42.6 40.1,42.6 40.1,42.6 40.1,42.6 40.1,42.6 40.1,42.6 40.1,42.6 
				40.1,42.6 40.1,42.6 40.1,42.6 40.1,42.6 40.1,42.6 40.1,42.6 40.1,42.6 40.1,42.6 40.1,42.6 40.1,42.6 40.1,42.6 40.1,42.6 
				40.1,42.6 40.1,42.6 40.1,42.6 40.1,42.6 40.1,42.6 40.1,42.6 40.1,42.6 40.1,42.6 40.1,42.6 40.1,42.6 40.1,42.6 40.1,42.6 
				40.1,42.6 40.1,42.6 40.1,42.6 40.1,42.6 40.1,42.6 40.1,42.6 40.1,42.6 40.1,42.6 40.1,42.6 40.1,42.6 40.1,42.6 40.1,42.6 
				40.1,42.6 40.1,42.6 40.1,42.6 40.1,42.6 40.1,42.6 40.1,42.6 40.1,42.6 40.1,42.6 40.1,42.6 40.1,42.6 40.1,42.6 40.1,42.6 
				40.1,42.6 40.1,42.6 40.1,42.6 40.1,42.6 40.1,42.6 40.1,42.6 40.1,42.6 40.1,42.6 40.1,42.6 40.1,42.6 40.1,42.6 40.1,42.6 
				40.1,42.6 40.1,42.6 40.1,42.6 40.1,42.6 40.1,42.6 40.1,42.6 40.1,42.6 40.1,42.6 40.1,42.6 40.1,42.6 40.1,42.6 40.1,42.6 
				40.1,42.6 40.1,42.6 40.1,42.6 40.1,42.6 40.1,42.6 40.1,42.6 40.1,42.6 40.1,42.6 40.1,42.6 40.1,42.6 40.1,42.6 40.1,42.6 
				40.1,42.6 40.1,42.6 40.1,42.6 40.1,42.6 40.1,42.6 40.1,42.6 40.1,42.6 40.1,42.6 40.1,42.6 40.1,42.6 40.1,42.6 40.1,42.6 
				40.1,42.6 40.1,42.6 40.1,42.6 40.1,42.6 40.1,42.6 40.1,42.6 40.1,42.6 40.1,42.6 40.1,42.6 40.1,42.6 40.1,42.6 40.1,42.6 
				40.1,42.6 40.1,42.6 40.1,42.6 40.1,42.6 40.1,42.6 40.1,42.6 40.1,42.6 40.1,42.6 40.1,42.6 40.1,42.6 40.1,42.6 40.1,42.6 
				40.1,42.6 40.1,42.6 40.1,42.6 40.1,42.6 40.1,42.6 40.1,42.6 40.1,42.6 40.1,42.6 40.1,42.6 40.1,42.6 40.1,42.6 40.1,42.6 
				40.1,42.6 40.1,42.6 40.1,42.6 40.1,42.6 40.1,42.6 40.1,42.6 40.1,42.6 40.1,42.6 40.1,42.6 40.1,42.6 40.1,42.6 40.1,42.6 
				40.1,42.6 40.1,42.6 40.1,42.6 40.1,42.6 40.1,42.6 40.1,42.6 40.1,42.6 40.1,42.6 40.1,42.6 40.1,42.6 40.1,42.6 40.1,42.6 
				40.1,42.6 40.1,42.6 40.1,42.6 40.1,42.6 40.1,42.6 40.1,42.6 40.1,42.6 40.1,42.6 40.1,42.6 40.1,42.6 40.1,42.6 40.1,42.6 
				40.1,42.6 40.1,42.6 40.1,42.6 40.1,42.6 40.1,42.6 40.1,42.6 40.1,42.6 40.1,42.6 40.1,42.6 40.1,42.6 40.1,42.6 40.1,42.6 
				40.1,42.6 40.1,42.6 40.1,42.6 40.1,42.6 40.1,42.6 40.1,42.6 40.1,42.6 40.1,42.6 40.1,42.6 40.1,42.6 40.1,42.6 40.1,42.6 
				40.1,42.6 40.1,42.6 40.1,42.6 40.1,42.6 40.1,42.6 40.1,42.6 40.1,42.6 40.1,42.6 40.1,42.6 40.1,42.6 40.1,42.6 40.1,42.6 
				40.1,42.6 40.1,42.6 40.1,42.6 40.1,42.6 40.1,42.6 40.1,42.6 40.1,42.6 40.1,42.6 40.1,42.6 40.1,42.6 40.1,42.6 40.1,42.6 
				40.1,42.6 40.1,42.6 40.1,42.6 40.1,42.6 40.1,42.6 40.1,42.6 40.1,42.6 40.1,42.6 40.1,42.6 40.1,42.6 40.1,42.6 40.1,42.6 
				40.1,42.6 40.1,42.6 40.1,42.6 40.1,42.6 40.1,42.6 40.1,42.6 40.1,42.6 40.1,42.6 40.1,42.6 40.1,42.6 40.1,42.6 40.1,42.6 
				40.1,42.6 			"/>
			<path fill="#666666" d="M40.1,42.6L40.1,42.6L40.1,42.6z"/>
			<path fill="#666666" d="M40.1,42.6L40.1,42.6L40.1,42.6z"/>
			<path fill="#666666" d="M40.1,42.6L40.1,42.6L40.1,42.6z"/>
			<path fill="#666666" d="M40.1,42.6L40.1,42.6L40.1,42.6z"/>
			<path fill="#666666" d="M40.1,42.6L40.1,42.6L40.1,42.6z"/>
			<path fill="#666666" d="M40.1,42.6L40.1,42.6L40.1,42.6z"/>
			<path fill="#666666" d="M40.1,42.6L40.1,42.6L40.1,42.6z"/>
			<path fill="#666666" d="M40.1,42.6L40.1,42.6L40.1,42.6z"/>
			<path fill="#666666" d="M40.1,42.6L40.1,42.6L40.1,42.6z"/>
			<path fill="#666666" d="M40.1,42.6L40.1,42.6L40.1,42.6z"/>
		</g>
	</g>
</g>
<path fill="#666666" d="M13.9,55.1c0,0,1.4-13.4,2.4-17.3s1.4-12.4,2.3-12.9s16.3,1.9,18,2.2s3.4-0.1,3.2,1.5s-1.6,9.8-2.1,11.9
	s-2.2,13.3-2.4,15.2s-0.8,7.7-1.1,7.8s-7.4-2.3-9.3-2.8c-1.8-0.5-6-1.1-7.1-1.6c-1.2-0.5-2.8-1.3-2.6-1.3c0.3,0,17.6,3.9,18.2,4.5
	c0.2-1.9,0.7-3.4,0.8-5.6c0.2-2.2,1.8-11.4,2-12.7s0.8-4.8,1.1-6.3c0.3-1.5,0.8-3.5,1.1-6.1c0.4-2,0.4-3.2,0.4-3.2s-7.3-0.9-9.6-1.2
	s-7.7-0.9-8.3-1.1c-0.7-0.2-1.3-0.1-1.3-0.1s-2,11.7-2.4,13.8s-1.9,9.8-2.2,11.4C14.9,51.1,14.6,55,13.9,55.1z"/>
<path fill="#666666" d="M16.5,52.5c0,0,0.8-8.3,1.2-10.6c0.4-2.3,1.3-6.7,1.5-8.5c0.3-1.8,0.5-5.2,1.8-5c1.3,0.3,7.4,1.2,9.6,1.6
	c2.2,0.4,6.1,0.5,6.2,1.2s-0.4,4.5-0.8,7.3c-0.4,2.8-1.7,9.8-2,11.5c-0.3,1.6-0.7,7.9-0.9,8.2c-0.3,0.3-5.6-1.7-6.7-1.8
	c-1.1-0.2-7.3-1.4-8.4-1.9c-0.7-0.5-1-0.8,0.3-0.5c1.3,0.3,5.5,1.2,6.7,1.3c1.3,0.2,6.7,1.5,7,1.9c0.6-3.4,1.1-8.3,1.4-10
	c0.3-1.7,1.5-7.3,1.7-8.8s0.8-6.5,0.8-6.5s-5.9-0.7-7.3-1c-1.4-0.3-6.3-0.7-7.4-1c-1,3.8-1.6,8.4-2.1,10.4s-1.5,8-1.7,9.3
	S16.8,52.6,16.5,52.5z"/>
<path fill="#666666" d="M28,28.1c0,0,0.5,0.6,1.2,0.8c0.6,0.2,0.6-1.1-0.3-1.4C27.9,27.3,27.7,27.5,28,28.1z"/>
<path fill="#666666" d="M24,57"/>
<path fill="#666666" d="M22.7,58c0,0,0.8,1.1,1.4,1.1c0.5,0,1.1-1.6-0.2-2C22.7,56.7,22.7,58,22.7,58z"/>
<path fill="#666666" d="M35.3,52.8c0,0,5.7,0.9,7.8,1.4s7.9,1.7,9.8,2c1.9,0.3,3,0.2,3.9,0.8c1.2-0.1,2.3-1.3,3.2-1.5
	s3.2-0.4,3.2-0.4s1.1-1,0.9-1.8s-0.4-2.3-0.4-5.5c0-3.2-0.8-6.1-0.5-8.5s0.5-9.8,0.5-11.2c-0.1-1.5,0.5-3.4-2.1-4
	c-2.7-0.6-7.4-0.6-9.1-0.8c-1.7-0.2-8.8-0.2-12.1-0.6c-3.3-0.4-7.3-0.4-8.8-0.2c-1.5,0.2-1.9,4-1.9,4s1-3.3,2-3.5
	c1-0.2,5.3,0.1,8.9,0.5c3.6,0.5,7.8,0.3,10.3,0.6c2.6,0.3,10,0.7,11,1.1c1,0.4,0.9,2.5,0.6,5.5s-0.2,6.2-0.1,9.9
	c0.1,3.7,0.4,7,0.5,9.4c-0.1,1.4,0.1,4.2,0.1,4.2s-2.5-0.2-3.5,0.4s-2.5,1.8-4.2,1.1c-1.7-0.6-8.5-1.4-9.9-1.7
	c-1.3-0.3-5.4-1.3-6.8-1.5C37,52.4,35.1,52.4,35.3,52.8z"/>
<path fill="#666666" d="M37.5,39.8c0,0,3.7,1.7,6.9,1.3s5.8-0.9,7.4-1c1.6-0.2,4-1.5,5.1-1.1c0.2,1.1-0.3,0.9-1.8,0.9
	c-1.5,0-2.3,1.2-5.5,1.5c-3.2,0.3-5.2,0.8-7.1,0.5c-1.9-0.3-4.5-1.2-5-1.5C37.7,39.9,37.5,39.8,37.5,39.8z"/>
<path fill="#666666" d="M40.3,38.6c0,0-1.4,5.9,1.7,5.6c2.1-0.1,2.2-1,2-3.8c0.2-1.7,0.7-3-0.2-3.1s-3-0.4-3,0.1
	c0,0.5,1.8,0.1,2.1,0.8c-0.2,1.8,0.3,4.1,0.3,4.1s-0.8,0.8-1.8,0.1C40.4,41.9,41.3,38.7,40.3,38.6z"/>
<path fill="#666666" d="M62.4,25c0,0-5.8-0.4-5.7,1.5c0,1.9,0,11.3-0.2,14.5s-0.1,7.3,0,9.5c0.1,2.3,0.5,5.8,0.5,5.8s0.8-2,0.8-4
	c0-2.1-0.5-7.1-0.4-8.5c0.2-1.4,0.1-4.5,0.4-7.2s0.2-10,0.2-10s2.9-0.8,3.5-0.4c0.6,0.5-0.1,2.3,0.3,2.6c0.4,0.3,1-0.5,1-0.5
	L62.4,25z"/>
<path fill="#666666" d="M60,55.1c0,0-0.7-5.7-0.5-6.9s0.8-1.1,0.8-0.4c0,0.7,0.2,4.5,0.4,5.8S60,55.1,60,55.1z"/>
<path fill="#666666" d="M28.4,26.7c0,0-2.4-2.3-4.3-3.4c-1.9-1-5.7-2.7-5.7-3.6c0-1,1-3.5,1.8-3.6c0.7-0.1,5.4,2.9,6.8,4.4
	c1.5,1.5,3.4,3,3.4,3l-0.6,1.1c0,0-1-1.8-3.4-3.3s-5.5-3.9-6-3.7c-0.5,0.2-0.9,1.9-0.9,1.9s5.8,3.1,6.9,4.2c1.1,1.1,2.8,2.8,2.8,2.8
	L28.4,26.7z"/>
<path fill="#666666" d="M38.1,22.9c0,0,1.8-3.5,4.3-4c2.4-0.5,5-0.4,7.3,0.9s2.6,2.2,2.3,2.8s-0.8,1-0.8,1l-2.6-0.1
	c0,0-1-1.2-3.5-1.4c-2.5-0.2-3.5,0.3-3.5-0.1c0-0.5,1.9-1.2,4.1-0.8s4.8,1.7,4.9,1.3c0.2-0.5-1.9-2.2-3.3-2.4s-3.7-0.8-4.8-0.1
	s-2.8,2.4-3.2,3.1C38.2,22.9,38.1,22.9,38.1,22.9z"/>
<path fill="#666666" d="M57.4,29.7c0,0,3.5-1,4.8-1.2C62.3,27.9,62,28,62,28s-4.7,0.8-4.7,1.3S57.4,29.7,57.4,29.7z"/>
</svg>
