<svg width="637" height="25" viewBox="0 0 637 25" fill="none" xmlns="http://www.w3.org/2000/svg">
<path d="M2.66678 13.3976L1.92152 12.7308L0.587966 14.2213L1.33322 14.8881L2.66678 13.3976ZM13.0174 24L12.3506 24.7453L12.6353 25H13.0174V24ZM144.224 24V25H144.597L144.879 24.7552L144.224 24ZM157.745 12.2653V11.2653H157.372L157.09 11.5101L157.745 12.2653ZM545.356 12.2653V13.2653H545.689L545.956 13.0654L545.356 12.2653ZM560.379 1V0H560.046L559.779 0.199938L560.379 1ZM1.33322 14.8881L12.3506 24.7453L13.6841 23.2547L2.66678 13.3976L1.33322 14.8881ZM13.0174 25H144.224V23H13.0174V25ZM144.879 24.7552L158.401 13.0205L157.09 11.5101L143.569 23.2448L144.879 24.7552ZM157.745 13.2653H545.356V11.2653H157.745V13.2653ZM545.956 13.0654L560.979 1.80006L559.779 0.199938L544.756 11.4652L545.956 13.0654ZM560.379 2H637V0H560.379V2Z" fill="#01B6FE"/>
</svg>
