<?xml version="1.0" encoding="utf-8"?>
<!-- Generator: Adobe Illustrator 25.2.0, SVG Export Plug-In . SVG Version: 6.00 Build 0)  -->
<svg version="1.1" id="Calque_1" xmlns="http://www.w3.org/2000/svg" xmlns:xlink="http://www.w3.org/1999/xlink" x="0px" y="0px"
	 viewBox="0 0 59.2 69.2" style="enable-background:new 0 0 59.2 69.2;" xml:space="preserve">
<g>
	<polygon points="145.3,-12.6 96.8,-12.6 94.2,-16.8 101.8,-31.8 107,-29.1 101.5,-18.4 145.3,-18.4 	"/>
	<path d="M101.6-10.1c-4.8,0-8.7,3.9-8.7,8.7c0,4.8,3.9,8.7,8.7,8.7c4.8,0,8.7-3.9,8.7-8.7C110.3-6.2,106.4-10.1,101.6-10.1z
		 M105.2-1.4c0,2-1.6,3.6-3.6,3.6c-2,0-3.6-1.6-3.6-3.6c0-2,1.6-3.6,3.6-3.6C103.6-5,105.2-3.4,105.2-1.4z"/>
	<path d="M138.3-10.1c-4.8,0-8.7,3.9-8.7,8.7c0,4.8,3.9,8.7,8.7,8.7s8.7-3.9,8.7-8.7C147-6.2,143.1-10.1,138.3-10.1z M141.9-1.4
		c0,2-1.6,3.6-3.6,3.6s-3.6-1.6-3.6-3.6c0-2,1.6-3.6,3.6-3.6S141.9-3.4,141.9-1.4z"/>
	<polygon points="91.5,-55.8 86.5,-61.4 78.2,-61.4 78.2,-67.2 87.8,-67.2 89.9,-66.2 95.8,-59.6 	"/>
	<path d="M89.1-60L102-26.8h36.2L152.7-60H89.1z M132.4-33.4h-24.8l-8.8-20.3h43.6L132.4-33.4z"/>
</g>
<g>
	<ellipse cx="11.5" cy="21.6" rx="6.6" ry="9.3"/>
	<path d="M11.5,57.7c3.6,0,6.6-4.2,6.6-9.3c0-5.1-3-9.3-6.6-9.3c-3.6,0-6.6,4.2-6.6,9.3C4.9,53.5,7.8,57.7,11.5,57.7z"/>
	<g>
		<path d="M58.5,65.4l0.6,0L59.2,12L24.4,0L0,6.7l0,60.1l2.3,0.1l-1.1-0.1v1.7l25.5,0.7l6.2-0.3v-1.6 M32.9,67.3 M11.8,9.5
			c5.2,0,9.4,5.4,9.4,12.1c0,6.7-4.2,12.1-9.4,12.1c-5.2,0-9.4-5.4-9.4-12.1C2.4,15,6.6,9.5,11.8,9.5z M11.8,36.3
			c5.2,0,9.4,5.4,9.4,12.1S17,60.5,11.8,60.5c-5.2,0-9.4-5.4-9.4-12.1S6.6,36.3,11.8,36.3z M0.4,64.9l0-1.4l24.1,0.2l0.4,0l0,1.4
			l-0.3,0L0.4,64.9z M28.5,64.7l0-0.7l10.9-0.2l0,0.7L28.5,64.7z M28.5,63.5l0-0.7l10.9-0.3l0,0.7L28.5,63.5z M28.5,62.2l0-0.7
			l10.9-0.3l0,0.7L28.5,62.2z M28.5,61l0-0.7l10.9-0.2l0,0.7L28.5,61z M28.5,59.7l0-0.7l10.9-0.1l0,0.7L28.5,59.7z M28.5,58.5l0-0.7
			l10.9-0.1l0,0.7L28.5,58.5z M28.5,54.3V9.7l27.9,7.2v37.4H28.5z M48.4,63.8l0-0.7l8-0.1l0,0.7L48.4,63.8z M48.4,62.7l0-0.7l8-0.1
			l0,0.7L48.4,62.7z M48.4,61.6l0-0.7l8-0.1l0,0.7L48.4,61.6z M48.4,60.5l0-0.7l8-0.1l0,0.7L48.4,60.5z M48.4,59.4l0-0.7l8-0.1
			l0,0.7L48.4,59.4z M48.4,58.4l0-0.7l8-0.1l0,0.7L48.4,58.4z"/>
		<polyline points="56.9,65.3 39,66.6 51.6,67.2 56.9,66.9 56.9,65.3 		"/>
	</g>
</g>
</svg>
