<svg id="Calque_1" data-name="Calque 1" xmlns="http://www.w3.org/2000/svg" viewBox="0 0 54 54.4609"><path d="M16.34305,10.18637a6.35217,6.35217,0,1,1-6.3523,6.35221,6.35221,6.35221,0,0,1,6.3523-6.35221m0-7.45595A13.80812,13.80812,0,1,0,30.15112,16.53858,13.8238,13.8238,0,0,0,16.34305,2.73042Z"/><path d="M40.45055,28.60444a4.88446,4.88446,0,1,1-4.88441,4.8845,4.88454,4.88454,0,0,1,4.88441-4.8845m0-6.33755a11.222,11.222,0,1,0,11.222,11.22205,11.23478,11.23478,0,0,0-11.222-11.222Z"/><path d="M18.08271,40.61014A3.45384,3.45384,0,1,1,14.62887,44.064a3.45385,3.45385,0,0,1,3.45384-3.45384m0-5.592a9.0458,9.0458,0,1,0,9.0458,9.0458,9.05607,9.05607,0,0,0-9.0458-9.0458Z"/><polygon points="5.89 23.369 11.542 28.111 7.96 30.543 3.917 27.15 5.89 23.369"/><polygon points="3.942 14.95 5.223 22.215 0.916 21.776 0 16.578 3.942 14.95"/><polygon points="7.862 7.247 4.174 13.636 1.157 10.531 3.796 5.96 7.862 7.247"/><polygon points="15.817 3.866 8.884 6.389 8.569 2.072 13.528 0.267 15.817 3.866"/><polygon points="24.082 6.39 17.149 3.866 19.683 0.356 24.643 2.161 24.082 6.39"/><polygon points="28.792 13.636 25.103 7.246 29.301 6.186 31.94 10.757 28.792 13.636"/><polygon points="27.744 22.214 29.025 14.948 32.922 16.834 32.005 22.032 27.744 22.214"/><polygon points="21.424 28.111 27.075 23.369 28.848 27.318 24.805 30.711 21.424 28.111"/><polygon points="12.795 28.567 20.172 28.567 18.992 32.732 13.714 32.732 12.795 28.567"/><polygon points="30.489 36.523 33.881 41.57 30.489 42.678 28.062 39.067 30.489 36.523"/><polygon points="30.869 29.41 30.224 35.457 26.913 34.125 27.375 29.799 30.869 29.41"/><polygon points="35.733 24.205 31.352 28.423 29.672 25.274 32.806 22.257 35.733 24.205"/><polygon points="42.805 23.344 36.738 23.759 37.474 20.268 41.815 19.971 42.805 23.344"/><polygon points="48.774 27.231 43.86 23.649 46.669 21.448 50.185 24.011 48.774 27.231"/><polygon points="50.85 34.045 49.388 28.143 52.955 28.262 54 32.485 50.85 34.045"/><polygon points="48.06 40.6 50.734 35.138 53.389 37.522 51.476 41.429 48.06 40.6"/><polygon points="41.708 43.827 47.267 41.362 47.769 44.895 43.792 46.658 41.708 43.827"/><polygon points="34.768 42.217 40.611 43.902 38.725 46.931 34.544 45.725 34.768 42.217"/><polygon points="11.401 48.406 14.965 51.398 12.706 52.932 10.156 50.792 11.401 48.406"/><polygon points="10.172 43.097 10.98 47.68 8.264 47.402 7.686 44.124 10.172 43.097"/><polygon points="12.645 38.238 10.318 42.268 8.415 40.31 10.08 37.426 12.645 38.238"/><polygon points="17.662 36.106 13.289 37.697 13.091 34.974 16.219 33.835 17.662 36.106"/><polygon points="22.876 37.697 18.503 36.106 20.101 33.892 23.23 35.03 22.876 37.697"/><polygon points="25.847 42.268 23.52 38.238 26.167 37.569 27.832 40.452 25.847 42.268"/><polygon points="25.185 47.679 25.994 43.096 28.452 44.285 27.873 47.564 25.185 47.679"/><polygon points="21.2 51.399 24.764 48.408 25.883 50.899 23.332 53.039 21.2 51.399"/><polygon points="15.756 51.686 20.41 51.686 19.665 54.314 16.336 54.314 15.756 51.686"/></svg>